<svg width="94" height="16" viewBox="0 0 94 16" fill="none" xmlns="http://www.w3.org/2000/svg">
<g clip-path="url(#clip0_265_768)">
<mask id="mask0_265_768" style="mask-type:luminance" maskUnits="userSpaceOnUse" x="0" y="0" width="94" height="16">
<path d="M94 0H0V16H94V0Z" fill="white"/>
</mask>
<g mask="url(#mask0_265_768)">
<path d="M13.6825 15.8676L8.40471 0H5.30824L0 15.8676H2.84322L3.96016 12.4977H9.72292L10.8399 15.8676H13.6825ZM4.79787 9.84424L6.85647 3.58209L8.88742 9.84313L4.79787 9.84424ZM24.4953 13.5322V7.74762C24.5245 7.16798 24.3738 6.5935 24.064 6.10313C23.7121 5.63813 23.3034 5.21913 22.8475 4.85591C22.3025 4.47829 21.6562 4.27471 20.9935 4.27191H18.8105C18.1534 4.30627 17.5195 4.52727 16.983 4.9091C16.3088 5.44704 15.7478 6.11373 15.3325 6.87052L17.719 7.61353C17.8716 7.40132 18.4295 6.79129 18.7342 6.79129H20.9681C21.0226 6.79762 21.0748 6.81659 21.1207 6.84669C21.4454 7.05057 21.7224 7.32213 21.933 7.6429C21.9584 7.66949 21.9584 7.77588 21.9584 7.77588V8.67791H18.455C17.8006 8.68099 17.1628 8.88479 16.6275 9.2619C16.1865 9.61401 15.7862 10.0145 15.4342 10.4559C15.1188 10.9352 14.9591 11.5005 14.977 12.0744V12.552C14.959 13.1258 15.1188 13.6912 15.4342 14.1704C15.7842 14.6296 16.1845 15.0479 16.6275 15.4177C17.1628 15.7948 17.8006 15.9986 18.455 16.0017H20.5368C21.119 15.9553 21.6709 15.7221 22.1105 15.3368L22.2376 15.8676H24.7508L24.4953 13.5322ZM21.9567 12.4179C21.5311 12.8659 21.0223 13.2263 20.4588 13.479H18.4804C18.4269 13.4687 18.3754 13.45 18.3278 13.4236C17.9974 13.224 17.7259 12.94 17.541 12.6008C17.5285 12.5756 17.5199 12.5487 17.5155 12.521V12.0168C17.5199 11.989 17.5285 11.9621 17.541 11.937C17.7312 11.6035 17.9909 11.3149 18.3024 11.0909C18.3266 11.0701 18.3549 11.0544 18.3854 11.0449C18.4159 11.0353 18.4481 11.0321 18.4798 11.0355H21.9573L21.9567 12.4179ZM35.1566 4.93791C34.621 4.51325 33.9595 4.27932 33.2766 4.27302H31.7565C31.1496 4.35792 30.5829 4.62619 30.132 5.04208L30.0048 4.40489H27.5426L27.7455 6.76691V15.8676H30.2846V7.93379C30.5893 7.53541 31.2489 6.79295 31.8328 6.79295H33.2036C33.6857 6.79295 34.1939 7.37694 34.3459 7.58915L36.7065 6.84614C36.3297 6.1076 35.8022 5.4567 35.1582 4.93569M47.5203 13.5056V0H44.9823V4.8825C44.5575 4.52965 44.0344 4.3168 43.4844 4.27302H41.6564C41.0046 4.26679 40.3667 4.46137 39.8289 4.83042C39.3709 5.21116 38.9622 5.64784 38.6124 6.13028C38.2962 6.61877 38.1359 7.19219 38.1529 7.77421V12.4705C38.1386 13.0523 38.2978 13.6251 38.6102 14.1156C38.9602 14.5979 39.3689 15.0345 39.8267 15.4155C40.3603 15.796 40.9992 16.0002 41.6542 15.9994H43.4816C44.096 15.9514 44.6767 15.699 45.1316 15.2825L45.2334 15.8665H47.7216L47.5203 13.5056ZM44.9818 12.2866C44.65 12.6844 43.6873 13.4806 43.4075 13.4806H41.6818C41.6273 13.4743 41.5751 13.4553 41.5292 13.4252C41.2023 13.2029 40.9257 12.914 40.7175 12.5775C40.6984 12.5267 40.6897 12.4726 40.6921 12.4185V7.82741C40.6914 7.78199 40.7001 7.73692 40.7175 7.69498C40.9251 7.35016 41.2017 7.05211 41.5298 6.81954C41.5552 6.79295 41.6061 6.79295 41.6824 6.79295H43.4059C43.7106 6.79295 44.65 7.56256 44.9801 7.96038L44.9818 12.2866ZM54.8308 12.1802L52.2673 4.40434H49.4247L53.4611 15.867H56.1523L60.1124 4.40434H57.4213L54.8308 12.1802ZM70.6969 7.74762C70.726 7.16798 70.5753 6.59351 70.2656 6.10313C69.9137 5.63807 69.505 5.21906 69.0491 4.85591C68.5043 4.47847 67.8585 4.2749 67.1962 4.27191H65.0132C64.3558 4.3062 63.7218 4.5272 63.1851 4.9091C62.511 5.44765 61.9502 6.11489 61.5352 6.87218L63.9217 7.6152C64.0743 7.40299 64.6322 6.79295 64.9374 6.79295H67.1713C67.2256 6.79928 67.2777 6.81826 67.3234 6.84836C67.6481 7.05219 67.9251 7.32376 68.1356 7.64456C68.1611 7.67116 68.1611 7.77754 68.1611 7.77754V8.67957H64.6554C64.0009 8.68275 63.363 8.88653 62.8274 9.26357C62.3865 9.61584 61.9863 10.0163 61.6341 10.4576C61.3189 10.9369 61.1593 11.5023 61.1774 12.076V12.5537C61.1593 13.1274 61.3188 13.6928 61.6341 14.1721C61.9843 14.6311 62.3845 15.0494 62.8274 15.4193C63.363 15.7964 64.0009 16.0001 64.6554 16.0033H66.7372C67.3195 15.9569 67.8713 15.7237 68.3109 15.3384L68.4375 15.8692H70.9507L70.6969 13.5338V7.74762ZM68.1583 12.4179C67.7328 12.8658 67.2242 13.2263 66.6609 13.479H64.6808C64.6274 13.4687 64.5759 13.45 64.5282 13.4236C64.1978 13.2241 63.9262 12.9401 63.7414 12.6008C63.7289 12.5756 63.7204 12.5487 63.716 12.521V12.0168C63.7204 11.989 63.7289 11.9621 63.7414 11.937C63.9312 11.6022 64.1909 11.3125 64.5028 11.0876C64.5271 11.0667 64.5553 11.0511 64.5859 11.0415C64.6164 11.032 64.6485 11.0288 64.6803 11.0322H68.1577L68.1583 12.4179ZM81.3587 4.93791C80.823 4.51328 80.1616 4.27936 79.4787 4.27302H77.9553C77.349 4.35824 76.7829 4.6265 76.3324 5.04208L76.2052 4.40489H73.743L73.9465 6.76691V15.8676H76.485V7.93379C76.7897 7.53541 77.4494 6.79295 78.0333 6.79295H79.4024C79.8845 6.79295 80.3927 7.37694 80.5447 7.58915L82.9052 6.84614C82.5285 6.10759 82.001 5.45669 81.357 4.93569M93.7235 4.40434H90.5718C90.5972 4.40434 87.3227 8.54382 87.3227 8.54382H86.8405V0H84.302V15.8676H86.8405V11.0377H87.2978L90.7498 15.867H94L89.5068 9.76389L93.7235 4.40434Z" fill="black"/>
</g>
</g>
<defs>
<clipPath id="clip0_265_768">
<rect width="94" height="16" fill="white"/>
</clipPath>
</defs>
</svg>
