<svg width="39" height="17" viewBox="0 0 39 17" fill="none" xmlns="http://www.w3.org/2000/svg">
<g clip-path="url(#clip0_141_442)">
<mask id="mask0_141_442" style="mask-type:luminance" maskUnits="userSpaceOnUse" x="0" y="0" width="39" height="17">
<path d="M38.377 0.5H0V16.5H38.377V0.5Z" fill="white"/>
</mask>
<g mask="url(#mask0_141_442)">
<path d="M1.63006 15.8382C1.85986 15.8382 2.08977 15.8382 2.31957 15.8095C2.37703 15.8095 2.40541 15.752 2.40541 15.6658C2.40541 15.5797 2.34796 15.4935 2.26179 15.4648C2.03198 15.4361 1.83124 15.4073 1.60144 15.436C0.912035 15.436 0.480706 15.3786 0.279629 15.2924C0.107277 15.1775 0.0215499 14.9477 0.0215499 14.5455C-0.0359007 14.2583 0.107501 13.971 0.366029 13.8274C0.768184 13.7125 1.17011 13.6838 1.57227 13.7125C1.91697 13.7125 2.29074 13.7125 2.63544 13.7699C2.98014 13.8274 3.15216 14.1434 3.15216 14.6605H2.31957C2.31957 14.5168 2.29062 14.4306 2.23317 14.4019C2.00337 14.3732 1.80207 14.3445 1.57227 14.3732C1.34247 14.3732 1.14172 14.3732 0.911922 14.4019C0.854472 14.4019 0.825522 14.4593 0.825522 14.5455C0.825522 14.6317 0.882973 14.7179 0.969149 14.7179C1.17023 14.7466 1.37119 14.7754 1.57227 14.7467C2.26168 14.7467 2.693 14.8041 2.89408 14.919C3.09516 15.0339 3.18133 15.2637 3.18133 15.6658C3.18133 16.0393 3.0661 16.2691 2.83629 16.3552C2.40541 16.4701 1.97453 16.4989 1.54365 16.4702C1.19895 16.4702 0.882973 16.4701 0.538269 16.4414C0.337192 16.4414 0.165064 16.3553 0.050163 16.1829C-0.0647383 15.9818 -0.0935758 15.752 -0.0648505 15.5222H0.768296C0.768296 15.6658 0.796684 15.752 0.854135 15.7807C1.14139 15.8382 1.37153 15.8669 1.63006 15.8382Z" fill="white"/>
<path d="M8.26518 15.12C8.26518 15.7807 8.17878 16.1828 8.03515 16.2977C7.8628 16.4414 7.34619 16.4988 6.48443 16.4988C6.08228 16.4988 5.65117 16.4988 5.24902 16.4414C5.04794 16.4126 4.84698 16.269 4.78953 16.0679C4.73207 15.7519 4.70312 15.4359 4.70312 15.12C4.70312 14.4593 4.78953 14.0572 4.93315 13.9423C5.1055 13.7986 5.62267 13.7412 6.48443 13.7412C7.34619 13.7412 7.8628 13.7986 8.03515 13.9423C8.17878 14.0572 8.26518 14.4593 8.26518 15.12ZM5.50766 15.12C5.50766 15.4647 5.5365 15.6658 5.62267 15.7232C6.16845 15.8381 6.74262 15.8381 7.2884 15.7232C7.37458 15.6658 7.40342 15.4647 7.40342 15.12C7.40342 14.7753 7.37458 14.5742 7.2884 14.5168C6.74262 14.4019 6.16845 14.4019 5.62267 14.5168C5.56522 14.5742 5.50766 14.7753 5.50766 15.12Z" fill="white"/>
<path d="M9.67236 16.4698V13.7695H12.5449V14.459H10.5055V14.9185H12.4299V15.608H10.5055V16.441L9.67236 16.4698Z" fill="white"/>
<path d="M13.9824 14.459V13.7695H17.1994V14.459H16.0218V16.4698H15.1887V14.459H13.9824Z" fill="white"/>
<path d="M24.1789 13.7695L23.1449 16.4698H21.8809L21.4214 14.8037C21.3926 14.8037 21.3351 14.8037 21.3063 14.8037L20.8469 16.4698H19.5828L18.5488 13.7695H19.4392L20.1859 15.7516H20.2723L20.8755 13.7695H21.8809L22.484 15.7516H22.5704L23.3171 13.7695H24.1789Z" fill="white"/>
<path d="M26.1615 13.7695H27.5977L28.919 16.4698H27.9422L27.6836 16.0101H26.0464L25.7878 16.4698H24.811L26.1615 13.7695ZM26.9368 14.3728H26.8218L26.3623 15.3207H27.3963L26.9368 14.3728Z" fill="white"/>
<path d="M30.2686 13.7699H32.6816C32.9114 13.7411 33.141 13.7986 33.3133 13.9423C33.457 14.1146 33.5435 14.3444 33.5147 14.5742C33.5147 14.7465 33.4858 14.9189 33.4283 15.0913C33.3709 15.2062 33.256 15.2923 33.1411 15.3498C33.256 15.3785 33.3709 15.4647 33.4283 15.5508C33.4858 15.6657 33.5147 15.7807 33.5147 15.8956V16.4988H32.6816V16.0105C32.6816 15.953 32.6531 15.8955 32.6244 15.8381C32.5669 15.7806 32.4804 15.752 32.423 15.752H31.1017V16.4988H30.2686V13.7699ZM31.1017 14.4593V15.0051H32.423C32.4804 15.0051 32.5669 15.0051 32.6244 14.9476C32.7105 14.804 32.7105 14.6604 32.6244 14.5168C32.5669 14.4593 32.5091 14.4593 32.423 14.4593H31.1017Z" fill="white"/>
<path d="M35.0664 16.4698V13.7695H37.9676V14.4302H35.899V14.8037H37.8811V15.4644H35.899V15.8377H37.9676V16.4984L35.0664 16.4698Z" fill="white"/>
<path d="M33.8885 11.3568H31.5619C31.4757 11.3568 31.4183 11.2706 31.4183 11.1844C31.4183 8.42676 31.4183 5.69787 31.4183 2.94024C31.4183 2.71044 31.4186 2.71043 31.1888 2.71043C29.8674 2.71043 28.5459 2.71043 27.2245 2.71043C27.1096 2.71043 27.081 2.6817 27.0522 2.5668C27.0522 1.93484 27.0522 1.30293 27.0522 0.67097C27.0522 0.584794 27.0811 0.527344 27.1673 0.527344H38.2551C38.3413 0.527344 38.3701 0.584794 38.3701 0.67097C38.3701 1.30293 38.3701 1.93484 38.3701 2.5668C38.3414 2.6817 38.3122 2.71043 38.1973 2.71043C36.8472 2.71043 35.5259 2.71043 34.1758 2.71043C34.0034 2.71043 34.0035 2.71045 34.0035 2.88281C34.0035 5.64044 34.0035 8.39808 34.0035 11.1557C34.0323 11.2132 33.9747 11.2993 33.8885 11.3568Z" fill="white"/>
<path d="M23.6902 0.499023C25.069 0.499023 25.7872 1.10226 25.816 2.50979C25.816 2.91195 25.816 3.3428 25.816 3.77368C25.7872 3.85985 25.7012 3.85987 25.6437 3.85987C24.9543 3.85987 24.2651 3.85987 23.5757 3.85987C23.4321 3.85987 23.3743 3.80243 23.3743 3.6588C23.3743 3.37155 23.3743 3.11305 23.3743 2.8258C23.3743 2.68217 23.3456 2.68217 23.2307 2.68217C21.1337 2.68217 19.0081 2.68217 16.9111 2.68217C16.7675 2.68217 16.7675 2.71085 16.7675 2.85448C16.7675 4.86525 16.7675 6.87602 16.7675 8.8868C16.7675 9.03042 16.7674 9.05918 16.9397 9.05918C19.0367 9.05918 21.1337 9.05918 23.2307 9.05918C23.3743 9.05918 23.4029 9.05915 23.4029 8.8868C23.4029 8.34102 23.4029 7.76649 23.4029 7.22071C23.4029 7.07709 23.403 7.0484 23.2307 7.0484C22.1966 7.0484 21.1623 7.0484 20.0995 7.0484C19.7835 7.0484 19.755 7.01969 19.755 6.70371C19.755 6.18666 19.755 5.69831 19.755 5.18126C19.755 4.98018 19.8126 4.92269 20.0137 4.92269C21.8808 4.92269 23.7766 4.92269 25.6437 4.92269C25.7586 4.92269 25.8446 4.95141 25.8446 5.06632C25.8158 6.61748 25.8734 8.16868 25.816 9.69112C25.7011 10.8975 24.9256 11.3858 23.7766 11.3858C21.22 11.3858 19.0079 11.3858 16.3652 11.3858C14.8428 11.3858 14.2108 10.4093 14.2108 9.2028V2.68217C14.1821 1.27464 14.8717 0.527777 16.308 0.527777C18.7496 0.527777 21.2198 0.527749 23.6902 0.499023Z" fill="white"/>
<path d="M13.3208 11.1845C13.3208 11.0984 13.2925 11.0122 13.235 10.9547C12.9478 10.4089 12.6891 9.89188 12.4019 9.37483C11.8848 8.39816 11.3962 7.42152 10.8792 6.44486C10.477 5.698 10.1037 4.95117 9.70157 4.17558C9.24196 3.31383 8.81131 2.42331 8.3517 1.56155C8.17935 1.24557 8.03539 0.958335 7.86303 0.642357C7.83431 0.556181 7.74836 0.49873 7.66218 0.49873H5.5364C5.4215 0.470005 5.36382 0.556209 5.30637 0.67111C4.99039 1.27434 4.67475 1.90627 4.35877 2.5095C3.78427 3.62979 3.23837 4.72138 2.66387 5.84167C2.31916 6.53107 1.94596 7.24915 1.60125 7.93856C1.11292 8.88649 0.624593 9.83447 0.164988 10.7824C0.107538 10.8973 0.0496381 11.041 -0.0078125 11.1559V11.2133C-0.0078125 11.2707 0.0497503 11.2994 0.107201 11.3282H2.37661C2.46279 11.2994 2.4914 11.242 2.54885 11.1559C2.86483 10.4952 3.18103 9.8632 3.49701 9.20252C3.52574 9.08761 3.64075 9.03016 3.75565 9.05889C5.59407 9.05889 7.40365 9.05889 9.24207 9.05889C9.35698 9.05889 9.47188 9.1163 9.52933 9.2312C9.84531 9.89188 10.1609 10.5239 10.4769 11.1559C10.5057 11.242 10.5636 11.2994 10.6497 11.3282H13.235C13.3212 11.3282 13.3208 11.242 13.3208 11.1845ZM4.61741 6.84705L6.51317 2.96914L8.38031 6.84705H4.61741Z" fill="white"/>
</g>
</g>
<defs>
<clipPath id="clip0_141_442">
<rect width="39" height="16" fill="white" transform="translate(0 0.5)"/>
</clipPath>
</defs>
</svg>
