<svg width="403" height="108" viewBox="0 0 403 108" fill="none" xmlns="http://www.w3.org/2000/svg">
<path fill-rule="evenodd" clip-rule="evenodd" d="M359.186 52.2006L396.726 8.94299C398.979 6.66224 398.114 4.52832 395.17 4.52832H378.7C373.816 4.52429 369.042 8.23381 365.916 11.6753C360.102 18.2453 357.45 26.316 354.757 34.5105C353.894 37.1364 353.027 39.7754 352.05 42.3814C355.822 44.2712 358.558 47.8978 359.186 52.2006ZM361.262 37.5533L361.265 37.5247V37.5235C361.433 35.3095 361.602 33.0917 361.874 30.8771C362.907 23.7983 365.433 17.2395 370.213 11.8294C368.055 16.0541 366.235 20.4838 365.168 25.1142L371.771 17.9096L364.61 27.8813C364.416 28.9512 364.251 30.026 364.117 31.1058L371.875 22.5092L363.791 33.6433C363.791 33.6433 363.475 36.6649 363.469 36.7286L372.472 26.6156L363.148 39.2013C362.997 40.3487 362.798 41.4897 362.567 42.6238L372.539 31.2967L361.748 45.708C361.162 47.634 360.342 49.4833 359.303 51.2134C360.564 46.7209 360.913 42.1457 361.262 37.5533ZM333.067 56.4646L295.468 99.7835C293.254 102.227 294.574 104.14 297.066 104.155H312.436C317.885 104.16 322.731 100.959 326.321 97.0085C332.197 90.3673 334.972 82.0193 337.754 73.6508C338.611 71.0721 339.469 68.4915 340.419 65.9582C336.635 64.1779 333.839 60.671 333.067 56.4646ZM326.026 87.4036C324.92 90.644 323.583 93.8018 322.023 96.8543C326.387 91.9151 328.965 85.9478 330.102 79.4979C330.551 76.6515 330.774 73.7824 330.997 70.9157L330.998 70.9005C331.349 66.3848 331.699 61.8754 332.933 57.4703C331.896 59.2004 331.074 61.0497 330.49 62.9758L319.697 77.387L329.669 66.06C329.588 66.4647 329.185 68.7466 329.089 69.4824L319.765 82.0682L328.767 71.9551C328.761 72.0178 328.444 75.0494 328.444 75.0494L320.361 86.1746L328.12 77.578C327.985 78.6578 327.821 79.7326 327.627 80.8014L320.465 90.7742L327.068 83.5695C326.77 84.8651 326.435 86.1447 326.026 87.4036ZM342.952 66.8486L348.263 76.9227C348.76 78.0274 349.598 78.5793 350.779 78.5793H362.332C363.873 78.5793 365.258 76.8138 364.568 75.3587L357.339 61.0155C355.005 64.7399 350.84 67.2194 346.09 67.2194C345.008 67.2194 343.958 67.091 342.952 66.8486ZM335.293 51.9247L326.25 33.9798C325.749 32.4833 326.799 30.7592 328.486 30.7592H340.04C341.22 30.7592 342.059 31.3121 342.556 32.4157L348.398 43.4971C353.344 44.555 357.049 48.9021 357.049 54.1032C357.049 60.0969 352.129 64.956 346.06 64.956C339.992 64.956 335.071 60.0969 335.071 54.1032C335.071 53.3576 335.148 52.6287 335.293 51.9247ZM346.088 58.3384C348.461 58.3384 350.385 56.4405 350.385 54.0993C350.385 51.7581 348.461 49.8603 346.088 49.8603C343.715 49.8603 341.791 51.7581 341.791 54.0993C341.791 56.4405 343.715 58.3384 346.088 58.3384ZM135.309 23.3573C135.68 23.7886 136.206 24.0043 136.886 24.0043H148.481C149.161 24.0043 149.78 23.7886 150.336 23.3573C150.893 22.8644 151.202 22.279 151.264 21.6012L153.212 13.0053C153.335 12.3275 153.212 11.7729 152.841 11.3416C152.47 10.8486 151.944 10.6021 151.264 10.6021H139.669C139.051 10.6021 138.432 10.8486 137.814 11.3416C137.257 11.7729 136.917 12.3275 136.793 13.0053L134.938 21.6012C134.814 22.279 134.938 22.8644 135.309 23.3573ZM123.622 78.0749C123.993 78.5064 124.518 78.7221 125.199 78.7221H136.793C137.474 78.7221 138.061 78.5064 138.556 78.0749C139.112 77.6437 139.453 77.0893 139.576 76.4114L148.852 32.9699C148.976 32.292 148.852 31.7374 148.481 31.3061C148.172 30.8749 147.677 30.659 146.997 30.659H135.402C134.722 30.659 134.103 30.9056 133.547 31.3986C132.99 31.8298 132.65 32.3535 132.526 32.9699L123.343 76.4114C123.22 77.0276 123.312 77.5822 123.622 78.0749ZM7.4638 78.2594C7.77299 78.5675 8.20588 78.7217 8.76242 78.7217H19.9039C21.3881 78.7217 22.563 78.0438 23.4288 76.6884L28.2806 67.7226H56.879L58.6492 76.5035C58.8964 77.9824 59.5293 78.7217 61.199 78.7217L72.3707 78.9066C73.0508 78.9066 73.6075 78.6602 74.0404 78.1673C74.4733 77.6743 74.6588 76.9964 74.5968 76.1337L62.7927 16.3148C62.5452 14.5278 61.4939 13.6344 59.6388 13.6344H44.7117C42.9183 13.6344 41.496 14.5278 40.4447 16.3148L7.27829 75.9488C7.09278 76.3186 7 76.6574 7 76.9655C7 77.4584 7.15462 77.8899 7.4638 78.2594ZM55.2253 54.0431L35.7123 54.0429L50.2158 28.0335L55.2253 54.0431ZM86.9668 78.7221C86.1009 78.7221 85.4826 78.5372 85.1116 78.1674C84.8024 77.7361 84.555 77.1507 84.3695 76.4114L75.7963 33.3394C75.6726 32.5384 75.7964 31.8915 76.1675 31.3986C76.6004 30.9056 77.2806 30.659 78.2081 30.659H87.6559C88.4597 30.659 89.0164 30.8439 89.3256 31.2137C89.6965 31.5835 89.975 32.1071 90.1604 32.785L95.9016 60.8461L110.241 32.6001C110.983 31.3061 112.003 30.659 113.17 30.659H124.626C125.182 30.659 125.615 30.8132 125.924 31.1213C126.234 31.3679 126.388 31.7374 126.388 32.2304C126.388 32.6001 126.234 33.0314 125.924 33.5243L103.362 76.4114C102.867 77.1508 102.342 77.7362 101.785 78.1674C101.29 78.5372 100.61 78.7221 99.7445 78.7221H86.9668ZM154.294 75.4867C157.139 78.2595 160.498 79.646 165.693 79.646C168.97 79.646 172.087 79.153 173.855 78.1671C176.02 77.1197 178.58 75.5791 180.745 73.5458L180.095 76.4111C179.972 77.0273 180.095 77.5819 180.466 78.0746C180.837 78.5061 181.363 78.7218 182.043 78.7218H193.082C193.7 78.7218 194.288 78.5061 194.844 78.0746C195.401 77.6434 195.741 77.089 195.864 76.4111L205.14 32.9696C205.264 32.3532 205.14 31.8295 204.769 31.3983C204.398 30.9053 203.872 30.6587 203.192 30.6587H192.247C191.567 30.6587 190.948 30.8746 190.392 31.3058C189.897 31.7371 189.588 32.2917 189.464 32.9696L188.907 35.2802C187.609 33.4933 185.97 32.1376 183.991 31.2134C182.012 30.2274 178.895 29.7345 175.432 29.7345C169.186 29.7345 164.714 31.6446 160.694 35.4651C156.675 39.2239 153.768 44.5231 151.975 51.3628L150.584 57.9252C150.274 59.5273 150.12 61.3759 150.12 63.471C150.12 68.6469 151.511 72.6523 154.294 75.4867ZM179.935 64.303C178.265 65.9665 175.278 66.7985 172.557 66.7985C170.454 66.7985 168.97 66.2748 168.104 65.2272C167.239 64.1795 166.806 62.6699 166.806 60.6981C166.806 59.7122 166.898 58.6648 167.084 57.5557C167.27 55.8302 167.671 53.9201 168.29 51.825C169.155 48.929 170.361 46.6798 171.907 45.0777C173.453 43.414 175.952 42.5822 178.611 42.5822C180.775 42.5822 182.748 43.1366 183.738 44.2457C184.727 45.3551 185.222 46.8647 185.222 48.7748C185.222 49.2061 185.16 49.9149 185.037 50.9006C184.727 52.9341 184.233 55.2448 183.553 57.8328C182.872 60.4207 181.666 62.5775 179.935 64.303ZM214.894 65.782C214.894 74.4087 220.675 78.7219 232.239 78.7219H240.124C240.742 78.7219 241.33 78.5063 241.886 78.0748C242.443 77.6435 242.783 77.0891 242.907 76.4113L244.762 67.9078C244.886 67.2299 244.762 66.6755 244.391 66.244C244.082 65.751 243.587 65.5047 242.907 65.5047H235.393C233.971 65.5047 232.951 65.2273 232.332 64.6727C231.776 64.1182 231.497 63.2555 231.497 62.0847C231.497 61.0373 231.621 59.9896 231.869 58.9423L235.208 43.2292H247.67C248.288 43.2292 248.876 43.0136 249.432 42.5824C249.989 42.1509 250.329 41.5964 250.452 40.9186L252.122 32.9697C252.246 32.2919 252.122 31.7372 251.751 31.306C251.442 30.8747 250.947 30.6588 250.267 30.6588H237.898L241.144 15.4082C241.268 14.792 241.144 14.2682 240.773 13.8369C240.464 13.3439 239.969 13.0975 239.289 13.0975H227.88C227.261 13.0975 226.674 13.3131 226.117 13.7445C225.561 14.1758 225.221 14.7304 225.097 15.4082L221.85 30.6588H214.523C213.842 30.6588 213.224 30.9055 212.667 31.3984C212.111 31.8297 211.771 32.3534 211.647 32.9697L209.938 40.9186C209.752 41.5347 209.845 42.0894 210.216 42.5824C210.587 43.0136 211.113 43.2292 211.793 43.2292H219.16L215.543 60.3287C215.11 62.2388 214.894 64.0565 214.894 65.782ZM251.286 78.0749C251.657 78.5064 252.183 78.7221 252.863 78.7221H264.183C264.862 78.7221 265.482 78.5064 266.037 78.0749C266.595 77.6437 266.935 77.0893 267.059 76.4114L272.068 53.1193C272.561 50.6545 273.612 48.7444 275.221 47.3887C276.828 46.033 278.869 45.3554 281.343 45.3554H290.713C291.393 45.3554 292.01 45.1395 292.568 44.7083C293.123 44.2153 293.433 43.6606 293.495 43.0445L295.627 32.9699C295.751 32.292 295.627 31.7374 295.258 31.3061C294.948 30.8749 294.484 30.659 293.865 30.659H288.487C285.271 30.659 282.548 31.1829 280.324 32.2303C278.098 33.2162 276.178 34.6644 274.572 36.5745L275.313 33.0623C275.437 32.3845 275.313 31.8298 274.944 31.3986C274.634 30.9056 274.138 30.659 273.458 30.659H263.066C262.387 30.659 261.767 30.9056 261.212 31.3986C260.654 31.8298 260.314 32.3845 260.19 33.0623L251.008 76.4114C250.884 77.0276 250.977 77.5822 251.286 78.0749ZM305.762 23.3573C306.131 23.7886 306.657 24.0043 307.339 24.0043H318.933C319.612 24.0043 320.232 23.7886 320.787 23.3573C321.345 22.8644 321.653 22.279 321.715 21.6012L323.664 13.0053C323.787 12.3275 323.664 11.7729 323.292 11.3416C322.922 10.8486 322.397 10.6021 321.715 10.6021H310.121C309.503 10.6021 308.883 10.8486 308.266 11.3416C307.708 11.7729 307.368 12.3275 307.244 13.0053L305.39 21.6012C305.266 22.279 305.39 22.8644 305.762 23.3573ZM293.883 77.6931C293.985 77.9592 294.158 78.1978 294.39 78.3632C294.725 78.6025 295.146 78.7221 295.652 78.7221H301.551C303.199 78.7221 304.766 78.0089 305.849 76.7663L310.319 71.6352C310.954 70.906 311.393 70.0272 311.595 69.0814L319.306 32.9699C319.43 32.292 319.306 31.7374 318.934 31.3061C318.624 30.8749 318.131 30.659 317.449 30.659H305.855C305.175 30.659 304.555 30.9056 304 31.3986C303.442 31.8298 303.102 32.3535 302.979 32.9699L293.797 76.4114C293.704 76.8733 293.732 77.3006 293.883 77.6931Z" fill="black"/>
</svg>
