<svg width="106" height="25" viewBox="0 0 106 25" fill="none" xmlns="http://www.w3.org/2000/svg">
<path d="M55.4023 1.16979C55.3691 0.873938 55.1276 0.654785 54.8312 0.654785H47.921C47.6246 0.654785 47.3826 0.884902 47.3499 1.16979L45.3285 23.7098C45.2955 24.0385 45.5592 24.3344 45.8997 24.3344H49.2065C49.5029 24.3344 49.7555 24.1043 49.7776 23.7975L49.9864 20.7512C49.9975 20.6088 50.1072 20.4992 50.2501 20.4992H52.4911C52.634 20.4992 52.7437 20.6088 52.7547 20.7512L52.9635 23.7975C52.9857 24.0933 53.2382 24.3344 53.5346 24.3344H56.8524C57.193 24.3344 57.4567 24.0495 57.4235 23.7098L55.4023 1.16979ZM50.6017 16.7188C50.4478 16.7188 50.327 16.5873 50.3381 16.4339L51.1618 5.36662C51.1728 5.27894 51.2387 5.22413 51.3157 5.22413H51.4254C51.5135 5.22413 51.5794 5.28991 51.5794 5.36662L52.4031 16.4339C52.4141 16.5873 52.2933 16.7188 52.1394 16.7188H50.6017Z" fill="#040504"/>
<path d="M100.752 1.16979C100.73 0.873938 100.477 0.654785 100.18 0.654785H93.2704C92.9736 0.654785 92.7321 0.884902 92.6993 1.16979L90.6888 23.7098C90.656 24.0385 90.9197 24.3344 91.2599 24.3344H94.5666C94.8634 24.3344 95.116 24.1043 95.1381 23.7975L95.3469 20.7512C95.3575 20.6088 95.4677 20.4992 95.6106 20.4992H97.8516C97.994 20.4992 98.1042 20.6088 98.1152 20.7512L98.3236 23.7975C98.3457 24.0933 98.5983 24.3344 98.8951 24.3344H102.202C102.542 24.3344 102.806 24.0495 102.773 23.7098L100.752 1.16979ZM95.9507 16.7188C95.7972 16.7188 95.6765 16.5873 95.6871 16.4339L96.5112 5.36662C96.5223 5.27894 96.5882 5.22413 96.6652 5.22413H96.7749C96.8629 5.22413 96.9288 5.28991 96.9288 5.36662L97.7525 16.4339C97.7636 16.5873 97.6428 16.7188 97.4889 16.7188H95.9507Z" fill="#040504"/>
<path d="M23.863 14.5601V19.4582C23.863 19.6006 23.9838 19.7212 24.1266 19.7212H27.8837C28.2023 19.7212 28.4549 19.9732 28.4549 20.291V23.7536C28.4549 24.0714 28.2023 24.3234 27.8837 24.3234H19.9521C19.6335 24.3234 19.3809 24.0714 19.3809 23.7536V1.2246C19.3809 0.906806 19.6335 0.654785 19.9521 0.654785H27.8837C28.2023 0.654785 28.4549 0.9068 28.4549 1.2246V4.66528C28.4549 4.98308 28.2023 5.23509 27.8837 5.23509H24.1266C23.9838 5.23509 23.863 5.35564 23.863 5.49808V10.2209C23.863 10.3633 23.9838 10.4838 24.1266 10.4838H27.1257C27.4443 10.4838 27.697 10.7359 27.697 11.0536V13.7273C27.697 14.0451 27.4443 14.2971 27.1257 14.2971H24.1266C23.9838 14.2971 23.863 14.4177 23.863 14.5601Z" fill="#040504"/>
<path d="M70.5299 0.654785H60.7195C60.401 0.654785 60.1484 0.9068 60.1484 1.2246V4.66528C60.1484 4.98308 60.401 5.23509 60.7195 5.23509H63.1256C63.2684 5.23509 63.3892 5.35564 63.3892 5.49808V23.7646C63.3892 24.0823 63.6418 24.3344 63.9603 24.3344H67.2891C67.6076 24.3344 67.8602 24.0823 67.8602 23.7646V5.48711C67.8602 5.34467 67.981 5.22413 68.1239 5.22413H70.5299C70.8484 5.22413 71.101 4.97211 71.101 4.65436V1.2246C71.101 0.906806 70.8484 0.654785 70.5299 0.654785Z" fill="#040504"/>
<path d="M41.2533 19.7212H37.8588C37.716 19.7212 37.5952 19.6006 37.5952 19.4582V1.2246C37.5952 0.906806 37.3425 0.654785 37.0239 0.654785H33.6953C33.3767 0.654785 33.124 0.9068 33.124 1.2246V23.7646C33.124 24.0823 33.3767 24.3344 33.6953 24.3344H41.2533C41.5719 24.3344 41.8246 24.0823 41.8246 23.7646V20.3019C41.8246 19.9842 41.5719 19.7212 41.2533 19.7212Z" fill="#040504"/>
<path d="M84.1744 13.1465V13.0041C84.1744 12.9384 84.2186 12.8836 84.2735 12.8617C85.471 12.4014 86.3168 11.2399 86.3168 9.89211V4.96114C86.3278 2.58333 84.3943 0.654785 82.0104 0.654785H75.9685C75.6496 0.654785 75.397 0.9068 75.397 1.2246V23.7646C75.397 24.0823 75.6496 24.3344 75.9685 24.3344H79.2969C79.6154 24.3344 79.8684 24.0823 79.8684 23.7646V15.5573C79.8684 15.4148 79.9892 15.2943 80.1321 15.2943H80.912C81.4393 15.2943 81.8675 15.7216 81.8675 16.2476V23.7755C81.8675 24.0933 82.1201 24.3453 82.439 24.3453H85.7674C86.0859 24.3453 86.3389 24.0933 86.3389 23.7755V16.2805C86.3389 14.9217 85.4927 13.7711 84.2956 13.3109C84.2186 13.2671 84.1744 13.2123 84.1744 13.1465ZM81.8564 10.5167C81.8564 11.0427 81.4282 11.47 80.9009 11.47H80.121C79.9781 11.47 79.8573 11.3495 79.8573 11.207V5.48711C79.8573 5.34466 79.9781 5.22412 80.121 5.22412H80.9009C81.4282 5.22412 81.8564 5.65149 81.8564 6.17747V10.5167Z" fill="#040504"/>
<path d="M14.844 4.96114C14.844 2.58333 12.9106 0.654785 10.5157 0.654785H4.4736C4.15502 0.654785 3.90234 0.9068 3.90234 1.2246V23.7646C3.90234 24.0823 4.15501 24.3344 4.4736 24.3344H11.812C13.4818 24.3344 14.833 22.9866 14.833 21.321V15.5901C14.833 14.2314 13.9871 13.0808 12.7897 12.6206C12.7238 12.5987 12.6908 12.5439 12.6908 12.4781V12.3357C12.6908 12.27 12.7348 12.2152 12.7897 12.1933C13.9871 11.733 14.833 10.5715 14.833 9.2237L14.844 4.96114ZM10.3729 18.7788C10.3729 19.3048 9.94444 19.7322 9.41714 19.7322H8.63716C8.49432 19.7322 8.37351 19.6116 8.37351 19.4692V14.5711C8.37351 14.4286 8.49432 14.3081 8.63716 14.3081H9.41714C9.94444 14.3081 10.3729 14.7354 10.3729 15.2614V18.7788ZM10.3729 9.53052C10.3729 10.0565 9.94444 10.4838 9.41714 10.4838H8.63716C8.49432 10.4838 8.37351 10.3633 8.37351 10.2209V5.48711C8.37351 5.34467 8.49432 5.22413 8.63716 5.22413H9.41714C9.94444 5.22413 10.3729 5.6515 10.3729 6.17748V9.53052Z" fill="#040504"/>
</svg>
