<svg width="148" height="24" viewBox="0 0 148 24" fill="none" xmlns="http://www.w3.org/2000/svg">
<g clip-path="url(#clip0_330_643)">
<mask id="mask0_330_643" style="mask-type:luminance" maskUnits="userSpaceOnUse" x="0" y="0" width="148" height="24">
<path d="M147.789 0H0V24H147.789V0Z" fill="white"/>
</mask>
<g mask="url(#mask0_330_643)">
<path fill-rule="evenodd" clip-rule="evenodd" d="M58.2336 5.53791C58.8085 5.81833 59.3199 6.21828 59.7351 6.71218C61.1286 8.74787 61.1286 12.2053 60.3323 14.4426C58.9388 19.3235 53.168 19.1183 49.3872 17.6966V0.813921L52.7698 0V6.5087H52.9689C53.4118 6.0406 53.9453 5.67208 54.5354 5.4267C55.1255 5.18131 55.7592 5.06446 56.396 5.08361C57.0327 5.10276 57.6586 5.25749 58.2336 5.53791ZM53.7653 15.8643C54.7615 15.8643 56.1525 15.8643 56.7497 14.8478C57.7451 13.4244 57.7451 10.373 57.1479 9.15305C56.8159 8.81387 56.3973 8.57681 55.9399 8.46889C55.4825 8.36096 55.0046 8.38651 54.5607 8.54261C54.1803 8.70982 53.8406 8.96045 53.5655 9.27677C53.2904 9.59308 53.0868 9.96734 52.9689 10.373V15.6609C53.0514 15.6609 53.1339 15.6958 53.2305 15.7367C53.3671 15.7945 53.532 15.8643 53.7653 15.8643ZM72.6691 15.2548C72.6235 15.2548 72.5883 15.2548 72.5588 15.2572L72.6691 15.2548ZM72.4692 15.2807V15.2592L72.5588 15.2572C72.5339 15.2593 72.513 15.2631 72.4932 15.2702C72.4851 15.2731 72.4771 15.2765 72.4692 15.2807ZM72.4692 15.2807V18.1026C71.043 18.5049 69.5706 18.7102 68.0911 18.713C66.6799 18.8056 65.2856 18.3563 64.1815 17.4532C63.0774 16.55 62.343 15.2581 62.1222 13.8304V12.6104C61.9187 9.56088 62.9176 6.50868 65.7039 5.49572C68.0911 4.47921 71.8719 4.88972 72.8673 7.73311C73.0958 8.45775 73.2297 9.21005 73.2655 9.97051V12.8139H65.5048V13.4243C65.903 15.4583 68.092 16.0687 69.8828 15.8652C70.6937 15.846 71.4978 15.709 72.2709 15.4583C72.3699 15.3571 72.4197 15.3062 72.4692 15.2807ZM70.281 10.5774C70.4801 8.54348 69.0874 7.11912 67.0974 7.93304C66.1029 8.34 65.7039 9.55999 65.5048 10.5774H70.281ZM80.6288 15.4583C78.6389 16.0688 78.2407 15.2548 78.2407 13.2209V7.93311H80.6288V5.08971H78.2407V0.813965C77.842 0.915853 77.1939 1.11978 76.5462 1.32355C75.9005 1.52674 75.2552 1.72977 74.8581 1.83137V14.8488C74.659 18.7131 77.64 19.3236 80.6288 18.5096V15.4583ZM125.005 18.9154V14.6441L125.002 14.6406C124.934 14.0146 124.913 13.222 124.89 12.385C124.846 10.7744 124.798 8.99896 124.405 7.92839C124.355 7.1911 124.046 6.49713 123.535 5.97454C123.024 5.45194 122.345 5.136 121.623 5.085C119.629 4.88152 117.842 5.49196 116.847 7.3224C115.852 4.0676 111.273 4.67804 109.882 7.11892V5.08411L106.896 5.89803V18.712H110.281V9.76238C110.333 9.38221 110.492 9.02574 110.739 8.73672C110.986 8.4477 111.31 8.23872 111.672 8.13543C112.47 7.93195 113.463 7.93195 113.861 8.74587C114.349 9.90855 114.305 12.1572 114.273 13.8287C114.266 14.2033 114.259 14.5497 114.259 14.8476V18.712H117.644V9.96586C117.726 9.59817 117.896 9.25702 118.139 8.97305C118.382 8.68909 118.69 8.47118 119.035 8.33891C119.833 8.13543 120.826 8.13543 121.224 8.94935C121.716 9.95376 121.668 12.3386 121.636 13.9434C121.629 14.2879 121.622 14.5964 121.622 14.8476V18.9154H125.005ZM89.1876 5.08545H90.5786C91.6707 5.21108 92.7416 5.48479 93.763 5.89937V18.5116C93.763 20.1385 93.5639 21.3585 92.7676 22.1725C92.7676 22.2982 92.6916 22.3462 92.5865 22.4126C92.5215 22.4537 92.4455 22.5017 92.3695 22.5794C91.8029 23.0925 91.1405 23.483 90.4223 23.7273C89.7041 23.9717 88.9449 24.0648 88.1905 24.0011C87.191 24.0577 86.1884 23.9894 85.2051 23.7976C85.1056 23.7976 84.9563 23.7468 84.807 23.6959C84.6577 23.645 84.5084 23.5941 84.4088 23.5941V20.5402C84.8891 20.6071 85.3576 20.7441 85.7998 20.9471C86.4477 21.1257 87.12 21.1945 87.7897 21.1506C88.6588 21.2054 89.5148 20.9136 90.1778 20.3367C90.3721 20.158 90.526 19.9383 90.6292 19.6929C90.7323 19.4474 90.7821 19.182 90.7751 18.915V17.288H90.5751C90.199 17.7374 89.7216 18.0865 89.1842 18.3054H88.9851C88.1143 18.727 87.1297 18.8359 86.1909 18.6145C85.252 18.3931 84.4137 17.8544 83.8116 17.0854C83.7083 17.0784 83.6109 17.0332 83.5377 16.9584C83.4645 16.8835 83.4203 16.7841 83.4134 16.6785C83.0299 15.9102 82.7614 15.0874 82.6171 14.2376V13.0176C82.5415 11.7159 82.6761 10.4104 83.0152 9.15328C83.815 6.30544 86.4057 5.08545 89.1876 5.08545ZM89.982 15.1313C90.2571 14.815 90.4607 14.4407 90.5786 14.035L90.376 14.0341V8.54284C90.2765 8.54284 90.1769 8.49197 90.0774 8.4411C89.9779 8.39023 89.8783 8.33936 89.7788 8.33936H89.3806C88.3896 8.33936 87.196 8.33936 86.5987 9.35676C85.6033 10.7802 85.6033 14.035 86.3996 15.255C86.7317 15.5942 87.1502 15.8313 87.6076 15.9392C88.065 16.0471 88.5429 16.0216 88.9868 15.8655C89.3672 15.6983 89.7069 15.4476 89.982 15.1313ZM144.904 10.7793C144.748 10.7152 144.542 10.6462 144.311 10.5689C143.078 10.1552 141.144 9.50644 142.317 8.13403C143.511 7.32011 145.501 8.13403 146.695 8.74447V5.90108C144.108 4.88368 140.128 4.47938 138.735 7.32277C138.419 8.16311 138.363 9.08289 138.577 9.95658C138.791 10.8303 139.263 11.6153 139.929 12.2045C140.499 12.5929 141.158 12.8423 141.8 13.0852C142.504 13.3514 143.188 13.6099 143.71 14.035C143.831 14.1317 143.93 14.255 143.999 14.3959C144.068 14.5367 144.105 14.6915 144.108 14.8489C143.909 17.2897 139.929 15.6628 138.735 15.0524V17.8957C140.622 18.699 142.7 18.9115 144.705 18.5062C145.561 18.3222 146.332 17.8485 146.892 17.1617C147.452 16.4749 147.769 15.6151 147.792 14.7213C147.815 13.8275 147.543 12.9519 147.019 12.2359C146.495 11.52 145.75 11.0055 144.904 10.7757V10.7793ZM136.944 15.2548C136.899 15.2548 136.864 15.2548 136.834 15.2573L136.944 15.2548ZM136.745 15.2807V15.2593L136.834 15.2573C136.809 15.2593 136.788 15.2632 136.769 15.2702L136.76 15.2736C136.755 15.2757 136.75 15.2781 136.745 15.2807ZM136.745 15.2807V18.1027C135.318 18.5049 133.846 18.7102 132.366 18.7131C130.955 18.8057 129.561 18.3564 128.457 17.4532C127.353 16.5501 126.618 15.2581 126.398 13.8305V12.6105C126.198 9.55915 127.197 6.50873 129.979 5.49133C132.366 4.47481 136.147 4.88533 137.143 7.72872C137.371 8.45336 137.505 9.20566 137.541 9.96611V13.0174H129.78V13.6279C130.178 15.6618 132.367 16.2722 134.158 16.0687C134.423 16.001 134.71 15.9333 134.997 15.8656C135.573 15.7298 136.148 15.5941 136.546 15.4583C136.645 15.3572 136.695 15.3063 136.745 15.2807ZM134.556 10.5774C134.755 8.54353 133.363 7.11917 131.373 7.93309H131.372C130.377 8.34005 129.979 9.56004 129.78 10.5774H134.556ZM105.105 10.1695C105.179 9.35171 105.111 8.52706 104.906 7.73307C104.816 7.18248 104.584 6.6663 104.234 6.23741C103.884 5.80852 103.43 5.48231 102.916 5.2922C100.926 4.47828 97.9407 5.08872 95.9507 5.69916V8.54255C97.3417 7.93211 100.727 7.12085 101.721 8.33907C101.898 8.86129 101.966 9.41545 101.921 9.96602C101.041 9.92936 100.162 10.0676 99.3334 10.373C99.1343 10.373 98.985 10.4239 98.8357 10.4747C98.6864 10.5256 98.537 10.5765 98.338 10.5765C95.7482 11.593 95.1553 13.4199 95.1553 14.4408C95.1553 16.2712 95.9516 17.6947 97.3443 18.1017C97.7851 18.283 98.2623 18.3528 98.7353 18.3052H98.9343C100.063 18.2499 101.159 17.8996 102.118 17.2878V18.3069H105.103V10.1695H105.105ZM102.121 14.2373C101.966 14.6505 101.694 15.0069 101.339 15.2603C100.984 15.5138 100.563 15.6526 100.131 15.659C99.8923 15.7087 99.6464 15.7042 99.41 15.646C99.1737 15.5877 98.9527 15.477 98.7629 15.3218C98.573 15.1666 98.4189 14.9706 98.3113 14.7477C98.2038 14.5248 98.1455 14.2805 98.1406 14.0321C98.1406 12.6104 100.923 12.6104 101.921 12.8121C102.121 12.8121 102.121 14.2338 102.121 14.2338V14.2373ZM17.2381 8.48748C17.0483 8.95637 16.9508 9.45889 16.9512 9.96631C16.9839 10.9803 17.3925 11.9436 18.0942 12.6611C18.7959 13.3786 19.7382 13.7967 20.7302 13.8307C21.7225 13.7972 22.6653 13.3793 23.3673 12.6617C24.0694 11.9441 24.4782 10.9806 24.511 9.96631C24.4782 8.95206 24.0694 7.98849 23.3673 7.27092C22.6653 6.55335 21.7225 6.13546 20.7302 6.10196C20.2338 6.10185 19.7422 6.20173 19.2835 6.39591C18.8248 6.5901 18.4081 6.87477 18.0571 7.23365C17.7062 7.59253 17.4279 8.0186 17.2381 8.48748ZM14.4418 16.4546C12.8371 14.7765 11.9495 12.5161 11.9741 10.1698C11.9948 7.80275 12.9239 5.53863 14.5616 3.86481C16.1992 2.19099 18.4144 1.24132 20.7302 1.22021C23.0258 1.24857 25.2165 2.207 26.8213 3.88502C28.426 5.56304 29.3136 7.82344 29.289 10.1698C29.2688 12.537 28.3398 14.8014 26.702 16.4753C25.0643 18.1492 22.8489 19.0987 20.5329 19.1194C18.2373 19.091 16.0466 18.1326 14.4418 16.4546ZM1.4266 1.83018C1.00945 2.03419 0.655503 2.35197 0.40378 2.74848C0.152057 3.14499 0.01233 3.60484 0 4.07734V4.09511C0.0029733 4.43881 0.0832871 4.7772 0.234724 5.08408L5.40909 17.0841C5.53881 17.3784 5.72421 17.6437 5.95462 17.8645C6.18503 18.0853 6.4559 18.2574 6.75164 18.3708C7.04737 18.4842 7.36213 18.5367 7.6778 18.5252C7.99346 18.5138 8.30379 18.4386 8.59091 18.3041C9.16105 17.9684 9.59493 17.4354 9.81415 16.8013C10.0334 16.1673 10.0235 15.474 9.78627 14.8467L4.61277 3.05017C4.4128 2.62352 4.10145 2.26161 3.71305 2.00432C3.32464 1.74703 2.87427 1.60436 2.41158 1.59204C2.06961 1.59214 1.73237 1.67367 1.4266 1.83018ZM31.9063 2.59254C32.1224 2.35681 32.382 2.1671 32.6702 2.03434C32.9753 1.8775 33.3119 1.79536 33.6534 1.79443C34.1163 1.80719 34.5668 1.95034 34.9552 2.2081C35.3436 2.46585 35.6549 2.82821 35.8546 3.25523L41.0281 15.05C41.1589 15.3438 41.2318 15.6611 41.2426 15.9837C41.2534 16.3063 41.2019 16.6279 41.0911 16.9302C40.9803 17.2324 40.8124 17.5095 40.5968 17.7454C40.3813 17.9813 40.1224 18.1715 39.8349 18.3052C39.5475 18.4389 39.2371 18.5134 38.9214 18.5244C38.6058 18.5355 38.2911 18.4829 37.9954 18.3696C37.6996 18.2564 37.4286 18.0847 37.1978 17.8644C36.967 17.6441 36.7809 17.3795 36.6501 17.0857L31.4766 5.28914C31.3448 4.99549 31.2711 4.6781 31.2598 4.35523C31.2485 4.03237 31.2998 3.71041 31.4108 3.40789C31.5217 3.10537 31.6901 2.82827 31.9063 2.59254Z" fill="black"/>
</g>
</g>
<defs>
<clipPath id="clip0_330_643">
<rect width="148" height="24" fill="white"/>
</clipPath>
</defs>
</svg>
