<svg width="148" height="25" viewBox="0 0 148 25" fill="none" xmlns="http://www.w3.org/2000/svg">
<g clip-path="url(#clip0_141_363)">
<mask id="mask0_141_363" style="mask-type:luminance" maskUnits="userSpaceOnUse" x="0" y="0" width="148" height="25">
<path d="M148 0.5H0V24.5H148V0.5Z" fill="white"/>
</mask>
<g mask="url(#mask0_141_363)">
<mask id="mask1_141_363" style="mask-type:luminance" maskUnits="userSpaceOnUse" x="0" y="0" width="148" height="25">
<path d="M147.789 0.5H0V24.5H147.789V0.5Z" fill="white"/>
</mask>
<g mask="url(#mask1_141_363)">
<path fill-rule="evenodd" clip-rule="evenodd" d="M58.2336 6.03791C58.8085 6.31833 59.3199 6.71828 59.7351 7.21218C61.1286 9.24787 61.1286 12.7053 60.3323 14.9426C58.9388 19.8235 53.168 19.6183 49.3872 18.1966V1.31392L52.7698 0.5V7.0087H52.9689C53.4118 6.5406 53.9453 6.17208 54.5354 5.9267C55.1255 5.68131 55.7592 5.56446 56.396 5.58361C57.0327 5.60276 57.6586 5.75749 58.2336 6.03791ZM53.7653 16.3643C54.7615 16.3643 56.1525 16.3643 56.7497 15.3478C57.7451 13.9244 57.7451 10.873 57.1479 9.65305C56.8159 9.31387 56.3973 9.07681 55.9399 8.96889C55.4825 8.86096 55.0046 8.88651 54.5607 9.04261C54.1803 9.20982 53.8406 9.46045 53.5655 9.77677C53.2904 10.0931 53.0868 10.4673 52.9689 10.873V16.1609C53.0514 16.1609 53.1339 16.1958 53.2305 16.2367C53.3671 16.2945 53.532 16.3643 53.7653 16.3643ZM72.6691 15.7548C72.6235 15.7548 72.5883 15.7548 72.5588 15.7572L72.6691 15.7548ZM72.4692 15.7807V15.7592L72.5588 15.7572C72.5339 15.7593 72.513 15.7631 72.4932 15.7702C72.4851 15.7731 72.4771 15.7765 72.4692 15.7807ZM72.4692 15.7807V18.6026C71.043 19.0049 69.5706 19.2102 68.0911 19.213C66.6799 19.3056 65.2856 18.8563 64.1815 17.9532C63.0774 17.05 62.343 15.7581 62.1222 14.3304V13.1104C61.9187 10.0609 62.9176 7.00868 65.7039 5.99572C68.0911 4.97921 71.8719 5.38972 72.8673 8.23311C73.0958 8.95775 73.2297 9.71005 73.2655 10.4705V13.3139H65.5048V13.9243C65.903 15.9583 68.092 16.5687 69.8828 16.3652C70.6937 16.346 71.4978 16.209 72.2709 15.9583C72.3699 15.8571 72.4197 15.8062 72.4692 15.7807ZM70.281 11.0774C70.4801 9.04348 69.0874 7.61912 67.0974 8.43304C66.1029 8.84 65.7039 10.06 65.5048 11.0774H70.281ZM80.6288 15.9583C78.6389 16.5688 78.2407 15.7548 78.2407 13.7209V8.43311H80.6288V5.58971H78.2407V1.31397C77.842 1.41585 77.1939 1.61978 76.5462 1.82355C75.9005 2.02674 75.2552 2.22977 74.8581 2.33137V15.3488C74.659 19.2131 77.64 19.8236 80.6288 19.0096V15.9583ZM125.005 19.4154V15.1441L125.002 15.1406C124.934 14.5146 124.913 13.722 124.89 12.885C124.846 11.2744 124.798 9.49896 124.405 8.42839C124.355 7.6911 124.046 6.99713 123.535 6.47454C123.024 5.95194 122.345 5.636 121.623 5.585C119.629 5.38152 117.842 5.99196 116.847 7.8224C115.852 4.5676 111.273 5.17804 109.882 7.61892V5.58411L106.896 6.39803V19.212H110.281V10.2624C110.333 9.88221 110.492 9.52574 110.739 9.23672C110.986 8.9477 111.31 8.73872 111.672 8.63543C112.47 8.43195 113.463 8.43195 113.861 9.24587C114.349 10.4085 114.305 12.6572 114.273 14.3287C114.266 14.7033 114.259 15.0497 114.259 15.3476V19.212H117.644V10.4659C117.726 10.0982 117.896 9.75702 118.139 9.47305C118.382 9.18909 118.69 8.97118 119.035 8.83891C119.833 8.63543 120.826 8.63543 121.224 9.44935C121.716 10.4538 121.668 12.8386 121.636 14.4434C121.629 14.7879 121.622 15.0964 121.622 15.3476V19.4154H125.005ZM89.1876 5.58545H90.5786C91.6707 5.71108 92.7416 5.98479 93.763 6.39937V19.0116C93.763 20.6385 93.5639 21.8585 92.7676 22.6725C92.7676 22.7982 92.6916 22.8462 92.5865 22.9126C92.5215 22.9537 92.4455 23.0017 92.3695 23.0794C91.8029 23.5925 91.1405 23.983 90.4223 24.2273C89.7041 24.4717 88.9449 24.5648 88.1905 24.5011C87.191 24.5577 86.1884 24.4894 85.2051 24.2976C85.1056 24.2976 84.9563 24.2468 84.807 24.1959C84.6577 24.145 84.5084 24.0941 84.4088 24.0941V21.0402C84.8891 21.1071 85.3576 21.2441 85.7998 21.4471C86.4477 21.6257 87.12 21.6945 87.7897 21.6506C88.6588 21.7054 89.5148 21.4136 90.1778 20.8367C90.3721 20.658 90.526 20.4383 90.6292 20.1929C90.7323 19.9474 90.7821 19.682 90.7751 19.415V17.788H90.5751C90.199 18.2374 89.7216 18.5865 89.1842 18.8054H88.9851C88.1143 19.227 87.1297 19.3359 86.1909 19.1145C85.252 18.8931 84.4137 18.3544 83.8116 17.5854C83.7083 17.5784 83.6109 17.5332 83.5377 17.4584C83.4645 17.3835 83.4203 17.2841 83.4134 17.1785C83.0299 16.4102 82.7614 15.5874 82.6171 14.7376V13.5176C82.5415 12.2159 82.6761 10.9104 83.0152 9.65328C83.815 6.80544 86.4057 5.58545 89.1876 5.58545ZM89.982 15.6313C90.2571 15.315 90.4607 14.9407 90.5786 14.535L90.376 14.5341V9.04284C90.2765 9.04284 90.1769 8.99197 90.0774 8.9411C89.9779 8.89023 89.8783 8.83936 89.7788 8.83936H89.3806C88.3896 8.83936 87.196 8.83936 86.5987 9.85676C85.6033 11.2802 85.6033 14.535 86.3996 15.755C86.7317 16.0942 87.1502 16.3313 87.6076 16.4392C88.065 16.5471 88.5429 16.5216 88.9868 16.3655C89.3672 16.1983 89.7069 15.9476 89.982 15.6313ZM144.904 11.2793C144.748 11.2152 144.542 11.1462 144.311 11.0689C143.078 10.6552 141.144 10.0064 142.317 8.63403C143.511 7.82011 145.501 8.63403 146.695 9.24447V6.40108C144.108 5.38368 140.128 4.97938 138.735 7.82277C138.419 8.66311 138.363 9.58289 138.577 10.4566C138.791 11.3303 139.263 12.1153 139.929 12.7045C140.499 13.0929 141.158 13.3423 141.8 13.5852C142.504 13.8514 143.188 14.1099 143.71 14.535C143.831 14.6317 143.93 14.755 143.999 14.8959C144.068 15.0367 144.105 15.1915 144.108 15.3489C143.909 17.7897 139.929 16.1628 138.735 15.5524V18.3957C140.622 19.199 142.7 19.4115 144.705 19.0062C145.561 18.8222 146.332 18.3485 146.892 17.6617C147.452 16.9749 147.769 16.1151 147.792 15.2213C147.815 14.3275 147.543 13.4519 147.019 12.7359C146.495 12.02 145.75 11.5055 144.904 11.2757V11.2793ZM136.944 15.7548C136.899 15.7548 136.864 15.7548 136.834 15.7573L136.944 15.7548ZM136.745 15.7807V15.7593L136.834 15.7573C136.809 15.7593 136.788 15.7632 136.769 15.7702L136.76 15.7736C136.755 15.7757 136.75 15.7781 136.745 15.7807ZM136.745 15.7807V18.6027C135.318 19.0049 133.846 19.2102 132.366 19.2131C130.955 19.3057 129.561 18.8564 128.457 17.9532C127.353 17.0501 126.618 15.7581 126.398 14.3305V13.1105C126.198 10.0592 127.197 7.00873 129.979 5.99133C132.366 4.97481 136.147 5.38533 137.143 8.22872C137.371 8.95336 137.505 9.70566 137.541 10.4661V13.5174H129.78V14.1279C130.178 16.1618 132.367 16.7722 134.158 16.5687C134.423 16.501 134.71 16.4333 134.997 16.3656C135.573 16.2298 136.148 16.0941 136.546 15.9583C136.645 15.8572 136.695 15.8063 136.745 15.7807ZM134.556 11.0774C134.755 9.04353 133.363 7.61917 131.373 8.43309H131.372C130.377 8.84005 129.979 10.06 129.78 11.0774H134.556ZM105.105 10.6695C105.179 9.85171 105.111 9.02706 104.906 8.23307C104.816 7.68248 104.584 7.1663 104.234 6.73741C103.884 6.30852 103.43 5.98231 102.916 5.7922C100.926 4.97828 97.9407 5.58872 95.9507 6.19916V9.04255C97.3417 8.43211 100.727 7.62085 101.721 8.83907C101.898 9.36129 101.966 9.91545 101.921 10.466C101.041 10.4294 100.162 10.5676 99.3334 10.873C99.1343 10.873 98.985 10.9239 98.8357 10.9747C98.6864 11.0256 98.537 11.0765 98.338 11.0765C95.7482 12.093 95.1553 13.9199 95.1553 14.9408C95.1553 16.7712 95.9516 18.1947 97.3443 18.6017C97.7851 18.783 98.2623 18.8528 98.7353 18.8052H98.9343C100.063 18.7499 101.159 18.3996 102.118 17.7878V18.8069H105.103V10.6695H105.105ZM102.121 14.7373C101.966 15.1505 101.694 15.5069 101.339 15.7603C100.984 16.0138 100.563 16.1526 100.131 16.159C99.8923 16.2087 99.6464 16.2042 99.41 16.146C99.1737 16.0877 98.9527 15.977 98.7629 15.8218C98.573 15.6666 98.4189 15.4706 98.3113 15.2477C98.2038 15.0248 98.1455 14.7805 98.1406 14.5321C98.1406 13.1104 100.923 13.1104 101.921 13.3121C102.121 13.3121 102.121 14.7338 102.121 14.7338V14.7373ZM17.2381 8.98748C17.0483 9.45637 16.9508 9.95889 16.9512 10.4663C16.9839 11.4803 17.3925 12.4436 18.0942 13.1611C18.7959 13.8786 19.7382 14.2967 20.7302 14.3307C21.7225 14.2972 22.6653 13.8793 23.3673 13.1617C24.0694 12.4441 24.4782 11.4806 24.511 10.4663C24.4782 9.45206 24.0694 8.48849 23.3673 7.77092C22.6653 7.05335 21.7225 6.63546 20.7302 6.60196C20.2338 6.60185 19.7422 6.70173 19.2835 6.89591C18.8248 7.0901 18.4081 7.37477 18.0571 7.73365C17.7062 8.09253 17.4279 8.5186 17.2381 8.98748ZM14.4418 16.9546C12.8371 15.2765 11.9495 13.0161 11.9741 10.6698C11.9948 8.30275 12.9239 6.03863 14.5616 4.36481C16.1992 2.69099 18.4144 1.74132 20.7302 1.72021C23.0258 1.74857 25.2165 2.707 26.8213 4.38502C28.426 6.06304 29.3136 8.32344 29.289 10.6698C29.2688 13.037 28.3398 15.3014 26.702 16.9753C25.0643 18.6492 22.8489 19.5987 20.5329 19.6194C18.2373 19.591 16.0466 18.6326 14.4418 16.9546ZM1.4266 2.33018C1.00945 2.53419 0.655503 2.85197 0.40378 3.24848C0.152057 3.64499 0.01233 4.10484 0 4.57734V4.59511C0.0029733 4.93881 0.0832871 5.2772 0.234724 5.58408L5.40909 17.5841C5.53881 17.8784 5.72421 18.1437 5.95462 18.3645C6.18503 18.5853 6.4559 18.7574 6.75164 18.8708C7.04737 18.9842 7.36213 19.0367 7.6778 19.0252C7.99346 19.0138 8.30379 18.9386 8.59091 18.8041C9.16105 18.4684 9.59493 17.9354 9.81415 17.3013C10.0334 16.6673 10.0235 15.974 9.78627 15.3467L4.61277 3.55017C4.4128 3.12352 4.10145 2.76161 3.71305 2.50432C3.32464 2.24703 2.87427 2.10436 2.41158 2.09204C2.06961 2.09214 1.73237 2.17367 1.4266 2.33018ZM31.9063 3.09254C32.1224 2.85681 32.382 2.6671 32.6702 2.53434C32.9753 2.3775 33.3119 2.29536 33.6534 2.29443C34.1163 2.30719 34.5668 2.45034 34.9552 2.7081C35.3436 2.96585 35.6549 3.32821 35.8546 3.75523L41.0281 15.55C41.1589 15.8438 41.2318 16.1611 41.2426 16.4837C41.2534 16.8063 41.2019 17.1279 41.0911 17.4302C40.9803 17.7324 40.8124 18.0095 40.5968 18.2454C40.3813 18.4813 40.1224 18.6715 39.8349 18.8052C39.5475 18.9389 39.2371 19.0134 38.9214 19.0244C38.6058 19.0355 38.2911 18.9829 37.9954 18.8696C37.6996 18.7564 37.4286 18.5847 37.1978 18.3644C36.967 18.1441 36.7809 17.8795 36.6501 17.5857L31.4766 5.78914C31.3448 5.49549 31.2711 5.1781 31.2598 4.85523C31.2485 4.53237 31.2998 4.21041 31.4108 3.90789C31.5217 3.60537 31.6901 3.32827 31.9063 3.09254Z" fill="white"/>
</g>
</g>
</g>
<defs>
<clipPath id="clip0_141_363">
<rect width="148" height="24" fill="white" transform="translate(0 0.5)"/>
</clipPath>
</defs>
</svg>
