<svg width="821" height="267" viewBox="0 0 821 267" fill="none" xmlns="http://www.w3.org/2000/svg">
<g clip-path="url(#clip0_141_384)">
<path d="M153.9 128C158.5 121.1 160.9 112.9 160.8 104.6V43.9002C160.8 42.6002 160.8 41.4002 160.7 40.1002C159.9 29.3002 155 19.2002 147 11.9002C139.1 4.40015 128.5 0.300152 117.6 0.500152H77.2998V128H153.9ZM127.1 33.2002C129.8 35.7002 131.4 39.1002 131.6 42.7002V43.9002C131.7 43.9002 131.8 104.6 131.8 104.6C131.8 112.5 125.4 119 117.5 119C117.5 119 117.5 119 117.4 119H105.8V29.4002H117.2C120.9 29.4002 124.4 30.7002 127.1 33.2002Z" fill="white"/>
<path d="M163.6 158.7C163.1 151.7 160.8 144.9 157 139H77.3999V266.4H120.5C132 266.6 143 262 151 253.7C159.2 245.6 163.8 234.6 163.7 223.1V162.4C163.7 161.2 163.7 159.9 163.7 158.7H163.6ZM134.7 223.1C134.7 227 133.2 230.7 130.4 233.4C127.8 236.1 124.2 237.6 120.5 237.6H106.2V148H120.6C124.2 148 127.6 149.3 130.2 151.8C132.9 154.3 134.5 157.7 134.8 161.3V162.5C134.9 162.5 134.8 223.1 134.8 223.1H134.7Z" fill="white"/>
<path d="M704.4 127.7H733.2V29.4H759.2L759.3 0.5H675.7L675.6 29.4H704.4V127.7Z" fill="white"/>
<path d="M704.4 138.7V266.4H733.2V138.7H704.4Z" fill="white"/>
<path d="M664.6 127.7V119H618.2V29.4H664.6L664.7 0.5L589.3 0.6V127.7H664.6Z" fill="white"/>
<path d="M589.3 138.7V266.4H618.3L618.4 147.9H664.8L664.7 138.7H589.3Z" fill="white"/>
<path d="M512.5 127.7V43.9002C512.5 40.0002 514.1 36.3002 516.9 33.6002C522.3 28.2002 531.1 28.0002 536.7 33.2002C539.4 35.7002 541 39.1002 541.3 42.7002V43.9002V127.7H569.9V43.8002C569.9 42.5002 569.9 41.3002 569.9 40.0002C569.1 29.2002 564.2 19.1002 556.2 11.8002C548.3 4.40015 537.8 0.300153 527 0.500153C515.6 0.300153 504.7 4.90015 496.8 13.2002C488.6 21.3002 484.1 32.3002 484.1 43.8002V127.6H512.4L512.5 127.7Z" fill="white"/>
<path d="M541.3 138.7V223.1C541.3 231 534.9 237.5 527 237.6C519.4 237.7 513.1 231.9 512.6 224.3C512.6 223.9 512.6 223.5 512.6 223.1V138.7H484.3V223.1C484.2 224.4 484.2 225.6 484.3 226.9C485.1 237.7 490 247.8 498 255.1C514.9 270.8 541.2 270.2 557.4 253.8C565.6 245.7 570.1 234.7 570.1 223.2V138.8H541.4L541.3 138.7Z" fill="white"/>
<path d="M394.7 127.7H441.7C436.5 123.4 431.3 119 426.1 114.7C416.8 106.2 411.6 95.4 410.5 82.3C410.3 80.2 410.2 78 410.2 75.6L410.4 43.8C410.4 35.9 416.8 29.4 424.7 29.4C428.3 29.4 431.7 30.7 434.4 33.1C437.1 35.6 438.7 39 439 42.6V43.8C439.1 43.8 439.1 64 439.1 64H467.7V43.9C467.8 42.6 467.8 41.4 467.7 40.1C466.9 29.3 462 19.2 454 11.9C437.1 -3.8 410.8 -3.2 394.6 13.2C386.4 21.3 381.8 32.3 381.8 43.8V84.3C381.6 87.5 381.7 90.7 381.9 93.8C383.1 107.4 387.3 118.6 394.7 127.7Z" fill="white"/>
<path d="M453.8 138.7H406.7C412.1 143.2 417.6 147.8 423.1 152.3C432.4 160.8 437.2 171.6 438.3 184.7C438.5 186.8 438.4 191.5 438.4 191.3V223.1C438.5 227 436.9 230.7 434.1 233.4C428.6 238.8 419.9 239 414.2 233.8C411.5 231.3 409.9 227.9 409.7 224.3C409.7 223.9 409.6 223.5 409.6 223.1L409.9 202.9H381.3V223.1C381.2 224.4 381.2 225.6 381.3 226.9C382 237.7 386.9 247.8 394.9 255.1C412.6 271.1 439.9 269.8 455.9 252.1C463.1 244.2 467.1 233.9 467.1 223.2V182.7C467.3 179.5 467.2 176.3 467 173.2C465.8 159.3 461.4 147.8 453.8 138.7Z" fill="white"/>
<path d="M308.2 127.7H336.9V29.4H362.8L362.9 0.5L279.6 0.6L279.5 29.5H308.2V127.7Z" fill="white"/>
<path d="M308.2 138.7L308.1 266.4H336.8L336.9 138.7H308.2Z" fill="white"/>
<path d="M259.1 127.7V119H213V29.4L258.9 29.5L259 0.6L184.5 0.5L184.4 127.7H259.1Z" fill="white"/>
<path d="M213.2 147.9L259 148V138.7H184.4V266.4H258.9L259.1 237.6L213.1 237.5L213.2 147.9Z" fill="white"/>
<path d="M0 182.6V82.7002L50.4 133.1L0 182.6Z" fill="white"/>
<path d="M820.8 183.2V83.2998L770.4 133.3L820.8 183.2Z" fill="white"/>
</g>
<defs>
<clipPath id="clip0_141_384">
<rect width="820.8" height="266" fill="white" transform="translate(0 0.5)"/>
</clipPath>
</defs>
</svg>
