<?xml version="1.0" encoding="UTF-8"?>
<svg id="Layer_1" xmlns="http://www.w3.org/2000/svg" version="1.1" viewBox="0 0 820.8 266">
  <!-- Generator: Adobe Illustrator 29.5.0, SVG Export Plug-In . SVG Version: 2.1.0 Build 137)  -->
  <path d="M153.9,127.5c4.6-6.9,7-15.1,6.9-23.4v-60.7c0-1.3,0-2.5-.1-3.8-.8-10.8-5.7-20.9-13.7-28.2C139.1,3.9,128.5-.2,117.6,0h-40.3v127.5h76.6ZM127.1,32.7c2.7,2.5,4.3,5.9,4.5,9.5v1.2c.1,0,.2,60.7.2,60.7,0,7.9-6.4,14.4-14.3,14.4,0,0,0,0-.1,0h-11.6V28.9h11.4c3.7,0,7.2,1.3,9.9,3.8Z"/>
  <path d="M163.6,158.2c-.5-7-2.8-13.8-6.6-19.7h-79.6v127.4h43.1c11.5.2,22.5-4.4,30.5-12.7,8.2-8.1,12.8-19.1,12.7-30.6v-60.7c0-1.2,0-2.5,0-3.7ZM134.7,222.6c0,3.9-1.5,7.6-4.3,10.3-2.6,2.7-6.2,4.2-9.9,4.2h-14.3v-89.6h14.4c3.6,0,7,1.3,9.6,3.8,2.7,2.5,4.3,5.9,4.6,9.5v1.2c.1,0,0,60.6,0,60.6Z"/>
  <polygon points="704.4 127.2 733.2 127.2 733.2 28.9 759.2 28.9 759.3 0 675.7 0 675.6 28.9 704.4 28.9 704.4 127.2"/>
  <polygon points="704.4 138.2 704.4 265.9 733.2 265.9 733.2 138.2 704.4 138.2"/>
  <polygon points="664.6 127.2 664.6 118.5 618.2 118.5 618.2 28.9 664.6 28.9 664.7 0 589.3 .1 589.3 127.2 664.6 127.2"/>
  <polygon points="589.3 138.2 589.3 265.9 618.3 265.9 618.4 147.4 664.8 147.4 664.7 138.2 589.3 138.2"/>
  <path d="M512.5,127.2V43.4c0-3.9,1.6-7.6,4.4-10.3,5.4-5.4,14.2-5.6,19.8-.4,2.7,2.5,4.3,5.9,4.6,9.5v1.2c0,0,0,83.8,0,83.8h28.6V43.3c0-1.3,0-2.5,0-3.8-.8-10.8-5.7-20.9-13.7-28.2-7.9-7.4-18.4-11.5-29.2-11.3-11.4-.2-22.3,4.4-30.2,12.7-8.2,8.1-12.7,19.1-12.7,30.6v83.8h28.3Z"/>
  <path d="M541.3,138.2v84.4c0,7.9-6.4,14.4-14.3,14.5-7.6.1-13.9-5.7-14.4-13.3,0-.4,0-.8,0-1.2v-84.4c0,0-28.3,0-28.3,0v84.4c-.1,1.3-.1,2.5,0,3.8.8,10.8,5.7,20.9,13.7,28.2,16.9,15.7,43.2,15.1,59.4-1.3,8.2-8.1,12.7-19.1,12.7-30.6v-84.4h-28.7Z"/>
  <path d="M394.7,127.2h47c-5.2-4.3-10.4-8.7-15.6-13-9.3-8.5-14.5-19.3-15.6-32.4-.2-2.1-.3-4.3-.3-6.7l.2-31.8c0-7.9,6.4-14.4,14.3-14.4,3.6,0,7,1.3,9.7,3.7,2.7,2.5,4.3,5.9,4.6,9.5v1.2c.1,0,.1,20.2.1,20.2h28.6v-20.1c.1-1.3.1-2.5,0-3.8-.8-10.8-5.7-20.9-13.7-28.2-16.9-15.7-43.2-15.1-59.4,1.3-8.2,8.1-12.8,19.1-12.8,30.6v40.5c-.2,3.2-.1,6.4.1,9.5,1.2,13.6,5.4,24.8,12.8,33.9Z"/>
  <path d="M453.8,138.2h-47.1c5.4,4.5,10.9,9.1,16.4,13.6,9.3,8.5,14.1,19.3,15.2,32.4.2,2.1.1,6.8.1,6.6v31.8c.1,3.9-1.5,7.6-4.3,10.3-5.5,5.4-14.2,5.6-19.9.4-2.7-2.5-4.3-5.9-4.5-9.5,0-.4-.1-.8-.1-1.2l.3-20.2h-28.6v20.2c-.1,1.3-.1,2.5,0,3.8.7,10.8,5.6,20.9,13.6,28.2,17.7,16,45,14.7,61-3,7.2-7.9,11.2-18.2,11.2-28.9v-40.5c.2-3.2.1-6.4-.1-9.5-1.2-13.9-5.6-25.4-13.2-34.5Z"/>
  <polygon points="308.2 127.2 336.9 127.2 336.9 28.9 362.8 28.9 362.9 0 279.6 .1 279.5 29 308.2 29 308.2 127.2"/>
  <polygon points="308.2 138.2 308.1 265.9 336.8 265.9 336.9 138.2 308.2 138.2"/>
  <polygon points="259.1 127.2 259.1 118.5 213 118.5 213 28.9 258.9 29 259 .1 184.5 0 184.4 127.2 259.1 127.2"/>
  <polygon points="213.2 147.4 259 147.5 259 138.2 184.4 138.2 184.4 265.9 258.9 265.9 259.1 237.1 213.1 237 213.2 147.4"/>
  <polygon points="0 182.1 0 82.2 50.4 132.6 0 182.1"/>
  <polygon points="820.8 182.7 820.8 82.8 770.4 132.8 820.8 182.7"/>
</svg>