<svg width="167" height="42" viewBox="0 0 167 42" fill="none" xmlns="http://www.w3.org/2000/svg">
<path d="M161.927 11.2671C162.573 11.2671 163.006 11.9084 162.747 12.4819L154.811 29.9813C152.082 35.976 149.572 38.1406 144.345 38.1406H142.852C142.358 38.1406 141.957 37.7529 141.957 37.2748V33.2105C141.957 32.7323 142.358 32.3446 142.852 32.3446H143.874C146.543 32.3446 147.348 31.6726 148.291 29.235L140.494 12.4899C140.227 11.9165 140.661 11.2687 141.311 11.2687H146.889C147.259 11.2687 147.592 11.49 147.724 11.8228L151.802 22.0562L155.593 11.8406C155.72 11.4965 156.057 11.2671 156.436 11.2671H161.927Z" fill="#D60006"/>
<path d="M139.257 12.1138V29.967C139.257 30.4452 138.856 30.8329 138.362 30.8329H134.462C134.101 30.8329 133.774 30.6229 133.635 30.2998L133.268 29.4469C131.61 30.7457 129.511 31.4952 127.159 31.4952C120.968 31.4952 116.543 27.1256 116.543 21.0388C116.543 14.973 120.968 10.6567 127.159 10.6567C129.544 10.6567 131.675 11.4273 133.347 12.7616L133.821 11.7536C133.966 11.445 134.285 11.2464 134.636 11.2464H138.362C138.856 11.248 139.257 11.6357 139.257 12.1138ZM132.623 21.055C132.623 18.5124 130.703 16.603 128.091 16.603C125.462 16.603 123.559 18.5124 123.559 21.055C123.559 23.6121 125.479 25.5215 128.091 25.5215C130.703 25.5215 132.623 23.6121 132.623 21.055Z" fill="#D60006"/>
<path d="M108.666 7.20962L112.582 4.36816C112.737 4.25508 112.926 4.19531 113.12 4.19531H114.387C114.882 4.19531 115.283 4.583 115.283 5.06116V29.9865C115.283 30.4647 114.882 30.8524 114.387 30.8524H109.204C108.709 30.8524 108.309 30.4647 108.309 29.9865V7.90262C108.309 7.62962 108.441 7.37277 108.666 7.20962Z" fill="#D60006"/>
<path d="M91.3646 32.0442V37.2748C91.3646 37.7529 90.9637 38.1406 90.4694 38.1406H89.2019C89.0082 38.1406 88.8211 38.0809 88.6658 37.9678C87.6455 37.2295 85.8586 35.9324 84.748 35.1263C84.5226 34.9632 84.3906 34.7063 84.3906 34.4333V27.4468L86.7604 29.4369C88.0479 30.6162 89.6161 31.4982 91.3646 32.0442Z" fill="#D60006"/>
<path d="M83.177 5.06082V14.674L80.8073 12.6806C79.5197 11.5014 77.9499 10.621 76.2031 10.0734V7.90067C76.2031 7.62767 76.3351 7.37082 76.5622 7.20767C77.6026 6.4549 79.4646 5.10121 80.4783 4.36621C80.6336 4.25313 80.8207 4.19336 81.0144 4.19336H82.2819C82.7762 4.19497 83.177 4.58267 83.177 5.06082Z" fill="#D60006"/>
<path d="M95.7425 10.626C90.9379 10.626 87.1136 12.936 85.3885 16.5351L91.4022 21.5896C91.3838 21.4167 91.3754 21.2407 91.3754 21.0597C91.3754 18.4719 93.1991 16.6853 95.7425 16.6853C97.0902 16.6853 98.2358 17.1909 99.0157 18.0503C99.0892 18.1311 99.1593 18.2151 99.2261 18.3023C99.2395 18.3201 99.2545 18.3378 99.2679 18.3572C99.2879 18.3847 99.3079 18.4137 99.328 18.4428C99.3464 18.4703 99.3664 18.4977 99.3848 18.5252C99.4015 18.5494 99.4165 18.5753 99.4315 18.5995C99.4532 18.6334 99.4733 18.6657 99.4933 18.6997C99.5067 18.7207 99.5184 18.7433 99.5317 18.7659C99.5534 18.8047 99.5751 18.8418 99.5952 18.8822C99.6052 18.9016 99.6152 18.9226 99.6252 18.942C99.647 18.984 99.667 19.0276 99.687 19.0696C99.6954 19.0874 99.7037 19.1067 99.7121 19.1245C99.7321 19.1714 99.7522 19.2166 99.7722 19.2634C99.7789 19.2796 99.7856 19.2974 99.7922 19.3135C99.8123 19.3636 99.8307 19.4137 99.8474 19.4654C99.8524 19.4799 99.8574 19.4961 99.8624 19.5106C99.8807 19.5655 99.8975 19.6188 99.9142 19.6754C99.9175 19.6883 99.9225 19.7012 99.9258 19.7141C99.9425 19.7739 99.9576 19.8337 99.9726 19.8934C99.9743 19.9031 99.9776 19.9128 99.9793 19.9225C99.9943 19.9871 100.008 20.0534 100.021 20.1212C100.023 20.1261 100.023 20.1309 100.024 20.1374C100.079 20.4314 100.106 20.7399 100.106 21.0597C100.106 23.6476 98.2826 25.4342 95.7408 25.4342C94.3915 25.4342 93.488 24.8801 92.4626 24.0724L79.9693 13.5708C77.9537 11.718 75.1147 10.626 71.8214 10.626C65.2199 10.626 60.4688 14.9907 60.4688 21.0614C60.4688 23.6993 61.3722 26.019 62.937 27.7975C62.9437 27.804 62.9487 27.8121 62.9554 27.8185C62.9821 27.8492 63.0105 27.8799 63.0389 27.9106C63.0689 27.9429 63.099 27.9768 63.1291 28.0091C63.1341 28.014 63.1374 28.0188 63.1424 28.0237C65.1715 30.1915 68.2209 31.4967 71.8214 31.4967C76.606 31.4967 80.4369 29.1771 82.1687 25.5844L76.1617 20.5396C76.1784 20.7092 76.1885 20.8837 76.1885 21.063C76.1885 23.6508 74.3648 25.4374 71.8231 25.4374C70.4721 25.4374 69.3248 24.9334 68.5465 24.0741C68.4647 23.9836 68.3879 23.8899 68.3144 23.793C68.3094 23.7865 68.3044 23.7817 68.3011 23.7752C68.2727 23.7381 68.2459 23.6993 68.2209 23.6605C68.2092 23.6427 68.1975 23.6266 68.1858 23.6088C68.1624 23.5749 68.1424 23.5394 68.1207 23.5054C68.1073 23.4828 68.0923 23.4602 68.0789 23.4376C68.0589 23.4053 68.0405 23.3714 68.0222 23.3374C68.0071 23.3116 67.9938 23.2857 67.9787 23.2599C67.962 23.2276 67.9437 23.1937 67.927 23.1597C67.9136 23.1323 67.9003 23.1048 67.8869 23.0774C67.8702 23.0434 67.8552 23.0095 67.8401 22.974C67.8284 22.9465 67.8151 22.9174 67.8034 22.89C67.7884 22.8544 67.775 22.8189 67.76 22.7817C67.75 22.7543 67.7383 22.7252 67.7282 22.6977C67.7149 22.6606 67.7015 22.6218 67.6898 22.5831C67.6815 22.5556 67.6731 22.5281 67.6648 22.5007C67.6531 22.4603 67.6397 22.4183 67.6297 22.3779C67.623 22.3521 67.6164 22.3262 67.6097 22.3004C67.598 22.2567 67.588 22.2115 67.5779 22.1679C67.5729 22.1453 67.5679 22.1227 67.5629 22.0984C67.5529 22.05 67.5429 22.0015 67.5345 21.9514C67.5312 21.9337 67.5295 21.9143 67.5262 21.8965C67.5178 21.8416 67.5078 21.7867 67.5011 21.7317C67.4995 21.7221 67.4995 21.7107 67.4978 21.7011C67.4727 21.4943 67.4594 21.2811 67.4594 21.063C67.4594 18.4735 69.283 16.6885 71.8248 16.6885C73.1724 16.6885 74.1828 17.3056 75.098 18.0535L87.5946 28.5503C89.4299 30.2384 91.9516 31.2964 94.8825 31.4693V31.4709C94.9292 31.4741 94.9793 31.4741 95.0261 31.4774C95.0828 31.4806 95.1413 31.4822 95.1997 31.4854C95.2632 31.4871 95.3283 31.4903 95.3935 31.4919C95.4586 31.4935 95.5221 31.4935 95.5872 31.4951C95.639 31.4951 95.6907 31.4967 95.7425 31.4967C102.322 31.4967 107.095 27.1126 107.095 21.0614C107.095 14.9891 102.322 10.626 95.7425 10.626Z" fill="#D60006"/>
<path d="M52.4824 7.20962L56.3985 4.36816C56.5538 4.25508 56.7425 4.19531 56.9363 4.19531H58.2038C58.6981 4.19531 59.0989 4.583 59.0989 5.06116V29.9865C59.0989 30.4647 58.6981 30.8524 58.2038 30.8524H53.0201C52.5258 30.8524 52.125 30.4647 52.125 29.9865V7.90262C52.125 7.62962 52.2569 7.37277 52.4824 7.20962Z" fill="#D60006"/>
<path d="M28.0918 21.0597C28.0918 14.9891 32.8429 10.626 39.4445 10.626C46.0243 10.626 50.7971 14.9891 50.7971 21.0597C50.7971 27.1094 46.0259 31.4951 39.4445 31.4951C32.8429 31.4951 28.0918 27.111 28.0918 21.0597ZM39.4445 25.4358C41.9879 25.4358 43.8115 23.6508 43.8115 21.0614C43.8115 18.4881 41.9879 16.6869 39.4445 16.6869C36.901 16.6869 35.0774 18.4719 35.0774 21.0614C35.0774 23.6508 36.901 25.4358 39.4445 25.4358Z" fill="#D60006"/>
<path d="M16.1013 10.6569C22.3354 10.6569 26.7392 14.9893 26.7392 21.0761C26.7392 27.1628 22.3354 31.4953 16.1013 31.4953C13.7382 31.4953 11.639 30.7296 9.99406 29.4002L9.57155 30.3355C9.4296 30.6505 9.10729 30.854 8.75158 30.854H5.0709C4.57658 30.854 4.17578 30.4663 4.17578 29.9882V7.90262C4.17578 7.62962 4.30771 7.37277 4.53316 7.20962L8.44931 4.36816C8.60462 4.25508 8.79333 4.19531 8.98705 4.19531H10.1744C10.6687 4.19531 11.0695 4.583 11.0695 5.06116V12.0057C12.5191 11.1415 14.2292 10.6569 16.1013 10.6569ZM19.7018 21.0761C19.7018 18.5189 17.7813 16.6095 15.1694 16.6095C12.5575 16.6095 10.637 18.5189 10.637 21.0761C10.637 23.6122 12.5575 25.5216 15.1694 25.5216C17.7646 25.5216 19.7018 23.6122 19.7018 21.0761Z" fill="#D60006"/>
</svg>
