<?xml version="1.0" encoding="UTF-8"?>
<svg enable-background="new 0 0 1000 260" version="1.1" viewBox="0 0 1e3 260" xml:space="preserve" xmlns="http://www.w3.org/2000/svg">
<path d="m969.63 69.75c3.87 0 6.46 3.97 4.91 7.52l-47.52 108.33c-16.34 37.11-31.37 50.51-62.67 50.51h-8.94c-2.96 0-5.36-2.4-5.36-5.36v-25.16c0-2.96 2.4-5.36 5.36-5.36h6.12c15.98 0 20.8-4.16 26.45-19.25l-46.69-103.66c-1.6-3.55 1-7.56 4.89-7.56h33.4c2.22 0 4.21 1.37 5 3.43l24.42 63.35 22.7-63.24c0.76-2.13 2.78-3.55 5.05-3.55h32.88z" fill="#000"/>
<path d="m833.88 74.99v110.52c0 2.96-2.4 5.36-5.36 5.36h-23.35c-2.16 0-4.12-1.3-4.95-3.3l-2.2-5.28c-9.93 8.04-22.5 12.68-36.58 12.68-37.07 0-63.57-27.05-63.57-64.73 0-37.55 26.5-64.27 63.57-64.27 14.28 0 27.04 4.77 37.05 13.03l2.84-6.24c0.87-1.91 2.78-3.14 4.88-3.14h22.31c2.96 0.01 5.36 2.41 5.36 5.37zm-39.72 55.35c0-15.74-11.5-27.56-27.14-27.56-15.74 0-27.14 11.82-27.14 27.56 0 15.83 11.5 27.65 27.14 27.65s27.14-11.82 27.14-27.65z" fill="#000"/>
<path d="m650.69 44.63 23.45-17.59c0.93-0.7 2.06-1.07 3.22-1.07h7.59c2.96 0 5.36 2.4 5.36 5.36v154.3c0 2.96-2.4 5.36-5.36 5.36h-31.04c-2.96 0-5.36-2.4-5.36-5.36v-136.71c0-1.69 0.79-3.28 2.14-4.29z" fill="#000"/>
<g fill="#000">
	<path d="m547.09 198.37v32.38c0 2.96-2.4 5.36-5.36 5.36h-7.59c-1.16 0-2.28-0.37-3.21-1.07-6.11-4.57-16.81-12.6-23.46-17.59-1.35-1.01-2.14-2.6-2.14-4.29v-43.25l14.19 12.32c7.71 7.3 17.1 12.76 27.57 16.14z"/>
	<path d="m498.06 31.33v59.51l-14.19-12.34c-7.71-7.3-17.11-12.75-27.57-16.14v-13.45c0-1.69 0.79-3.28 2.15-4.29 6.23-4.66 17.38-13.04 23.45-17.59 0.93-0.7 2.05-1.07 3.21-1.07h7.59c2.96 0.01 5.36 2.41 5.36 5.37z"/>
	<path d="m573.3 65.78c-28.77 0-51.67 14.3-62 36.58l36.01 31.29c-0.11-1.07-0.16-2.16-0.16-3.28 0-16.02 10.92-27.08 26.15-27.08 8.07 0 14.93 3.13 19.6 8.45 0.44 0.5 0.86 1.02 1.26 1.56 0.08 0.11 0.17 0.22 0.25 0.34 0.12 0.17 0.24 0.35 0.36 0.53 0.11 0.17 0.23 0.34 0.34 0.51 0.1 0.15 0.19 0.31 0.28 0.46 0.13 0.21 0.25 0.41 0.37 0.62 0.08 0.13 0.15 0.27 0.23 0.41 0.13 0.24 0.26 0.47 0.38 0.72 0.06 0.12 0.12 0.25 0.18 0.37 0.13 0.26 0.25 0.53 0.37 0.79 0.05 0.11 0.1 0.23 0.15 0.34 0.12 0.29 0.24 0.57 0.36 0.86 0.04 0.1 0.08 0.21 0.12 0.31 0.12 0.31 0.23 0.62 0.33 0.94 0.03 0.09 0.06 0.19 0.09 0.28 0.11 0.34 0.21 0.67 0.31 1.02 0.02 0.08 0.05 0.16 0.07 0.24 0.1 0.37 0.19 0.74 0.28 1.11 0.01 0.06 0.03 0.12 0.04 0.18 0.09 0.4 0.17 0.81 0.25 1.23 0.01 0.03 0.01 0.06 0.02 0.1 0.33 1.82 0.49 3.73 0.49 5.71 0 16.02-10.92 27.08-26.14 27.08-8.08 0-13.49-3.43-19.63-8.43l-74.81-65.01c-12.07-11.47-29.07-18.23-48.79-18.23-39.53 0-67.98 27.02-67.98 64.6 0 16.33 5.41 30.69 14.78 41.7 0.04 0.04 0.07 0.09 0.11 0.13 0.16 0.19 0.33 0.38 0.5 0.57 0.18 0.2 0.36 0.41 0.54 0.61 0.03 0.03 0.05 0.06 0.08 0.09 12.15 13.42 30.41 21.5 51.97 21.5 28.65 0 51.59-14.36 61.96-36.6l-35.97-31.23c0.1 1.05 0.16 2.13 0.16 3.24 0 16.02-10.92 27.08-26.14 27.08-8.09 0-14.96-3.12-19.62-8.44-0.49-0.56-0.95-1.14-1.39-1.74-0.03-0.04-0.06-0.07-0.08-0.11-0.17-0.23-0.33-0.47-0.48-0.71-0.07-0.11-0.14-0.21-0.21-0.32-0.14-0.21-0.26-0.43-0.39-0.64-0.08-0.14-0.17-0.28-0.25-0.42-0.12-0.2-0.23-0.41-0.34-0.62-0.09-0.16-0.17-0.32-0.26-0.48-0.1-0.2-0.21-0.41-0.31-0.62l-0.24-0.51c-0.1-0.21-0.19-0.42-0.28-0.64-0.07-0.17-0.15-0.35-0.22-0.52-0.09-0.22-0.17-0.44-0.26-0.67-0.06-0.17-0.13-0.35-0.19-0.52-0.08-0.23-0.16-0.47-0.23-0.71l-0.15-0.51c-0.07-0.25-0.15-0.51-0.21-0.76l-0.12-0.48c-0.07-0.27-0.13-0.55-0.19-0.82-0.03-0.14-0.06-0.28-0.09-0.43-0.06-0.3-0.12-0.6-0.17-0.91-0.02-0.11-0.03-0.23-0.05-0.34-0.05-0.34-0.11-0.68-0.15-1.02-0.01-0.06-0.01-0.13-0.02-0.19-0.15-1.28-0.23-2.6-0.23-3.95 0-16.03 10.92-27.08 26.14-27.08 8.07 0 14.12 3.82 19.6 8.45l74.83 64.98c10.99 10.45 26.09 17 43.64 18.07v0.01c0.28 0.02 0.58 0.02 0.86 0.04 0.34 0.02 0.69 0.03 1.04 0.05 0.38 0.01 0.77 0.03 1.16 0.04s0.77 0.01 1.16 0.02c0.31 0 0.62 0.01 0.93 0.01 39.4 0 67.98-27.14 67.98-64.6 0-37.59-28.58-64.6-67.98-64.6z"/>
</g>
<path d="m314.26 44.63 23.45-17.59c0.93-0.7 2.06-1.07 3.22-1.07h7.59c2.96 0 5.36 2.4 5.36 5.36v154.3c0 2.96-2.4 5.36-5.36 5.36h-31.04c-2.96 0-5.36-2.4-5.36-5.36v-136.71c0-1.69 0.79-3.28 2.14-4.29z" fill="#000"/>
<path d="m168.22 130.37c0-37.58 28.45-64.59 67.98-64.59 39.4 0 67.98 27.01 67.98 64.59 0 37.45-28.57 64.6-67.98 64.6-39.53 0-67.98-27.14-67.98-64.6zm67.98 27.09c15.23 0 26.15-11.05 26.15-27.08 0-15.93-10.92-27.08-26.15-27.08s-26.15 11.05-26.15 27.08 10.92 27.08 26.15 27.08z" fill="#000"/>
<path d="m96.41 65.97c37.33 0 63.7 26.82 63.7 64.5s-26.37 64.5-63.7 64.5c-14.15 0-26.72-4.74-36.57-12.97l-2.53 5.79c-0.85 1.95-2.78 3.21-4.91 3.21h-22.04c-2.96 0-5.36-2.4-5.36-5.36v-136.72c0-1.69 0.79-3.28 2.14-4.29l23.45-17.59c0.93-0.7 2.06-1.07 3.22-1.07h7.11c2.96 0 5.36 2.4 5.36 5.36v42.99c8.68-5.35 18.92-8.35 30.13-8.35zm21.56 64.5c0-15.83-11.5-27.65-27.14-27.65s-27.14 11.82-27.14 27.65c0 15.7 11.5 27.52 27.14 27.52 15.54 0 27.14-11.82 27.14-27.52z" fill="#000"/>
</svg>
