<svg width="48" height="18" viewBox="0 0 48 18" fill="none" xmlns="http://www.w3.org/2000/svg">
<path fill-rule="evenodd" clip-rule="evenodd" d="M38.2494 12.2153C38.3927 12.2815 38.5605 12.3441 38.7458 12.3967C38.931 12.4523 39.1198 12.515 39.3156 12.5815C39.5078 12.6511 39.7001 12.7276 39.8853 12.8219C40.0706 12.9124 40.2349 13.0311 40.3817 13.1738C40.525 13.3165 40.6439 13.4908 40.7313 13.6927C40.8187 13.8984 40.8641 14.142 40.8641 14.4312C40.8641 14.7517 40.8082 15.0513 40.6963 15.3266C40.5845 15.6054 40.4237 15.8493 40.2139 16.0547C40.0042 16.2604 39.742 16.4239 39.4341 16.5423C39.123 16.6606 38.7734 16.7201 38.378 16.7201C38.1613 16.7201 37.9411 16.6992 37.7174 16.654C37.4937 16.6087 37.2769 16.5461 37.0672 16.4657C36.8575 16.3856 36.6617 16.2879 36.4764 16.18C36.2912 16.0686 36.1304 15.9464 35.994 15.8107L36.4694 15.0618C36.5079 15.0096 36.5568 14.9643 36.6198 14.9261C36.6827 14.8913 36.7491 14.8704 36.8225 14.8704C36.9169 14.8704 37.0148 14.9017 37.1091 14.9609C37.207 15.02 37.3154 15.0861 37.4377 15.1596C37.5601 15.2327 37.6999 15.2988 37.8607 15.3583C38.018 15.4175 38.2068 15.4488 38.4235 15.4488C38.7171 15.4488 38.9408 15.3861 39.1051 15.257C39.2659 15.1283 39.3463 14.9261 39.3463 14.6473C39.3463 14.4872 39.3009 14.3546 39.2135 14.2537C39.1261 14.1528 39.0072 14.0689 38.8639 14.0028C38.7206 13.9366 38.5563 13.8775 38.371 13.8284C38.1858 13.7762 37.997 13.7205 37.8048 13.6614C37.6125 13.5987 37.4237 13.5256 37.2385 13.4348C37.0532 13.3443 36.8889 13.2256 36.7456 13.0795C36.6023 12.9333 36.4834 12.7485 36.396 12.5289C36.3086 12.3093 36.2632 12.0379 36.2632 11.7139C36.2632 11.456 36.3156 11.2016 36.4205 10.9545C36.5254 10.707 36.6792 10.4877 36.8819 10.296C37.0847 10.1042 37.3329 9.94762 37.6303 9.83277C37.924 9.71793 38.263 9.65841 38.6444 9.65841C38.8576 9.65841 39.0639 9.67582 39.2666 9.70714C39.4694 9.73846 39.6581 9.79066 39.8399 9.85331C40.0217 9.91943 40.1895 9.99599 40.3468 10.0868C40.5041 10.1773 40.6439 10.2786 40.7697 10.3934L40.3677 11.1424C40.3188 11.219 40.2699 11.2747 40.2174 11.3133C40.165 11.3516 40.0986 11.369 40.0147 11.369C39.9413 11.369 39.8644 11.3446 39.7805 11.2994C39.6966 11.2541 39.6022 11.2019 39.4938 11.1462C39.389 11.0905 39.2666 11.0383 39.1303 10.9931C38.994 10.9479 38.8367 10.9235 38.6619 10.9235C38.3613 10.9235 38.134 10.9861 37.9872 11.1153C37.8404 11.244 37.767 11.4149 37.767 11.6345C37.767 11.7737 37.8125 11.8889 37.8998 11.9794C37.9869 12.0692 38.1057 12.1492 38.2494 12.2153ZM35.5463 10.9719H32.6966V12.5846H34.8786V13.7727H32.6966V15.4206H35.5463V16.6536H31.0778V9.73846H35.5463V10.9719ZM23.3368 9.74194C23.3893 9.74542 23.4347 9.75586 23.4766 9.76978C23.5186 9.78718 23.5536 9.81154 23.5885 9.84286C23.6235 9.87767 23.6549 9.92291 23.6864 9.98207L25.473 13.4901C25.5359 13.6119 25.5988 13.7341 25.6548 13.8663C25.7142 13.9951 25.7701 14.1277 25.8225 14.2634C25.875 14.1242 25.9344 13.9881 25.9903 13.8559C26.0498 13.7237 26.1127 13.598 26.1791 13.4762L27.9587 9.98207C27.9902 9.92291 28.0216 9.87419 28.0566 9.84286C28.0915 9.80806 28.1265 9.7837 28.1684 9.76978C28.2104 9.75238 28.2558 9.74542 28.3083 9.74194C28.3607 9.73846 28.4201 9.73846 28.49 9.73846H29.7313V16.6536H28.3118V12.6789C28.3118 12.5884 28.3153 12.4871 28.3188 12.3793C28.3222 12.2714 28.3327 12.1631 28.3432 12.0518L26.5007 15.605C26.4448 15.7164 26.3679 15.8003 26.27 15.856C26.1721 15.9116 26.0637 15.943 25.9379 15.943H25.7177C25.5953 15.943 25.4835 15.9151 25.3856 15.856C25.2877 15.8003 25.2108 15.7168 25.1549 15.605L23.3124 12.0413C23.3228 12.1562 23.3298 12.2679 23.3368 12.3758C23.3438 12.4837 23.3473 12.5849 23.3473 12.6754V16.6505H21.9277V9.73881H23.1551C23.225 9.73846 23.2844 9.73846 23.3368 9.74194ZM18.4591 9.73846H16.8088L14.1235 16.6536H15.3822C15.5151 16.6536 15.6269 16.6153 15.7178 16.5457C15.8087 16.4727 15.8716 16.3926 15.9066 16.3053L16.3121 15.0962H18.9519L19.3609 16.3018C19.4064 16.4062 19.4693 16.4866 19.5567 16.5527C19.6441 16.6188 19.7559 16.6501 19.8958 16.6501H21.144L18.4591 9.73846ZM16.6899 14.0094L17.3226 12.128C17.3716 12.0062 17.424 11.8631 17.4765 11.6996C17.5324 11.536 17.5813 11.3547 17.6303 11.1629C17.6827 11.3547 17.7386 11.5287 17.7911 11.6926C17.847 11.8562 17.8959 11.9992 17.9449 12.1176L18.5881 14.0094H16.6899ZM17.725 2.64724C18.2493 2.64724 18.7426 2.82856 19.1341 3.14525L18.6027 3.52494L21.0538 4.6466L20.8022 1.97104L20.1695 2.41685C19.5298 1.77928 18.659 1.41699 17.7288 1.41699C16.6553 1.41699 15.6975 1.90457 15.061 2.67125V2.67473C15.0365 2.70606 13.1171 5.04369 12.3267 5.81699C12.2848 5.85875 12.2393 5.89703 12.1939 5.93532C12.1869 5.94228 12.1764 5.94924 12.1694 5.9562C12.1135 6.00492 12.0576 6.05364 12.0016 6.09888C11.9912 6.10933 11.9772 6.11977 11.9667 6.12673C11.9143 6.16849 11.8618 6.21025 11.8129 6.24853C11.7989 6.25897 11.7849 6.26941 11.7744 6.27985C11.7395 6.3077 11.7045 6.33206 11.6731 6.35642C11.6591 6.36686 11.6451 6.3773 11.6346 6.38774C11.6206 6.39818 11.6066 6.40862 11.5927 6.41558C11.5472 6.4469 11.5018 6.47822 11.4598 6.50955C11.4458 6.51999 11.4354 6.52695 11.4214 6.53391L11.2955 6.61743C11.285 6.62439 11.2746 6.63135 11.2606 6.63831C11.2221 6.66267 11.1872 6.68356 11.1522 6.70444C11.1382 6.7114 11.1242 6.72184 11.1103 6.7288C11.0753 6.74968 11.0438 6.76708 11.0124 6.78448C10.7817 6.90977 10.5894 6.99016 10.4286 7.03888C10.2678 7.0876 10.142 7.11197 9.8868 7.11197C8.64901 7.0528 7.66989 5.98682 7.76462 4.72213C7.84502 3.6283 8.74374 2.74329 9.84136 2.67021C10.544 2.62497 11.163 2.92461 11.6245 3.3739C11.7014 3.44699 12.3274 4.11936 12.4603 4.28327C12.698 4.02887 13.2681 3.35998 13.2891 3.33562C13.1772 3.18945 12.7053 2.69457 12.6738 2.65977C12.0027 1.91083 11.0341 1.42291 9.94658 1.43683C8.139 1.46119 6.62855 2.8999 6.53068 4.69776C6.42581 6.61395 7.89431 8.21623 9.76131 8.34186C9.82773 8.34534 10.1249 8.35578 10.2822 8.33838C10.443 8.32098 10.5863 8.28618 10.7086 8.25834C10.9044 8.21309 11.1036 8.10869 11.1071 8.10869C11.1176 8.10521 11.1281 8.09825 11.1386 8.09477C11.177 8.07737 11.219 8.05997 11.2609 8.03909C11.2784 8.03213 11.2994 8.02169 11.3169 8.01125C11.3588 7.99036 11.4042 7.96948 11.4497 7.94512C11.4672 7.93816 11.4811 7.92772 11.4986 7.92076C11.621 7.85464 11.7538 7.78155 11.8866 7.69768C11.9041 7.68724 11.9251 7.67332 11.9426 7.66288C11.9915 7.63156 12.0404 7.60024 12.0929 7.56543C12.1138 7.55151 12.1383 7.53411 12.1628 7.52019C12.2117 7.48539 12.2642 7.45059 12.3166 7.41231C12.3376 7.3949 12.3585 7.38098 12.383 7.36358C12.4354 7.3253 12.4879 7.28354 12.5403 7.24526C12.5543 7.23482 12.5683 7.22438 12.5788 7.21394C12.5893 7.20698 12.5962 7.20001 12.6067 7.19305C12.6836 7.13389 12.7605 7.06777 12.8409 7.0013C12.8584 6.98738 12.8794 6.96997 12.8969 6.95257C12.9563 6.90037 13.0192 6.84817 13.0821 6.79248C13.1101 6.76812 13.1346 6.74376 13.1625 6.72288C13.173 6.71244 13.187 6.702 13.1975 6.69156C13.2429 6.6498 13.2884 6.60804 13.3373 6.56279C13.3653 6.53843 14.0647 5.85562 14.5366 5.28417C15.0086 4.71273 15.5193 4.02992 16.0436 3.41358C16.4522 2.94306 17.0538 2.64724 17.725 2.64724ZM28.3086 1.48346C28.2562 1.48694 28.2107 1.49391 28.1688 1.51131C28.1268 1.52523 28.0919 1.54959 28.0569 1.58439C28.022 1.61571 27.9905 1.66444 27.9591 1.7236L26.1794 5.2177C26.113 5.33951 26.0501 5.46514 25.9907 5.59739C25.9348 5.72964 25.8753 5.86571 25.8229 6.00492C25.7705 5.86919 25.7145 5.7366 25.6551 5.60783C25.5992 5.47558 25.5363 5.35343 25.4733 5.23162L23.6867 1.7236C23.6553 1.66444 23.6238 1.61919 23.5889 1.58439C23.5539 1.55307 23.5189 1.52871 23.477 1.51131C23.435 1.49739 23.3896 1.48694 23.3372 1.48346C23.2847 1.47998 23.2253 1.47998 23.1554 1.47998H21.9281V8.39163H23.3477V4.41691C23.3477 4.32643 23.3442 4.22515 23.3372 4.11727C23.3302 4.00938 23.3232 3.89767 23.3127 3.78282L25.1552 7.34653C25.2112 7.4579 25.2881 7.54177 25.3859 7.59745C25.4838 7.65661 25.5957 7.68446 25.718 7.68446H25.9382C26.0641 7.68446 26.1725 7.65313 26.2703 7.59745C26.3682 7.54177 26.4451 7.45824 26.501 7.34653L28.3436 3.79326C28.3331 3.90463 28.3226 4.01286 28.3191 4.12075C28.3156 4.22864 28.3121 4.32991 28.3121 4.42039V8.39546H29.7317V1.48033H28.4907C28.4205 1.47998 28.361 1.47998 28.3086 1.48346Z" fill="white"/>
<path fill-rule="evenodd" clip-rule="evenodd" d="M17.7286 7.09962H17.6796C17.5223 7.09614 17.3545 7.09962 16.9351 6.92179C16.5191 6.74395 16.4282 6.63954 16.1237 6.40289C15.949 6.26716 15.6973 6.0058 15.4491 5.7862C15.2044 6.05104 14.6483 6.66425 14.5993 6.71298C14.8125 6.94302 15.3337 7.39579 15.5435 7.55588L15.512 7.52803C15.9734 7.9112 16.5366 8.17952 17.1553 8.28045C17.3476 8.31177 17.5153 8.32569 17.6761 8.32569C17.8509 8.32569 17.9942 8.31873 18.148 8.30133C19.5292 8.13393 20.6866 7.15531 21.0641 5.81404L19.9242 5.28088C19.7284 6.33642 18.8056 7.09962 17.7286 7.09962ZM44.7807 5.69537C44.7807 5.77889 44.8121 5.8485 44.8681 5.90105C44.924 5.95325 45.0044 5.98109 45.1058 5.98109H45.7909V7.02967C45.6441 7.09579 45.4903 7.14452 45.333 7.1828C45.1757 7.22108 44.9974 7.23848 44.8051 7.23848C44.4905 7.23848 44.2039 7.18628 43.9449 7.08535C43.6862 6.98095 43.4625 6.83095 43.2769 6.63606C43.0916 6.44082 42.9483 6.20069 42.8469 5.91497C42.7455 5.62925 42.6931 5.30176 42.6931 4.93599C42.6931 4.60503 42.7385 4.30539 42.8294 4.03358C42.9203 3.76178 43.0497 3.52861 43.2209 3.33685C43.3887 3.14161 43.595 2.99197 43.8362 2.88756C44.0774 2.77967 44.35 2.72747 44.651 2.72747C44.8118 2.72747 44.9586 2.73443 45.0879 2.75183C45.2173 2.76923 45.3396 2.79359 45.4585 2.8284C45.5773 2.8632 45.6927 2.90844 45.8045 2.96412C45.9164 3.01981 46.0387 3.08593 46.1646 3.16284C46.2974 3.24637 46.4233 3.27421 46.5386 3.24985C46.654 3.22201 46.7483 3.15588 46.8218 3.04417L47.2867 2.33351C47.1468 2.20127 46.9895 2.07911 46.8113 1.96427C46.633 1.8529 46.4372 1.75511 46.224 1.67158C46.0108 1.58806 45.7766 1.52542 45.5214 1.47634C45.2662 1.4311 44.9971 1.40674 44.7066 1.40674C44.1473 1.40674 43.6401 1.49374 43.1891 1.6681C42.7382 1.84211 42.3498 2.08607 42.0317 2.39964C41.7136 2.7132 41.4689 3.08593 41.2977 3.51782C41.1264 3.94971 41.039 4.42371 41.039 4.93913C41.039 5.4441 41.1299 5.91462 41.3116 6.34651C41.4934 6.7784 41.7521 7.15113 42.0845 7.46469C42.4166 7.77826 42.8186 8.0257 43.2874 8.20319C43.7558 8.38068 44.277 8.47151 44.8467 8.47151C45.2837 8.47151 45.7035 8.41583 46.1055 8.29715C46.5075 8.18231 46.8854 7.99055 47.2419 7.73267V4.81349H44.7803L44.7807 5.69537ZM38.6655 5.14167C38.6655 5.24956 38.669 5.36823 38.676 5.49352C38.6829 5.61881 38.6934 5.74792 38.7109 5.88017L35.4104 1.72762C35.3649 1.67193 35.3265 1.63017 35.2915 1.59885C35.2566 1.56753 35.2216 1.54317 35.1832 1.52576C35.1447 1.50836 35.1028 1.49792 35.0538 1.49096C35.0084 1.484 34.9489 1.48052 34.879 1.48052H34.0328V8.39564H35.4523V4.6889C35.4523 4.58798 35.4488 4.47974 35.4453 4.3649C35.4418 4.25005 35.4348 4.1279 35.4209 4.00609L38.6934 8.1308C38.7773 8.22825 38.8612 8.29785 38.9451 8.33648C39.029 8.37476 39.1339 8.39564 39.2562 8.39564H40.0955V1.484H38.6655V5.14167ZM31.0779 1.48017H32.6967V8.39529H31.0779V1.48017ZM4.77073 4.82115C4.98047 4.74458 5.15874 4.6541 5.30906 4.54935C5.45937 4.44494 5.58171 4.32975 5.67609 4.20446C5.77047 4.07917 5.84039 3.9431 5.88583 3.80041C5.93127 3.65424 5.95225 3.50773 5.95225 3.35112C5.95225 3.0654 5.90331 2.80752 5.80543 2.57782C5.70755 2.34778 5.55375 2.15289 5.34052 1.98898C5.12728 1.82541 4.85113 1.69977 4.51521 1.61277C4.17963 1.52576 3.77064 1.48052 3.2914 1.48052H0.739258V8.4026H3.51197C3.92794 8.4026 4.29533 8.34692 4.62042 8.24251C4.94551 8.13463 5.21817 7.98811 5.43874 7.80018C5.65897 7.61191 5.82675 7.39265 5.94211 7.13825C6.05746 6.88385 6.11339 6.60857 6.11339 6.31623C6.11339 5.92611 6.00503 5.60558 5.78481 5.35814C5.56458 5.11035 5.22866 4.93251 4.77073 4.82115ZM2.34758 2.68223V2.67875H3.29175C3.47352 2.67875 3.62732 2.69267 3.76016 2.72051C3.88949 2.74835 3.99786 2.79707 4.08525 2.8632C4.16914 2.92932 4.23206 3.01981 4.27401 3.12804C4.31596 3.23941 4.33693 3.37548 4.33693 3.53905C4.33693 3.7061 4.31246 3.84565 4.26003 3.95702C4.20759 4.06839 4.13419 4.15574 4.03281 4.21838C3.93494 4.28102 3.81259 4.32627 3.66927 4.35063C3.52595 4.37499 3.36515 4.38891 3.18688 4.38891H2.34758V2.68223ZM4.4771 6.60822C4.44914 6.71611 4.3967 6.81042 4.3198 6.89742C4.2429 6.98443 4.13803 7.05403 4.0017 7.10658C3.86887 7.15879 3.69409 7.18663 3.48086 7.18663H2.34793V5.46568H3.47387C3.67661 5.46568 3.8444 5.48308 3.97723 5.52136C4.11006 5.55964 4.21843 5.61185 4.29883 5.6818C4.37923 5.7514 4.43516 5.83841 4.47011 5.93968C4.50157 6.0406 4.51905 6.1558 4.51905 6.28108C4.51905 6.3921 4.50507 6.50034 4.4771 6.60822ZM8.14643 10.655C8.46453 10.3414 8.85255 10.0974 9.30383 9.92344C9.75476 9.74909 10.262 9.66208 10.8213 9.66208C11.1114 9.66208 11.3806 9.68644 11.6361 9.73168C11.8913 9.78041 12.1255 9.84305 12.3387 9.92692C12.5519 10.0104 12.7477 10.1082 12.926 10.2196C13.1042 10.3344 13.2615 10.4566 13.4014 10.5889L12.9365 11.2961C12.863 11.4074 12.7687 11.4739 12.6533 11.5017C12.538 11.5261 12.4121 11.4983 12.2793 11.4147C12.1534 11.3382 12.0311 11.2721 11.9192 11.216C11.8074 11.1603 11.692 11.1151 11.5732 11.0803C11.4543 11.0455 11.332 11.0211 11.2026 11.0037C11.0733 10.9863 10.9265 10.9794 10.7657 10.9794C10.4651 10.9794 10.1924 11.0316 9.95086 11.1398C9.70967 11.2442 9.50343 11.3942 9.33564 11.5891C9.16435 11.7809 9.03502 12.014 8.94413 12.2858C8.85325 12.5576 8.8078 12.8573 8.8078 13.1882C8.8078 13.554 8.86024 13.8815 8.96161 14.1672C9.06298 14.4529 9.2063 14.6934 9.39157 14.8883C9.57683 15.0835 9.80055 15.2332 10.0596 15.3376C10.3183 15.4385 10.6049 15.4907 10.9198 15.4907C11.1121 15.4907 11.2904 15.4733 11.4477 15.435C11.605 15.3968 11.7588 15.348 11.9056 15.2819V14.2333H11.2205C11.1191 14.2333 11.0387 14.2055 10.9828 14.1533C10.9268 14.1011 10.8954 14.0315 10.8954 13.9476V13.0696H13.357V15.9891C13.0004 16.247 12.6229 16.4384 12.2206 16.5536C11.8186 16.6719 11.3987 16.7279 10.9618 16.7279C10.392 16.7279 9.87081 16.6374 9.4024 16.4596C8.93399 16.2818 8.53165 16.0347 8.19957 15.7211C7.86749 15.4076 7.60881 15.0348 7.42669 14.6029C7.24492 14.171 7.15403 13.7005 7.15403 13.1955C7.15403 12.6798 7.24142 12.2061 7.41271 11.7742C7.58364 11.3413 7.82834 10.9686 8.14643 10.655Z" fill="white"/>
</svg>
