<svg width="97" height="47" viewBox="0 0 97 47" fill="none" xmlns="http://www.w3.org/2000/svg">
<mask id="mask0_265_811" style="mask-type:luminance" maskUnits="userSpaceOnUse" x="0" y="0" width="97" height="47">
<path d="M0 0H96.1878V46.4051H0V0Z" fill="white"/>
</mask>
<g mask="url(#mask0_265_811)">
<path fill-rule="evenodd" clip-rule="evenodd" d="M70.7959 28.236C71.0243 28.3418 71.2916 28.442 71.5867 28.5261C71.8819 28.6152 72.1826 28.7155 72.4945 28.8218C72.8008 28.9332 73.107 29.0557 73.4022 29.2066C73.6973 29.3514 73.9591 29.5413 74.193 29.7697C74.4213 29.998 74.6106 30.277 74.7499 30.6C74.8891 30.9291 74.9615 31.3189 74.9615 31.7817C74.9615 32.2946 74.8724 32.7741 74.6942 33.2146C74.516 33.6606 74.2598 34.051 73.9257 34.3796C73.5915 34.7087 73.1739 34.9704 72.6832 35.1598C72.1876 35.3491 71.6307 35.4444 71.0009 35.4444C70.6556 35.4444 70.3048 35.411 69.9484 35.3386C69.592 35.2662 69.2467 35.1659 68.9125 35.0373C68.5784 34.9092 68.2666 34.7527 67.9714 34.5801C67.6763 34.4019 67.4201 34.2064 67.2029 33.9892L67.9603 32.7908C68.0215 32.7072 68.0995 32.6349 68.1997 32.5736C68.3 32.5179 68.4058 32.4845 68.5227 32.4845C68.6731 32.4845 68.829 32.5346 68.9794 32.6293C69.1353 32.724 69.3079 32.8298 69.5029 32.9473C69.6978 33.0642 69.9205 33.17 70.1767 33.2653C70.4273 33.3599 70.728 33.41 71.0733 33.41C71.5411 33.41 71.8975 33.3098 72.1592 33.1032C72.4154 32.8971 72.5435 32.5736 72.5435 32.1275C72.5435 31.8714 72.4711 31.6592 72.3318 31.4977C72.1926 31.3362 72.0033 31.202 71.775 31.0962C71.5466 30.9904 71.2849 30.8957 70.9897 30.8172C70.6946 30.7336 70.3939 30.6445 70.0876 30.5499C69.7813 30.4496 69.4806 30.3327 69.1854 30.1873C68.8903 30.0425 68.6285 29.8526 68.4002 29.6187C68.1719 29.3848 67.9825 29.0891 67.8433 28.7377C67.7041 28.3863 67.6317 27.952 67.6317 27.4335C67.6317 27.0208 67.7152 26.6138 67.8823 26.2184C68.0494 25.8224 68.2944 25.4716 68.6174 25.1647C68.9404 24.8579 69.3358 24.6073 69.8097 24.4235C70.2775 24.2397 70.8177 24.1445 71.4252 24.1445C71.7649 24.1445 72.0935 24.1723 72.4165 24.2225C72.7395 24.2726 73.0402 24.3561 73.3298 24.4564C73.6194 24.5622 73.8867 24.6847 74.1373 24.83C74.3879 24.9748 74.6106 25.1369 74.8111 25.3207L74.1707 26.5191C74.0927 26.6416 74.0148 26.7307 73.9312 26.7925C73.8477 26.8538 73.7419 26.8816 73.6082 26.8816C73.4913 26.8816 73.3688 26.8426 73.2351 26.7702C73.1015 26.6978 72.9511 26.6143 72.7785 26.5252C72.6114 26.4361 72.4165 26.3526 72.1993 26.2802C71.9821 26.2078 71.7315 26.1688 71.4531 26.1688C70.9741 26.1688 70.6122 26.269 70.3783 26.4756C70.1444 26.6817 70.0274 26.9551 70.0274 27.3065C70.0274 27.5293 70.0998 27.7136 70.2391 27.8584C70.3777 28.0021 70.5671 28.1302 70.7959 28.236ZM66.4895 26.2462H61.9497V28.8268H65.4259V30.7281H61.9497V33.3649H66.4895V35.338H59.3708V24.2726H66.4895V26.2462ZM47.0385 24.2782C47.122 24.2837 47.1944 24.3004 47.2612 24.3227C47.328 24.3506 47.3837 24.3895 47.4394 24.4397C47.4951 24.4953 47.5452 24.5677 47.5953 24.6624L50.4416 30.2759C50.5418 30.4708 50.6421 30.6662 50.7312 30.8779C50.8259 31.0839 50.915 31.2961 50.9985 31.5133C51.082 31.2905 51.1767 31.0728 51.2658 30.8612C51.3605 30.6495 51.4607 30.4485 51.5665 30.2536L54.4017 24.6624C54.4518 24.5677 54.5019 24.4898 54.5576 24.4397C54.6133 24.384 54.669 24.345 54.7358 24.3227C54.8026 24.2949 54.875 24.2837 54.9585 24.2782C55.0421 24.2726 55.1368 24.2726 55.2481 24.2726H57.2256V35.338H54.9641V28.9778C54.9641 28.833 54.9697 28.6709 54.9753 28.4983C54.9808 28.3256 54.9975 28.1524 55.0142 27.9742L52.0789 33.6601C51.9898 33.8383 51.8672 33.9725 51.7113 34.0616C51.5554 34.1507 51.3828 34.2008 51.1823 34.2008H50.8314C50.6365 34.2008 50.4583 34.1563 50.3024 34.0616C50.1465 33.9725 50.0239 33.8388 49.9348 33.6601L46.9995 27.9575C47.0162 28.1413 47.0273 28.3201 47.0385 28.4927C47.0496 28.6653 47.0552 28.8274 47.0552 28.9722V35.333H44.7936V24.2731H46.7489C46.8602 24.2726 46.9549 24.2726 47.0385 24.2782ZM39.2676 24.2726H36.6385L32.3605 35.338H34.3659C34.5775 35.338 34.7557 35.2767 34.9005 35.1654C35.0453 35.0484 35.1455 34.9203 35.2012 34.7806L35.8472 32.8459H40.0528L40.7044 34.775C40.7768 34.942 40.877 35.0707 41.0162 35.1765C41.1555 35.2823 41.3337 35.3324 41.5564 35.3324H43.5451L39.2676 24.2726ZM36.4492 31.1067L37.4572 28.0962C37.5351 27.9013 37.6187 27.6724 37.7022 27.4107C37.7913 27.1489 37.8693 26.8588 37.9472 26.5519C38.0308 26.8588 38.1199 27.1372 38.2034 27.3995C38.2925 27.6613 38.3705 27.8901 38.4484 28.0795L39.4731 31.1067H36.4492ZM38.0981 12.9254C38.9335 12.9254 39.7192 13.2155 40.343 13.7223L39.4965 14.3299L43.4014 16.1247L43.0004 11.8434L41.9925 12.5567C40.9734 11.5365 39.5861 10.9568 38.1043 10.9568C36.3941 10.9568 34.8682 11.737 33.8541 12.9638V12.9694C33.8151 13.0195 30.7572 16.7601 29.4981 17.9975C29.4313 18.0644 29.3589 18.1256 29.2865 18.1869C29.2753 18.198 29.2586 18.2092 29.2475 18.2203C29.1584 18.2983 29.0693 18.3762 28.9802 18.4486C28.9635 18.4653 28.9412 18.482 28.9245 18.4932C28.8409 18.56 28.7574 18.6268 28.6794 18.6881C28.6572 18.7048 28.6349 18.7215 28.6182 18.7382C28.5625 18.7828 28.5068 18.8217 28.4567 18.8607C28.4344 18.8774 28.4121 18.8941 28.3954 18.9108C28.3732 18.9276 28.3509 18.9443 28.3286 18.9554C28.2562 19.0055 28.1838 19.0556 28.117 19.1058C28.0947 19.1225 28.078 19.1336 28.0557 19.1447L27.8553 19.2784C27.8385 19.2895 27.8218 19.3007 27.7996 19.3118C27.7383 19.3508 27.6826 19.3842 27.6269 19.4176C27.6047 19.4288 27.5824 19.4455 27.5601 19.4566C27.5044 19.49 27.4543 19.5179 27.4042 19.5457C27.0366 19.7462 26.7303 19.8748 26.4742 19.9528C26.218 20.0308 26.0175 20.0697 25.611 20.0697C23.639 19.9751 22.0792 18.2693 22.2301 16.2456C22.3582 14.4953 23.79 13.0791 25.5386 12.9621C26.6579 12.8898 27.6442 13.3692 28.3793 14.0882C28.5018 14.2051 29.4992 15.281 29.7108 15.5433C30.0895 15.1362 30.9978 14.0659 31.0312 14.0269C30.853 13.793 30.1012 13.0011 30.0511 12.9454C28.9818 11.747 27.4387 10.9663 25.7062 10.9885C22.8265 11.0275 20.4202 13.3297 20.2643 16.2066C20.0972 19.2728 22.4367 21.8368 25.4111 22.0378C25.5169 22.0434 25.9902 22.0601 26.2408 22.0322C26.497 22.0044 26.7253 21.9487 26.9202 21.9041C27.2321 21.8317 27.5495 21.6647 27.5551 21.6647C27.5718 21.6591 27.5885 21.648 27.6052 21.6424C27.6665 21.6146 27.7333 21.5867 27.8001 21.5533C27.828 21.5422 27.8614 21.5255 27.8892 21.5087C27.956 21.4753 28.0284 21.4419 28.1008 21.4029C28.1287 21.3918 28.151 21.3751 28.1788 21.364C28.3737 21.2581 28.5853 21.1412 28.797 21.007C28.8248 20.9903 28.8582 20.968 28.8861 20.9513C28.964 20.9012 29.042 20.8511 29.1255 20.7954C29.1589 20.7731 29.1979 20.7452 29.2369 20.723C29.3149 20.6673 29.3984 20.6116 29.4819 20.5503C29.5153 20.5225 29.5488 20.5002 29.5877 20.4724C29.6713 20.4111 29.7548 20.3443 29.8383 20.283C29.8606 20.2663 29.8829 20.2496 29.8996 20.2329C29.9163 20.2218 29.9274 20.2106 29.9441 20.1995C30.0667 20.1048 30.1892 19.999 30.3173 19.8926C30.3451 19.8704 30.3785 19.8425 30.4064 19.8147C30.501 19.7311 30.6013 19.6476 30.7015 19.5585C30.7461 19.5195 30.7851 19.4805 30.8296 19.4471C30.8463 19.4304 30.8686 19.4137 30.8853 19.397C30.9577 19.3302 31.0301 19.2634 31.108 19.191C31.1526 19.152 32.2669 18.0594 33.0187 17.145C33.7705 16.2305 34.5842 15.1379 35.4195 14.1517C36.0705 13.3988 37.0289 12.9254 38.0981 12.9254ZM54.9591 11.0632C54.8756 11.0687 54.8032 11.0799 54.7363 11.1077C54.6695 11.13 54.6138 11.169 54.5581 11.2247C54.5025 11.2748 54.4523 11.3527 54.4022 11.4474L51.5671 17.0386C51.4613 17.2335 51.361 17.4345 51.2664 17.6462C51.1773 17.8578 51.0826 18.0755 50.9991 18.2983C50.9155 18.0811 50.8264 17.8689 50.7317 17.6629C50.6426 17.4512 50.5424 17.2558 50.4422 17.0609L47.5959 11.4474C47.5458 11.3527 47.4957 11.2803 47.44 11.2247C47.3843 11.1745 47.3286 11.1355 47.2618 11.1077C47.1949 11.0854 47.1225 11.0687 47.039 11.0632C46.9555 11.0576 46.8608 11.0576 46.7494 11.0576H44.7942V22.1174H47.0557V15.7572C47.0557 15.6124 47.0501 15.4503 47.039 15.2777C47.0279 15.1051 47.0167 14.9263 47 14.7425L49.9354 20.4451C50.0245 20.6233 50.147 20.7575 50.3029 20.8466C50.4589 20.9413 50.6371 20.9858 50.832 20.9858H51.1828C51.3833 20.9858 51.5559 20.9357 51.7119 20.8466C51.8678 20.7575 51.9903 20.6238 52.0794 20.4451L55.0148 14.7592C54.9981 14.9374 54.9814 15.1106 54.9758 15.2833C54.9702 15.4559 54.9647 15.618 54.9647 15.7627V22.1235H57.2262V11.0581H55.2492C55.1373 11.0576 55.0426 11.0576 54.9591 11.0632Z" fill="black"/>
<path fill-rule="evenodd" clip-rule="evenodd" d="M38.1038 20.0498H38.0259C37.7753 20.0442 37.5079 20.0498 36.8397 19.7652C36.177 19.4807 36.0322 19.3136 35.5471 18.9349C35.2687 18.7177 34.8677 18.2995 34.4723 17.9481C34.0825 18.3719 33.1965 19.3531 33.1185 19.4311C33.4582 19.7992 34.2886 20.5237 34.6227 20.7799L34.5726 20.7353C35.3077 21.3485 36.2048 21.7778 37.1905 21.9393C37.4968 21.9894 37.7641 22.0117 38.0203 22.0117C38.2987 22.0117 38.5271 22.0006 38.7721 21.9727C40.9724 21.7049 42.8162 20.1389 43.4177 17.9926L41.6016 17.1395C41.2898 18.8285 39.8196 20.0498 38.1038 20.0498ZM81.201 17.8027C81.201 17.9364 81.2511 18.0478 81.3402 18.1319C81.4293 18.2154 81.5574 18.26 81.7189 18.26H82.8104V19.9379C82.5765 20.0437 82.3315 20.1216 82.0809 20.1829C81.8303 20.2442 81.5463 20.272 81.24 20.272C80.7388 20.272 80.2821 20.1885 79.8695 20.027C79.4574 19.8599 79.101 19.6199 78.8053 19.308C78.5101 18.9956 78.2818 18.6113 78.1203 18.1541C77.9588 17.6969 77.8752 17.1729 77.8752 16.5876C77.8752 16.058 77.9476 15.5785 78.0924 15.1436C78.2372 14.7087 78.4433 14.3355 78.7162 14.0287C78.9835 13.7163 79.312 13.4768 79.6963 13.3098C80.0805 13.1371 80.5149 13.0536 80.9944 13.0536C81.2506 13.0536 81.4845 13.0647 81.6905 13.0926C81.8966 13.1204 82.0915 13.1594 82.2808 13.2151C82.4701 13.2708 82.6539 13.3432 82.8321 13.4323C83.0103 13.5214 83.2052 13.6272 83.4057 13.7503C83.6173 13.8839 83.8178 13.9285 84.0016 13.8895C84.1854 13.8449 84.3357 13.7391 84.4527 13.5604L85.1933 12.4232C84.9706 12.2116 84.72 12.0161 84.436 11.8323C84.152 11.6541 83.8401 11.4976 83.5004 11.364C83.1607 11.2303 82.7876 11.1301 82.381 11.0516C81.9745 10.9792 81.5457 10.9402 81.0829 10.9402C80.1919 10.9402 79.3839 11.0794 78.6655 11.3584C77.9471 11.6369 77.3284 12.0272 76.8216 12.529C76.3148 13.0308 75.925 13.6272 75.6521 14.3183C75.3793 15.0094 75.24 15.7679 75.24 16.5926C75.24 17.4007 75.3848 18.1536 75.6744 18.8447C75.964 19.5358 76.3761 20.1322 76.9057 20.634C77.4347 21.1357 78.0752 21.5317 78.822 21.8157C79.5682 22.0997 80.3985 22.2451 81.3062 22.2451C82.0024 22.2451 82.6712 22.156 83.3116 21.9661C83.952 21.7823 84.554 21.4754 85.1221 21.0628V16.3916H81.2004V17.8027H81.201ZM71.4588 16.9167C71.4588 17.0894 71.4643 17.2793 71.4755 17.4797C71.4866 17.6802 71.5033 17.8868 71.5312 18.0985L66.273 11.4536C66.2006 11.3645 66.1393 11.2977 66.0837 11.2476C66.028 11.1975 65.9723 11.1585 65.911 11.1306C65.8498 11.1028 65.7829 11.0861 65.705 11.075C65.6326 11.0638 65.5379 11.0582 65.4265 11.0582H64.0783V22.1237H66.3398V16.1922C66.3398 16.0307 66.3343 15.8575 66.3287 15.6738C66.3231 15.49 66.312 15.2945 66.2897 15.0996L71.5033 21.6999C71.637 21.8558 71.7706 21.9672 71.9043 22.029C72.0379 22.0902 72.205 22.1237 72.3999 22.1237H73.737V11.0638H71.4588V16.9167ZM59.3709 11.0577H61.9499V22.1231H59.3709V11.0577ZM17.4605 16.4038C17.7946 16.2813 18.0786 16.1365 18.3181 15.9689C18.5575 15.8018 18.7524 15.6175 18.9028 15.417C19.0532 15.2165 19.1645 14.9988 19.2369 14.7705C19.3093 14.5366 19.3427 14.3021 19.3427 14.0515C19.3427 13.5943 19.2648 13.1817 19.1089 12.8141C18.9529 12.446 18.7079 12.1342 18.3682 11.8719C18.0285 11.6101 17.5885 11.4091 17.0534 11.2699C16.5188 11.1306 15.8672 11.0582 15.1037 11.0582H11.0378V22.1348H15.4551C16.1178 22.1348 16.7031 22.0457 17.221 21.8786C17.7389 21.706 18.1733 21.4715 18.5247 21.1708C18.8755 20.8695 19.1428 20.5187 19.3266 20.1116C19.5104 19.7045 19.5995 19.264 19.5995 18.7962C19.5995 18.172 19.4268 17.6591 19.076 17.2631C18.7252 16.8666 18.19 16.582 17.4605 16.4038ZM13.6001 12.9812V12.9756H15.1043C15.3938 12.9756 15.6389 12.9979 15.8505 13.0424C16.0565 13.087 16.2292 13.165 16.3684 13.2708C16.502 13.3766 16.6023 13.5214 16.6691 13.6946C16.7359 13.8728 16.7694 14.0905 16.7694 14.3523C16.7694 14.6196 16.7304 14.8429 16.6468 15.0211C16.5633 15.1993 16.4464 15.3391 16.2849 15.4393C16.1289 15.5395 15.934 15.6119 15.7057 15.6509C15.4774 15.6899 15.2212 15.7122 14.9372 15.7122H13.6001V12.9812ZM16.9927 19.2635C16.9481 19.4361 16.8646 19.587 16.7421 19.7262C16.6196 19.8655 16.4525 19.9768 16.2353 20.0609C16.0237 20.1445 15.7452 20.189 15.4055 20.189H13.6007V17.4352H15.3944C15.7174 17.4352 15.9847 17.463 16.1963 17.5243C16.4079 17.5856 16.5806 17.6691 16.7087 17.781C16.8367 17.8924 16.9258 18.0316 16.9815 18.1937C17.0317 18.3552 17.0595 18.5395 17.0595 18.74C17.0595 18.9176 17.0372 19.0908 16.9927 19.2635ZM22.8383 25.739C23.3451 25.2372 23.9633 24.8468 24.6822 24.5684C25.4006 24.2894 26.2086 24.1502 27.0997 24.1502C27.5619 24.1502 27.9907 24.1892 28.3978 24.2616C28.8043 24.3395 29.1774 24.4398 29.5171 24.574C29.8568 24.7076 30.1687 24.8641 30.4527 25.0423C30.7367 25.2261 30.9873 25.4216 31.2101 25.6332L30.4694 26.7648C30.3525 26.943 30.2021 27.0493 30.0183 27.0939C29.8346 27.1329 29.6341 27.0883 29.4225 26.9547C29.222 26.8322 29.0271 26.7264 28.8489 26.6367C28.6707 26.5476 28.4869 26.4752 28.2975 26.4195C28.1082 26.3638 27.9133 26.3248 27.7072 26.297C27.5012 26.2691 27.2673 26.258 27.0111 26.258C26.5322 26.258 26.0978 26.3415 25.713 26.5147C25.3288 26.6818 25.0002 26.9218 24.7329 27.2337C24.46 27.5405 24.254 27.9136 24.1092 28.3486C23.9644 28.7835 23.892 29.263 23.892 29.7926C23.892 30.3779 23.9755 30.9019 24.137 31.3591C24.2985 31.8163 24.5268 32.2011 24.822 32.513C25.1171 32.8254 25.4735 33.0649 25.8862 33.2319C26.2983 33.3934 26.755 33.477 27.2567 33.477C27.563 33.477 27.847 33.4491 28.0976 33.3879C28.3482 33.3266 28.5932 33.2487 28.8271 33.1428V31.4649H27.7356C27.5741 31.4649 27.4461 31.4204 27.357 31.3368C27.2678 31.2533 27.2177 31.1419 27.2177 31.0077V29.6027H31.1393V34.2744C30.5713 34.6871 29.9699 34.9934 29.3289 35.1777C28.6885 35.3671 28.0197 35.4567 27.3235 35.4567C26.4158 35.4567 25.5855 35.3119 24.8393 35.0274C24.093 34.7428 23.452 34.3474 22.923 33.8456C22.3939 33.3439 21.9818 32.7474 21.6917 32.0563C21.4021 31.3652 21.2573 30.6123 21.2573 29.8043C21.2573 28.979 21.3966 28.221 21.6694 27.5299C21.9418 26.8372 22.3316 26.2407 22.8383 25.739Z" fill="black"/>
</g>
</svg>
