<svg width="255" height="211" viewBox="0 0 255 211" fill="none" xmlns="http://www.w3.org/2000/svg">
<g clip-path="url(#clip0_195_163)">
<path d="M11.3538 0C5.52352 0 0.61377 4.60029 0.61377 10.734V154.263C0.61377 160.09 5.21666 164.997 11.3538 164.997H231.065C236.895 164.997 241.805 160.397 241.805 154.263V77.8982C229.531 77.8982 219.711 68.0843 219.711 55.8168C219.711 43.5494 229.531 33.7355 241.805 33.7355V10.734C241.805 4.90698 237.202 0 231.065 0H11.3538Z" fill="white"/>
<path d="M7.05762 7.97405C9.51249 9.20079 11.6605 11.6543 13.5017 15.6412H230.144C230.758 12.2677 232.599 9.81417 235.668 7.66736C234.44 6.13393 232.906 5.21387 231.372 5.21387H11.0468C9.51255 5.52055 7.97819 6.44062 7.05762 7.97405Z" fill="url(#paint0_linear_195_163)"/>
<path d="M1.22729 7.66699C1.22729 7.97368 1.22729 7.97368 1.22729 7.66699ZM223.086 67.4708C150.975 106.42 76.1009 109.487 1.22729 109.793H0.92041V153.956C0.92041 159.783 5.5233 164.69 11.6605 164.69H231.372C237.202 164.69 242.112 160.09 242.112 153.956V77.8981C233.827 77.8981 227.076 73.6045 223.086 67.4708Z" fill="white"/>
<path d="M19.6391 148.743C19.6391 148.743 18.1048 148.436 18.4117 148.13C18.7185 146.596 19.3322 145.676 19.3322 145.063C19.3322 144.449 20.5596 145.063 20.5596 145.063L21.4803 143.223C21.4803 143.223 20.2528 142.916 20.5596 142.303C20.8665 141.076 21.4803 140.462 21.7871 140.156C22.094 139.849 22.7077 140.462 22.7077 140.462C22.7077 140.462 23.3214 139.849 23.3214 139.542C24.242 138.316 25.4694 137.702 25.7763 136.782L26.39 134.942C26.39 134.942 25.1626 134.329 25.4695 134.022C26.0832 133.102 26.39 132.795 26.6968 131.875C27.0037 131.569 27.6174 132.489 27.6174 132.489L28.5381 131.262C28.5381 131.262 27.6175 130.648 27.9243 130.342C28.2312 129.422 29.1518 128.808 29.4586 127.888C29.7655 127.582 30.3792 128.502 30.3792 128.502C30.3792 128.502 32.2204 126.355 33.141 126.048C33.7547 126.048 34.982 126.968 34.982 126.968L37.1301 129.115L39.2782 131.262H40.5055C42.9604 131.262 49.0976 129.422 56.1554 126.662C60.1446 125.128 64.4405 123.595 65.668 123.288C65.668 123.288 67.2022 122.675 68.1228 122.675C68.4297 122.675 69.3503 122.981 69.3503 122.981L70.5776 123.288L69.3503 121.448C68.7366 120.221 67.2023 117.768 66.2817 115.621C65.0543 113.474 64.4405 111.327 63.5199 109.487L62.2926 109.794L60.1445 104.58C54.0074 92.006 53.3935 88.6325 53.7004 80.9653C54.0072 79.1252 54.6211 77.8985 55.5417 76.6717L54.3141 76.365C54.3141 76.365 53.0868 76.6717 53.0868 76.0583C53.0868 73.2982 53.7004 68.0845 53.7004 68.0845C54.621 58.8839 55.8485 49.6833 57.9965 43.2429L58.917 40.4828L61.9856 38.9493L65.0542 37.4159L63.5199 37.7226C62.5993 37.7226 58.9171 38.336 55.5417 38.336L49.0975 38.9493L42.9603 45.6964L36.2096 51.8301L35.5958 53.9769C35.5958 53.9769 35.2889 55.5104 34.982 56.1237C34.6752 56.7371 33.4478 57.9638 33.4478 57.9638C32.5272 58.8839 30.993 60.1107 30.0724 60.724L28.2311 61.6441H27.0038C25.1626 61.6441 24.242 61.3374 24.242 60.4173C24.242 60.1107 25.1625 58.8839 26.0831 57.9638C27.0036 56.7371 27.9242 55.8171 27.6174 55.8171C27.6174 55.8171 26.6969 56.1238 25.7763 56.7371C25.7763 56.7371 24.5489 57.9638 23.9352 57.9638C23.3215 57.9638 23.0145 57.0438 23.0145 56.1237C23.0145 55.5104 24.242 55.2037 24.8557 54.897C26.39 53.6702 27.0037 52.7502 28.2311 50.9101C28.8448 49.99 29.7654 48.7633 30.6859 48.4566L32.2202 47.5365L36.2096 41.0961C38.3576 37.7226 40.8123 33.429 42.0398 31.8955C42.0398 31.8955 42.9605 29.7487 43.881 28.8287C44.4948 28.522 45.7221 28.2153 45.7221 28.2153L48.177 27.602C48.177 26.6819 47.5634 25.7618 48.4839 25.7618C55.2348 24.2284 57.3828 23.3083 63.2131 22.0816C68.1229 21.1615 72.7257 21.4682 72.7257 21.4682L74.8737 21.7749C77.9423 22.3883 82.5453 23.615 84.6933 24.2284L86.5344 24.8418L87.4549 23.0017C88.6823 20.5482 91.1372 18.0947 93.5921 16.8679C96.6607 15.6412 99.4225 15.0278 102.491 15.9479L104.332 16.5612C107.708 18.708 109.549 21.7749 111.083 25.1485C111.39 28.8287 112.004 31.5888 109.856 33.429C109.242 33.7357 108.628 33.7357 107.401 34.349C105.866 34.9624 104.946 36.8025 103.412 38.9493C103.412 38.9493 102.798 39.8694 102.184 40.1761C101.571 40.4828 101.264 40.4828 100.65 40.1761C99.4226 40.1761 98.8087 40.4828 98.8087 40.4828L97.2744 41.4028C96.3539 42.0162 95.1265 42.3229 94.5128 42.3229H93.5921C92.9784 42.0162 92.3648 40.7894 92.3648 40.7894L91.4442 39.256L91.1372 40.1761C88.3755 47.8432 87.7618 56.7371 85.0001 64.4043L88.6824 64.711C90.5236 65.0176 95.4333 65.631 99.4225 66.2444C99.4225 66.2444 104.639 66.8578 106.787 67.4711C107.401 67.4711 107.708 69.0046 107.708 69.0046L112.311 69.9246C114.765 70.538 118.755 71.458 121.209 72.3781L125.506 73.9115C125.506 73.9115 128.574 73.2982 130.108 73.2982C131.95 73.2982 135.325 74.5249 135.325 74.5249L135.632 73.9115L139.928 75.7516C142.076 76.6717 146.679 78.8185 150.975 80.6586C159.567 84.3389 165.704 86.4857 169.08 87.4057L171.534 88.0191L178.285 87.4057C181.968 87.099 185.957 86.4857 187.184 86.179C190.253 85.5656 191.173 85.5656 192.401 86.7923C193.014 87.4057 193.935 88.3258 193.628 88.6325C193.321 88.9391 192.708 89.5525 192.094 89.5525C192.094 89.5525 192.708 90.1659 192.401 90.4726C191.787 91.086 191.173 91.0859 190.56 91.3926C190.253 91.3926 189.946 90.7793 189.946 90.7793L188.718 91.6993C189.025 92.006 189.332 92.3127 189.025 92.6194C188.412 93.2328 187.798 93.5394 187.184 93.8461C186.877 94.1528 186.877 93.5394 186.571 93.2327L178.899 99.0598C178.899 99.0598 179.82 99.6732 179.513 100.287C178.592 101.207 178.592 101.207 177.978 101.513C177.672 101.513 177.365 100.9 177.058 100.593L175.83 101.513C175.83 101.513 176.751 102.433 176.444 102.74C176.137 103.047 175.524 103.353 174.603 103.967C174.296 104.273 173.375 103.047 173.375 103.047C173.375 103.047 170.921 104.58 170 104.273C169.386 103.967 169.386 102.433 168.466 100.9C168.466 100.9 167.852 99.0598 166.932 98.4464C166.318 97.833 165.09 97.833 165.09 97.833C161.101 97.2197 154.35 95.6862 150.361 95.3796C136.859 94.4595 134.098 93.8461 129.188 91.3926L125.812 89.5525L115.686 89.2458L105.253 88.9392L104.639 90.1659H83.7727V91.086C83.7727 91.6993 84.3863 94.1528 85.0001 97.5264C85.0001 97.5264 86.2275 103.047 85.6138 103.66C85.0001 104.273 84.0795 104.887 84.0795 104.887L85.307 111.941C86.8413 122.061 87.1481 122.368 87.1481 126.048V129.422L86.5344 130.648C86.2275 131.262 85.6139 132.795 84.6933 133.409L83.4658 134.942L80.7041 136.169C79.1699 136.782 78.2493 137.396 77.6356 137.396C77.3287 137.396 76.1011 137.702 75.7943 138.009C75.4874 138.009 75.7944 138.622 75.4875 138.622C74.8738 138.622 69.9641 138.929 69.9641 138.929C66.8955 139.236 58.6102 139.542 50.9388 140.156L37.4369 140.769L35.5958 141.996C31.6066 144.449 28.2312 147.516 26.39 149.97L24.242 152.116C23.6283 152.423 22.7077 152.73 21.7871 152.73C20.2528 152.73 19.3322 152.116 19.3322 151.196C19.0254 150.276 19.6391 148.743 19.6391 148.743Z" fill="black"/>
<path d="M0.92041 153.343V153.957C0.92041 159.784 5.5233 164.691 11.6605 164.691H231.372C237.202 164.691 242.112 160.09 242.112 153.957V153.343H0.92041Z" fill="white"/>
<path d="M241.805 43.2427C235.975 43.2427 231.372 46.6162 231.372 50.9098C231.372 55.2034 235.975 58.577 241.805 58.577C247.635 58.577 252.238 55.2034 252.238 50.9098C251.931 46.6162 247.328 43.2427 241.805 43.2427ZM252.852 49.0697C253.466 50.2965 254.079 51.8299 254.079 53.67C254.079 59.497 248.556 64.0973 241.805 64.0973C235.054 64.0973 229.837 59.497 229.837 53.67C229.837 52.7499 230.144 51.8299 230.144 50.9098C229.53 52.4433 229.224 53.67 229.224 55.5101C229.224 61.9505 234.747 67.4709 241.805 67.4709C248.863 67.4709 254.386 62.2572 254.386 55.5101C254.693 52.7499 253.772 50.9098 252.852 49.0697Z" fill="white"/>
<path d="M241.805 42.6294C234.44 42.6294 228.61 48.4564 228.61 55.8169C228.61 63.1774 234.44 69.0044 241.805 69.0044C249.17 69.0044 255 63.1774 255 55.8169C255 48.4564 248.863 42.6294 241.805 42.6294ZM237.509 43.8561C237.509 43.8561 239.964 43.2428 241.805 43.2428C243.646 43.2428 248.249 44.1628 250.397 46.923C254.386 52.4434 249.783 55.8169 249.169 56.4303C249.169 55.8169 248.249 52.4434 247.328 50.9099C246.715 49.9899 246.101 49.0698 245.487 48.4564C244.567 47.5364 243.953 46.923 242.725 46.003C239.35 45.0829 242.112 46.0029 243.339 46.923C243.339 46.923 248.249 51.2166 248.556 56.4303C246.715 57.657 244.26 58.5771 241.805 58.5771C235.975 58.5771 231.678 55.2035 231.678 50.9099C232.599 45.6963 235.668 45.0829 235.975 44.4695C236.281 44.4695 236.895 44.1628 237.509 43.8561ZM241.805 66.8576C230.144 66.2442 227.996 56.4303 230.144 50.6032C227.689 56.4303 232.906 63.484 241.805 63.7907C247.022 63.7907 248.556 61.9506 248.556 61.9506C248.556 61.9506 248.556 63.1774 248.249 63.7907C248.249 64.4041 247.942 65.3242 247.942 65.3242C246.101 66.5509 245.487 66.5509 241.805 66.8576Z" fill="white"/>
<path d="M249.169 57.3503C248.863 56.1235 248.863 55.5101 248.556 54.5901L248.249 53.0567C246.715 48.7631 244.567 47.2296 241.805 45.3895C240.884 44.7761 239.043 43.8561 238.123 43.5494C239.35 43.2427 239.657 43.2427 240.271 42.936C243.032 42.936 245.487 42.936 248.556 44.4695C251.931 46.3096 253.772 48.7631 253.772 51.5232C253.772 52.4433 253.772 53.0567 253.466 53.67C253.159 55.2035 252.545 56.4302 251.317 57.9636C251.011 58.577 250.397 58.577 250.09 58.577C249.169 58.8837 249.169 57.9636 249.169 57.3503Z" fill="white"/>
<path d="M245.794 49.683C245.794 52.7499 243.339 55.51 239.964 55.51C236.589 55.51 234.134 53.0565 234.134 49.683C234.134 46.6161 236.589 43.856 239.964 43.856C243.339 43.856 245.794 46.6161 245.794 49.683Z" fill="white"/>
<path d="M235.668 51.5234C237.509 49.6833 240.271 48.4566 244.874 49.0699C243.34 47.2298 241.805 46.0031 239.657 45.083C235.668 46.0031 233.827 47.8432 232.906 50.2967C233.52 50.2967 234.134 50.6034 235.668 51.5234Z" fill="white"/>
<path d="M135.939 181.558C131.643 181.558 128.574 183.092 127.346 186.465C126.733 187.692 126.733 187.999 126.733 190.145C126.733 191.985 127.04 192.599 127.346 193.212C128.574 195.359 130.108 196.279 135.325 198.119C140.542 199.959 141.462 200.573 141.462 202.719C141.462 203.946 140.848 204.866 139.314 205.786C138.393 206.4 138.087 206.4 136.245 206.4C133.791 206.4 132.256 205.786 130.415 204.253C129.801 203.639 128.881 203.333 128.881 203.333C128.574 203.333 125.812 206.093 125.812 206.4C125.812 206.706 127.96 208.546 128.881 209.16C130.108 209.773 131.336 210.387 132.87 210.693C134.711 211 138.7 211 140.235 210.387C142.996 209.467 144.837 207.933 145.758 205.786C146.065 204.866 146.372 204.253 146.372 202.413C146.372 200.266 146.372 199.959 145.758 199.039C145.144 197.812 143.917 196.586 142.383 195.666C141.769 195.359 139.621 194.439 137.473 193.826C135.325 193.212 133.177 192.292 132.87 191.985C131.336 191.065 131.029 189.225 132.256 187.999C133.791 186.158 138.393 186.158 141.155 188.305C141.769 188.919 142.383 189.225 142.383 189.225C142.69 189.225 145.451 186.465 145.451 186.158C145.451 185.545 143.61 184.012 141.769 183.398C139.621 181.865 138.394 181.558 135.939 181.558ZM200.072 181.558C197.31 181.558 195.776 181.865 193.628 183.092C190.866 184.625 188.718 187.078 187.491 191.065C187.184 192.599 186.877 193.212 186.877 196.279C186.877 200.266 187.184 201.799 188.412 204.253C190.253 207.626 193.321 210.08 197.004 210.693C201.606 211.613 206.516 210.387 209.278 207.626C211.733 205.173 212.347 202.719 212.653 197.812V194.439H200.993V199.959H202.834C204.675 199.959 204.675 199.959 204.675 200.573C204.675 201.799 203.754 203.333 202.527 203.639C201.606 203.946 199.458 203.946 198.538 203.639C197.617 203.333 196.39 201.799 195.776 200.573C195.163 198.733 195.162 196.279 195.469 194.439C196.083 190.759 197.31 188.919 200.072 188.919C200.993 188.919 202.527 189.532 202.834 190.145C203.141 190.452 203.448 190.759 203.754 190.759C204.368 190.759 210.505 188.305 210.812 187.999C211.119 187.692 209.892 185.545 208.664 184.625C206.823 182.478 204.061 181.558 200.072 181.558ZM79.1697 182.171V210.387H84.6932C88.9892 210.387 90.5235 210.08 91.4441 209.773C97.5813 207.933 100.957 203.333 100.957 195.972C100.957 193.212 100.65 191.065 99.4224 188.919C97.8881 185.852 95.7401 183.705 92.3646 182.785C90.8303 182.171 90.5234 182.171 84.9999 182.171H79.1697ZM56.4621 182.171H51.5524V210.08C51.5524 210.387 52.166 210.387 53.7003 210.387H55.8483V200.573C55.8483 195.972 55.5415 191.065 55.5415 191.065C55.5415 191.065 55.8484 191.065 57.9964 194.132C59.2238 195.972 61.9855 200.573 64.1336 203.946L68.4297 210.387H72.7256V182.171H67.8159V191.985C67.8159 198.426 67.8158 201.799 67.5089 201.493C67.5089 201.186 64.7472 196.892 61.3717 191.679L56.4621 182.171ZM231.372 182.171H223.087L213.267 210.08H221.859L223.087 205.48L231.065 205.786L232.599 210.387L241.191 210.08L231.372 182.171ZM0 182.171V210.387C0.306859 210.693 12.2744 210.693 13.8087 210.387C15.343 210.08 17.491 209.16 18.4116 208.24C19.9458 206.706 21.1732 203.64 20.8664 200.879C20.5595 198.426 19.639 196.586 17.7978 195.666C17.4909 195.359 16.8773 195.052 16.8773 195.052L17.7978 194.132C19.3321 192.906 19.639 191.679 19.639 188.919C19.639 187.078 19.3321 186.772 19.0252 185.545C18.1046 184.012 16.8772 182.785 15.0361 182.171C13.8086 181.865 13.1949 181.865 6.75085 181.865H0V182.171ZM41.7329 182.171V190.452C41.7329 195.052 41.7328 199.346 41.4259 200.266C40.8122 204.253 38.971 206.093 35.2887 205.786C32.8338 205.786 30.9928 204.56 30.0723 202.106C29.7654 201.186 29.7654 200.573 29.4585 191.372V181.865H24.5486V191.372C24.2418 200.266 24.5486 210.387 35.2887 210.693C40.8122 210.693 44.1877 208.24 45.722 203.026C46.0289 202.106 46.0288 200.266 46.0288 191.985V182.171H41.7329ZM173.989 182.171V210.387H182.274V182.171H173.989ZM104.332 182.171V210.08C104.332 210.387 106.48 210.387 113.845 210.387H123.357V205.48H109.242V197.506H117.22V192.599H109.242V186.465H122.744V182.171H104.332ZM151.282 182.171V210.08C151.282 210.387 153.43 210.387 160.794 210.387H170V203.026H159.567V182.171H151.282ZM9.20578 186.465C10.7401 186.465 11.9675 186.465 12.2744 186.772C14.1155 187.078 15.3429 188.612 15.0361 190.452C15.0361 191.679 13.8086 192.599 12.888 192.905C12.5812 192.905 10.4332 193.212 8.28514 193.212H4.29601V186.465H9.20578ZM83.7726 186.465H84.9999C86.8411 186.465 89.9098 186.772 90.8303 187.078C94.2058 188.305 95.74 191.372 95.74 195.972C95.74 198.119 95.4332 199.653 94.8195 201.186C93.8989 203.333 92.0577 204.56 89.6028 205.173C88.6823 205.48 87.1479 205.48 85.9205 205.48H83.7726V186.465ZM227.076 191.679L229.224 199.039H224.621L227.076 191.679ZM4.29601 197.199H7.97836C12.8881 197.199 13.8086 197.506 14.7292 198.426C16.8772 200.573 15.9566 204.56 13.1949 205.48C12.5812 205.48 10.4332 205.786 8.28514 205.786H4.29601V197.199Z" fill="white"/>
</g>
<defs>
<linearGradient id="paint0_linear_195_163" x1="121.4" y1="5.50522" x2="121.4" y2="14.6261" gradientUnits="userSpaceOnUse">
<stop stop-color="white"/>
<stop offset="0.3" stop-color="white" stop-opacity="0.498"/>
<stop offset="1" stop-color="white" stop-opacity="0"/>
</linearGradient>
<clipPath id="clip0_195_163">
<rect width="255" height="211" fill="white"/>
</clipPath>
</defs>
</svg>
