<svg width="255" height="211" viewBox="0 0 255 211" fill="none" xmlns="http://www.w3.org/2000/svg">
<g clip-path="url(#clip0_195_354)">
<path d="M7.05762 7.97405C9.51249 9.20079 11.6605 11.6543 13.5017 15.6412H230.144C230.758 12.2677 232.599 9.81417 235.668 7.66736C234.44 6.13393 232.906 5.21387 231.372 5.21387H11.0468C9.51255 5.52055 7.97819 6.44062 7.05762 7.97405Z" fill="url(#paint0_linear_195_354)"/>
<path d="M231.065 0C237.202 0.000150962 241.806 4.90743 241.806 10.7344V33.7354C229.531 33.7354 219.711 43.5492 219.711 55.8164C219.711 60.1208 220.922 64.1226 223.021 67.5049C223.043 67.4933 223.065 67.4823 223.087 67.4707C227.076 73.6042 233.826 77.8983 242.111 77.8984V153.957C242.111 157.086 240.832 159.813 238.807 161.736C236.836 163.767 234.076 164.997 231.065 164.997H11.3535C5.21649 164.997 0.613281 160.09 0.613281 154.263V10.7344C0.613281 4.60077 5.52333 0.000171561 11.3535 0H231.065ZM102.491 15.9482C99.4226 15.0282 96.6604 15.6414 93.5918 16.8682C91.137 18.095 88.6825 20.5486 87.4551 23.002L86.5342 24.8418L84.6934 24.2285C82.5454 23.6152 77.9426 22.3888 74.874 21.7754L72.7256 21.4678C72.6965 21.4658 68.1071 21.1649 63.2129 22.082C57.3829 23.3087 55.2348 24.2284 48.4844 25.7617C47.5639 25.7617 48.1766 26.6816 48.1768 27.6016L45.7217 28.2148C45.6996 28.2204 44.489 28.5252 43.8809 28.8291C42.9644 29.7453 42.0479 31.8771 42.04 31.8955C40.8127 33.4289 38.3579 37.7222 36.21 41.0957L32.2207 47.5361L30.6855 48.457C29.7652 48.764 28.8451 49.9903 28.2314 50.9102C27.004 52.7503 26.3898 53.6707 24.8555 54.8975C24.2416 55.2041 23.0146 55.5108 23.0146 56.124C23.0147 57.044 23.3219 57.9639 23.9355 57.9639C24.5473 57.9634 25.768 56.7456 25.7764 56.7373C26.6882 56.1297 27.6 55.8231 27.6172 55.8174C27.924 55.8174 27.0036 56.7371 26.083 57.9639C25.1628 58.8836 24.2429 60.1097 24.2422 60.417C24.2422 61.3371 25.1628 61.6445 27.0039 61.6445H28.2314L30.0723 60.7236C30.9928 60.1103 32.5267 58.8839 33.4473 57.9639C33.4473 57.9639 34.6755 56.7374 34.9824 56.124C35.2893 55.5107 35.5957 53.9766 35.5957 53.9766L36.21 51.8301L42.96 45.6963L49.0977 38.9492L55.542 38.3359C58.9169 38.3359 62.5983 37.7228 63.5195 37.7227L65.0547 37.416L61.9854 38.9492L58.917 40.4824L57.9961 43.2432C55.8481 49.6836 54.6208 58.8845 53.7002 68.085C53.6935 68.1422 53.0869 73.3137 53.0869 76.0586C53.0873 76.6716 54.3145 76.3652 54.3145 76.3652L55.542 76.6719C54.6215 77.8985 54.0071 79.125 53.7002 80.9648C53.3933 88.632 54.0074 92.006 60.1445 104.58L62.293 109.794L63.5195 109.487C64.4401 111.327 65.0538 113.474 66.2812 115.621C67.2018 117.768 68.7369 120.222 69.3506 121.448L70.5781 123.288L69.3506 122.981C69.3506 122.981 68.4301 122.675 68.123 122.675C67.2025 122.675 65.668 123.288 65.668 123.288C64.4405 123.595 60.1444 125.128 56.1553 126.661C49.0979 129.421 42.961 131.262 40.5059 131.262H39.2783L37.1299 129.115L34.9824 126.968C34.9824 126.968 33.7543 126.048 33.1406 126.048C32.22 126.355 30.3789 128.502 30.3789 128.502C30.3789 128.502 29.7658 127.582 29.459 127.889C29.1521 128.809 28.2317 129.422 27.9248 130.342C27.6191 130.647 28.5309 131.257 28.5381 131.262L27.6172 132.488C27.6051 132.47 27.0012 131.572 26.6973 131.875C26.3904 132.795 26.0834 133.102 25.4697 134.022C25.1654 134.327 26.3729 134.934 26.3896 134.942L25.7764 136.782C25.4695 137.702 24.2418 138.315 23.3213 139.542C23.3213 139.844 22.7258 140.444 22.708 140.462C22.7001 140.454 22.092 139.851 21.7871 140.155C21.4803 140.462 20.8664 141.076 20.5596 142.303C20.2531 142.916 21.4805 143.223 21.4805 143.223L20.5596 145.062C20.5455 145.055 19.3323 144.453 19.332 145.062C19.332 145.676 18.719 146.596 18.4121 148.13C18.108 148.434 19.6121 148.738 19.6387 148.743C19.6283 148.769 19.0279 150.284 19.332 151.196C19.332 152.116 20.2528 152.729 21.7871 152.729C22.7077 152.729 23.6285 152.423 24.2422 152.116L26.3896 149.97C28.2308 147.516 31.6066 144.45 35.5957 141.996L37.4365 140.77L50.9385 140.155C58.6098 139.542 66.8951 139.235 69.9639 138.929C69.9639 138.929 74.8727 138.622 75.4873 138.622C75.794 138.622 75.4877 138.009 75.7939 138.009C76.1008 137.702 77.3289 137.396 77.6357 137.396C78.2494 137.395 79.17 136.782 80.7041 136.169L83.4658 134.942L84.6934 133.408C85.6138 132.795 86.2273 131.262 86.5342 130.648L87.1484 129.422V126.048C87.1484 122.368 86.8409 122.061 85.3066 111.94L84.0791 104.887C84.0791 104.887 85.0005 104.274 85.6143 103.66C86.2276 103.046 85 97.5264 85 97.5264C84.3863 94.1528 83.7725 91.6993 83.7725 91.0859V90.166H104.639L105.253 88.9395L115.686 89.2461L125.812 89.5527L129.188 91.3926C134.097 93.8461 136.86 94.4598 150.361 95.3799C154.351 95.6866 161.102 97.2197 165.091 97.833C165.116 97.8331 166.324 97.8393 166.932 98.4463C167.844 99.0543 168.455 100.868 168.466 100.899C169.386 102.433 169.386 103.967 170 104.273C170.914 104.578 173.339 103.07 173.375 103.047C173.375 103.047 174.295 104.273 174.603 103.967C175.523 103.353 176.137 103.047 176.444 102.74C176.751 102.434 175.83 101.514 175.83 101.514L177.058 100.593C177.364 100.899 177.672 101.514 177.979 101.514C178.592 101.207 178.592 101.206 179.513 100.286C179.817 99.677 178.912 99.0678 178.899 99.0596L186.57 93.2324C186.877 93.5391 186.878 94.1524 187.185 93.8457C187.798 93.5391 188.412 93.2323 189.025 92.6191C189.332 92.3125 189.026 92.0058 188.719 91.6992L189.946 90.7793C189.952 90.7905 190.256 91.3924 190.56 91.3926C191.173 91.0859 191.787 91.0858 192.4 90.4727C192.707 90.166 192.094 89.5527 192.094 89.5527C192.707 89.5527 193.321 88.9396 193.628 88.6328C193.935 88.3261 193.014 87.4054 192.4 86.792C191.173 85.5657 190.252 85.5655 187.185 86.1787C185.957 86.4854 181.967 87.0986 178.285 87.4053L171.534 88.0195L169.079 87.4053C165.704 86.4851 159.566 84.3382 150.975 80.6582C146.679 78.8181 142.076 76.672 139.928 75.752L135.632 73.9111L135.325 74.5244C135.315 74.5209 131.947 73.2979 130.108 73.2979C128.584 73.2979 125.547 73.903 125.506 73.9111L121.209 72.3779C118.754 71.4579 114.765 70.5381 112.311 69.9248L107.708 69.0049C107.708 69.0049 107.401 67.4707 106.787 67.4707C104.649 66.8602 99.4707 66.2498 99.4229 66.2441C95.4338 65.6308 90.5239 65.0176 88.6826 64.7109L85 64.4043C87.7617 56.7371 88.376 47.8429 91.1377 40.1758L91.4443 39.2559L92.3652 40.7891C92.3652 40.7891 92.9781 42.0165 93.5918 42.3232H94.5127C95.1264 42.3232 96.3538 42.0157 97.2744 41.4023L98.8086 40.4824C98.8131 40.4802 99.4275 40.1758 100.65 40.1758C101.264 40.4824 101.571 40.4824 102.185 40.1758C102.794 39.8712 103.402 38.9626 103.411 38.9492C104.945 36.8025 105.866 34.9621 107.4 34.3486C108.628 33.7353 109.242 33.7353 109.855 33.4287C112.003 31.5886 111.39 28.8287 111.083 25.1484C109.549 21.7749 107.707 18.7083 104.332 16.5615L102.491 15.9482Z" fill="black"/>
<path d="M241.805 43.2427C235.975 43.2427 231.372 46.6162 231.372 50.9098C231.372 55.2034 235.975 58.577 241.805 58.577C247.635 58.577 252.238 55.2034 252.238 50.9098C251.931 46.6162 247.328 43.2427 241.805 43.2427ZM252.852 49.0697C253.466 50.2965 254.079 51.8299 254.079 53.67C254.079 59.497 248.556 64.0973 241.805 64.0973C235.054 64.0973 229.837 59.497 229.837 53.67C229.837 52.7499 230.144 51.8299 230.144 50.9098C229.53 52.4433 229.224 53.67 229.224 55.5101C229.224 61.9505 234.747 67.4709 241.805 67.4709C248.863 67.4709 254.386 62.2572 254.386 55.5101C254.693 52.7499 253.772 50.9098 252.852 49.0697Z" fill="black"/>
<path d="M241.805 42.6294C234.44 42.6294 228.61 48.4564 228.61 55.8169C228.61 63.1774 234.44 69.0044 241.805 69.0044C249.17 69.0044 255 63.1774 255 55.8169C255 48.4564 248.863 42.6294 241.805 42.6294ZM237.509 43.8561C237.509 43.8561 239.964 43.2428 241.805 43.2428C243.646 43.2428 248.249 44.1628 250.397 46.923C254.386 52.4434 249.783 55.8169 249.169 56.4303C249.169 55.8169 248.249 52.4434 247.328 50.9099C246.715 49.9899 246.101 49.0698 245.487 48.4564C244.567 47.5364 243.953 46.923 242.725 46.003C239.35 45.0829 242.112 46.0029 243.339 46.923C243.339 46.923 248.249 51.2166 248.556 56.4303C246.715 57.657 244.26 58.5771 241.805 58.5771C235.975 58.5771 231.678 55.2035 231.678 50.9099C232.599 45.6963 235.668 45.0829 235.975 44.4695C236.281 44.4695 236.895 44.1628 237.509 43.8561ZM241.805 66.8576C230.144 66.2442 227.996 56.4303 230.144 50.6032C227.689 56.4303 232.906 63.484 241.805 63.7907C247.022 63.7907 248.556 61.9506 248.556 61.9506C248.556 61.9506 248.556 63.1774 248.249 63.7907C248.249 64.4041 247.942 65.3242 247.942 65.3242C246.101 66.5509 245.487 66.5509 241.805 66.8576Z" fill="black"/>
<path d="M249.169 57.3503C248.863 56.1235 248.863 55.5101 248.556 54.5901L248.249 53.0567C246.715 48.7631 244.567 47.2296 241.805 45.3895C240.884 44.7761 239.043 43.8561 238.123 43.5494C239.35 43.2427 239.657 43.2427 240.271 42.936C243.032 42.936 245.487 42.936 248.556 44.4695C251.931 46.3096 253.772 48.7631 253.772 51.5232C253.772 52.4433 253.772 53.0567 253.466 53.67C253.159 55.2035 252.545 56.4302 251.317 57.9636C251.011 58.577 250.397 58.577 250.09 58.577C249.169 58.8837 249.169 57.9636 249.169 57.3503Z" fill="black"/>
<path d="M245.794 49.683C245.794 52.7499 243.339 55.51 239.964 55.51C236.589 55.51 234.134 53.0565 234.134 49.683C234.134 46.6161 236.589 43.856 239.964 43.856C243.339 43.856 245.794 46.6161 245.794 49.683Z" fill="black"/>
<path d="M235.668 51.5234C237.509 49.6833 240.271 48.4566 244.874 49.0699C243.34 47.2298 241.805 46.0031 239.657 45.083C235.668 46.0031 233.827 47.8432 232.906 50.2967C233.52 50.2967 234.134 50.6034 235.668 51.5234Z" fill="black"/>
<path d="M135.939 181.558C131.643 181.558 128.574 183.092 127.346 186.465C126.733 187.692 126.733 187.999 126.733 190.145C126.733 191.985 127.04 192.599 127.346 193.212C128.574 195.359 130.108 196.279 135.325 198.119C140.542 199.959 141.462 200.573 141.462 202.719C141.462 203.946 140.848 204.866 139.314 205.786C138.393 206.4 138.087 206.4 136.245 206.4C133.791 206.4 132.256 205.786 130.415 204.253C129.801 203.639 128.881 203.333 128.881 203.333C128.574 203.333 125.812 206.093 125.812 206.4C125.812 206.706 127.96 208.546 128.881 209.16C130.108 209.773 131.336 210.387 132.87 210.693C134.711 211 138.7 211 140.235 210.387C142.996 209.467 144.837 207.933 145.758 205.786C146.065 204.866 146.372 204.253 146.372 202.413C146.372 200.266 146.372 199.959 145.758 199.039C145.144 197.812 143.917 196.586 142.383 195.666C141.769 195.359 139.621 194.439 137.473 193.826C135.325 193.212 133.177 192.292 132.87 191.985C131.336 191.065 131.029 189.225 132.256 187.999C133.791 186.158 138.393 186.158 141.155 188.305C141.769 188.919 142.383 189.225 142.383 189.225C142.69 189.225 145.451 186.465 145.451 186.158C145.451 185.545 143.61 184.012 141.769 183.398C139.621 181.865 138.394 181.558 135.939 181.558ZM200.072 181.558C197.31 181.558 195.776 181.865 193.628 183.092C190.866 184.625 188.718 187.078 187.491 191.065C187.184 192.599 186.877 193.212 186.877 196.279C186.877 200.266 187.184 201.799 188.412 204.253C190.253 207.626 193.321 210.08 197.004 210.693C201.606 211.613 206.516 210.387 209.278 207.626C211.733 205.173 212.347 202.719 212.653 197.812V194.439H200.993V199.959H202.834C204.675 199.959 204.675 199.959 204.675 200.573C204.675 201.799 203.754 203.333 202.527 203.639C201.606 203.946 199.458 203.946 198.538 203.639C197.617 203.333 196.39 201.799 195.776 200.573C195.163 198.733 195.162 196.279 195.469 194.439C196.083 190.759 197.31 188.919 200.072 188.919C200.993 188.919 202.527 189.532 202.834 190.145C203.141 190.452 203.448 190.759 203.754 190.759C204.368 190.759 210.505 188.305 210.812 187.999C211.119 187.692 209.892 185.545 208.664 184.625C206.823 182.478 204.061 181.558 200.072 181.558ZM79.1697 182.171V210.387H84.6932C88.9892 210.387 90.5235 210.08 91.4441 209.773C97.5813 207.933 100.957 203.333 100.957 195.972C100.957 193.212 100.65 191.065 99.4224 188.919C97.8881 185.852 95.7401 183.705 92.3646 182.785C90.8303 182.171 90.5234 182.171 84.9999 182.171H79.1697ZM56.4621 182.171H51.5524V210.08C51.5524 210.387 52.166 210.387 53.7003 210.387H55.8483V200.573C55.8483 195.972 55.5415 191.065 55.5415 191.065C55.5415 191.065 55.8484 191.065 57.9964 194.132C59.2238 195.972 61.9855 200.573 64.1336 203.946L68.4297 210.387H72.7256V182.171H67.8159V191.985C67.8159 198.426 67.8158 201.799 67.5089 201.493C67.5089 201.186 64.7472 196.892 61.3717 191.679L56.4621 182.171ZM231.372 182.171H223.087L213.267 210.08H221.859L223.087 205.48L231.065 205.786L232.599 210.387L241.191 210.08L231.372 182.171ZM0 182.171V210.387C0.306859 210.693 12.2744 210.693 13.8087 210.387C15.343 210.08 17.491 209.16 18.4116 208.24C19.9458 206.706 21.1732 203.64 20.8664 200.879C20.5595 198.426 19.639 196.586 17.7978 195.666C17.4909 195.359 16.8773 195.052 16.8773 195.052L17.7978 194.132C19.3321 192.906 19.639 191.679 19.639 188.919C19.639 187.078 19.3321 186.772 19.0252 185.545C18.1046 184.012 16.8772 182.785 15.0361 182.171C13.8086 181.865 13.1949 181.865 6.75085 181.865H0V182.171ZM41.7329 182.171V190.452C41.7329 195.052 41.7328 199.346 41.4259 200.266C40.8122 204.253 38.971 206.093 35.2887 205.786C32.8338 205.786 30.9928 204.56 30.0723 202.106C29.7654 201.186 29.7654 200.573 29.4585 191.372V181.865H24.5486V191.372C24.2418 200.266 24.5486 210.387 35.2887 210.693C40.8122 210.693 44.1877 208.24 45.722 203.026C46.0289 202.106 46.0288 200.266 46.0288 191.985V182.171H41.7329ZM173.989 182.171V210.387H182.274V182.171H173.989ZM104.332 182.171V210.08C104.332 210.387 106.48 210.387 113.845 210.387H123.357V205.48H109.242V197.506H117.22V192.599H109.242V186.465H122.744V182.171H104.332ZM151.282 182.171V210.08C151.282 210.387 153.43 210.387 160.794 210.387H170V203.026H159.567V182.171H151.282ZM9.20578 186.465C10.7401 186.465 11.9675 186.465 12.2744 186.772C14.1155 187.078 15.3429 188.612 15.0361 190.452C15.0361 191.679 13.8086 192.599 12.888 192.905C12.5812 192.905 10.4332 193.212 8.28514 193.212H4.29601V186.465H9.20578ZM83.7726 186.465H84.9999C86.8411 186.465 89.9098 186.772 90.8303 187.078C94.2058 188.305 95.74 191.372 95.74 195.972C95.74 198.119 95.4332 199.653 94.8195 201.186C93.8989 203.333 92.0577 204.56 89.6028 205.173C88.6823 205.48 87.1479 205.48 85.9205 205.48H83.7726V186.465ZM227.076 191.679L229.224 199.039H224.621L227.076 191.679ZM4.29601 197.199H7.97836C12.8881 197.199 13.8086 197.506 14.7292 198.426C16.8772 200.573 15.9566 204.56 13.1949 205.48C12.5812 205.48 10.4332 205.786 8.28514 205.786H4.29601V197.199Z" fill="black"/>
</g>
<defs>
<linearGradient id="paint0_linear_195_354" x1="121.4" y1="5.50522" x2="121.4" y2="14.6261" gradientUnits="userSpaceOnUse">
<stop/>
<stop offset="0.3" stop-opacity="0.498"/>
<stop offset="1" stop-opacity="0"/>
</linearGradient>
<clipPath id="clip0_195_354">
<rect width="255" height="211" fill="white"/>
</clipPath>
</defs>
</svg>
