<svg width="41" height="41" viewBox="0 0 41 41" fill="none" xmlns="http://www.w3.org/2000/svg">
<path d="M4.28918 39.1527C4.28918 39.9121 3.9344 40.3166 2.97273 40.3166H0.764648V36.0405H2.88871C3.88149 36.0405 4.22383 36.4326 4.22383 37.1547C4.22383 37.7055 4.01531 37.9576 3.42711 38.1039L3.31664 38.135L3.41467 38.1537C4.08379 38.3046 4.28918 38.5505 4.28918 39.1527ZM1.77766 37.83H2.67241C3.0272 37.83 3.18748 37.6744 3.18748 37.3087C3.18748 36.943 3.04121 36.7703 2.67241 36.7703H1.78078L1.77766 37.83ZM3.25439 39.0484C3.25439 38.6563 3.09878 38.4913 2.7331 38.4913H1.78078V39.5946H2.7331C3.1159 39.5915 3.2575 39.4328 3.2575 39.0469L3.25439 39.0484ZM4.98476 38.9255V36.0405H6.05067V38.8881C6.05067 39.355 6.26541 39.537 6.84117 39.537C7.41692 39.537 7.63166 39.3596 7.63166 38.8881V36.0405H8.69757V38.9193C8.69757 39.9245 8.1156 40.3835 6.84117 40.3835C5.56673 40.3835 4.98787 39.9307 4.98787 38.9239L4.98476 38.9255ZM13.6988 36.0467V40.3166H12.4011L10.5851 37.2278V40.3151H9.59388V36.0405H10.8917L12.7045 39.1278V36.0405L13.6988 36.0467ZM14.5765 36.0467H16.4811C17.975 36.0467 18.3671 36.6598 18.3671 38.1786C18.3671 39.6553 17.9376 40.3166 16.4811 40.3166H14.5749L14.5765 36.0467ZM16.4438 39.5012C17.0662 39.5012 17.2701 39.176 17.2701 38.1786C17.2701 37.1811 17.0678 36.8621 16.4438 36.8621H15.6346V39.5075L16.4438 39.5012ZM19.142 36.0405H22.1313V36.8559H20.2079V37.7522H21.806V38.5551H20.2079V39.4888H22.1748V40.3042H19.142V36.0405ZM22.8066 40.1486V39.3083C23.2661 39.4644 23.7483 39.5432 24.2335 39.5417C24.7237 39.5417 24.9384 39.4125 24.9384 39.0749C24.9384 38.787 24.8466 38.7014 24.4545 38.6221L23.7434 38.4758C23.0027 38.3202 22.7568 38.023 22.7568 37.2932C22.7568 36.3595 23.3077 35.9518 24.4171 35.9518C24.8808 35.9477 25.3414 36.0267 25.7772 36.1852V37.0177C25.3606 36.8688 24.9218 36.7919 24.4794 36.7905C23.9519 36.7905 23.7745 36.9321 23.7745 37.2574C23.7745 37.5328 23.8974 37.6122 24.2413 37.6868L24.9338 37.8331C25.7367 38.0043 25.9561 38.2735 25.9561 39.0391C25.9561 39.9525 25.3928 40.368 24.2444 40.368C23.7561 40.3777 23.2698 40.3035 22.8066 40.1486ZM26.6968 36.0405H27.7627V39.495H29.5942V40.3104H26.6968V36.0405ZM30.2603 36.0405H31.3262V40.3104H30.2603V36.0405ZM35.7392 37.8409V40.1626C35.2616 40.3132 34.7633 40.3878 34.2625 40.3835C32.7795 40.3835 32.084 39.7284 32.084 38.1724C32.084 36.6163 32.7827 35.9612 34.2625 35.9612C34.7427 35.9535 35.2202 36.0347 35.6708 36.2008V37.0271C35.2448 36.8814 34.7983 36.8047 34.3481 36.7999C33.4533 36.7999 33.1717 37.1609 33.1717 38.1724C33.1717 39.2258 33.4658 39.5728 34.3107 39.5728C34.4971 39.573 34.6832 39.5606 34.8678 39.5355V38.58H34.0773V37.8456L35.7392 37.8409ZM39.2202 39.4157H37.5521L37.2517 40.3104H36.1889L37.7139 36.0405H39.0739L40.5927 40.3104H39.5205L39.2202 39.4157ZM38.3939 36.7143L37.7715 38.6438H39.0023L38.3939 36.7143Z" fill="black"/>
<path d="M40.528 0.616211H0.829102V32.3759H40.528V0.616211Z" fill="black"/>
<path d="M33.5572 17.3348C33.5789 17.4142 33.5089 17.4686 33.3658 17.5729L33.2786 17.6211L33.3082 17.6787C33.3284 17.7161 33.2942 17.7721 33.2335 17.8016L33.1028 17.867C33.0436 17.8981 32.9783 17.8919 32.9596 17.8545L32.9316 17.8016L32.7667 17.8825L32.7931 17.9385C32.8118 17.9758 32.776 18.0319 32.7138 18.0599L32.5815 18.1221C32.5208 18.1501 32.457 18.1423 32.4383 18.1034L32.415 18.0536C31.9061 18.2933 31.3366 18.5469 30.75 18.8192L30.7826 18.8939C30.8029 18.9313 30.7655 18.9857 30.7064 19.0137L30.5726 19.076C30.5119 19.104 30.4465 19.0947 30.4309 19.0573L30.3952 18.9826L30.2069 19.0744L30.2427 19.1507C30.2598 19.1896 30.2255 19.2425 30.1633 19.272L30.031 19.3327C29.9688 19.3607 29.9065 19.353 29.8879 19.3156L29.8536 19.2425C29.5875 19.3483 29.2966 19.3981 29.0849 18.9982C28.9947 18.8146 28.99 18.3928 28.92 18.1688C28.8909 18.0962 28.826 18.0443 28.7488 18.0318C26.1626 17.5354 25.2865 18.0879 23.6293 17.6786C23.108 17.551 22.8248 17.0717 22.1821 17.064C20.7817 17.0219 20.3693 17.0422 18.8506 16.9846C18.7852 17.204 18.7774 17.2522 18.7774 17.2522L13.44 17.2273L14.2554 17.6273L14.5169 19.9816C14.5169 19.9816 14.3006 20.0439 14.2383 20.0516C14.2897 20.5185 14.3395 21.1565 14.3659 21.7291C14.3893 22.2426 14.4157 22.7779 14.411 23.1187C14.4127 23.3404 14.3592 23.5591 14.2554 23.7551C14.1538 23.9261 14.0176 24.0739 13.8555 24.1893C13.8073 24.225 13.6003 24.3651 13.3622 24.5005C13.1242 24.6359 12.8378 24.7915 12.6931 24.8599C12.7149 24.9226 12.7404 24.9839 12.7694 25.0435C9.53115 26.6121 5.50711 27.1474 4.20467 29.6402C4.04906 29.9297 3.52466 29.7787 3.5091 29.4675C3.5091 29.3244 3.5091 29.0925 3.5091 28.9633H3.46241C3.42039 28.9633 3.38772 28.9058 3.39083 28.8373V28.691C3.39083 28.6241 3.43129 28.5712 3.47175 28.5728H3.52777C3.54428 28.4287 3.57185 28.2862 3.61025 28.1464L3.56045 28.1293C3.52155 28.1153 3.5091 28.0515 3.53088 27.9877L3.57912 27.8507C3.60247 27.7869 3.6507 27.748 3.69271 27.7605L3.74094 27.7776C3.9728 27.2376 4.4194 26.9996 4.62792 26.4876L4.59523 26.4751C4.55321 26.4595 4.54077 26.3973 4.56411 26.3335L4.61235 26.195C4.63569 26.1312 4.68549 26.0923 4.72593 26.1063L4.76172 26.1188C4.79285 26.0441 4.82864 25.9632 4.8691 25.8807L4.82553 25.8512C4.78818 25.8278 4.78818 25.764 4.82553 25.7065L4.90489 25.5835C4.93912 25.5275 4.99671 25.4995 5.03248 25.5229L5.05116 25.5338H5.06983C5.08073 25.5338 5.0854 25.5338 5.09629 25.5212C5.11645 25.4989 5.13775 25.4776 5.16009 25.4574C5.36361 25.3071 5.64035 25.3033 5.84789 25.4482C6.05173 25.5711 6.84845 26.0255 7.6156 25.3361C8.88069 24.2002 10.3605 22.6581 11.4731 22.6052C11.1712 21.9547 10.6468 20.5916 10.5877 20.089L10.2267 20.0127C10.0322 19.5942 9.55915 17.6599 9.42533 16.2066C9.42533 16.2066 9.26971 14.6396 9.42533 14.0887C9.33974 14.0794 9.18258 14.2085 9.13901 14.2101C8.93516 13.7106 9.59649 9.48895 10.2516 8.25964L11.2553 7.85972C11.151 7.8472 10.4259 7.81459 8.51813 7.65899C7.44598 8.60664 6.21512 9.62432 5.59112 10.1767C5.48531 10.2545 5.30792 10.8583 5.30792 10.8583C5.30792 10.8583 4.9967 11.1353 4.69949 11.3391C4.31358 11.6099 3.36904 11.8184 3.16363 11.4947C3.11694 11.4154 3.12473 11.3812 3.16363 11.3391C3.3099 11.1835 3.86232 10.9221 4.04905 10.572C3.74717 10.7276 3.41105 10.8832 3.14807 10.8567C3.03292 10.8567 2.97379 10.5689 3.12162 10.5175C3.52308 10.3479 3.84053 10.2748 4.07705 9.94176C4.31358 9.60876 4.58123 9.40803 4.94535 9.40025C4.94535 9.40025 6.71928 7.08324 7.76498 5.97686C8.05441 5.67498 8.59126 5.77457 8.59126 5.77457L8.68151 5.4229C8.68151 5.4229 12.2605 4.99497 13.9349 5.54738C13.896 4.53437 14.3503 3.18835 15.936 3.18835C16.7514 3.18835 17.9511 3.90883 18.1145 4.78335C18.1643 5.05255 18.0087 5.2315 17.9262 5.57228C17.7846 6.08734 17.9822 6.66154 17.9262 6.84049C17.8795 6.98832 17.713 6.97588 17.5683 7.17661C17.4416 7.37451 17.3318 7.58273 17.24 7.79904L17.0237 8.28454L15.9064 8.20362C15.4987 9.08592 14.6615 10.8832 14.3659 12.6649C15.2435 12.7396 19.2209 13.3154 19.2209 13.3154L19.3174 13.639C19.3174 13.639 20.9933 13.8398 22.3642 14.4933C22.6754 14.568 23.441 14.4529 23.9467 14.6847C23.9809 14.6645 24.065 14.5789 24.1023 14.5556C25.8903 15.1064 27.3701 16.0432 29.0927 16.4602C29.0927 16.4602 29.8987 16.6563 30.1695 16.7092C30.6263 16.7979 31.0884 16.8572 31.5529 16.8866C32.1053 16.9301 32.4118 16.9224 32.8148 16.9457C33.1012 16.9628 33.4497 16.9146 33.5633 17.3316M36.1231 11.8947C34.9053 11.8922 33.916 12.8772 33.9135 14.095C33.9109 15.3127 34.896 16.302 36.1138 16.3046C37.3315 16.3071 38.3208 15.3221 38.3234 14.1043C38.3234 14.1027 38.3234 14.1012 38.3234 14.0996C38.3216 12.8824 37.334 11.8969 36.1169 11.8977L36.1231 11.8947Z" fill="white"/>
</svg>
