<?xml version="1.0" encoding="UTF-8"?>
<svg enable-background="new 0 0 1400 980" version="1.1" viewBox="1.92 379.82 1397 215.55" xmlns="http://www.w3.org/2000/svg">
<g transform="matrix(5.0421 0 0 5.0421 -15.534 260.7)">
<path d="m72.477 41.383h6.339v10.721h4.093v-10.721h6.247v-3.543h-16.679z"/>
<path d="m124.31 41.383h6.34v10.721h4v-10.721h6.35v-3.543h-16.69z"/>
<path d="m218.29 41.383h6.33v10.721h4.02v-10.721h6.33v-3.543h-16.68z"/>
<path d="M59.32199,37.84924c-.91604-.03356-1.83093.09263-2.70368.37292-.66548.23826-1.27028.62023-1.77138,1.11876-.48192.49744-.83411,1.10576-1.02553,1.77137-.19038.76216-.28434,1.5452-.27969,2.33076v2.98337c-.01038.78588.08368,1.56965.27969,2.33076.16994.67455.52517,1.28812,1.02553,1.77137.49843.48615,1.09644.85832,1.75273,1.09079.87275.28029,1.78764.40648,2.70368.37292h11.18763v-3.72921h-10.78674c-.61572.08235-1.23498-.12407-1.67814-.55938-.34396-.52402-.50762-1.14593-.46615-1.77137v-2.42399c-.05625-.62678.10867-1.25347.46615-1.77137.4811-.36039,1.08009-.52678,1.67814-.46615h10.8147v-3.54275h-11.18763l-.00933.1212Z"/>
<path d="M205.5163,37.84924c-.91604-.03356-1.83092.09263-2.70367.37292-.66548.23826-1.27028.62024-1.77137,1.11876-.48193.49744-.83412,1.10576-1.02554,1.77137-.19038.76216-.28435,1.54519-.27969,2.33076v2.98337c-.01037.78588.08368,1.56965.27969,2.33076.16994.67455.52517,1.28812,1.02554,1.77137.50109.49853,1.10589.88051,1.77137,1.11876.87275.28029,1.78763.40648,2.70367.37292h11.18763v-3.72921h-10.81471c-.61572.08235-1.23498-.12407-1.67815-.55938-.34395-.52402-.50762-1.14593-.46615-1.77137v-2.42399c-.05625-.62678.10867-1.25347.46615-1.77137.4811-.36039,1.08009-.52678,1.67815-.46615h10.81471v-3.54275h-11.18763v.09323Z"/>
<path d="m35.931 56.495-9.1645 9.1086c-1.1028 1.0279-2.8128 1.0279-3.9157 0l-18.618-18.646c-1.0279-1.1028-1.0279-2.8128 0-3.9157l5.1277-5.1277h4.5683c5.2209 0 7.5516-1.212 8.3907-4.3818h-8.6052l9.1366-9.1366c1.1028-1.0279 2.8128-1.0279 3.9157 0l9.1366 9.1366h-4.7547c-6.8058 0-8.7636 2.0511-8.7636 7.9246v7.1787c0 5.7803 1.9578 7.9246 8.7636 7.9246h4.7547l0.02797-0.06526z"/>
<path d="m45.524 43.07-5.1277-5.1277h-8.9688c-3.1698 0-3.9157 0.9323-3.9157 3.7292v6.7126c0 2.8901 0.74584 3.7292 3.9157 3.7292h8.8569l5.2209-5.2209c1.0118-1.0705 1.0199-2.7422 0.01865-3.8224zm-9.4349 4.7548h-1.212v-3.8224h1.212v3.8224zm0-4.848h-1.212v-1.1188h1.212v1.1188z"/>
<path d="m96.801 52.113v-14.264h4.0089v14.264h-4.0089z"/>
<path d="m147.03 48.384h12.306v3.7292h-16.315v-14.264h16.222v3.5148l-12.213 0.09323v2.0511h6.6194v2.8901h-6.6193v1.9858z"/>
<path d="m268.23 48.384h12.306v3.7292h-16.409v-14.264h16.222v3.5148l-12.213 0.09323v2.0511h6.6194v2.8901h-6.6194l0.09324 1.9858z"/>
<path d="M165.7909,46.95784v5.12766h-4.0089v-14.23626h11.65378c.75585-.02368,1.51077.07069,2.23752.27969.58616.13844,1.1104.46609,1.49169.9323.38546.39392.67289.87296.83907,1.39845.1907.60296.28509,1.23223.27969,1.8646v1.02553c.00539.63238-.089,1.26164-.27969,1.8646-.16617.52549-.4536,1.00454-.83907,1.39845-.41275.38425-.88502.6991-1.39845.9323-.6961.20312-1.41939.29747-2.1443.27969h-.9323v.06526c.18646.18646,5.87351,3.91567,5.87351,3.91567v.18646h-5.2209l-7.55164-5.03443ZM165.69767,41.36402v3.44952h6.89903c.3946.04694.79268-.05258,1.11876-.27969.26208-.34803.39403-.77684.37292-1.21199v-.46615c0-.55938-.09324-.9323-.37292-1.11876-.33186-.21409-.7252-.31243-1.11876-.27969h-6.91767l.01864-.09323Z"/>
<path d="m236.47 52.113v-14.264h4.0089v14.264h-4.0089z"/>
<path d="m258.09 37.849h4.6615v0.18646l-7.3652 13.985h-6.06l-7.3652-14.078v-0.18646h4.7548l5.2209 10.721h0.74583l5.4073-10.628z"/>
<path d="m199.36 52.104h-13.61l2.14-3.729h5.32l-3.55-6.06h-0.47l-5.68 9.789h-4.01l8.21-14.348h3.44z"/>
<path d="m118.25 48.375h-0.46l-7.66-10.619h-5.78v14.264h4.02v-10.535h0.36l7.56 10.535h5.96v-14.264h-4z"/>
</g>
</svg>
