<?xml version="1.0" encoding="UTF-8"?>
<svg data-name="Layer 1" version="1.1" viewBox="0 0 174.6 40.7" xmlns="http://www.w3.org/2000/svg">
<g data-name="Group 14175">
<g data-name="Group 14130">
<g data-name="Group 14114">
<g style="isolation:isolate">
<g stroke-width="0px" style="isolation:isolate">
<path d="M102.2,8v3.9h-9.6v5.1h8.6v3.9h-8.6v5.9h9.6v3.9h-14.2V8h14.2Z"/>
<path d="M110,26.9h9.6v3.9h-14.2V8h4.6v18.9Z"/>
<path d="m129.7 8c5.4 0 8.3 1.9 8.3 6s-1.2 4-3 4.9c2.3 0.9 3.7 2.6 3.7 5.4s-2.3 6.5-8.3 6.5h-8.4v-22.8h7.6zm-3.1 9h3.1c2.5 0 3.6-1 3.6-2.6s-0.8-2.5-4.1-2.5h-2.6v5.1zm0 9.9h3.3c2.8 0 4.1-1.1 4.1-3s-1.4-3-4.5-3h-2.9v6z"/>
<path d="M156.2,8v3.9h-9.6v5.1h8.6v3.9h-8.6v5.9h9.6v3.9h-14.2V8h14.2Z"/>
<path d="M174.6,8v3.9h-6.3v18.8h-4.6V11.9h-6.3v-3.9h17.2Z"/>
</g>
</g>
</g>
</g>
</g>
<g stroke-width="0px" data-name="Group 14181-2">
<path d="M21.3,21.2L0,29.2l16.2,10.6,20-5.7-14.9-12.8ZM8.6,31.2c-1.3-.1-2.3-.8-2.3-1.4s1.2-1.1,2.5-.9,2.3.8,2.3,1.4-1.2,1.1-2.5.9M17.4,37.1c-1.2-.1-2.2-.7-2.1-1.3s1.1-1,2.3-.9,2.2.7,2.1,1.3-1.1,1-2.3.9M18.6,32.5c-1.3-.1-2.4-.7-2.3-1.4s1.2-1.1,2.5-1,2.4.7,2.3,1.4-1.2,1.1-2.5,1M20.1,27.3c-1.4-.1-2.5-.8-2.4-1.6s1.2-1.2,2.6-1.1,2.5.8,2.4,1.6-1.2,1.2-2.6,1.1M28.8,33.8c-1.3,0-2.4-.6-2.4-1.3s1.1-1.2,2.5-1.1,2.4.6,2.4,1.3-1.1,1.2-2.5,1.1" data-name="Path 7138-2"/>
<path d="M1.2,10.5L0,29.2l21.3-7.9.4-20.2L1.2,10.5ZM5.5,24.1c-.9.9-2.1,1.2-2.7.7s-.4-1.8.5-2.8,2.1-1.2,2.7-.7.4,1.8-.5,2.8M5.9,18.6c-.9.9-2.1,1.2-2.7.7s-.4-1.8.5-2.8c.9-1,2.1-1.2,2.7-.7s.4,1.8-.5,2.8M6.3,13.3c-.9.9-2,1.2-2.6.6s-.3-1.7.5-2.6,2-1.2,2.6-.7.3,1.7-.5,2.6M17.9,19.4c-1.1,1-2.4,1.2-3,.6s-.3-2,.7-3,2.4-1.2,3-.6.3,2-.7,3M18.1,13.7c-1,1-2.3,1.2-3,.5s-.3-2,.7-2.9,2.4-1.2,3-.5.3,2-.7,2.9M18.2,8c-1,1-2.3,1.2-2.9.6s-.2-1.9.8-2.8c1-1,2.3-1.2,2.9-.6s.2,1.9-.8,2.8" data-name="Path 7139-2"/>
<path d="M33,14.2L21.7,1l-.4,20.2,14.9,12.8-3.1-19.8ZM25.6,10.5c-.4.2-1.1-.6-1.7-1.8s-.7-2.2-.3-2.4,1.1.6,1.7,1.8.7,2.2.3,2.4M29.5,19.7c-.4.2-1.1-.7-1.6-2s-.6-2.4-.2-2.5,1.1.7,1.6,2,.6,2.4.2,2.5M33.3,28.5c-.4.1-1.1-.7-1.5-2s-.5-2.3,0-2.5,1.1.7,1.5,2,.5,2.3,0,2.5" data-name="Path 7140-2"/>
<path d="M56.5,20.7l-24.7-5.7,3.9,19.3,22.5,5.7-1.7-19.2ZM35.1,18.7c.5-.8,1.9-.7,3.1,0s1.9,2,1.5,2.8-1.9.7-3.1,0-1.9-2-1.5-2.8M41.6,32.3c-.4.7-1.7.7-3,0s-1.8-1.9-1.4-2.6,1.8-.7,3,0,1.8,1.9,1.4,2.6M49.9,22.3c.5-.8,1.9-.8,3.3,0s2,2.1,1.5,2.9-1.9.8-3.3,0-2-2.1-1.5-2.9M55.8,36.1c-.5.7-1.8.7-3.1,0s-1.9-2-1.4-2.7,1.8-.7,3.1,0,1.9,2,1.4,2.7" data-name="Path 7142-2"/>
<path d="M41.3.8l-9.6,14.1,24.7,5.7,9.1-16L41.3.8ZM39.1,14c-1.4,0-2.5-.6-2.6-1.5s1.1-1.6,2.4-1.7,2.5.6,2.6,1.5-1.1,1.6-2.4,1.7M41.7,9.8c-1.3,0-2.4-.6-2.5-1.4s1-1.6,2.3-1.6,2.4.6,2.5,1.4-1,1.6-2.3,1.6M44.2,5.7c-1.3,0-2.3-.5-2.4-1.3s1-1.5,2.2-1.5,2.3.5,2.4,1.3-1,1.5-2.2,1.5M53.8,17.1c-1.5,0-2.8-.7-2.8-1.6s1.2-1.7,2.8-1.7,2.8.7,2.8,1.7-1.2,1.7-2.8,1.7M56.5,12.6c-1.5,0-2.8-.6-2.8-1.5s1.1-1.7,2.7-1.7,2.8.6,2.8,1.5-1.2,1.7-2.7,1.7M59,8.1c-1.4,0-2.6-.6-2.7-1.4s1.1-1.6,2.5-1.6,2.6.6,2.7,1.4-1.1,1.6-2.5,1.6" data-name="Path 7143-2"/>
<path d="M56.5,20.7l1.7,19.2,7-14.4.4-20.8-9.1,16ZM58.7,24.9c-.4,0-.5-1.3-.3-2.7s.8-2.6,1.2-2.5.5,1.3.3,2.7-.8,2.6-1.2,2.5M60.4,32.9c-.3,1.2-.7,2.1-1,2s-.3-1.1,0-2.2.7-2.1,1-2,.3,1.1,0,2.2M62.4,23.5c-.2,1.3-.7,2.3-1,2.2s-.4-1.1-.2-2.4.7-2.3,1-2.2.4,1.1.2,2.4M64.4,24.3c-.2,1.1-.6,2-.8,2s-.2-1,0-2.2.6-2,.9-2,.2,1,0,2.2M64.5,13c-.2,1.5-.7,2.6-1,2.5s-.4-1.3-.1-2.7.7-2.6,1-2.5.4,1.3.1,2.7" data-name="Path 7144-2"/>
</g>
</svg>
