<svg width="455" height="81" viewBox="0 0 455 81" fill="none" xmlns="http://www.w3.org/2000/svg">
<path d="M84.9873 17.4575C85.5859 17.4575 85.9849 17.4575 86.3839 17.4575C94.1644 17.4575 101.945 17.4575 109.526 17.4575C113.516 17.4575 117.307 18.455 120.299 21.647C121.895 23.243 122.893 25.238 123.092 27.4325C123.292 29.4276 123.292 31.2231 123.092 33.2181C122.893 36.2106 121.297 38.6046 119.102 40.2006C120.499 41.1981 121.895 42.1956 123.292 43.1931C125.287 44.9887 126.284 47.5822 126.284 50.1757C126.284 52.3702 126.284 54.5647 125.885 56.7592C124.888 61.5473 120.698 65.1383 115.112 65.9363C113.516 66.1358 112.12 66.3353 110.524 66.3353C104.539 66.3353 98.3539 66.3353 92.3689 66.3353C87.3814 66.3353 84.9873 63.9413 84.9873 58.9537C84.9873 45.7867 84.9873 32.6196 84.9873 19.253V17.4575ZM94.5634 57.9562C95.1619 57.9562 95.5609 57.9562 96.1594 57.9562C100.948 57.9562 105.536 57.9562 110.324 57.9562C115.711 57.9562 117.307 55.7617 117.107 51.1732C116.908 47.3827 115.312 45.5872 111.521 45.5872C106.334 45.5872 101.147 45.5872 95.9599 45.5872C95.5609 45.5872 95.1619 45.5872 94.7629 45.5872L94.5634 57.9562ZM94.5634 37.6071C99.7504 37.6071 104.938 37.6071 110.125 37.6071C111.122 37.6071 112.319 36.8091 112.718 36.0111C114.314 33.6171 114.115 30.8241 113.317 28.2305C113.117 27.632 112.319 27.0335 111.721 26.6345C110.723 26.2355 109.526 25.8365 108.329 25.8365C104.938 25.8365 101.746 25.8365 98.3539 25.8365C97.1569 25.8365 95.7604 25.8365 94.5634 25.8365V37.6071Z" fill="white"/>
<path d="M342.145 45.1882C345.536 47.3827 346.733 50.9737 347.93 54.7642C349.127 58.5547 350.324 62.1458 351.521 66.1358H341.746C340.549 62.5448 339.352 58.7542 338.155 54.9637C337.756 53.9662 337.556 52.9687 336.958 51.9712C335.761 49.7767 333.965 48.5797 331.571 48.5797C328.18 48.5797 324.788 48.5797 321.397 48.5797C320.998 48.5797 320.599 48.5797 320.2 48.7792V66.1358H310.823V17.657C311.222 17.657 311.422 17.4575 311.821 17.4575C320.399 17.4575 328.778 17.4575 337.357 17.4575C341.147 17.4575 344.539 18.6545 347.132 21.4475C348.529 23.0435 349.726 24.839 349.925 27.0335C350.125 30.2256 350.324 33.4176 350.125 36.4101C349.726 40.2006 347.332 42.7941 343.94 44.3902C343.541 44.5897 343.142 44.7892 342.544 44.9887C342.145 44.9887 342.145 45.1882 342.145 45.1882ZM320 25.8365V40.4001C324.19 40.4001 328.18 40.4001 332.369 40.4001C333.566 40.4001 334.763 40.4001 335.96 40.2006C338.753 39.8016 340.349 37.8066 340.549 35.0136C340.549 33.6171 340.549 32.2206 340.549 30.8241C340.549 27.4325 338.953 25.8365 335.561 25.8365C332.569 25.8365 329.576 25.8365 326.783 25.8365C324.389 25.8365 322.394 25.8365 320 25.8365Z" fill="white"/>
<path d="M359.102 17.4577C363.691 17.4577 368.279 17.4577 372.668 17.4577C377.057 17.4577 381.446 17.2582 385.835 17.8567C394.813 19.0537 400.2 25.6372 400.2 34.8143C400.2 40.0013 400.2 45.1884 400.2 50.3754C400 54.9639 398.604 59.1534 395.212 62.3455C392.02 65.1385 388.23 66.3355 384.04 66.3355C377.855 66.535 371.471 66.535 365.287 66.3355C361.696 66.3355 359.102 63.742 359.102 60.1509C359.102 46.1859 359.102 32.2208 359.102 18.2557C358.903 17.8567 359.102 17.8567 359.102 17.4577ZM368.479 57.5574C373.865 57.5574 379.252 57.5574 384.439 57.5574C385.037 57.5574 385.636 57.1584 386.235 56.9589C389.427 55.3629 390.624 52.3704 390.624 48.9789C390.823 43.9913 390.624 39.2033 390.624 34.2158C390.624 33.8168 390.624 33.4178 390.424 32.8193C389.626 28.6298 386.434 26.0362 381.845 26.0362C377.456 26.0362 373.267 26.0362 368.878 26.0362C368.678 26.0362 368.479 26.0362 368.08 26.2357L368.479 57.5574Z" fill="white"/>
<path d="M217.656 31.8219H208.479C208.279 31.2234 208.279 30.6249 208.08 30.0264C207.481 27.4329 205.885 25.6374 203.292 25.4379C199.701 25.2384 196.11 25.2384 192.718 25.6374C188.13 26.2359 187.531 30.0264 188.928 33.6174C189.526 35.2134 191.122 35.6124 192.519 36.0114C196.908 36.8094 201.297 37.4079 205.686 38.4054C208.479 39.0039 211.072 40.0015 213.666 41.1985C216.858 42.7945 218.653 45.787 218.653 49.5775C218.653 50.7745 218.653 51.9715 218.653 53.1685C219.052 60.1511 214.663 63.9416 209.875 65.5376C208.279 66.1361 206.683 66.5351 205.087 66.5351C200.1 66.5351 194.913 66.9341 189.925 66.1361C182.544 64.9391 177.955 58.1561 178.554 50.575H187.531C187.731 51.5725 187.731 52.3705 187.93 53.1685C188.529 55.9616 190.723 57.9566 193.317 57.9566C196.708 58.1561 200.1 58.1561 203.691 57.9566C208.08 57.7571 210.274 53.767 208.678 49.5775C207.88 47.782 206.284 47.1835 204.688 46.7845C201.297 46.186 197.905 45.5875 194.314 44.989C190.723 44.3905 186.933 43.9915 183.741 41.797C180.549 39.802 178.953 37.0089 178.753 33.2184C178.753 31.4229 178.554 29.4279 178.753 27.6324C179.352 22.2458 182.743 19.2533 187.731 17.6573C188.928 17.2583 190.324 16.8593 191.521 16.8593C196.11 16.8593 200.898 16.4603 205.486 17.0588C213.067 18.0563 218.055 24.6399 217.656 31.8219Z" fill="white"/>
<path d="M407.581 50.7744H416.559C416.758 51.9714 416.958 53.3679 417.357 54.3654C418.155 56.56 419.95 58.156 422.344 58.156C425.935 58.3555 429.526 58.555 433.117 58.156C438.304 57.5575 438.703 53.9664 437.706 49.7769C437.307 47.9814 435.312 47.3829 433.716 47.1834C428.728 46.1859 423.541 45.5874 418.554 44.3904C416.559 43.9914 414.564 43.1934 412.968 41.9964C409.975 40.2008 408.18 37.4078 408.18 33.8168C408.18 32.6198 408.18 31.4228 408.18 30.2258C407.98 22.8442 412.569 19.2532 417.756 17.8567C419.152 17.4577 420.349 17.0587 421.746 17.0587C426.135 17.0587 430.324 16.8592 434.713 17.2582C441.696 17.8567 446.683 23.8417 446.883 30.8243C446.883 31.0238 446.883 31.4228 446.883 31.8218H437.706C437.506 31.0238 437.506 30.0263 437.107 29.4278C436.309 27.0338 434.514 25.6373 432.12 25.6373C429.127 25.6373 426.135 25.6373 422.943 25.6373C422.344 25.6373 421.746 25.8368 421.147 25.8368C418.155 26.6348 417.357 28.0313 417.357 31.6223C417.357 34.0163 418.554 35.4128 421.147 36.0113C424.938 36.8093 428.928 37.2083 432.718 38.2058C435.711 39.0038 438.903 39.6023 441.895 40.9989C445.486 42.5949 447.681 45.5874 447.282 49.9764C447.082 51.5724 447.282 53.1684 447.282 54.7644C447.481 59.5525 445.087 62.7445 441.297 64.7395C439.102 65.9365 436.509 66.7345 434.115 66.934C429.526 67.1335 424.738 67.333 419.95 66.7345C411.771 65.5375 407.182 58.7545 407.581 50.7744Z" fill="white"/>
<path d="M139.052 66.1357H129.277C129.476 65.5372 129.676 65.1382 129.676 64.5397C135.661 49.1781 141.446 33.8165 147.431 18.4549C147.83 17.4574 148.229 17.0584 149.227 17.2579C149.825 17.2579 150.424 17.2579 151.022 17.2579C155.611 17.2579 157.008 18.0559 158.604 22.4449C163.99 36.41 169.377 50.3751 174.564 64.3402C174.763 64.9387 174.963 65.3377 175.162 66.1357C171.97 66.1357 168.978 66.1357 165.786 66.1357C165.387 66.1357 164.988 65.5372 164.988 65.1382C163.791 62.1457 162.594 58.9536 161.596 55.9611C161.197 54.9636 160.798 54.7641 159.801 54.7641C154.614 54.7641 149.426 54.7641 144.439 54.7641C143.441 54.7641 143.042 55.1631 142.643 55.9611C141.446 59.5521 140.249 62.7442 139.052 66.1357ZM152.419 29.6269C152.219 29.6269 152.219 29.6269 152.02 29.6269C150.025 35.4125 147.83 40.9985 145.636 46.7841H158.404C156.609 40.9985 154.414 35.213 152.419 29.6269Z" fill="white"/>
<path d="M304.239 66.1361C301.047 66.1361 298.055 66.1361 295.262 66.1361C294.863 66.1361 294.264 65.5376 294.065 65.1386C292.868 62.146 291.671 58.954 290.673 55.9615C290.474 55.1635 289.875 54.7645 289.077 54.7645C283.89 54.7645 278.504 54.7645 273.317 54.7645C272.519 54.7645 272.12 54.964 271.92 55.762C270.723 58.7545 269.526 61.9465 268.529 64.9391C268.329 65.7371 267.93 66.1361 266.933 66.1361C264.14 66.1361 261.347 66.1361 258.155 66.1361C259.352 62.944 260.549 59.9515 261.746 56.959C266.534 44.3904 271.521 31.8218 276.309 19.0538C276.908 17.6573 277.506 17.2583 279.102 17.2583C285.287 17.2583 286.085 17.8568 288.279 23.6423C293.466 37.4079 298.853 50.974 304.04 64.7396C304.04 65.3381 304.04 65.5376 304.239 66.1361ZM287.681 46.7844C285.486 40.9989 283.491 35.2134 281.496 29.6273C281.297 29.6273 281.297 29.6273 281.097 29.6273C279.102 35.2134 276.908 40.9989 274.713 46.7844H287.681Z" fill="white"/>
<path d="M16.9576 66.1358H7.58105V17.4575H43.2918V25.637H16.9576V38.8041H40.8978C40.8978 41.5971 40.8978 44.1907 40.8978 46.5847C40.8978 46.7842 40.0998 47.1832 39.7008 47.1832C34.7132 47.1832 29.7257 47.1832 24.9377 47.1832C22.3441 47.1832 19.9501 47.1832 17.1571 47.1832L16.9576 66.1358Z" fill="white"/>
<path d="M237.606 66.136V25.8368H222.444V17.6572H262.145V25.8368H246.983V66.136H237.606Z" fill="white"/>
<path d="M60.848 21.6471V14.2656H66.833V21.6471C69.227 20.0511 71.4215 18.6546 73.616 17.2581C74.414 18.8541 75.212 20.2506 76.2096 22.0461C73.616 23.4426 71.222 24.6396 68.6285 26.0361C71.222 27.4326 73.616 28.6297 76.2096 30.0262C75.4115 31.6222 74.6135 33.2182 73.616 34.8142C71.4215 33.2182 69.227 31.8217 66.833 30.2257V37.8067H60.848V30.4252C58.4539 32.0212 56.4589 33.4177 54.2644 34.8142C53.4664 33.2182 52.6684 31.6222 51.6709 30.0262C54.2644 28.6297 56.6584 27.4326 59.2519 26.0361C56.6584 24.6396 54.2644 23.4426 51.6709 22.0461C52.4689 20.4501 53.2669 18.8541 54.2644 17.2581C56.4589 18.6546 58.4539 20.0511 60.848 21.6471Z" fill="white"/>
</svg>
