<svg width="140" height="24" viewBox="0 0 140 24" fill="none" xmlns="http://www.w3.org/2000/svg">
<path d="M26.1577 5.0874C26.3419 5.0874 26.4647 5.0874 26.5875 5.0874C28.9823 5.0874 31.377 5.0874 33.7103 5.0874C34.9384 5.0874 36.1051 5.38665 37.0261 6.34426C37.5174 6.82306 37.8244 7.42157 37.8858 8.07992C37.9472 8.67842 37.9472 9.21708 37.8858 9.81558C37.8244 10.7133 37.3332 11.4315 36.6577 11.9103C37.0875 12.2096 37.5174 12.5088 37.9472 12.8081C38.5612 13.3468 38.8682 14.1248 38.8682 14.9029C38.8682 15.5612 38.8682 16.2196 38.7454 16.8779C38.4384 18.3143 37.1489 19.3916 35.4296 19.631C34.9384 19.6909 34.5086 19.7507 34.0174 19.7507C32.1753 19.7507 30.2718 19.7507 28.4296 19.7507C26.8946 19.7507 26.1577 19.0325 26.1577 17.5363C26.1577 13.5862 26.1577 9.63603 26.1577 5.62606V5.0874ZM29.1051 17.237C29.2893 17.237 29.4121 17.237 29.5963 17.237C31.07 17.237 32.4823 17.237 33.956 17.237C35.6139 17.237 36.1051 16.5787 36.0437 15.2021C35.9823 14.065 35.491 13.5263 34.3244 13.5263C32.7279 13.5263 31.1314 13.5263 29.5349 13.5263C29.4121 13.5263 29.2893 13.5263 29.1665 13.5263L29.1051 17.237ZM29.1051 11.1323C30.7016 11.1323 32.2981 11.1323 33.8946 11.1323C34.2016 11.1323 34.57 10.8929 34.6928 10.6535C35.184 9.93528 35.1226 9.09738 34.877 8.31932C34.8156 8.13977 34.57 7.96022 34.3858 7.84052C34.0788 7.72082 33.7103 7.60112 33.3419 7.60112C32.2981 7.60112 31.3156 7.60112 30.2718 7.60112C29.9033 7.60112 29.4735 7.60112 29.1051 7.60112V11.1323Z" fill="black"/>
<path d="M105.307 13.4066C106.351 14.065 106.719 15.1423 107.088 16.2794C107.456 17.4166 107.824 18.4939 108.193 19.6909H105.184C104.816 18.6136 104.447 17.4764 104.079 16.3393C103.956 16.04 103.895 15.7408 103.71 15.4415C103.342 14.7832 102.789 14.4241 102.052 14.4241C101.009 14.4241 99.9648 14.4241 98.9209 14.4241C98.7981 14.4241 98.6753 14.4241 98.5525 14.4839V19.6909H95.6665V5.14725C95.7893 5.14725 95.8507 5.0874 95.9735 5.0874C98.6139 5.0874 101.193 5.0874 103.833 5.0874C105 5.0874 106.044 5.4465 106.842 6.28441C107.272 6.76321 107.64 7.30187 107.702 7.96022C107.763 8.91783 107.824 9.87543 107.763 10.7732C107.64 11.9103 106.903 12.6884 105.859 13.1672C105.737 13.2271 105.614 13.2869 105.43 13.3468C105.307 13.3468 105.307 13.4066 105.307 13.4066ZM98.4911 7.60112V11.9702C99.7805 11.9702 101.009 11.9702 102.298 11.9702C102.667 11.9702 103.035 11.9702 103.403 11.9103C104.263 11.7906 104.754 11.1921 104.816 10.3542C104.816 9.93528 104.816 9.51633 104.816 9.09738C104.816 8.07992 104.324 7.60112 103.281 7.60112C102.359 7.60112 101.438 7.60112 100.579 7.60112C99.8419 7.60112 99.2279 7.60112 98.4911 7.60112Z" fill="black"/>
<path d="M110.526 5.0877C111.939 5.0877 113.351 5.0877 114.702 5.0877C116.053 5.0877 117.404 5.02785 118.754 5.2074C121.518 5.5665 123.175 7.54157 123.175 10.2947C123.175 11.8508 123.175 13.4069 123.175 14.963C123.114 16.3396 122.684 17.5964 121.64 18.554C120.658 19.3919 119.491 19.751 118.202 19.751C116.298 19.8109 114.333 19.8109 112.43 19.751C111.325 19.751 110.526 18.973 110.526 17.8957C110.526 13.7062 110.526 9.51663 110.526 5.3271C110.465 5.2074 110.526 5.2074 110.526 5.0877ZM113.412 17.1176C115.07 17.1176 116.728 17.1176 118.325 17.1176C118.509 17.1176 118.693 16.9979 118.877 16.9381C119.86 16.4593 120.228 15.5615 120.228 14.5441C120.289 13.0478 120.228 11.6114 120.228 10.1151C120.228 9.99543 120.228 9.87573 120.167 9.69618C119.921 8.43932 118.939 7.66127 117.526 7.66127C116.175 7.66127 114.886 7.66127 113.535 7.66127C113.474 7.66127 113.412 7.66127 113.289 7.72112L113.412 17.1176Z" fill="black"/>
<path d="M66.9911 9.39652H64.1666C64.1051 9.21697 64.1052 9.03741 64.0437 8.85786C63.8595 8.07981 63.3683 7.54115 62.5701 7.4813C61.4648 7.42145 60.3595 7.42145 59.3157 7.54115C57.9034 7.72071 57.7192 8.85786 58.149 9.93517C58.3332 10.414 58.8244 10.5337 59.2543 10.6534C60.6051 10.8928 61.956 11.0723 63.3069 11.3716C64.1666 11.5511 64.9648 11.8504 65.763 12.2095C66.7455 12.6883 67.2981 13.586 67.2981 14.7232C67.2981 15.0823 67.2981 15.4414 67.2981 15.8005C67.4209 17.8953 66.0701 19.0324 64.5964 19.5112C64.1051 19.6908 63.6139 19.8105 63.1227 19.8105C61.5876 19.8105 59.9911 19.9302 58.456 19.6908C56.1841 19.3317 54.7718 17.2968 54.956 15.0225H57.7192C57.7806 15.3217 57.7806 15.5611 57.842 15.8005C58.0262 16.6384 58.7016 17.2369 59.4999 17.2369C60.5437 17.2968 61.5876 17.2968 62.6929 17.2369C64.0437 17.1771 64.7192 15.9801 64.228 14.7232C63.9823 14.1845 63.4911 14.005 62.9999 13.8853C61.956 13.7057 60.9122 13.5262 59.8069 13.3466C58.7016 13.1671 57.535 13.0474 56.5525 12.389C55.5701 11.7905 55.0788 10.9526 55.0174 9.81547C55.0174 9.27682 54.956 8.67831 55.0174 8.13966C55.2016 6.5237 56.2455 5.62594 57.7806 5.14714C58.149 5.02744 58.5788 4.90774 58.9473 4.90774C60.3595 4.90774 61.8332 4.78804 63.2455 4.96759C65.5788 5.26684 67.1139 7.2419 66.9911 9.39652Z" fill="black"/>
<path d="M125.447 15.0823H128.21C128.272 15.4414 128.333 15.8604 128.456 16.1596C128.702 16.818 129.254 17.2968 129.991 17.2968C131.096 17.3566 132.202 17.4165 133.307 17.2968C134.903 17.1172 135.026 16.0399 134.719 14.7831C134.596 14.2444 133.982 14.0649 133.491 14.005C131.956 13.7058 130.36 13.5262 128.825 13.1671C128.21 13.0474 127.596 12.808 127.105 12.4489C126.184 11.9102 125.632 11.0723 125.632 9.99503C125.632 9.63593 125.632 9.27683 125.632 8.91772C125.57 6.70326 126.982 5.62595 128.579 5.207C129.009 5.0873 129.377 4.9676 129.807 4.9676C131.158 4.9676 132.447 4.90775 133.798 5.02745C135.947 5.207 137.482 7.00251 137.544 9.09728C137.544 9.15713 137.544 9.27683 137.544 9.39653H134.719C134.658 9.15713 134.658 8.85787 134.535 8.67832C134.289 7.96012 133.737 7.54117 133 7.54117C132.079 7.54117 131.158 7.54117 130.175 7.54117C129.991 7.54117 129.807 7.60102 129.623 7.60102C128.702 7.84042 128.456 8.25937 128.456 9.33668C128.456 10.0549 128.825 10.4738 129.623 10.6534C130.789 10.8928 132.018 11.0125 133.184 11.3117C134.105 11.5511 135.088 11.7307 136.009 12.1496C137.114 12.6284 137.789 13.5262 137.667 14.8429C137.605 15.3217 137.667 15.8005 137.667 16.2793C137.728 17.7157 136.991 18.6733 135.825 19.2718C135.149 19.6309 134.351 19.8703 133.614 19.9302C132.202 19.99 130.728 20.0499 129.254 19.8703C126.737 19.5112 125.325 17.4763 125.447 15.0823Z" fill="black"/>
<path d="M42.7981 19.691H39.7893C39.8507 19.5115 39.9121 19.3917 39.9121 19.2122C41.7542 14.6037 43.5349 9.99524 45.377 5.38676C45.4998 5.08751 45.6226 4.96781 45.9297 5.02766C46.1139 5.02766 46.2981 5.02766 46.4823 5.02766C47.8946 5.02766 48.3244 5.26706 48.8156 6.58377C50.4735 10.7733 52.1314 14.9628 53.7279 19.1523C53.7893 19.3319 53.8507 19.4516 53.9121 19.691C52.9297 19.691 52.0086 19.691 51.0261 19.691C50.9033 19.691 50.7805 19.5115 50.7805 19.3917C50.4121 18.494 50.0437 17.5364 49.7367 16.6386C49.6139 16.3394 49.4911 16.2795 49.184 16.2795C47.5875 16.2795 45.9911 16.2795 44.456 16.2795C44.149 16.2795 44.0261 16.3992 43.9033 16.6386C43.5349 17.7159 43.1665 18.6735 42.7981 19.691ZM46.9121 8.73838C46.8507 8.73838 46.8507 8.73838 46.7893 8.73838C46.1753 10.474 45.4998 12.1499 44.8244 13.8855H48.7542C48.2016 12.1499 47.5261 10.4142 46.9121 8.73838Z" fill="black"/>
<path d="M93.6403 19.6912C92.6578 19.6912 91.7368 19.6912 90.8771 19.6912C90.7543 19.6912 90.5701 19.5116 90.5087 19.3919C90.1403 18.4942 89.7718 17.5366 89.4648 16.6388C89.4034 16.3994 89.2192 16.2797 88.9736 16.2797C87.3771 16.2797 85.7192 16.2797 84.1227 16.2797C83.8771 16.2797 83.7543 16.3396 83.6929 16.579C83.3245 17.4767 82.9561 18.4343 82.649 19.3321C82.5876 19.5715 82.4648 19.6912 82.1578 19.6912C81.2982 19.6912 80.4385 19.6912 79.4561 19.6912C79.8245 18.7336 80.1929 17.8358 80.5613 16.9381C82.035 13.1675 83.5701 9.39691 85.0438 5.56649C85.228 5.14753 85.4122 5.02783 85.9034 5.02783C87.8069 5.02783 88.0526 5.20738 88.728 6.94304C90.3245 11.0727 91.9824 15.1425 93.5789 19.2722C93.5789 19.4518 93.5789 19.5116 93.6403 19.6912ZM88.5438 13.8857C87.8683 12.15 87.2543 10.4144 86.6403 8.73856C86.5789 8.73856 86.5789 8.73856 86.5175 8.73856C85.9034 10.4144 85.228 12.15 84.5525 13.8857H88.5438Z" fill="black"/>
<path d="M5.21922 19.6909H2.33325V5.0874H13.3245V7.54127H5.21922V11.4914H12.5876C12.5876 12.3293 12.5876 13.1074 12.5876 13.8256C12.5876 13.8854 12.342 14.0051 12.2192 14.0051C10.6841 14.0051 9.14904 14.0051 7.67536 14.0051C6.87711 14.0051 6.14027 14.0051 5.28062 14.0051L5.21922 19.6909Z" fill="black"/>
<path d="M73.1315 19.6911V7.60133H68.4648V5.14746H80.6841V7.60133H76.0175V19.6911H73.1315Z" fill="black"/>
<path d="M18.7279 6.34435V4.12988H20.57V6.34435C21.3068 5.86554 21.9823 5.44659 22.6577 5.02764C22.9033 5.50644 23.1489 5.92539 23.456 6.46405C22.6577 6.883 21.9209 7.2421 21.1226 7.66106C21.9209 8.08001 22.6577 8.43911 23.456 8.85806C23.2103 9.33687 22.9647 9.81567 22.6577 10.2945C21.9823 9.81567 21.3068 9.39672 20.57 8.91791V11.1922H18.7279V8.97776C17.991 9.45657 17.377 9.87552 16.7016 10.2945C16.456 9.81567 16.2103 9.33687 15.9033 8.85806C16.7016 8.43911 17.4384 8.08001 18.2367 7.66106C17.4384 7.2421 16.7016 6.883 15.9033 6.46405C16.1489 5.98524 16.3945 5.50644 16.7016 5.02764C17.377 5.44659 17.991 5.86554 18.7279 6.34435Z" fill="black"/>
</svg>
