<svg xmlns="http://www.w3.org/2000/svg" viewBox="493.84 517.08 4121.32 926.25"><path d="M2035.9 517.9h3.8a22607 22607 0 0 1 99.5-.4 1806 1806 0 0 0 28.5-.1c12.2-.1 12.2-.1 16 3l2.3 2.6 1.8 2 1.7 2.3 11.2 13.8a2197 2197 0 0 1 14 17.2l13.5 16.2a450 450 0 0 1 9.6 11.7c11.5 14.4 23.1 28.7 35 42.7a507 507 0 0 1 11 13.3c11.5 14.4 23.1 28.7 35 42.7a507 507 0 0 1 11 13.3c8.5 10.8 17.3 21.3 26 32a2640 2640 0 0 1 19.2 23.3l13.6 16.6 11.2 13.6 9.9 12c5 6.2 10.2 12.3 15.3 18.3l2.4-2.9c10-12.4 20.1-24.8 30.5-37l10.9-13.3 13.7-17 4-4.8 12-14.6c3.9-4.4 7.6-9 11.2-13.6l9.1-11a656 656 0 0 0 12.8-16c4.2-5.4 8.6-10.6 13-15.8a545.5 545.5 0 0 0 16.7-20c5.5-6.6 11-13.3 16.3-20.2 4.2-5.4 8.6-10.6 13-15.8a545.5 545.5 0 0 0 16.7-20c5.5-6.6 11-13.3 16.3-20.2a368 368 0 0 1 13-15.5c4-4.7 7.8-9.5 11.5-14.4 3.2-4 6.6-8 10-11.8 2.7-3 5-6.2 7.5-9.3 1.4-1.8 1.4-1.8 3.4-2.8l6-.1h3.7a27838.4 27838.4 0 0 1 20.7 0h10a21047.7 21047.7 0 0 1 103.6-.1h3.3c2.7.2 2.7.2 5.7 2.2a63.7 63.7 0 0 1 .4 10.4v8.4a4820.5 4820.5 0 0 0 0 22.7v18a17139.8 17139.8 0 0 1 0 63.7v2a230539.7 230539.7 0 0 0-.2 154.3v2.3a3569690.7 3569690.7 0 0 0 0 200.8c0 5.3 0 5.3-1.2 6.4a120.7 120.7 0 0 1-9.9.1 37181.8 37181.8 0 0 1-21.4 0H2744l-77-.1-1-293-20.7 25.3a868 868 0 0 1-13.5 16.2l-9.9 12c-6.4 8.2-13.1 16.2-19.7 24.2l-9.7 11.8-13.3 16.2a4175.6 4175.6 0 0 0-34 41.8 221 221 0 0 1-11.1 13.1c-2.6 3-5 6-7.3 9a392 392 0 0 1-13.5 16.4c-3.6 4.1-7 8.3-10.4 12.6a757.7 757.7 0 0 1-16.5 20 509 509 0 0 0-11.1 13.6l-9.1 11c-4.4 5.4-8.8 10.8-13 16.3-3.6 4.5-7.2 8.9-11 13-3.3 3.8-6.3 7.7-9.3 11.6a42.2 42.2 0 0 1-8.9 8.9 1273.7 1273.7 0 0 1-27-32.5 6565.2 6565.2 0 0 1-39-47.5 9039.9 9039.9 0 0 1-52.7-64.2c-4.4-5.5-9-11-13.5-16.3-3.3-3.8-6.4-7.7-9.5-11.7l-10.8-13.1-12.2-15-13.5-16.2a450 450 0 0 1-9.6-11.7c-11.9-15-24-29.8-36.4-44.3-4-4.8-8-9.6-11.8-14.5l-2.2-2.7c-1.8-2.3-1.8-2.3-1.8-4.3h-2l1 2 .1 4.8V752.5a19952.6 19952.6 0 0 1 0 38v2.5a902804 902804 0 0 0 0 141.6v2.4a30075.8 30075.8 0 0 0 0 63.3v5.7c-.1 2-.1 2-1.1 3h-154V519c2.7-1.4 4.9-1.1 7.9-1.2zM4200.5 517.8h16.7a24711.2 24711.2 0 0 1 70.5 0 104187.5 104187.5 0 0 1 137.4 0h14.2a170094.8 170094.8 0 0 1 167.6 0h2.2c4.8 0 4.8 0 6 1.2a78.4 78.4 0 0 1 0 8v27.3a18495.7 18495.7 0 0 1 0 87.7c-3.5 1.1-6.1 1.1-9.7 1.1h-9.1a9830.4 9830.4 0 0 0-18.7 0h-14.9a37890.3 37890.3 0 0 1-123.6 0h-3.7a1438767 1438767 0 0 1-55-.1h-3.7a179452.9 179452.9 0 0 0-156-.1c-25.7 0-48.4 2.5-67.7 21a77.7 77.7 0 0 0-23.1 56.5v5.8a3662.2 3662.2 0 0 0 0 30.3 6182.2 6182.2 0 0 1-.1 38.4c-.1 26 3 48 21.9 67.8 20 19.5 42 21.9 68.7 21.8a5919.5 5919.5 0 0 1 24.8.1 7307.7 7307.7 0 0 1 64.1.1h40.9l12 .1 98.8.2v-59h-152a27 27 0 0 1 3.5-9.7l1.6-2.8 1.7-3 1.7-3 13.6-23a1010 1010 0 0 0 14-24.7c3.5-6.3 7-12.5 10.8-18.6a307 307 0 0 0 14.2-25.9c5.5-11.7 5.5-11.7 11.2-14.3 6.7-1.7 13.6-1.3 20.5-1h7l18.8.1 19.6.2 33 .3c11.3.1 22.6.3 34 .3h10.5a8956 8956 0 0 1 80.4.9h2.7c6.1 0 6.1 0 7.2 1.2l.2 4.9v32.3a20705 20705 0 0 1-.1 93.6v47.3a1018224.6 1018224.6 0 0 0 0 127.9l-133.5.1h-2a453295.3 453295.3 0 0 1-64.1 0h-2.1a103385.5 103385.5 0 0 0-229.3.3c-52.4.1-52.4.1-73.4-6.2l-2.7-.7a166.5 166.5 0 0 1-40-17.5l-4.7-2.5A164 164 0 0 1 4027 954v-2l-3-1c-3.2-3.4-6-7.2-9-11l-1.3-1.7c-29.7-38.9-39.2-81-39.1-129.2v-10.2a7632 7632 0 0 1 0-48.8 5409 5409 0 0 1 0-34.1c-.2-23 .7-45.4 8-67.4l.8-2.8c1.8-5.8 4-11.3 6.6-16.8l1-2c7.9-16.6 17.3-32 29.9-45.6l7.5-8.8c1.8-1.7 3.4-2.6 5.6-3.6v-2c46.7-44.1 105.5-49.3 166.5-49.2zM720.5 517.8h16.7a24711.2 24711.2 0 0 1 70.5 0 104187.5 104187.5 0 0 1 137.4 0h14.2a170094.8 170094.8 0 0 1 167.5 0h2.2c4.9 0 4.9 0 6 1.2a78.4 78.4 0 0 1 .1 8v27.3a18495.7 18495.7 0 0 1-.1 87.7c-2.9 1.4-5.3 1.1-8.6 1.1h-9a9868.2 9868.2 0 0 0-18.8 0h-15a38129.2 38129.2 0 0 1-123.9 0h-3.6a1448786.7 1448786.7 0 0 1-55.3-.1h-3.6a180424.7 180424.7 0 0 0-156.5-.1c-25 0-47.2 2.4-66.7 20.1l-2.1 1.9a72.3 72.3 0 0 0-22 56.5v3a3917.2 3917.2 0 0 0 0 31.4 6621.2 6621.2 0 0 1-.1 39.7c-.2 16.4-.2 16.4 2.2 32.5l.6 2.6c4.7 19 19 34.8 35.4 44.8 11.8 6.2 24 8.9 37.2 8.9h14.3a12459.6 12459.6 0 0 1 49.4.2 36897 36897 0 0 0 92.9.2l99.2.3v-59H829c.8-4 1.3-6 3.3-9.3l1.4-2.5 1.6-2.7a32432.1 32432.1 0 0 0 40.6-69.6c4.7-7.7 9-15.5 12.7-23.7 6.8-14.3 6.8-14.3 12.8-17.4 6.8-2 13.7-1.6 20.7-1.3h7.1l19 .3 17.7.1c17.3.1 34.6.4 52 .7L1135 702v307l-166 .1a685611.6 685611.6 0 0 0-264.9.3c-52.4.1-52.4.1-73.4-6.2l-2.7-.7c-26-7.7-49.4-20.8-70-38.5l-2.2-1.8c-4-3.4-7.5-7-10.9-11l-6.8-7.4A182.3 182.3 0 0 1 501 874l-1-2.9c-6-20-5.5-40.7-5.4-61.4v-13a7931.4 7931.4 0 0 1 0-68.1v-12.8c0-36.4 5.1-68.3 22.4-100.8l1.3-2.5c22.4-42.5 63.4-72 108.3-86.7 30.5-9.1 62.3-8.1 93.9-8zM3213.9 517.8h3.8a20290.7 20290.7 0 0 1 23.2-.1h2.5a11982.6 11982.6 0 0 1 74.3-.4 1285.8 1285.8 0 0 0 28.7-.2c12.2-.2 12.2-.2 17.3 4.3a108 108 0 0 1 3.3 3.6l2.7 2.4 2.3 2.1 8.9 7.9 8.4 7.5c4.3 4.1 8.8 8 13.4 11.8 4 3.2 7.8 6.7 11.4 10.4a136 136 0 0 0 7.7 7l7.2 6.4 10.9 9.7 9.9 8.9c2.2 2 2.2 2 5.2 3.9v2l1.6.6c3.3 2 5.9 4.5 8.6 7l3.5 3.4 1.7 1.6 5.6 5 8.2 7.3c4.4 4.1 8.9 8 13.5 11.8 4 3.2 7.7 6.6 11.2 10.3 3.2 3 6.7 5.7 10.2 8.3l1.9 1.7v2l1.6.6c3.3 2 5.9 4.5 8.6 7l3.5 3.4 1.7 1.6 5.6 5 10 8.9 12 10.8 6.8 6c4.5 4.2 9.3 8 14.1 11.9l2 1.8v2l1.9.8c2.2 1.2 3.7 2.4 5.5 4.2l1.9 1.7 2 2A178.1 178.1 0 0 0 3616 747v2l1.6.6c3.3 2 5.9 4.5 8.6 7a3615 3615 0 0 0 12.8 11.7l9.9 8.9c2 1.8 2 1.8 4 2.8v2l1.9.8c2.2 1.2 3.7 2.4 5.5 4.2l1.9 1.7 2 2A178.1 178.1 0 0 0 3682 806v2l1.8.8c2.2 1.2 3.7 2.4 5.5 4.1l1.8 1.8 2 1.9c5.3 5 10.7 9.8 16.5 14.4 2.9 2.4 5.5 5 8 7.7 1.4 1.4 1.4 1.4 3.4 2.3v-2a202858 202858 0 0 1 .3-135v-3a75390.7 75390.7 0 0 0 .4-168.6v-10.1c.3-2.3.3-2.3 2.3-4.3 2.6-.3 2.6-.3 6-.3h3.8a14685 14685 0 0 1 20.8 0h10.1a11034.3 11034.3 0 0 1 69.6 0 3386.9 3386.9 0 0 0 38 0c1 0 1.8.2 2.7.3 2.5 3.7 2.3 6.6 2.2 11v10.8a7219.3 7219.3 0 0 0 0 22.7v18a25373.3 25373.3 0 0 1 0 73.8 121714.2 121714.2 0 0 1 0 150.1V879a854175.1 854175.1 0 0 1 0 123.6c-.1 5.3-.1 5.3-1.2 6.4l-5.9.2h-3.9a16369 16369 0 0 1-114.4 1.1c-29.3.6-29.3.6-36.6-5.5-2.4-2.4-4.3-5-6.2-7.8a539 539 0 0 0-45.4-40.4l-1.8-1.5c-2.5-2.2-5-4.3-7.7-6.3l-2.1-1.8v-2l-1.8-.8a32 32 0 0 1-6-4.2l-1.8-1.6c-1.4-1.4-1.4-1.4-1.4-3.4l-1.7-.7c-3-1.7-5.5-4-8-6.5l-3.3-3-1.6-1.5a312.2 312.2 0 0 1-14-12.6c-5.5-5.1-11.1-10-17-14.7a98.8 98.8 0 0 1-7.8-7.3c-2.3-2.4-4.9-4.6-7.4-6.8l-7.5-6.8a234 234 0 0 0-11.4-9.7c-4-3.3-7.8-6.8-11.4-10.5a136 136 0 0 0-7.8-7 337 337 0 0 1-24.8-22.2c-5.4-5.1-11-10-16.8-14.6-3-2.5-5.7-5.3-8.5-8.1-3.1-3-6.6-5.7-10.1-8.3l-2-1.7v-2l-1.6-.7c-3-1.7-5.5-4-8-6.5l-3.3-3-1.6-1.5a312 312 0 0 1-14-12.6c-5.5-5.1-11.1-10-17-14.6-3-2.5-5.6-5.3-8.4-8.1-3.1-3-6.6-5.7-10.1-8.3l-2-1.7v-2l-1.7-.8a23.3 23.3 0 0 1-5.5-4.2l-1.9-1.7-2-2c-5.2-4.9-10.4-9.5-16.2-13.8l-1.6-1.5v-2l-1.7-.7c-3-1.7-5.5-4-8-6.5-4.7-4.4-9.5-8.6-14.3-12.8l-1 323h-154V519c2.7-1.4 4.9-1.1 7.9-1.2zM1498.8 517.9h2.1a2361.2 2361.2 0 0 1 35-.2 23031.1 23031.1 0 0 1 97.5-.2 1854.7 1854.7 0 0 1 29.4 0c3.8.6 4.9 1.5 7.2 4.5a93 93 0 0 1 4.9 8.5l1.8 3.3 3.8 6.9 1.8 3.3a351.5 351.5 0 0 0 9.5 16l7.4 12.2 1.4 2.5c3 5 6 10.1 8.8 15.3 3 5.7 6.3 11.2 9.5 16.8a18961.2 18961.2 0 0 1 22.8 39.8c4.5 7.5 8.9 15.1 13.2 22.8 8.6 15 17.2 30 26 45 4.8 8 9.5 16.3 14.1 24.5l13.3 22.9 10 17.3c5 9.2 10.4 18.1 16 27 3 5 5.8 10 8.4 15.4 2.3 4.5 5 8.8 7.5 13.2l1.8 2.9 7.6 12.8 1.2 2 3 5a543.5 543.5 0 0 0 72 125.4c2.8 4.6 5.5 9.2 8.1 13.9l1.2 2c1.7 3 3.4 6.1 4.9 9.3-1 1-1 1-4 1.1H1932.7a10752.9 10752.9 0 0 0-19.5 0h-14.8a38338 38338 0 0 1-126.3-.1l-1.2-2.1-5.4-9.7-1.8-3.3c-4-7.2-8.2-14.4-12.4-21.5l-1.8-2.9-1.5-2.5-7.2-12.6a1160.5 1160.5 0 0 0-14.4-24.9c-4.7-8-9.5-16.2-14.4-24.2l-4.7-8.4a730.3 730.3 0 0 0-16.4-28.7l-7.7-13.5c-5.1-9-10.3-17.9-15.6-26.8-5.7-9.7-11.3-19.6-16.8-29.4-3.3-6-6.7-12-10.3-17.8-3.4-5.5-6.5-11.2-9.7-16.8l-13.2-22.8c-5.3-9-10.5-18-15.6-27.3-3.8-6.9-7.8-13.7-11.9-20.4a666 666 0 0 1-6.6-11.2l-2-3.5c-1.4-2.7-1.4-2.7-1.4-4.7h-2l-.8 2.2a82.3 82.3 0 0 1-4.1 8.2l-1.8 3.3-2 3.4-1 1.8a1303 1303 0 0 1-25 42.7c-3 5.1-6 10.3-8.7 15.5l-9 15.6-12 21.1c-4.6 8.3-9.5 16.5-14.3 24.6-4 6.9-8 13.7-11.8 20.6-4.5 8-9.2 16-13.8 23.8-5.8 9.9-11.4 19.8-17 29.7-3.3 6-6.8 12-10.4 18-3.1 5-6 10.3-9 15.4-8.8 15.4-17.7 30.7-26.8 46-3.4 5.6-6.8 11.3-10 17.1-2.5 4.8-5.1 9.4-7.8 14l-1.6 3-1.5 2.6-1.4 2.4c-1.2 2-1.2 2-3.2 4-3 .2-3 .2-7 .2h-9.5a5377.7 5377.7 0 0 0-19.5 0h-14.8a19128.2 19128.2 0 0 1-60.3-.1l-66-.1c1.5-4.6 3.3-8.3 5.9-12.4 4-6.5 7.7-13 11.4-19.7l13.2-22.8c5.4-9 10.5-18.1 15.6-27.3a563 563 0 0 1 10.9-18.6 1207.5 1207.5 0 0 1 20.6-35.7l1.1-2c4.8-8 9.5-16.2 14.4-24.2l4.8-8.4c3.4-6.3 7-12.4 10.5-18.6 4-7 8.1-14 12-21.1 4.7-8.3 9.5-16.5 14.3-24.6l11.9-20.6c4.2-7.6 8.6-15 13-22.5 4.8-8.2 9.6-16.3 14.2-24.6 3.8-7 7.9-13.8 12-20.7l11.3-19.7c9-16 18.3-32 27.9-47.6 3-5 5.7-9.9 8.4-14.9l9.7-17.1 4.2-7.3 1-1.8 5.3-9.3c3.4-6.3 7-12.4 10.7-18.6l1.2-2a11362 11362 0 0 1 13-22.2l2-3.3c2.8-4.2 5.6-3.5 10.4-3.5zM2943.9 517.9h3.8a30082 30082 0 0 1 20.7 0h12.5a22584 22584 0 0 1 101 0h3.4c2.7.1 2.7.1 5.7 1.1a835571.4 835571.4 0 0 1 .1 481.2v2.4c0 5.3 0 5.3-1.1 6.4l-6 .1h-3.8a31637.6 31637.6 0 0 1-21.2 0h-12.8a23594.9 23594.9 0 0 1-103.3 0h-3.4c-2.5-.1-2.5-.1-3.5-1.1l-.1-7.8v-10.9a14481.2 14481.2 0 0 0 0-22.8v-18a52596.7 52596.7 0 0 1 0-149.5v-73.3a2186385.9 2186385.9 0 0 0 0-66.9V519c2.8-1.4 5-1.1 8-1.1zM4358.2 1151.9h2.5a3086.3 3086.3 0 0 1 39.7 0 39706.2 39706.2 0 0 1 140-.1h2.2c14.1 0 26.8 5.9 37 15.4 11.5 12 14.4 25 15 41l.2 3.4.1 3.2.1 2.9c0 2.3 0 2.3-1 4.3h-45l-1-20c-4.2-4.2-4.2-4.2-9.5-4.5h-12.4a3163.1 3163.1 0 0 1-20.8 0h-16a9202.8 9202.8 0 0 0-57.6 0 11813.6 11813.6 0 0 0-70.2.1h-2.2c-3.9 0-3.9 0-7.2 1.8-2.5 3.6-2.2 7.4-2.3 11.6v3.7a48905633.4 48905633.4 0 0 1 0 41.6V1263a14 14 0 0 0 4.2 10l7.4.2h10.1a5920 5920 0 0 1 36.5.1 29547.7 29547.7 0 0 0 119.9.3c17.6 0 34.3 1.1 48 13.3l2.1 1.8a48.1 48.1 0 0 1 16.1 37v2.3a2104.6 2104.6 0 0 1 .1 23.9 2882 2882 0 0 0 .1 30.2c.2 17.7-2.8 31.6-15.3 44.8h-2v2c-14 12-30.2 13.8-47.8 13.7a2777.7 2777.7 0 0 0-21.5 0h-16.4a7715.1 7715.1 0 0 1-59.5 0 7006.4 7006.4 0 0 1-64.7 0c-16.7 0-32-2.4-45.1-13.7v-2l-3-1c-11.1-12.2-14-24.6-14.6-40.7l-.2-3.5-.1-3.4-.2-3c0-2.4 0-2.4 1-3.4h9.9a62408102.5 62408102.5 0 0 0 34.2 0 1648665.6 1648665.6 0 0 0 .5 9.8c.2 4.4.6 8.2 2.5 12.2 3.5 2.6 7.3 2.3 11.5 2.3h2.3a1373.2 1373.2 0 0 0 28.2 0h12.5a16313.3 16313.3 0 0 0 85.9.2 3736.6 3736.6 0 0 1 43 0h2c3.6 0 5.5-.4 8.5-2.3 2.8-3 2.7-4.8 2.7-8.8v-2a362.3 362.3 0 0 0 0-11 974.8 974.8 0 0 0 0-21.6 938.6 938.6 0 0 0 0-20.1v-3.6c-.4-3.2-.4-3.2-2.7-5.2-3.6-2.3-6.6-2.4-10.8-2.4h-10.4a3156 3156 0 0 1-18 0 3920.6 3920.6 0 0 1-50 0 23534 23534 0 0 1-99.4-.2h-2.2c-13.5-.1-26-6.4-35.7-15.5a50.5 50.5 0 0 1-14.6-36.6v-2.2a2217.8 2217.8 0 0 1 0-23.7 3748.8 3748.8 0 0 0 0-29.9c-.1-18.4 3.1-32.3 16.4-45.7a50.8 50.8 0 0 1 37-13.8zM3506.3 1151.9h15.5a20340.4 20340.4 0 0 0 26 0h55.4a27037.1 27037.1 0 0 0 114.9-.1c22 0 39 1.2 56 16.6 10.5 11 15.2 25 15.2 40v2.7a1574.7 1574.7 0 0 1 0 27.6 3061.7 3061.7 0 0 0 0 35c.2 20.1-2.3 35.7-16.7 51-14.6 13.2-30 14.4-48.6 14.9a9163 9163 0 0 0-15 .4l1.8 2c4 4.4 7.9 8.7 11.5 13.3 3.5 4.3 7 8.5 10.7 12.7 4.3 5 8.5 10 12.7 15.2 3.2 4 6.5 7.8 9.9 11.7 3 3.5 6 7 8.8 10.6a559 559 0 0 0 19 22.2c2.1 2.2 3.5 3.9 4.1 6.9l-.1 2.3-.1 2.3c-.3 1.8-.3 1.8-1.3 2.8-1.5.2-3.1.3-4.6.3l-3 .1a1153.4 1153.4 0 0 1-21 .5c-21 .8-21 .8-25.8-3.1a46 46 0 0 1-5.6-8.8l-3-3.5-12.5-15c-6-7.4-12.3-14.8-18.6-22-4.8-5.6-9.5-11.2-14-17-3-3.9-6.2-7.5-9.3-11.1a593.8 593.8 0 0 1-13.6-16.4l-2-3c-1.7-2-2.6-2.9-5.1-3.5a87 87 0 0 0-8.2-.2h-3.1a822.3 822.3 0 0 0-17.4-.1h-18.7l-19-.1H3544v3.8a41540.4 41540.4 0 0 1 .1 88.7v2.8c0 6.5 0 6.5-1.1 7.6l-4 .2h-8.3a2509.7 2509.7 0 0 1-21.2 0h-7.8c-1.7-.2-1.7-.2-2.7-1.2a73 73 0 0 1-.1-4.6v-6.4a28689722.2 28689722.2 0 0 1 0-13.4V1406a19557 19557 0 0 1 0-37.6v-2.5a881564.4 881564.4 0 0 0 0-140.2v-2.4a29485.2 29485.2 0 0 0 0-59.2V1155c.3-4.4 3.8-3 7.4-3.1zm37.7 50.1c-.6 3.1-.8 5.4-.8 8.5v2.6a494.6 494.6 0 0 0 0 14 1330.6 1330.6 0 0 0 0 27.8 1281 1281 0 0 0 0 28c0 4.1.5 5.9 3.4 8.8 3.5 2.8 6.8 3 11.2 3h10a2434 2434 0 0 1 20.4 0h15.6a7167.6 7167.6 0 0 0 56.6-.2 10997.4 10997.4 0 0 0 69 0h2c4.4-.1 7.2-.8 10.6-3.5 1.6-3.1 1.2-6.6 1.2-10.1v-13.8a6179 6179 0 0 0 .4-48.5v-10.4c0-3.8-.4-5.8-2.7-8.9-3.6-2.8-6.2-3-10.6-2.9h-10a2489 2489 0 0 1-20.6 0H3684a7053.2 7053.2 0 0 0-56.9 0 6390.2 6390.2 0 0 0-71.4 0c-5.6 0-8 1.7-11.7 5.6zM3140.2 1151.9h2.4a3049.8 3049.8 0 0 1 39.5 0 39266.8 39266.8 0 0 1 131.5-.1c18 0 33.8 1.9 47.4 15.2v2l3 1a66 66 0 0 1 11 22l1 3 .2 8v2.6a3233.1 3233.1 0 0 1 0 40.8 34389.4 34389.4 0 0 1 .2 135.7c0 17.9-2.6 31.6-15.7 44.9-4.6 4.3-9 7.5-14.7 10l-3.5 1.7a57 57 0 0 1-21 3.6h-2.4a1515.2 1515.2 0 0 1-29.6 0h-13.1a18676.6 18676.6 0 0 1-90.3.1 5672 5672 0 0 0-37.4 0c-19.2.1-34-3.2-48.3-16.8a57.5 57.5 0 0 1-14.5-41.8v-2.3a2788 2788 0 0 1 0-37.8 35963.6 35963.6 0 0 1-.1-125.7c0-19.5 2-36.3 16-51a52 52 0 0 1 38.4-15.1zm-8.3 49.3a19.8 19.8 0 0 0-1.5 9.7v2.3a555.2 555.2 0 0 0 0 13.2v30.8a7146.4 7146.4 0 0 0 0 56.8 8716 8716 0 0 0 .1 69.3v2.2c0 3.5.5 5.5 2.4 8.5 3.7 3.6 7.6 3.2 12.5 3.2h2.3a2708.1 2708.1 0 0 0 37.3 0 28711.3 28711.3 0 0 0 124 .2h9.5c4.4 0 7.1-.6 10.5-3.4 2.6-3.4 2.3-7.4 2.3-11.5v-10a6170.7 6170.7 0 0 1 0-20.5v-15.7a17505.1 17505.1 0 0 0 0-98.3 4129 4129 0 0 0 0-27.4v-2.2c0-3.6-.1-6.4-2.3-9.4-3.6-2.4-6.3-2.3-10.5-2.2h-2.4a1413.2 1413.2 0 0 0-28.6-.2 9760.8 9760.8 0 0 1-73.5-.1 5781.4 5781.4 0 0 0-70.2-.2h-2.2c-4.5 0-7 1.2-9.7 5zM3916.3 1151.9h15.5a20340.4 20340.4 0 0 0 26 0h55.4a27037.1 27037.1 0 0 0 114.9-.1c30.5 0 30.5 0 41.9 6.2l2.7 1.5a56 56 0 0 1 25.9 34.5c.8 3.9.7 7.8.7 11.7v2.9a1733.4 1733.4 0 0 1 0 29.5 2929.5 2929.5 0 0 0 .2 37.4c.1 18.7-1.8 33.7-15.3 47.8a56.8 56.8 0 0 1-42.6 15.9h-2.4a3035.6 3035.6 0 0 1-29.6 0h-16.4a46383.7 46383.7 0 0 1-139.2-.2v3.9a41540.4 41540.4 0 0 1 .1 88.7v2.8c0 6.5 0 6.5-1.1 7.6l-4 .2h-8.3a2509.7 2509.7 0 0 1-21.2 0h-7.8c-1.7-.2-1.7-.2-2.7-1.2a73 73 0 0 1-.1-4.6v-6.4a28689722.2 28689722.2 0 0 1 0-13.4V1406a19557 19557 0 0 1 0-37.6v-2.5a881564.4 881564.4 0 0 0 0-140.2v-2.4a29485.2 29485.2 0 0 0 0-59.2V1155c.3-4.4 3.8-3 7.4-3.1zm38.7 50.1-1 1-.2 7.9v13.5a5897 5897 0 0 0-.4 47.4v10.2c0 4 .4 5.8 3 9 4 3.2 6.9 3.2 11.9 3.2H3978.2a13019.2 13019.2 0 0 1 58.8 0 15379.8 15379.8 0 0 1 95 .2 770.7 770.7 0 0 0 9.5 0c4.3 0 7-.7 10.5-3.4 2.5-3.7 2.3-6.7 2.3-11v-2.5a1315 1315 0 0 0 0-25.7 2230.9 2230.9 0 0 1 .2-32.6V1209c0-3.7-.4-5.8-2.4-9-3.6-3.4-6.6-3.1-11.4-3.1h-2.4a2738.6 2738.6 0 0 0-37.7-.2 21776.2 21776.2 0 0 0-89.6-.2 2855.8 2855.8 0 0 1-43.3 0l-2.1-.1c-5.3 0-7.3 1.7-10.6 5.6zM2734.1 1151.9h13a20288 20288 0 0 0 81.3 0 83741.7 83741.7 0 0 0 138.6.1 8891.1 8891.1 0 0 1 .1 34.3V1194.2c0 1.8 0 1.8-1 2.8-3 .1-6 .2-9 .1h-12.7a16360.6 16360.6 0 0 0-78.5.1h-2.1a20083.8 20083.8 0 0 1-88.6.1 2781.9 2781.9 0 0 0-34.5 0h-2.7c-4.2.1-7 .4-10.4 3-4.5 4.8-4.8 8.5-4.8 15a4193556.5 4193556.5 0 0 1 0 28.7v11.8a15039.8 15039.8 0 0 0-.1 81.1 4589.6 4589.6 0 0 1 0 40.6v4c.5 4.8 1.6 9 5.3 12.4 3 1.7 5.6 2.2 9 2.3h17.7a18265.9 18265.9 0 0 1 78 .3h2.2a494940.7 494940.7 0 0 0 122.2.4h2.7c6.1 0 6.1 0 7.2 1.1l.2 4v5.5a23909256.1 23909256.1 0 0 0 0 24v7.8c-.2 1.7-.2 1.7-1.2 2.7a263.8 263.8 0 0 1-12.2.2h-10a21798.6 21798.6 0 0 0-71.9 0H2861a20991.3 20991.3 0 0 0-116.8.2c-21.1 0-36.6-2.2-52.4-17.3a55.8 55.8 0 0 1-12.8-23l-1-3a208.7 208.7 0 0 1-.1-10.6 3207.6 3207.6 0 0 1-.1-40.7 31419.7 31419.7 0 0 1-.2-113.8 2523.5 2523.5 0 0 1 0-21.8c-.2-17 2.8-31.4 14.6-44.5a56 56 0 0 1 41.9-15.8z"/><path d="M1578 792c4.3 4 7.1 8.1 10 13.1l3 4.9 1.5 2.5 7.3 11.7a1831.5 1831.5 0 0 1 30 49c4 6.7 8 13.2 12.2 19.7 6.6 10.4 12.7 21 18.8 31.7l10.2 17.2a989.8 989.8 0 0 1 29.5 53l1 2c4.5 9.1 4.5 9.1 4.5 13.2-4 1.3-7.6 1.1-11.7 1.1H1682.4a17317.9 17317.9 0 0 0-24.3 0h-18.7a53031.5 53031.5 0 0 1-141 0c-15.2 0-30.3-.4-45.4-1.1.8-4.3 2.1-7.3 4.4-11l1-1.8 2.2-3.7 5.8-9.8 1.2-2c3.5-5.9 7-12 10.3-18 4.8-8.5 9.7-17 14.7-25.4 8.3-14 16.5-28.1 24.6-42.2 5.1-9 10.4-17.9 15.6-26.8l13.3-23c6.5-11.4 13.3-22.8 20-34.2l7.9-13.3 1.3-2.1 2.7-4.7zM3916.3 1151.9h15.5a20340.4 20340.4 0 0 0 26 0h55.4a27037.1 27037.1 0 0 0 114.9-.1c22 0 22 0 32.9 2.2-2.9.9-5.4 1.2-8.3 1.1H4134a21220.2 21220.2 0 0 0-45.8-.2l-54.4-.3-122.8-.6v287h42v1a8912.5 8912.5 0 0 1-33.5.1h-7.7c-1.8 0-1.8 0-2.8-1a73 73 0 0 1-.1-4.7v-6.4a28689722.2 28689722.2 0 0 1 0-13.4V1406a19557 19557 0 0 1 0-37.6v-2.5a881564.4 881564.4 0 0 0 0-140.2v-2.4a29485.2 29485.2 0 0 0 0-59.2V1155c.3-4.4 3.8-3 7.4-3.1zM2727 1394l2.4 1c4.5 1.3 8.5 1.3 13.2 1.3h12.5a9270.4 9270.4 0 0 1 45 .1l32.8.1H2837.2l29.5.1h2.1a65840.3 65840.3 0 0 1 91 .3c6 0 6 0 7.2 1.1l.1 4v8.3a2509.7 2509.7 0 0 1 0 21.2v7.8c-.1 1.7-.1 1.7-1.1 2.7a263.8 263.8 0 0 1-12.2.1h-10a21798.6 21798.6 0 0 0-74 .1h-8.8a20991.3 20991.3 0 0 0-116.9.2c-22.4 0-22.4 0-32.1-3.4 3-1 5.4-1 8.6-.6 5.2.6 10.4.8 15.7.8h3a4708.9 4708.9 0 0 0 36 .1h18a60461 60461 0 0 0 70.1.3h2.2a616907.5 616907.5 0 0 1 99.4.4v-41h-233v-2l-5-1v-2zM2734.1 1151.9h13a20288 20288 0 0 0 81.3 0 83741.7 83741.7 0 0 0 138.6.1 8891.1 8891.1 0 0 1 .1 34.3V1194.2c0 1.8 0 1.8-1 2.8a258.5 258.5 0 0 1-12.1.2h-9.8a19361.5 19361.5 0 0 0-26.1.1h-18a58009.1 58009.1 0 0 1-69.9.3h-2.1a623759 623759 0 0 0-99 .4c1-2 1-2 2.7-2.6a35.3 35.3 0 0 1 8.8-.5h15.1a18324.8 18324.8 0 0 0 25.4 0h19.4a57317.2 57317.2 0 0 1 66 0h2.1a578881.6 578881.6 0 0 0 96.4.1v-41l-251 1c6-3.9 13.2-3.1 20.1-3.1zM4309 825h153v61a153866 153866 0 0 1-115.2.1h-2.5a52879.3 52879.3 0 0 0-141.8.1h-3.1c-8.1 0-16.6-.2-23.4-5.2 3.1-1.5 5.2-.1 8.5.9 11.7 3.2 23.7 2.7 35.8 2.6a5919.5 5919.5 0 0 1 24.8.1 7307.7 7307.7 0 0 1 64.2.1h38.5l2.4.1h12l98.8.2v-59h-152v-1zM4339 1438l2.4.2a371.6 371.6 0 0 0 36.3 1h31.2a36417 36417 0 0 0 120.7 0c10.2 0 20.2-.3 30.4-1.2-6 4-12.5 4.3-19.4 4.3h-2.5a1535.4 1535.4 0 0 1-29.7 0h-13.2a18906.7 18906.7 0 0 1-91 0 5749.5 5749.5 0 0 0-37.6 0c-9.6.1-18.5.1-27.6-3.3v-1zM3089 1187c1 3 1 3.9 0 7a213 213 0 0 0-.1 10.7v8.4a14888 14888 0 0 1 0 22.6v17.2a42279.3 42279.3 0 0 0 0 138.2v2.4c-.3 3.6-.3 3.6 1.1 6.5v7c-6-9-4.3-23-4.3-33.6a6341.8 6341.8 0 0 0 0-20.6V1337a17725.3 17725.3 0 0 1 0-99 4181.1 4181.1 0 0 1 0-20c0-21 0-21 3.3-31zM3329 1393v3l-3 1v2h-189v-2h-3l1-2 3 1 7.4.1h2.3a2708.1 2708.1 0 0 0 37.3.1 28711.3 28711.3 0 0 0 124 .2h9.5c4.3 0 7-.8 10.5-3.4zM1209 1005l1 2h176l-1 2h-177l1-4zM499 662c1 3.3 1 6 .7 9.3l-.3 3-.3 3.3-.3 3.2c-.7 7.8-.7 7.8-1.8 11.2l-.1 5.7v3.6a47991461.8 47991461.8 0 0 0-.2 106.9c-.1 19.2.6 37.8 3.3 56.8-9.1-9.1-5.4-35.4-5.4-47.8v-20.5a7931.4 7931.4 0 0 1 0-68.1v-12.8c0-40.3 0-40.3 4.4-53.8zM1489 520h178v1h-2.7a61964.4 61964.4 0 0 0-165.2.7h-3.9c-3 .3-4.7.7-7.2 2.3l1-4zM3785 1431l2 1a611.4 611.4 0 0 1 .1 7c-.1 2-.1 2-1.1 3l-4.8.1h-9.9a5579.8 5579.8 0 0 1-36.3-.1l-1-3 51 1v-9z"/><path d="m1570 806 1 3a91.8 91.8 0 0 1-6.7 11.2l-1.2 2-3.7 6.5c-11.8 21.5-11.8 21.5-15.4 23.3 1.3-4.6 3.2-8.3 5.7-12.3l2.4-4 1.3-2.1 8.6-14.3 5-8.4 1.8-2.8 1.2-2.1zM3754 1336a65.3 65.3 0 0 1-22 3.3h-2.2a2816.2 2816.2 0 0 1-22.8.7l-1-3h3.6a7705.2 7705.2 0 0 0 27.2-.7h2.5c3.3-.1 6.4-.2 9.6-.9 2.1-.4 2.1-.4 5.1.6zM1543 852c1.1 3.8 1.1 3.8.2 5.8l-1.3 1.9c-2.5 3.6-4.6 7.4-6.6 11.3-1.5 2.3-3 3.5-5.3 5a62.8 62.8 0 0 1 6-12.2l1.6-2.6 1.6-2.7 3.8-6.5z"/><path d="m1570 806 1 3a96.6 96.6 0 0 1-5.5 9.4 520 520 0 0 1-5.1 8.5c-1.4 2.1-1.4 2.1-4.4 4.1 1.3-3.5 2.9-6.7 4.8-9.9l1.6-2.6 1.7-2.8 1.7-2.8 4.2-6.9zM4176 880l9 1.9 2.5.5 2.5.5 2.2.5c1.8.6 1.8.6 2.8 2.6-6.5-.4-12-1.3-18-4l-1-2zM3106 1163l2 1-3.3 3.9-1.8 2.2c-1.9 1.9-3.4 2.9-5.9 3.9 1.4-3.2 3.1-5.3 5.6-7.8l2-1.8 1.4-1.4zM1482 957c1 2 1 2 .3 4.3l-1 2.7-1.1 2.7c-1.2 2.3-1.2 2.3-4.2 4.3.4-5.7 2.8-9.4 6-14zM4324 1163l2 1-3.3 4-1.9 2.2c-1.8 1.8-1.8 1.8-4.8 2.8 1.7-4.3 4.7-6.9 8-10zM1608 839a21 21 0 0 1 5.2 7.2l1 2.2.8 1.6h-3c-2-3.7-3.4-6.9-4-11zM3087 1393h1c1.6 4.9 2.2 8.8 2 14-3.3-4.9-3-8.3-3-14zM1625 867a21 21 0 0 1 5.2 7.2l1 2.2.8 1.6c-2.7-1-3.8-1.5-5-4.2l-.7-2.4-.8-2.5-.5-1.9z"/></svg>