<svg width="130" height="27" viewBox="0 0 130 27" fill="none" xmlns="http://www.w3.org/2000/svg">
<g clip-path="url(#clip0_265_790)">
<mask id="mask0_265_790" style="mask-type:luminance" maskUnits="userSpaceOnUse" x="0" y="0" width="130" height="27">
<path d="M129.9 0H0V26.9454H129.9V0Z" fill="white"/>
</mask>
<g mask="url(#mask0_265_790)">
<path d="M125.281 12.9391H124.531V10.8048H123.822V10.1545H126.032V10.8048H125.281V12.9391ZM129.892 12.9391H129.158L129.216 10.8048H129.191L128.499 12.9391H127.857L127.149 10.8048H127.124L127.182 12.9391H126.448V10.1545H127.624L128.158 11.9053H128.191L128.691 10.1545H129.9V12.9391H129.892Z" fill="black"/>
<path d="M38.2253 21.8016H35.0489V17.1495H30.9304V21.8016H27.7456V9.95456H30.9304V14.4316H35.0572V9.95456H38.2337V21.8016H38.2253ZM43.2859 19.759L42.719 21.8016H39.4175L42.9691 9.9629H47.7713L51.3812 21.8016H48.1464L47.5212 19.759H43.2776H43.2859ZM45.4202 12.314L43.9612 17.4663H46.9126L45.4119 12.314H45.4202ZM52.5734 9.95456H59.0263C60.1018 9.9629 60.9605 10.1713 61.6025 10.5632C62.2361 10.9633 62.5613 11.772 62.5613 12.9893C62.5613 13.6812 62.4695 14.2732 62.2778 14.7734C62.1027 15.2736 61.5775 15.6071 60.7104 15.7488V15.8322C61.5191 15.9156 62.061 16.1657 62.3361 16.5992C62.6113 17.0161 62.753 17.6247 62.753 18.4084C62.753 19.7423 62.4862 20.6344 61.961 21.1012C61.4357 21.5681 60.477 21.8016 59.0763 21.8016H52.5734V9.95456ZM57.7758 14.6984C57.8249 14.7104 57.8753 14.716 57.9258 14.715H58.0426C58.4261 14.7067 58.7512 14.6483 59.0097 14.565C59.2764 14.4816 59.4098 14.1898 59.4098 13.7062C59.4098 13.2727 59.3348 12.9809 59.1931 12.8225C59.043 12.6558 58.7595 12.5807 58.326 12.5807H55.7582V14.6984H57.7758ZM57.8675 19.192C58.3677 19.2004 58.7846 19.1587 59.1014 19.0587C59.4348 18.9586 59.5932 18.6168 59.5932 18.0332C59.5932 17.4829 59.4682 17.1495 59.2097 17.0494C58.9596 16.9494 58.5761 16.8993 58.0842 16.8993H55.7499V19.192H57.8675ZM66.9799 19.759L66.413 21.8016H63.1115L66.6631 9.9629H71.4736L75.0835 21.8016H71.8488L71.2235 19.759H66.9799ZM69.1142 12.314L67.6552 17.4663H70.6065L69.1059 12.314H69.1142ZM87.7392 21.8016H82.3701L79.0353 12.6891H78.8686L79.0103 21.8016H75.9006V9.95456H81.253L84.5878 18.9586H84.7129L84.5878 9.95456H87.7309V21.8016H87.7392ZM92.483 14.6984H97.527V16.8993H92.483V19.192H97.9855V21.8016H89.3066V9.95456H97.8771V12.5641H92.4747V14.6984H92.483ZM99.4778 9.95456H105.447C106.965 9.9629 108.048 10.2213 108.699 10.7299C109.349 11.2301 109.674 12.2723 109.674 13.8647C109.674 14.7484 109.582 15.4654 109.382 16.0156C109.191 16.5742 108.54 16.966 107.44 17.1995V17.3079C108.173 17.3579 108.715 17.5747 109.065 17.9748C109.441 18.4497 109.628 19.0464 109.591 19.6506V21.8016H106.356V20.2175C106.356 19.7506 106.264 19.3671 106.081 19.092C105.897 18.8169 105.547 18.6751 105.022 18.6751H102.663V21.8016H99.4862V9.95456H99.4778ZM105.18 15.9573C105.764 15.9739 106.114 15.8405 106.239 15.5654C106.379 15.1929 106.442 14.7957 106.423 14.3982C106.423 13.8146 106.364 13.3894 106.231 13.1143C106.097 12.8392 105.697 12.7058 105.022 12.7058L102.663 12.6891V15.9573H105.18ZM110.916 15.2569C110.919 14.534 110.974 13.8123 111.083 13.0976C111.3 11.772 111.908 10.9133 112.892 10.5215C113.876 10.1296 114.935 9.92122 116.069 9.90454H116.427C118.47 9.90454 119.904 10.2464 120.721 10.9383C121.538 11.6303 121.946 13.056 121.946 15.1902C121.946 17.3829 121.704 19.0503 121.229 20.1925C120.746 21.3263 119.178 21.8933 116.51 21.8933C116.113 21.8911 115.715 21.8772 115.318 21.8516C114.426 21.8182 113.576 21.6348 112.784 21.3013C111.992 20.9678 111.45 20.3092 111.166 19.3171C111.047 18.9183 110.975 18.507 110.95 18.0916C110.925 17.6747 110.916 17.2578 110.916 16.841V15.9573V15.2569ZM114.168 15.9072V16.6159C114.168 17.4496 114.251 18.0916 114.435 18.5334C114.618 18.9753 115.193 19.192 116.177 19.192C117.261 19.192 117.953 19.017 118.245 18.6668C118.536 18.3167 118.678 17.6414 118.678 16.6326V16.2074L118.703 15.7655V15.3403V14.9068C118.703 14.1148 118.586 13.5395 118.361 13.1727C118.136 12.8058 117.594 12.6224 116.744 12.6224C115.51 12.6224 114.785 12.7892 114.551 13.1227C114.318 13.4561 114.193 14.3565 114.168 15.8489V15.9239V15.9072Z" fill="black"/>
<path fill-rule="evenodd" clip-rule="evenodd" d="M10.0712 3.56001C10.4047 3.56001 10.6715 3.29323 10.6715 2.96808V1.25064C10.6715 1.09255 10.6086 0.940926 10.4969 0.829135C10.3851 0.717344 10.2334 0.654541 10.0753 0.654541C9.91725 0.654541 9.76563 0.717344 9.65384 0.829135C9.54205 0.940926 9.47925 1.09255 9.47925 1.25064V2.96808C9.47925 3.30156 9.74604 3.56001 10.0712 3.56001Z" fill="black"/>
<path fill-rule="evenodd" clip-rule="evenodd" d="M7.70326 5.13568C8.03674 5.13568 8.29519 4.86889 8.29519 4.54375V2.82631C8.29519 2.66932 8.23283 2.51876 8.12182 2.40775C8.01081 2.29674 7.86025 2.23438 7.70326 2.23438C7.54627 2.23438 7.39571 2.29674 7.2847 2.40775C7.17369 2.51876 7.11133 2.66932 7.11133 2.82631V4.54375C7.11133 4.86889 7.37811 5.12734 7.70326 5.12734V5.13568Z" fill="black"/>
<path fill-rule="evenodd" clip-rule="evenodd" d="M7.70326 1.16723C8.03674 1.16723 8.29519 0.908778 8.29519 0.583632C8.29519 0.426642 8.23283 0.276081 8.12182 0.165072C8.01081 0.0540634 7.86025 -0.00830078 7.70326 -0.00830078C7.54627 -0.00830078 7.39571 0.0540634 7.2847 0.165072C7.17369 0.276081 7.11133 0.426642 7.11133 0.583632C7.11133 0.908778 7.37811 1.16723 7.70326 1.16723Z" fill="black"/>
<path fill-rule="evenodd" clip-rule="evenodd" d="M12.4472 5.58589C12.7723 5.58589 13.0308 5.31911 13.0308 4.99396V5.01063C13.0308 4.9329 13.0155 4.85593 12.9857 4.78411C12.956 4.71229 12.9124 4.64704 12.8574 4.59207C12.8024 4.53711 12.7372 4.49351 12.6654 4.46376C12.5936 4.43401 12.5166 4.4187 12.4389 4.4187C12.3611 4.4187 12.2841 4.43401 12.2123 4.46376C12.1405 4.49351 12.0753 4.53711 12.0203 4.59207C11.9653 4.64704 11.9217 4.71229 11.892 4.78411C11.8622 4.85593 11.8469 4.9329 11.8469 5.01063V4.99396C11.8469 5.32744 12.1137 5.58589 12.4472 5.58589Z" fill="black"/>
<path fill-rule="evenodd" clip-rule="evenodd" d="M17.1744 9.97952C16.8576 9.97952 16.5908 10.238 16.5908 10.5631V10.8633C16.5864 11.0202 16.5198 11.169 16.4056 11.2769C16.2915 11.3848 16.1392 11.4429 15.9822 11.4385C15.8252 11.4341 15.6764 11.3675 15.5685 11.2533C15.4606 11.1392 15.4025 10.9869 15.4069 10.8299V9.35424C15.4069 9.19614 15.3441 9.04452 15.2323 8.93273C15.1205 8.82094 14.9689 8.75814 14.8108 8.75814C14.6527 8.75814 14.5011 8.82094 14.3893 8.93273C14.2775 9.04452 14.2147 9.19614 14.2147 9.35424V9.37925C14.2246 9.46231 14.2168 9.54654 14.1918 9.62636C14.1668 9.70619 14.1252 9.77981 14.0696 9.84236C14.0141 9.90492 13.9459 9.95499 13.8696 9.98929C13.7933 10.0236 13.7106 10.0413 13.627 10.0413C13.5433 10.0413 13.4606 10.0236 13.3843 9.98929C13.308 9.95499 13.2398 9.90492 13.1843 9.84236C13.1288 9.77981 13.0871 9.70619 13.0621 9.62636C13.0371 9.54654 13.0293 9.46231 13.0392 9.37925V6.90314C13.0392 6.82541 13.0239 6.74843 12.9941 6.67662C12.9644 6.6048 12.9208 6.53955 12.8658 6.48458C12.8109 6.42961 12.7456 6.38601 12.6738 6.35626C12.602 6.32652 12.525 6.31121 12.4473 6.31121C12.3695 6.31121 12.2926 6.32652 12.2207 6.35626C12.1489 6.38601 12.0837 6.42961 12.0287 6.48458C11.9737 6.53955 11.9301 6.6048 11.9004 6.67662C11.8706 6.74843 11.8553 6.82541 11.8553 6.90314V7.85357C11.8553 8.18705 11.5552 8.43716 11.2634 8.43716C10.9299 8.43716 10.6715 8.18705 10.6715 7.85357V5.1857C10.6715 5.02761 10.6087 4.87598 10.4969 4.76419C10.3851 4.6524 10.2335 4.5896 10.0754 4.5896C9.91726 4.5896 9.76564 4.6524 9.65385 4.76419C9.54206 4.87598 9.47926 5.02761 9.47926 5.1857V7.50341C9.47926 7.6604 9.41689 7.81096 9.30589 7.92197C9.19488 8.03298 9.04432 8.09534 8.88733 8.09534C8.73034 8.09534 8.57978 8.03298 8.46877 7.92197C8.35776 7.81096 8.29539 7.6604 8.29539 7.50341V6.6697C8.29539 6.51271 8.23303 6.36215 8.12202 6.25114C8.01101 6.14013 7.86045 6.07777 7.70346 6.07777C7.54647 6.07777 7.39591 6.14013 7.2849 6.25114C7.17389 6.36215 7.11153 6.51271 7.11153 6.6697V8.45384C7.11153 8.61083 7.04916 8.76139 6.93816 8.8724C6.82715 8.9834 6.67659 9.04577 6.5196 9.04577C6.36261 9.04577 6.21205 8.9834 6.10104 8.8724C5.99003 8.76139 5.92766 8.61083 5.92766 8.45384V5.97772C5.92766 5.82073 5.8653 5.67017 5.75429 5.55916C5.64328 5.44815 5.49272 5.38579 5.33573 5.38579C5.17874 5.38579 5.02818 5.44815 4.91717 5.55916C4.80616 5.67017 4.7438 5.82073 4.7438 5.97772V9.77109C4.7438 9.92808 4.68143 10.0786 4.57042 10.1897C4.45942 10.3007 4.30886 10.363 4.15187 10.363C3.99487 10.363 3.84431 10.3007 3.73331 10.1897C3.6223 10.0786 3.55993 9.92808 3.55993 9.77109V8.77064C3.55993 8.61365 3.49757 8.46309 3.38656 8.35209C3.27555 8.24108 3.12499 8.17871 2.968 8.17871C2.81101 8.17871 2.66045 8.24108 2.54944 8.35209C2.43843 8.46309 2.37607 8.61365 2.37607 8.77064V11.5552C2.37607 11.7122 2.3137 11.8628 2.20269 11.9738C2.09169 12.0848 1.94113 12.1472 1.78413 12.1472C1.62714 12.1472 1.47658 12.0848 1.36558 11.9738C1.25457 11.8628 1.1922 11.7122 1.1922 11.5552V10.6382C1.1922 10.4812 1.12984 10.3306 1.01883 10.2196C0.90782 10.1086 0.75726 10.0462 0.60027 10.0462C0.443279 10.0462 0.292719 10.1086 0.18171 10.2196C0.0707012 10.3306 0.00833708 10.4812 0.00833708 10.6382L0 11.5552V21.8098L8.88733 26.9455L17.758 21.8098V15.3236V10.5715C17.758 10.238 17.4995 9.97952 17.1744 9.97952ZM13.0725 20.034H10.2796V17.9248H7.4867V20.0424H4.70211V13.3977H7.4867V15.6321H10.2796V13.3977H13.0725V20.0507V20.034Z" fill="black"/>
</g>
</g>
<defs>
<clipPath id="clip0_265_790">
<rect width="129.9" height="26.9454" fill="white"/>
</clipPath>
</defs>
</svg>
