<svg width="130" height="28" viewBox="0 0 130 28" fill="none" xmlns="http://www.w3.org/2000/svg">
<g clip-path="url(#clip0_141_401)">
<mask id="mask0_141_401" style="mask-type:luminance" maskUnits="userSpaceOnUse" x="0" y="0" width="130" height="28">
<path d="M129.9 0.5H0V27.4454H129.9V0.5Z" fill="white"/>
</mask>
<g mask="url(#mask0_141_401)">
<mask id="mask1_141_401" style="mask-type:luminance" maskUnits="userSpaceOnUse" x="0" y="0" width="130" height="28">
<path d="M129.9 0.5H0V27.4454H129.9V0.5Z" fill="white"/>
</mask>
<g mask="url(#mask1_141_401)">
<path d="M125.281 13.4389H124.531V11.3046H123.822V10.6543H126.032V11.3046H125.281V13.4389ZM129.892 13.4389H129.158L129.216 11.3046H129.191L128.499 13.4389H127.857L127.149 11.3046H127.124L127.182 13.4389H126.448V10.6543H127.624L128.158 12.4051H128.191L128.691 10.6543H129.9V13.4389H129.892Z" fill="white"/>
<path d="M38.2253 22.3014H35.0489V17.6493H30.9304V22.3014H27.7456V10.4543H30.9304V14.9314H35.0572V10.4543H38.2337V22.3014H38.2253ZM43.2859 20.2588L42.719 22.3014H39.4175L42.9691 10.4627H47.7713L51.3812 22.3014H48.1464L47.5212 20.2588H43.2776H43.2859ZM45.4202 12.8138L43.9612 17.9661H46.9126L45.4119 12.8138H45.4202ZM52.5734 10.4543H59.0263C60.1018 10.4627 60.9605 10.6711 61.6025 11.063C62.2361 11.4631 62.5613 12.2718 62.5613 13.4891C62.5613 14.181 62.4695 14.773 62.2778 15.2732C62.1027 15.7734 61.5775 16.1069 60.7104 16.2486V16.332C61.5191 16.4154 62.061 16.6655 62.3361 17.099C62.6113 17.5159 62.753 18.1245 62.753 18.9082C62.753 20.2421 62.4862 21.1342 61.961 21.601C61.4357 22.0679 60.477 22.3014 59.0763 22.3014H52.5734V10.4543ZM57.7758 15.1982C57.8249 15.2102 57.8753 15.2158 57.9258 15.2148H58.0426C58.4261 15.2065 58.7512 15.1481 59.0097 15.0648C59.2764 14.9814 59.4098 14.6896 59.4098 14.206C59.4098 13.7725 59.3348 13.4807 59.1931 13.3223C59.043 13.1556 58.7595 13.0805 58.326 13.0805H55.7582V15.1982H57.7758ZM57.8675 19.6918C58.3677 19.7002 58.7846 19.6585 59.1014 19.5585C59.4348 19.4584 59.5932 19.1166 59.5932 18.533C59.5932 17.9827 59.4682 17.6493 59.2097 17.5492C58.9596 17.4492 58.5761 17.3991 58.0842 17.3991H55.7499V19.6918H57.8675ZM66.9799 20.2588L66.413 22.3014H63.1115L66.6631 10.4627H71.4736L75.0835 22.3014H71.8488L71.2235 20.2588H66.9799ZM69.1142 12.8138L67.6552 17.9661H70.6065L69.1059 12.8138H69.1142ZM87.7392 22.3014H82.3701L79.0353 13.1889H78.8686L79.0103 22.3014H75.9006V10.4543H81.253L84.5878 19.4584H84.7129L84.5878 10.4543H87.7309V22.3014H87.7392ZM92.483 15.1982H97.527V17.3991H92.483V19.6918H97.9855V22.3014H89.3066V10.4543H97.8771V13.0639H92.4747V15.1982H92.483ZM99.4778 10.4543H105.447C106.965 10.4627 108.048 10.7211 108.699 11.2297C109.349 11.7299 109.674 12.7721 109.674 14.3645C109.674 15.2482 109.582 15.9652 109.382 16.5154C109.191 17.074 108.54 17.4658 107.44 17.6993V17.8077C108.173 17.8577 108.715 18.0745 109.065 18.4746C109.441 18.9495 109.628 19.5462 109.591 20.1504V22.3014H106.356V20.7173C106.356 20.2504 106.264 19.8669 106.081 19.5918C105.897 19.3167 105.547 19.1749 105.022 19.1749H102.663V22.3014H99.4862V10.4543H99.4778ZM105.18 16.4571C105.764 16.4737 106.114 16.3403 106.239 16.0652C106.379 15.6927 106.442 15.2955 106.423 14.898C106.423 14.3144 106.364 13.8892 106.231 13.6141C106.097 13.339 105.697 13.2056 105.022 13.2056L102.663 13.1889V16.4571H105.18ZM110.916 15.7567C110.919 15.0338 110.974 14.3121 111.083 13.5974C111.3 12.2718 111.908 11.4131 112.892 11.0213C113.876 10.6294 114.935 10.421 116.069 10.4043H116.427C118.47 10.4043 119.904 10.7462 120.721 11.4381C121.538 12.1301 121.946 13.5558 121.946 15.69C121.946 17.8827 121.704 19.5501 121.229 20.6923C120.746 21.8261 119.178 22.3931 116.51 22.3931C116.113 22.3909 115.715 22.377 115.318 22.3514C114.426 22.318 113.576 22.1346 112.784 21.8011C111.992 21.4676 111.45 20.809 111.166 19.8169C111.047 19.4181 110.975 19.0068 110.95 18.5914C110.925 18.1745 110.916 17.7576 110.916 17.3408V16.4571V15.7567ZM114.168 16.407V17.1157C114.168 17.9494 114.251 18.5914 114.435 19.0332C114.618 19.4751 115.193 19.6918 116.177 19.6918C117.261 19.6918 117.953 19.5168 118.245 19.1666C118.536 18.8165 118.678 18.1412 118.678 17.1324V16.7072L118.703 16.2653V15.8401V15.4066C118.703 14.6146 118.586 14.0393 118.361 13.6725C118.136 13.3056 117.594 13.1222 116.744 13.1222C115.51 13.1222 114.785 13.289 114.551 13.6225C114.318 13.9559 114.193 14.8563 114.168 16.3487V16.4237V16.407Z" fill="white"/>
<path fill-rule="evenodd" clip-rule="evenodd" d="M10.0714 4.05977C10.4049 4.05977 10.6717 3.79299 10.6717 3.46784V1.7504C10.6717 1.59231 10.6088 1.44068 10.4971 1.32889C10.3853 1.2171 10.2336 1.1543 10.0755 1.1543C9.91749 1.1543 9.76587 1.2171 9.65408 1.32889C9.54229 1.44068 9.47949 1.59231 9.47949 1.7504V3.46784C9.47949 3.80132 9.74628 4.05977 10.0714 4.05977Z" fill="white"/>
<path fill-rule="evenodd" clip-rule="evenodd" d="M7.70326 5.63568C8.03674 5.63568 8.29519 5.36888 8.29519 5.04374V3.3263C8.29519 3.16931 8.23283 3.01875 8.12182 2.90774C8.01081 2.79673 7.86025 2.73438 7.70326 2.73438C7.54627 2.73438 7.39571 2.79673 7.2847 2.90774C7.17369 3.01875 7.11133 3.16931 7.11133 3.3263V5.04374C7.11133 5.36888 7.37811 5.62733 7.70326 5.62733V5.63568Z" fill="white"/>
<path fill-rule="evenodd" clip-rule="evenodd" d="M7.70326 1.66723C8.03674 1.66723 8.29519 1.40878 8.29519 1.08363C8.29519 0.926642 8.23283 0.776081 8.12182 0.665072C8.01081 0.554063 7.86025 0.491699 7.70326 0.491699C7.54627 0.491699 7.39571 0.554063 7.2847 0.665072C7.17369 0.776081 7.11133 0.926642 7.11133 1.08363C7.11133 1.40878 7.37811 1.66723 7.70326 1.66723Z" fill="white"/>
<path fill-rule="evenodd" clip-rule="evenodd" d="M12.447 6.08565C12.7721 6.08565 13.0306 5.81887 13.0306 5.49372V5.51039C13.0306 5.43266 13.0153 5.35569 12.9855 5.28387C12.9558 5.21205 12.9122 5.1468 12.8572 5.09183C12.8022 5.03687 12.737 4.99327 12.6652 4.96352C12.5934 4.93377 12.5164 4.91846 12.4387 4.91846C12.3609 4.91846 12.2839 4.93377 12.2121 4.96352C12.1403 4.99327 12.0751 5.03687 12.0201 5.09183C11.9651 5.1468 11.9215 5.21205 11.8918 5.28387C11.862 5.35569 11.8467 5.43266 11.8467 5.51039V5.49372C11.8467 5.8272 12.1135 6.08565 12.447 6.08565Z" fill="white"/>
<path fill-rule="evenodd" clip-rule="evenodd" d="M17.1744 10.4798C16.8576 10.4798 16.5908 10.7382 16.5908 11.0633V11.3635C16.5864 11.5204 16.5198 11.6692 16.4056 11.7771C16.2915 11.885 16.1392 11.9431 15.9822 11.9387C15.8252 11.9343 15.6764 11.8677 15.5685 11.7535C15.4606 11.6394 15.4025 11.4871 15.4069 11.3301V9.85448C15.4069 9.69638 15.3441 9.54476 15.2323 9.43297C15.1205 9.32118 14.9689 9.25838 14.8108 9.25838C14.6527 9.25838 14.5011 9.32118 14.3893 9.43297C14.2775 9.54476 14.2147 9.69638 14.2147 9.85448V9.87949C14.2246 9.96255 14.2168 10.0468 14.1918 10.1266C14.1668 10.2064 14.1252 10.2801 14.0696 10.3426C14.0141 10.4052 13.9459 10.4552 13.8696 10.4895C13.7933 10.5238 13.7106 10.5415 13.627 10.5415C13.5433 10.5415 13.4606 10.5238 13.3843 10.4895C13.308 10.4552 13.2398 10.4052 13.1843 10.3426C13.1288 10.2801 13.0871 10.2064 13.0621 10.1266C13.0371 10.0468 13.0293 9.96255 13.0392 9.87949V7.40338C13.0392 7.32565 13.0239 7.24867 12.9941 7.17686C12.9644 7.10504 12.9208 7.03979 12.8658 6.98482C12.8109 6.92985 12.7456 6.88625 12.6738 6.8565C12.602 6.82676 12.525 6.81145 12.4473 6.81145C12.3695 6.81145 12.2926 6.82676 12.2207 6.8565C12.1489 6.88625 12.0837 6.92985 12.0287 6.98482C11.9737 7.03979 11.9301 7.10504 11.9004 7.17686C11.8706 7.24867 11.8553 7.32565 11.8553 7.40338V8.35381C11.8553 8.68729 11.5552 8.9374 11.2634 8.9374C10.9299 8.9374 10.6715 8.68729 10.6715 8.35381V5.68594C10.6715 5.52785 10.6087 5.37622 10.4969 5.26443C10.3851 5.15264 10.2335 5.08984 10.0754 5.08984C9.91726 5.08984 9.76564 5.15264 9.65385 5.26443C9.54206 5.37622 9.47926 5.52785 9.47926 5.68594V8.00365C9.47926 8.16064 9.41689 8.3112 9.30589 8.42221C9.19488 8.53322 9.04432 8.59558 8.88733 8.59558C8.73034 8.59558 8.57978 8.53322 8.46877 8.42221C8.35776 8.3112 8.29539 8.16064 8.29539 8.00365V7.16994C8.29539 7.01295 8.23303 6.86239 8.12202 6.75138C8.01101 6.64037 7.86045 6.57801 7.70346 6.57801C7.54647 6.57801 7.39591 6.64037 7.2849 6.75138C7.17389 6.86239 7.11153 7.01295 7.11153 7.16994V8.95408C7.11153 9.11107 7.04916 9.26163 6.93816 9.37264C6.82715 9.48364 6.67659 9.54601 6.5196 9.54601C6.36261 9.54601 6.21205 9.48364 6.10104 9.37264C5.99003 9.26163 5.92766 9.11107 5.92766 8.95408V6.47796C5.92766 6.32097 5.8653 6.17041 5.75429 6.0594C5.64328 5.94839 5.49272 5.88603 5.33573 5.88603C5.17874 5.88603 5.02818 5.94839 4.91717 6.0594C4.80616 6.17041 4.7438 6.32097 4.7438 6.47796V10.2713C4.7438 10.4283 4.68143 10.5788 4.57042 10.6899C4.45942 10.8009 4.30886 10.8632 4.15187 10.8632C3.99487 10.8632 3.84431 10.8009 3.73331 10.6899C3.6223 10.5788 3.55993 10.4283 3.55993 10.2713V9.27088C3.55993 9.11389 3.49757 8.96333 3.38656 8.85233C3.27555 8.74132 3.12499 8.67895 2.968 8.67895C2.81101 8.67895 2.66045 8.74132 2.54944 8.85233C2.43843 8.96333 2.37607 9.11389 2.37607 9.27088V12.0554C2.37607 12.2124 2.3137 12.363 2.20269 12.474C2.09169 12.585 1.94113 12.6474 1.78413 12.6474C1.62714 12.6474 1.47658 12.585 1.36558 12.474C1.25457 12.363 1.1922 12.2124 1.1922 12.0554V11.1384C1.1922 10.9814 1.12984 10.8308 1.01883 10.7198C0.90782 10.6088 0.75726 10.5464 0.60027 10.5464C0.443279 10.5464 0.292719 10.6088 0.18171 10.7198C0.0707012 10.8308 0.00833708 10.9814 0.00833708 11.1384L0 12.0554V22.31L8.88733 27.4457L17.758 22.31V15.8238V11.0717C17.758 10.7382 17.4995 10.4798 17.1744 10.4798ZM13.0725 20.5342H10.2796V18.425H7.4867V20.5426H4.70211V13.8979H7.4867V16.1323H10.2796V13.8979H13.0725V20.5509V20.5342Z" fill="white"/>
</g>
</g>
</g>
<defs>
<clipPath id="clip0_141_401">
<rect width="130" height="27" fill="white" transform="translate(0 0.5)"/>
</clipPath>
</defs>
</svg>
