<svg width="151" height="240" viewBox="0 0 151 240" fill="none" xmlns="http://www.w3.org/2000/svg">
<path d="M150.93 166.995C150.839 166.329 150.619 165.686 150.282 165.103C149.7 164.212 148.817 163.559 147.794 163.265C146.55 163.134 145.293 163.293 144.12 163.729C142.948 164.166 141.892 164.867 141.036 165.779C140.648 164.902 140.323 163.999 140.063 163.076L138.252 159.237C137.576 157.588 136.224 156.533 135.873 154.587C132.223 149.18 130.466 141.935 125.059 138.367C123.976 136.949 122.734 135.661 121.355 134.528C119.869 131.987 116.922 131.04 115.949 128.094C115.759 127.418 115.949 126.526 115.597 125.85C115.246 125.174 114.759 125.255 114.11 124.715C113.462 124.174 113.164 123.66 112.786 123.363C111.948 122.768 110.947 122.282 110.082 121.714C101.647 130.999 91.8039 138.9 80.9129 145.125L81.5076 145.936C82.6767 147.181 83.5216 148.694 83.9677 150.343C83.9677 151.127 84.4272 151.802 84.5354 152.559C84.6278 153.146 84.8198 153.713 85.1031 154.236C85.3085 154.91 85.3999 155.613 85.3734 156.317C85.4716 156.869 85.6163 157.412 85.806 157.939C85.806 158.21 85.806 158.453 85.806 158.723C85.806 158.993 86.0493 158.939 86.1304 159.102C86.2255 159.593 86.2887 160.089 86.3196 160.588C86.5492 161.388 86.6675 162.216 86.6711 163.048C86.6732 164.785 86.7996 166.52 87.0495 168.239C87.285 170.809 87.3662 173.391 87.2928 175.971C87.2928 177.295 87.1576 178.674 87.0224 179.945C87.0224 180.62 86.8602 181.296 86.7791 181.972C86.698 182.648 86.7792 183.648 86.4818 183.946C85.049 185.514 84.5354 187.595 83.2107 189.136C82.0573 190.26 80.8091 191.282 79.4801 192.191L77.2903 194.002C76.6538 194.402 76.0798 194.894 75.5872 195.462C75.3101 195.95 75.0662 196.456 74.8572 196.976C74.2895 198.165 73.6678 199.328 73.0731 200.517C72.4783 201.707 72.3431 202.193 71.9376 203.032C71.5459 203.724 71.1125 204.392 70.64 205.032C70.2571 205.898 69.7861 206.722 69.2342 207.492C68.718 208.007 68.2391 208.558 67.8015 209.141C66.7471 210.493 66.2876 211.006 65.3414 212.439C64.4736 213.947 63.4883 215.385 62.3947 216.738C61.2874 217.708 60.1228 218.611 58.9073 219.441C57.6823 220.318 56.5174 221.275 55.42 222.307C54.9023 223.909 54.5933 225.572 54.5008 227.254C54.2379 227.869 54.0474 228.514 53.9331 229.173C54.0451 230.089 54.235 230.993 54.5008 231.877C54.8252 233.526 54.5008 235.823 55.7984 237.04C57.6159 238.423 59.8405 239.165 62.1243 239.149C65.5306 238.824 68.0988 238.581 71.5862 238.338C72.4783 237.932 72.2621 236.148 72.235 235.851C72.208 235.553 71.9106 235.013 72.235 234.499C76.8308 228.849 80.5614 222.334 86.2385 217.792C87.0225 218.927 87.9957 219.955 88.9419 221.171C89.6828 222.417 90.5925 223.554 91.6453 224.55C92.9042 225.463 94.3928 226.006 95.9436 226.118C97.836 225.118 96.9169 217.224 98.647 214.142C100.026 213.872 101.053 213.25 102.378 212.899C110.785 204.437 120.247 195.786 129.249 187.595C130.468 186.328 131.788 185.161 133.196 184.108C135.575 182.621 138.441 182.134 140.874 180.837C144.848 176.16 151.336 168.672 150.606 167.05M69.0991 235.202C68.2611 236.094 66.8553 236.04 63.6923 235.905C62.0203 236.024 60.3494 235.658 58.8803 234.85C57.3394 234.201 56.8527 234.445 57.2042 230.39C57.5556 226.335 60.9079 226.902 64.5304 228.065C68.1529 229.227 68.234 229.579 68.3962 230.363C68.5584 231.147 69.3153 233.417 69.3153 233.417C69.3153 233.417 69.7209 234.607 69.1802 235.202M95.5922 220.928C95.5922 221.982 95.5922 222.685 94.4838 222.496C92.5644 222.199 92.5103 220.685 91.7804 219.522C91.2717 218.791 90.8024 218.033 90.3747 217.251C90.8072 216.116 91.0775 216.548 92.213 216.305C93.1022 216.027 94.0044 215.793 94.9163 215.602C95.457 215.602 95.2137 215.224 95.5651 217.359C95.7882 218.538 95.7882 219.749 95.5651 220.928M113.326 174.159C110.165 172.652 106.63 172.107 103.162 172.591C103.162 172.591 103.162 172.592 103.162 172.808C103.405 172.51 106.216 172.808 105.405 172.808C103.274 172.83 101.152 173.093 99.0796 173.592C102.297 170.51 109.352 171.186 113.11 173.267C113.705 173.565 113.813 173.619 114.327 173.916C114.705 174.727 114.327 174.322 113.435 174.051M149.308 168.185C148.903 168.563 148.903 168.59 148.524 168.996C148.128 169.531 147.665 170.013 147.146 170.429C146.713 170.861 146.47 171.024 145.713 171.645C144.956 172.267 144.28 172.727 143.199 173.592C142.117 174.457 141.414 175.16 140.252 176.079C139.078 176.868 137.85 177.573 136.575 178.187C135.656 178.881 134.499 179.183 133.358 179.026C134.386 178.052 135.359 176.728 136.846 175.511C138.954 173.781 142.415 173.24 142.253 170.104C142.11 168.622 141.707 167.176 141.063 165.833C141.414 165.59 141.847 165.346 142.117 165.13C142.827 164.635 143.578 164.201 144.361 163.833C145.357 163.336 146.494 163.202 147.578 163.454C148.714 163.697 149.362 164.779 149.903 165.752C150.151 166.095 150.258 166.521 150.2 166.941C149.838 167.261 149.528 167.635 149.281 168.05" fill="white"/>
<path d="M24.493 43.8294C17.7411 53.1581 12.3861 63.4218 8.59717 74.2965C12.0716 65.8991 16.6147 57.985 22.1141 50.75C24.0965 48.1188 26.1601 45.6227 28.3048 43.2617C26.9531 43.478 25.6014 43.6942 24.5741 43.8294" fill="white"/>
<path d="M124.654 8.68561C99.1071 -10.5895 55.9882 3.27885 27.4946 39.7745L31.793 39.4501C57.367 13.795 91.6999 5.7119 113.327 22.0403C137.847 40.5314 136.738 83.3799 110.867 117.713C97.5392 135.366 80.2646 147.45 63.2604 152.262C83.1572 147.612 104.108 133.663 120.031 112.441C148.498 74.594 150.498 28.258 124.546 8.65855" fill="white"/>
<path d="M86.4811 28.0425C87.1072 28.018 87.7339 28.0725 88.3464 28.2047H88.5897C88.833 28.2047 88.8601 28.6372 89.2115 28.6372C89.7391 28.4104 90.3196 28.3354 90.8876 28.4209C91.3742 28.6642 91.5634 29.2049 91.9149 29.5564C92.0123 29.3422 92.1552 29.1519 92.3336 28.9984C92.512 28.845 92.7216 28.7322 92.9479 28.6679C93.1743 28.6036 93.4118 28.5893 93.6443 28.626C93.8767 28.6627 94.0983 28.7496 94.2938 28.8805C94.8074 29.232 94.5371 29.7997 95.0778 30.016C95.0778 29.232 95.4562 29.0698 95.9158 28.9076C96.0557 28.9188 96.1914 28.9611 96.313 29.0312C96.4345 29.1013 96.539 29.1976 96.6187 29.3131C96.6187 29.3131 96.835 29.8267 96.835 29.8267C97.0512 30.5567 97.2135 31.2865 97.4838 31.9894C97.7542 32.6923 97.7271 33.1248 97.8893 33.4222V33.9899C97.4609 34.1799 97.0043 34.2987 96.5376 34.3413C96.6728 34.7739 97.0242 34.9902 97.1053 35.4768C96.1862 36.1797 94.9426 35.0983 94.0505 35.4768C94.0505 36.2608 94.7804 36.3959 94.9426 37.0718C94.3479 38.1531 93.1043 37.234 92.2393 37.0718C91.7797 37.0718 91.4282 37.3691 90.9957 37.288C90.5631 37.2069 90.2117 36.423 89.8603 36.8285C89.5088 37.234 91.0768 37.4773 90.8876 38.072C92.6177 38.072 93.7801 39.5048 95.4022 39.667C95.8524 39.6436 96.3036 39.6436 96.7539 39.667C98.0245 39.8833 99.2139 42.0189 99.4572 45.317C99.4572 44.5601 100.052 40.2077 100.052 39.4508C100.836 39.1264 101.35 38.5587 102.08 38.2072C102.08 36.8555 102.269 35.5039 102.404 34.1522C101.133 33.9359 99.7006 33.7737 98.5381 33.5304C98.2137 32.422 97.646 29.4482 96.3754 28.8535C95.136 28.3702 93.8123 28.1404 92.4826 28.1776C91.6715 28.1776 90.8876 28.1776 90.1036 28.1776C89.6285 28.2468 89.1459 28.2468 88.6708 28.1776C88.0172 27.8573 87.2843 27.7351 86.5622 27.8262C86.2918 27.8262 86.2107 28.0695 86.2107 28.1236C86.2107 28.1777 85.8052 28.5291 86.2107 28.6372C86.6162 28.7454 86.5081 28.2858 86.7514 28.1507M74.451 30.854C74.2618 29.6646 75.1268 29.5023 75.8027 29.1779H76.5326C77.1004 29.1779 77.3977 29.9619 77.7491 30.2322C77.8305 29.7758 78.0583 29.3583 78.398 29.0427L79.7497 28.8805C80.4525 28.8805 80.3984 29.8537 80.9391 30.1241C80.9391 28.7183 82.9125 28.3669 83.6425 29.232C83.5912 28.8832 83.5098 28.5395 83.3992 28.2047L73.586 29.232C73.1666 29.1482 72.7348 29.1482 72.3154 29.232C73.5319 29.232 73.7211 30.2322 74.3429 30.7999M55.257 81.1098L54.2567 84.1105C54.2567 84.4079 54.1216 84.6242 54.0676 84.7324C56.207 84.5709 58.3308 84.2455 60.4204 83.7591L61.5559 83.4347L63.0968 82.7859C63.0968 82.4615 63.0968 82.1371 63.0968 82.0019C62.9719 80.9192 62.7823 79.8449 62.5291 78.7849L61.7181 78.9741C60.5286 79.3526 59.3121 79.704 58.0956 79.9744C57.1496 80.2469 56.1817 80.4368 55.2029 80.5421L54.9867 81.0287M104.972 117.497C104.849 117.055 104.767 116.603 104.729 116.146C102.025 112.334 99.8087 108.36 97.3757 104.494C96.5647 103.196 95.7806 101.791 94.8885 100.547C93.8931 99.4696 92.8372 98.4496 91.7256 97.4923C88.5627 94.3023 85.1834 91.4637 81.8853 88.5711C84.3724 83.705 86.6703 78.4064 89.3466 73.7836C90.3519 72.2591 91.255 70.6697 92.05 69.0257C92.4749 67.6963 92.818 66.3421 93.0773 64.9707C94.1316 60.8075 94.9967 56.8605 96.1051 52.7513C96.4968 52.519 96.819 52.1857 97.0377 51.7862C97.2565 51.3867 97.3639 50.9357 97.3486 50.4805C96.4024 50.4805 95.9699 49.7506 95.3211 49.3451C93.5639 50.1562 90.1036 49.8317 89.9143 48.2097C89.4818 46.0199 92.6177 45.8578 92.861 44.3709C92.077 44.3709 90.6172 45.1008 90.1576 44.3709C90.8875 43.8303 91.8337 43.4788 92.5366 42.884C90.9483 41.7966 89.2436 40.8899 87.4542 40.1806C86.9405 38.5626 86.5963 36.8956 86.427 35.2064C86.7195 34.674 86.9551 34.1122 87.1298 33.5304C87.1298 33.233 87.1298 33.0707 87.1298 32.5571C86.5892 32.5571 86.1566 32.5571 85.8593 32.5571C85.5619 32.5571 85.8593 30.827 85.3997 30.07C85.2738 30.9014 85.0088 31.7057 84.6157 32.449C84.5771 31.9335 84.4198 31.4338 84.1561 30.9892C84.3543 32.4879 84.6984 33.9638 85.1834 35.3957C83.9128 35.2065 83.4532 35.7742 82.48 35.7471C82.5002 35.8825 82.4771 36.0207 82.4139 36.1421C82.3508 36.2635 82.2509 36.3618 82.1286 36.423C79.4399 37.045 76.7941 37.8397 74.2077 38.802C73.1804 37.7477 72.9101 35.8823 71.9639 34.7469C72.3965 36.4771 73.3697 37.8017 73.8833 39.7211C77.2085 38.802 79.9118 37.2069 83.4803 36.5581C83.7199 36.3374 84.0163 36.1876 84.3361 36.1256C84.656 36.0635 84.9868 36.0916 85.2916 36.2067C85.2916 36.8285 85.8322 37.5854 85.5078 38.2342C84.2102 38.045 84.9942 38.2342 84.1561 38.4775C83.8858 38.3153 83.8317 38.6938 83.3181 38.7749C82.826 38.8734 82.352 39.0467 81.9123 39.2886C81.3446 39.5319 81.4528 39.5859 80.9121 39.667C80.7585 39.7643 80.5955 39.8458 80.4255 39.9103C80.0363 39.9766 79.6556 40.0855 79.2901 40.2348L78.0735 40.5861L76.5596 40.9917C75.9855 41.0679 75.4228 41.213 74.8835 41.4242C74.2188 40.4494 73.4581 39.5438 72.6127 38.7208C72.2613 39.0452 72.1532 38.1801 72.045 37.3691C71.0988 37.0447 70.8284 36.0986 70.8014 34.882C70.477 34.882 70.0174 35.5849 69.4497 35.666C68.5846 35.3146 67.9358 34.1251 66.7463 33.9899C65.4851 34.0348 64.2333 34.2253 63.0158 34.5577C62.1081 34.632 61.2055 34.7583 60.3124 34.9361C54.3649 35.5038 33.9273 38.8289 30.1696 39.3966C34.0895 39.0452 56.2573 36.3959 61.1504 35.2875C63.3131 35.1253 65.5839 34.5036 67.5574 34.5306C67.6891 34.6859 67.7861 34.8675 67.842 35.0633C67.898 35.2591 67.9115 35.4646 67.8818 35.666C64.7787 36.5496 61.6033 37.1557 58.3929 37.4773C56.5546 37.7476 50.6883 38.9371 49.58 39.1533C44.849 40.0995 39.4693 41.0998 34.2247 41.8567L29.6019 42.6407C20.3336 44.4384 10.8506 44.8574 1.45977 43.8843C0.702819 43.8843 0.405497 43.8843 0.243294 44.0735C0.353676 43.6679 0.614734 43.3199 0.973177 43.1003C2.23785 42.4833 3.57207 42.0204 4.94715 41.7216H5.62299C5.89333 41.4783 5.19045 41.7216 4.94715 41.7216C3.78469 41.7216 1.83828 41.7216 1.00024 41.7216C0.674183 42.0771 0.433733 42.5024 0.297332 42.9651C0.297332 42.9651 0 44.2627 0 44.3168C0.171831 46.1149 0.74456 47.8516 1.67608 49.3992C4.9742 49.3992 7.97496 50.3724 11.0568 50.3994C13.571 50.3994 16.085 50.048 18.5181 49.9399C20.5456 49.9399 22.5461 49.9398 24.6277 49.7236C28.2232 49.4262 31.8728 48.5071 35.4413 47.9124C46.4981 46.1011 57.4197 44.1006 67.8818 41.9108C68.882 40.8565 69.6119 39.2074 71.8287 40.0995C72.6397 41.8567 73.3156 43.7491 73.9915 45.5063C75.6405 46.0199 76.8841 47.3176 78.9657 46.5336C78.0465 42.2623 82.0205 41.8838 84.6157 40.5321C84.4806 40.9646 84.6157 41.1268 84.6157 41.4242C86.9406 41.4242 86.6433 44.1276 87.6706 45.4792C86.6681 45.1981 85.6175 45.1324 84.5878 45.2861C83.5581 45.4399 82.5727 45.8097 81.6961 46.3714C81.1554 46.6688 80.02 47.2906 79.8848 47.7231C79.8787 49.0932 80.0607 50.4576 80.4255 51.7782C80.7382 53.1554 80.9282 54.5576 80.9932 55.9684C80.6954 57.3698 80.2326 58.7309 79.6145 60.0234C79.1278 61.5373 78.7494 62.7268 78.398 64.3218C75.3432 67.0252 72.7749 70.2963 69.4497 72.8104C69.4497 72.3509 69.2605 71.7832 69.1524 71.2966C68.7621 71.6586 68.3258 71.9677 67.8547 72.2157L67.5574 72.3779C67.6655 72.6394 67.747 72.9111 67.8007 73.1889C68.0435 73.7307 68.2424 74.2913 68.3954 74.865L68.5847 74.7298L69.2875 74.081C69.43 73.8047 69.6226 73.5573 69.8553 73.3512C69.9583 73.5907 69.9712 73.8595 69.8918 74.1078C69.8123 74.3562 69.6457 74.5676 69.4227 74.7028C69.1544 75.0197 68.8555 75.3093 68.5306 75.5679C68.8806 77.1378 69.035 78.745 68.9902 80.3529C64.2834 83.3464 58.8342 84.9662 53.2565 85.0297C51.6437 84.7946 50.1426 84.0677 48.9581 82.9481C47.9309 82.2182 46.9036 81.4613 45.8763 80.7043C45.1532 80.2785 44.5256 79.7082 44.0325 79.0292C43.5395 78.3501 43.1917 77.5768 43.0107 76.7574C42.9057 76.1491 42.9057 75.5273 43.0107 74.9191C43.0926 75.4203 43.1468 75.9257 43.173 76.433C43.3036 76.7031 43.4121 76.9833 43.4974 77.271C44.0545 78.5208 45.0035 79.5552 46.2007 80.2177C47.8226 81.4859 49.5101 82.668 51.256 83.7591C51.8009 84.1727 52.4643 84.4002 53.1484 84.408C53.635 83.0022 54.0945 81.5423 54.5811 80.1366H53.6891C51.6886 80.1366 49.58 81.1098 47.985 79.7581C47.749 79.6599 47.5385 79.5089 47.3698 79.3168C47.2012 79.1247 47.0787 78.8965 47.0117 78.6498C47.6245 78.7309 48.1843 79.0397 48.5797 79.5149L49.2556 79.704H49.7962C50.9586 79.704 52.013 79.704 53.0943 79.5418H53.2295L54.8245 79.2985L55.7706 76.5952V76.3248L53.635 76.8115C51.5264 77.3792 49.4177 77.9198 47.2821 78.4065C46.8992 78.4908 46.5025 78.4908 46.1196 78.4065C45.5772 78.2627 45.1119 77.9137 44.822 77.4332C44.7345 77.2316 44.6622 77.0238 44.6057 76.8115C44.3626 76.4101 44.2037 75.9634 44.1386 75.4986C44.0736 75.0339 44.1037 74.5608 44.2272 74.1081C44.1689 74.9065 44.3616 75.7032 44.7785 76.3867C45.1954 77.0702 45.8156 77.6062 46.5522 77.9198C47.0476 77.8702 47.5366 77.7706 48.0119 77.6225L48.9041 77.4062C51.0938 76.8926 53.2295 76.3249 55.3922 75.7031C58.3659 74.865 61.3396 74 64.2322 72.9997L65.2325 72.6212L65.665 72.459L66.9897 71.8642L67.8547 71.4047L68.5036 70.9991L68.7469 70.8369C68.8117 70.4448 68.735 70.0424 68.5306 69.7016C68.1251 69.7016 67.5304 70.1882 67.1249 70.2693C66.467 70.4392 65.7988 70.5656 65.1244 70.6478C64.854 69.5124 64.1782 68.7283 63.9078 67.6199C65.4488 66.7008 67.4493 66.2683 67.5034 63.8893C65.8209 63.1974 64.1783 62.4122 62.5832 61.5373C61.9904 60.6737 61.4575 59.7704 60.9882 58.8339C60.521 58.1098 59.987 57.431 59.3932 56.8064C58.666 55.7916 57.7477 54.9284 56.6899 54.2652C55.6782 53.8137 54.6289 53.4519 53.5539 53.1839C52.5345 52.798 51.4726 52.5348 50.3909 52.4C49.5494 52.4751 48.7167 52.6289 47.9039 52.8595C46.235 53.0421 44.6561 53.7093 43.3621 54.7789C42.6687 55.2321 42.0253 55.7578 41.4428 56.3469C41.2806 56.5631 40.7939 57.1309 40.6588 57.3742C40.5236 57.6175 40.037 58.1582 39.7667 58.6448C39.2801 59.5639 39.28 59.672 38.9827 60.2938C38.1246 61.9028 37.5226 63.6357 37.1984 65.4302C37.1984 70.8369 40.4155 73.1078 41.4698 77.5684C41.4698 76.9737 41.1184 76.2437 41.4698 75.7571C41.7353 76.5583 41.8544 77.4008 41.8213 78.2443C42.6593 79.1904 44.1191 79.5689 44.5247 80.9476C43.4703 80.7584 42.6053 79.1364 41.8213 79.0823C43.0306 80.2694 44.3732 81.3126 45.8222 82.1912C46.0385 82.1912 46.3629 82.1912 46.6062 82.1912C47.8227 82.7589 48.7689 84.2458 49.8773 84.5702C50.3909 84.7324 50.5261 84.5701 50.9046 85.0567C48.3634 85.4893 47.6064 82.056 46.0655 82.7859C45.2051 83.1337 44.2898 83.3259 43.3621 83.3536C43.1459 84.4079 44.4976 86.057 44.6868 86.9761C45.579 88.2467 44.6868 88.8685 45.4708 90.2473C46.0748 90.7592 46.7266 91.2118 47.4172 91.599C47.5104 94.3281 47.8542 97.0429 48.4445 99.7091C49.4447 101.656 51.7427 102.953 53.3106 104.683C54.8786 106.413 57.3927 108.576 58.7174 109.901C63.3672 114.415 67.8278 118.2 72.6398 122.553C73.8563 123.661 76.7759 125.716 77.3707 127.067C77.8632 128.431 78.2429 129.832 78.5061 131.258C78.985 132.625 79.3645 134.025 79.6415 135.448C79.491 137.707 79.491 139.974 79.6415 142.233C79.7844 142.682 80.0039 143.103 80.2903 143.477C89.9737 137.18 98.5889 129.378 105.81 120.363L107.432 118.281C106.807 117.619 105.98 117.182 105.08 117.038M66.8275 72.9456C66.7635 72.9181 66.6945 72.9039 66.6247 72.9039C66.555 72.9039 66.486 72.9181 66.422 72.9456C65.5569 73.297 64.6648 73.5674 63.9078 73.8377L62.5832 74.2703H62.3399C62.3399 74.5406 62.3399 74.7568 62.3399 74.9731L62.9616 77.2981C64.2863 76.8385 65.665 76.3248 66.8816 75.7301L67.8007 75.2164L67.5034 74.1081C67.3528 73.6462 67.1722 73.1947 66.9627 72.7564M62.3939 77.4873C62.2518 76.4766 61.9603 75.4926 61.5288 74.5676L58.8255 75.4327C58.2307 75.649 57.636 75.8382 57.0142 76.0004C56.6898 76.9736 56.3384 77.9469 56.014 78.9201C56.0072 79.0101 56.0072 79.1004 56.014 79.1904L57.5819 78.9201C59.0075 78.6194 60.4154 78.2404 61.7992 77.7847L62.5291 77.5143M63.3131 78.1632C63.6084 79.3917 63.8251 80.6377 63.9619 81.8938C65.2392 81.4874 66.4859 80.9905 67.6925 80.4069C67.9228 80.234 68.167 80.0802 68.4225 79.9473C68.4238 78.6762 68.2969 77.4083 68.044 76.1626H67.7196C66.2873 76.9472 64.7733 77.5727 63.2049 78.0279" fill="white"/>
</svg>
