<svg width="33" height="43" viewBox="0 0 33 43" fill="none" xmlns="http://www.w3.org/2000/svg">
<g clip-path="url(#clip0_63_7364)">
<path fill-rule="evenodd" clip-rule="evenodd" d="M8.47576 41.9438H7.26649V36.9346H8.47576V41.9438ZM6.37665 40.8993V41.9438H2.88574V36.9346H4.09501V40.8993H6.37665ZM22.3709 40.923H24.7439V41.9676H21.1617V36.9584H24.6754V38.0029H22.3709V38.8813H24.2419V39.8784H22.3709V40.923ZM29.079 36.9109H29.7863V41.9201H28.6226V38.4065L27.5503 39L27.3221 37.9317L29.079 36.9346V36.9109ZM18.6519 36.9346H19.8611V39.736C19.8611 41.2079 18.9485 41.9913 17.5795 41.9913C16.2105 41.9913 15.2979 41.2316 15.2979 39.736V36.9346H16.5071V39.8309C16.5071 40.377 16.8266 40.923 17.5795 40.923C18.3324 40.923 18.6519 40.377 18.6519 39.8309V36.9346ZM9.54813 39.4274C9.54813 38.0029 10.6433 36.8634 12.2861 36.8634C13.0847 36.8634 13.7235 37.0296 14.0658 37.2195L13.7692 38.3116C13.3585 38.1216 12.9706 38.0029 12.3317 38.0029C11.4191 38.0029 10.803 38.5727 10.803 39.4511C10.803 40.3295 11.4875 40.9467 12.3317 40.9467C12.6283 40.9467 12.8793 40.8755 13.0847 40.7806V39.4986L14.2027 39.3561V41.3978C13.9517 41.6115 13.3357 42.015 12.2633 42.015C10.6661 42.015 9.54813 40.8755 9.54813 39.4274Z" fill="black"/>
<path d="M31.9766 17.1826C29.6721 22.2393 27.0939 26.6312 23.7399 30.9045C19.0625 31.6642 14.522 31.5455 9.50244 31.0469L12.788 25.5866C15.4119 25.7291 18.0358 25.7528 20.6597 25.5154C22.5534 22.904 24.1506 20.0789 25.588 17.1588C24.4928 14.8798 23.2607 12.7906 21.7777 10.5828L25.0404 5.14624C27.7327 8.84973 30.1969 12.8144 31.9766 17.1826Z" fill="black"/>
<path d="M10.8942 21.717L7.6315 27.1536C4.80226 23.2602 2.52062 19.4854 0.695312 15.141C2.77161 10.3692 5.73774 5.3837 8.93203 1.39533C13.9288 0.801819 18.4465 0.730599 23.1695 1.25289L19.8839 6.71316C17.26 6.57071 14.6361 6.54697 12.0122 6.78438C10.0957 9.37207 8.52134 12.2209 7.0839 15.141C8.17909 17.3963 9.41118 19.438 10.8942 21.717Z" fill="black"/>
<path d="M16.3244 20.5538C18.6682 20.5538 20.5683 18.5768 20.5683 16.1381C20.5683 13.6994 18.6682 11.7224 16.3244 11.7224C13.9806 11.7224 12.0806 13.6994 12.0806 16.1381C12.0806 18.5768 13.9806 20.5538 16.3244 20.5538Z" fill="black"/>
</g>
<defs>
<clipPath id="clip0_63_7364">
<rect width="32" height="42" fill="white" transform="translate(0.393066 0.5)"/>
</clipPath>
</defs>
</svg>
