<?xml version="1.0" encoding="UTF-8"?>
<svg enable-background="new 0 0 1400 980" version="1.1" viewBox="3.21 393.66 1395 192.81" xmlns="http://www.w3.org/2000/svg">
<g transform="matrix(3.8408 0 0 3.8408 -70.151 361.01)" fill="#000">
<path d="m41.2 25.4c0 1 0.2 2.1 0.5 3.1 0.7-1.2 1.6-2.2 2.7-3.1 0-3 1.8-5.6 4.6-6.7 0.5 1.1 1.8 1.7 3 1.3 0.9-0.3 1.5-1 1.7-1.9 1.3-0.4 2-1.8 1.6-3.1s-1.8-2-3.1-1.6c-0.6-0.6-1.6-0.8-2.4-0.5-1.2 0.4-1.9 1.6-1.7 2.8-4.2 1.4-6.9 5.3-6.9 9.7z"/>
<path d="m22.3 25.4v-13.7h36.2v13.7c0 2.8-1.6 5.3-4.1 6.5s-5.5 0.7-7.6-1.1c-0.7 0.9-1.1 2-1.2 3.1 3.1 2.2 7.2 2.4 10.6 0.7 3.4-1.8 5.5-5.3 5.5-9.1v-17h-42.6v16.9c0 1 0.2 2.1 0.5 3.1 0.7-1.2 1.6-2.3 2.7-3.1z"/>
<path d="m49.7 46.9c0.8 0.3 1.8 0.1 2.4-0.5 1.3 0.4 2.7-0.3 3.1-1.6s-0.3-2.7-1.6-3.1c-0.2-0.9-0.8-1.6-1.7-1.8-1.2-0.4-2.5 0.2-3 1.3-2.7-1-4.5-3.5-4.6-6.3s1.4-5.5 4-6.7c2.5-1.2 5.6-0.8 7.7 1 0.7-0.9 1.1-2 1.2-3.1-3.1-2.2-7.2-2.5-10.6-0.7s-5.5 5.3-5.5 9.1c0 4.3 2.7 8.2 6.8 9.7-0.1 1.1 0.6 2.3 1.8 2.7zm-10.2-12.5c0-1-0.2-2.1-0.5-3.1-0.7 1.2-1.6 2.2-2.7 3.1 0 3-1.8 5.6-4.6 6.6-0.5-1.1-1.8-1.7-3-1.3-0.9 0.3-1.5 1-1.7 1.8-1.3 0.4-2 1.8-1.6 3.1s1.8 2 3.1 1.6c0.6 0.6 1.6 0.8 2.4 0.5 1.2-0.4 1.9-1.6 1.7-2.8 4.2-1.3 6.9-5.2 6.9-9.5zm-6.8-18.7c0.2-1.2-0.5-2.4-1.7-2.8-0.8-0.3-1.8-0.1-2.4 0.5-0.8-0.3-1.8-0.1-2.4 0.5-1 0.9-1.1 2.5-0.1 3.5 0.3 0.3 0.7 0.5 1.1 0.7 0.3 1.3 1.6 2.2 3 1.9 0.7-0.2 1.4-0.7 1.7-1.4 2.7 1 4.5 3.5 4.6 6.3s-1.4 5.5-4 6.7c-2.5 1.2-5.6 0.8-7.7-1-0.7 0.9-1.1 1.9-1.2 3.1 3.3 2.3 7.6 2.4 11 0.4s5.4-5.9 5-9.8c-0.5-3.9-3.1-7.3-6.9-8.6z"/>
<path d="m32.1 51.5c-0.7 0-1.3 0.4-1.3 1.5v1h2.6v-1c0-1.1-0.6-1.5-1.3-1.5zm18 0c-0.5 0-1 0.2-1.3 0.6s-0.5 0.9-0.5 1.4c0 0.7 0.3 1.3 0.9 1.7 0.6 0.3 1.3 0.3 1.9 0s0.9-1 0.9-1.7c0-1.2-0.8-2-1.9-2z"/>
<path d="M72.2,47.4V21.5H80l4.7,17.6l4.6-17.6h7.8v25.8h-4.8V27l-5.1,20.3h-5L77,27v20.3H72.2z"/>
<path d="m125.7 47.4h-5.7l-2.3-5.9h-10.3l-2.1 5.9h-5.5l10.1-25.8h5.5l10.3 25.8zm-9.7-10.3-3.6-9.6-3.5 9.6h7.1z"/>
<path d="m127.1 38.9 5.1-0.5c0.3 1.7 0.9 3 1.9 3.8 0.9 0.8 2.2 1.2 3.8 1.2 1.7 0 2.9-0.4 3.8-1.1s1.3-1.5 1.3-2.5c0-0.6-0.2-1.1-0.5-1.6-0.4-0.4-1-0.8-1.9-1.1-0.6-0.2-2-0.6-4.2-1.1-2.8-0.7-4.8-1.5-5.9-2.6-1.6-1.4-2.4-3.2-2.4-5.2 0-1.3 0.4-2.5 1.1-3.7 0.7-1.1 1.8-2 3.2-2.6s3.1-0.9 5.1-0.9c3.2 0 5.7 0.7 7.3 2.1s2.5 3.3 2.6 5.7l-5.2 0.2c-0.2-1.3-0.7-2.3-1.4-2.9s-1.8-0.9-3.3-0.9-2.7 0.3-3.6 0.9c-0.6 0.4-0.8 0.9-0.8 1.6 0 0.6 0.3 1.1 0.8 1.6 0.7 0.6 2.3 1.1 4.8 1.7s4.4 1.2 5.6 1.9c1.2 0.6 2.2 1.5 2.9 2.6s1 2.5 1 4.1c0 1.5-0.4 2.9-1.2 4.2s-2 2.3-3.5 2.9-3.4 0.9-5.6 0.9c-3.3 0-5.8-0.8-7.5-2.3-1.9-1.3-3-3.5-3.3-6.4z"/>
<path d="m169 37.9 5.1 1.6c-0.8 2.8-2.1 4.9-3.9 6.3s-4.1 2.1-6.9 2.1c-3.4 0-6.3-1.2-8.5-3.5s-3.3-5.6-3.3-9.6c0-4.3 1.1-7.6 3.3-10s5.1-3.6 8.8-3.6c3.2 0 5.7 0.9 7.7 2.8 1.2 1.1 2.1 2.7 2.6 4.8l-5.2 1.2c-0.3-1.3-0.9-2.4-1.9-3.2s-2.1-1.2-3.5-1.2c-1.9 0-3.5 0.7-4.7 2.1s-1.8 3.6-1.8 6.7c0 3.3 0.6 5.6 1.8 7s2.7 2.1 4.6 2.1c1.4 0 2.6-0.4 3.6-1.3 1.1-1.1 1.8-2.5 2.2-4.3z"/>
<path d="m177.5 34.6c0-2.6 0.4-4.8 1.2-6.6 0.6-1.3 1.4-2.5 2.4-3.5s2.1-1.8 3.3-2.3c1.6-0.7 3.5-1 5.6-1 3.8 0 6.9 1.2 9.1 3.5 2.3 2.4 3.4 5.6 3.4 9.9 0 4.2-1.1 7.4-3.4 9.8s-5.3 3.5-9.1 3.5-6.9-1.2-9.2-3.5c-2.1-2.5-3.3-5.7-3.3-9.8zm5.4-0.2c0 2.9 0.7 5.1 2 6.7 1.4 1.5 3.1 2.3 5.1 2.3s3.8-0.8 5.1-2.2c1.3-1.5 2-3.7 2-6.7s-0.6-5.2-1.9-6.6c-1.3-1.5-3-2.2-5.2-2.2s-3.9 0.7-5.2 2.2-1.9 3.5-1.9 6.5z"/>
<path d="m212.5 47.4v-21.5h-7.7v-4.4h20.5v4.4h-7.7v21.5h-5.1z"/>
<path d="m250.8 37.9v-4.4h11.2v10.3c-1.1 1.1-2.7 2-4.8 2.8s-4.2 1.2-6.3 1.2c-2.7 0-5.1-0.6-7.1-1.7s-3.5-2.8-4.5-4.9-1.5-4.4-1.5-6.9c0-2.7 0.6-5.1 1.7-7.2s2.8-3.7 5-4.8c1.7-0.9 3.7-1.3 6.2-1.3 3.2 0 5.7 0.7 7.5 2s3 3.2 3.5 5.6l-5.2 1c-0.4-1.3-1-2.3-2.1-3s-2.3-1.1-3.8-1.1c-2.3 0-4.1 0.7-5.4 2.2-1.3 1.4-2 3.6-2 6.4 0 3.1 0.7 5.4 2 6.9 1.4 1.5 3.1 2.3 5.4 2.3 1.1 0 2.2-0.2 3.3-0.6s2-0.9 2.8-1.6v-3.3h-5.9z"/>
<path d="m290.1 47.4h-5.7l-2.3-5.9h-10.3l-2.1 5.9h-5.5l10.1-25.8h5.5l10.3 25.8zm-9.6-10.3-3.6-9.6-3.5 9.6h7.1z"/>
<path d="M292.8,47.4V21.5h7.8l4.7,17.6l4.6-17.6h7.8v25.8H313V27l-5.1,20.3h-5L297.7,27v20.3H292.8z"/>
<path d="m322.8 47.4v-25.9h5.2v25.8h-5.2z"/>
<path d="M333.1,47.4V21.5h5.1l10.6,17.3V21.5h4.8v25.8h-5.2l-10.4-16.9v16.9H333.1z"/>
<path d="m371.1 37.9v-4.4h11.2v10.3c-1.1 1.1-2.7 2-4.8 2.8s-4.2 1.2-6.3 1.2c-2.7 0-5.1-0.6-7.1-1.7s-3.5-2.8-4.5-4.9-1.5-4.4-1.5-6.9c0-2.7 0.6-5.1 1.7-7.2s2.8-3.7 5-4.8c1.7-0.9 3.7-1.3 6.2-1.3 3.2 0 5.7 0.7 7.5 2s3 3.2 3.5 5.6l-5.2 1c-0.4-1.3-1-2.3-2.1-3s-2.3-1.1-3.8-1.1c-2.3 0-4.1 0.7-5.4 2.2-1.3 1.4-2 3.6-2 6.4 0 3.1 0.7 5.4 2 6.9 1.4 1.5 3.1 2.3 5.4 2.3 1.1 0 2.2-0.2 3.3-0.6s2-0.9 2.8-1.6v-3.3h-5.9z"/>
<path d="m61.2 31.3"/>
<path d="m61.2 31.3c-0.7 1.2-1.6 2.2-2.7 3.1v13.7h-36.2v-13.7c0-2.8 1.6-5.3 4.1-6.5s5.5-0.7 7.6 1.1c0.7-0.9 1.1-2 1.2-3.1-3.1-2.2-7.2-2.5-10.6-0.7s-5.5 5.3-5.5 9.1v24.4h42.5v-24.3c0-1-0.1-2.1-0.4-3.1zm-34.3 24.8v-3.1l-1.6 3.1h-0.3l-1.8-3.1v3h-0.9l0.1-5.4h0.4l2.2 3.9 2.2-3.9h0.4l0.1 5.4h-0.8zm7.4 0h-0.9v-1.3h-2.6v1.3h-0.9v-3.5c0-1.1 0.9-2 2-2h0.5c1.1 0 2 0.9 2 2v3.5zm3.5 0.1c-0.6 0-1.2-0.2-1.8-0.5l0.3-0.9c0.4 0.3 0.9 0.5 1.5 0.5s0.9-0.3 0.9-0.7-0.2-0.6-1.2-0.9c-1-0.4-1.4-0.9-1.4-1.5 0-0.8 0.7-1.6 1.8-1.6 0.5 0 1 0.1 1.5 0.4l-0.3 0.8c-0.4-0.2-0.8-0.3-1.2-0.4-0.6 0-0.8 0.3-0.8 0.7s0.3 0.6 1 0.8c1.2 0.5 1.5 0.9 1.5 1.6 0.1 1.1-0.6 1.7-1.8 1.7zm3.4-2.8c0-4.3 4.7-2.3 4.7-2.3l-0.3 0.8s-3.4-1.2-3.4 1.5c0 2.8 3.5 1.5 3.5 1.5l0.3 0.8s-4.7 2.1-4.8-2.3zm8.9 2.8c-1.6 0-2.8-1.2-2.8-2.8 0-0.8 0.3-1.5 0.8-2s1.3-0.8 2-0.8c1.7 0 2.8 1.2 2.8 2.8 0.1 1.6-1.2 2.8-2.8 2.8zm8.4-4.6h-1.7v4.5h-1v-4.5h-1.8v-0.9h4.5v0.9z"/>
</g>
</svg>
