<svg width="172" height="93" viewBox="0 0 172 93" fill="none" xmlns="http://www.w3.org/2000/svg">
<g clip-path="url(#clip0_195_371)">
<path d="M157.403 0.000157103H14.3151C10.5218 -0.0117199 6.87658 1.4714 4.16912 4.12823C2.83097 5.46848 1.77319 7.06185 1.05752 8.81535C0.341853 10.5688 -0.0173617 12.4473 0.000843332 14.3412V78.1922C-0.0197561 80.0792 0.33721 81.9512 1.05074 83.6982C1.76428 85.4452 2.81997 87.0319 4.15572 88.3649C5.48963 89.6985 7.07372 90.7555 8.81711 91.4754C10.5605 92.1953 12.4289 92.5639 14.3151 92.56H157.403C161.201 92.5423 164.837 91.0203 167.515 88.3273C170.193 85.6344 171.694 81.9899 171.691 78.1922V14.3278C171.705 12.4604 171.351 10.6085 170.65 8.87784C169.948 7.1472 168.912 5.57169 167.602 4.24127C166.291 2.91085 164.732 1.85158 163.012 1.12393C161.292 0.396281 159.446 0.0145077 157.578 0.000407103C157.52 -3.28972e-05 157.462 -0.000116231 157.403 0.000157103Z" fill="white"/>
<path d="M166.665 14.3277C166.694 11.8894 165.752 9.53958 164.048 7.79527C162.344 6.05096 160.017 5.055 157.579 5.0265C157.52 5.02583 157.462 5.0257 157.404 5.02612H117.41L140.355 43.3716L142.473 43.6396L143.813 45.3953V47.0305L145.261 47.3254L146.601 49.1481V50.7297L148.102 50.9977L149.617 52.6463V56.2919C151.42 57.9198 153.452 59.2745 155.648 60.3127C157.672 61.0901 157.9 64.3336 159.119 66.0626C160.647 68.5823 162.738 69.5875 162.296 70.9948C161.277 74.761 157.417 81.1139 153.825 81.4088H139.618V87.4937H157.417C159.884 87.4831 162.246 86.493 163.983 84.7411C165.719 82.9893 166.689 80.6192 166.679 78.1523L166.678 78.1117V14.3277" fill="black"/>
<path d="M68.8243 81.5025H61.9486C61.9486 64.3201 67.752 54.8175 74.7081 52.9277C75.6597 52.7535 75.204 48.0625 73.9978 46.6284H69.9769C69.3336 46.6284 69.7089 45.4221 69.7089 45.4221L72.9657 38.466L72.5235 36.5628H60.4877L70.379 29.647C70.8347 11.4058 89.545 9.98507 100.817 17.5845C107.518 22.0208 108.028 30.813 107.518 36.8845C107.438 37.2732 105.776 37.0185 105.776 37.0185C105.776 37.0185 104.637 43.7199 107.612 43.7199H120.76C126.121 43.5055 131.295 47.1376 131.295 47.1376L132.555 42.5405L103.752 5.02604H14.315C11.8409 5.01158 9.4612 5.97501 7.69398 7.7066C6.83232 8.57869 6.15184 9.61274 5.69177 10.7491C5.2317 11.8855 5.00116 13.1017 5.01342 14.3276V78.192C4.99801 79.4143 5.22722 80.6274 5.68756 81.7599C6.14791 82.8923 6.83009 83.9213 7.69398 84.7862C9.4503 86.5423 11.8313 87.5304 14.315 87.5338H72.376C70.9553 85.0944 69.3335 82.3201 68.8376 81.5025" fill="black"/>
<path d="M17.9071 67.9523C17.9071 66.6958 18.2798 65.4676 18.9779 64.4229C19.676 63.3781 20.6682 62.5639 21.8291 62.0831C22.9899 61.6023 24.2673 61.4766 25.4997 61.7217C26.732 61.9669 27.864 62.572 28.7524 63.4605C29.6408 64.349 30.2459 65.481 30.4909 66.7134C30.736 67.9457 30.6102 69.2231 30.1293 70.3839C29.6484 71.5448 28.8341 72.5369 27.7893 73.235C26.7446 73.933 25.5163 74.3055 24.2598 74.3055L24.2064 74.3053C23.3809 74.3071 22.5632 74.1463 21.7999 73.832C21.0365 73.5178 20.3426 73.0563 19.7576 72.4739C19.1726 71.8915 18.7081 71.1995 18.3905 70.4376C18.0729 69.6756 17.9086 68.8586 17.9068 68.0331C17.9067 68.0062 17.9068 67.9793 17.9071 67.9523Z" fill="white"/>
</g>
<defs>
<clipPath id="clip0_195_371">
<rect width="171.691" height="92.56" fill="white"/>
</clipPath>
</defs>
</svg>
