<svg width="172" height="93" viewBox="0 0 172 93" fill="none" xmlns="http://www.w3.org/2000/svg">
<g clip-path="url(#clip0_195_152)">
<path d="M157.579 0C159.446 0.0141199 161.292 0.396394 163.012 1.12402C164.732 1.85166 166.292 2.91087 167.602 4.24121C168.913 5.57163 169.948 7.14729 170.65 8.87793C171.351 10.6086 171.705 12.4608 171.691 14.3281V78.1924C171.694 81.9901 170.193 85.6342 167.515 88.3271C164.837 91.0201 161.201 92.5428 157.404 92.5605H14.3149C12.4289 92.5644 10.5602 92.1954 8.81689 91.4756C7.07365 90.7557 5.48958 89.6987 4.15576 88.3652C2.82003 87.0322 1.7648 85.4452 1.05127 83.6982C0.382338 82.0604 0.0263277 80.3128 0.00146484 78.5459V14.3408C-0.0166839 12.4471 0.34249 10.5688 1.05811 8.81543C1.77377 7.06199 2.83131 5.46815 4.16943 4.12793C6.8768 1.47133 10.5219 -0.0118028 14.3149 0H157.579ZM14.3149 5.02637C11.841 5.01203 9.46096 5.97555 7.69385 7.70703C6.83241 8.579 6.1519 9.61288 5.69189 10.749C5.23184 11.8854 5.00092 13.1022 5.01318 14.3281V78.1924C4.9978 79.4145 5.22775 80.6275 5.68799 81.7598C6.14826 82.892 6.83015 83.9213 7.69385 84.7861C9.45005 86.5422 11.8314 87.5307 14.3149 87.5342H72.3765C70.9558 85.0949 69.3333 82.3205 68.8374 81.5029H61.9487C61.9487 64.3207 67.7525 54.8176 74.7085 52.9277C75.6599 52.753 75.2037 48.0629 73.9976 46.6289H69.9771C69.3341 46.6286 69.7095 45.4219 69.7095 45.4219L72.9663 38.4658L72.5239 36.5635H60.4878L70.3794 29.6475C70.8351 11.4064 89.5451 9.98568 100.817 17.585C107.518 22.0213 108.027 30.8133 107.518 36.8848C107.437 37.2732 105.776 37.0186 105.776 37.0186C105.776 37.0186 104.637 43.7188 107.612 43.7197H120.76C126.105 43.5059 131.264 47.1156 131.295 47.1377L132.555 42.541L103.752 5.02637H14.3149ZM117.41 5.02637L140.356 43.3721L142.473 43.6396L143.813 45.3955V47.0303L145.261 47.3252L146.601 49.1484V50.7295L148.102 50.998L149.617 52.6465V56.292C151.42 57.9198 153.452 59.2743 155.648 60.3125C157.672 61.0898 157.9 64.3335 159.12 66.0625C160.648 68.5822 162.739 69.5878 162.296 70.9951C161.278 74.7612 157.418 81.114 153.826 81.4092H139.619V87.4941H157.417C159.884 87.4835 162.246 86.493 163.983 84.7412C165.72 82.9894 166.69 80.6192 166.679 78.1523L166.678 78.1123V14.3281L166.66 13.8721C166.574 11.5984 165.646 9.43121 164.048 7.7959C162.344 6.05166 160.017 5.05487 157.579 5.02637H117.41Z" fill="black"/>
<path d="M17.9071 67.9523C17.9071 66.6958 18.2798 65.4676 18.9779 64.4229C19.676 63.3781 20.6682 62.5639 21.8291 62.0831C22.9899 61.6023 24.2673 61.4766 25.4997 61.7217C26.732 61.9669 27.864 62.572 28.7524 63.4605C29.6408 64.349 30.2459 65.481 30.4909 66.7134C30.736 67.9457 30.6102 69.2231 30.1293 70.3839C29.6484 71.5448 28.8341 72.5369 27.7893 73.235C26.7446 73.933 25.5163 74.3055 24.2598 74.3055L24.2064 74.3053C23.3809 74.3071 22.5632 74.1463 21.7999 73.832C21.0365 73.5178 20.3426 73.0563 19.7576 72.4739C19.1726 71.8915 18.7081 71.1995 18.3905 70.4376C18.0729 69.6756 17.9086 68.8586 17.9068 68.0331C17.9067 68.0062 17.9068 67.9793 17.9071 67.9523Z" fill="black"/>
</g>
<defs>
<clipPath id="clip0_195_152">
<rect width="171.691" height="92.56" fill="white"/>
</clipPath>
</defs>
</svg>
