<svg width="172" height="93" viewBox="0 0 172 93" fill="none" xmlns="http://www.w3.org/2000/svg">
<g clip-path="url(#clip0_195_371)">
<path d="M157.403 0.000157103H14.3151C10.5218 -0.0117199 6.87658 1.4714 4.16912 4.12823C2.83097 5.46848 1.77319 7.06185 1.05752 8.81535C0.341853 10.5688 -0.0173617 12.4473 0.000843332 14.3412V78.1922C-0.0197561 80.0792 0.33721 81.9512 1.05074 83.6982C1.76428 85.4452 2.81997 87.0319 4.15572 88.3649C5.48963 89.6985 7.07372 90.7555 8.81711 91.4754C10.5605 92.1953 12.4289 92.5639 14.3151 92.56H157.403C161.201 92.5423 164.837 91.0203 167.515 88.3273C170.193 85.6344 171.694 81.9899 171.691 78.1922V14.3278C171.705 12.4604 171.351 10.6085 170.65 8.87784C169.948 7.1472 168.912 5.57169 167.602 4.24127C166.291 2.91085 164.732 1.85158 163.012 1.12393C161.292 0.396281 159.446 0.0145077 157.578 0.000407103C157.52 -3.28972e-05 157.462 -0.000116231 157.403 0.000157103Z" fill="black"/>
<path d="M166.665 14.3278C166.693 11.8894 165.752 9.53967 164.048 7.79536C162.344 6.05105 160.017 5.0551 157.579 5.02659C157.52 5.02592 157.462 5.0258 157.403 5.02621H117.409L140.355 43.3717L142.473 43.6397L143.813 45.3954V47.0306L145.261 47.3255L146.601 49.1482V50.7298L148.102 50.9978L149.616 52.6464V56.292C151.42 57.9199 153.452 59.2746 155.648 60.3128C157.672 61.0902 157.899 64.3337 159.119 66.0627C160.647 68.5824 162.738 69.5876 162.296 70.9949C161.277 74.7611 157.417 81.114 153.825 81.4089H139.618V87.4938H157.417C159.884 87.4832 162.245 86.4931 163.982 84.7412C165.719 82.9894 166.689 80.6193 166.679 78.1524L166.678 78.1118V14.3278" fill="white"/>
<path d="M68.8243 81.5027H61.9487C61.9487 64.3203 67.7521 54.8177 74.7081 52.9279C75.6597 52.7536 75.204 48.0627 73.9978 46.6286H69.9769C69.3336 46.6286 69.7089 45.4223 69.7089 45.4223L72.9658 38.4662L72.5235 36.563H60.4877L70.379 29.6472C70.8347 11.406 89.545 9.98525 100.817 17.5847C107.518 22.021 108.028 30.8132 107.518 36.8847C107.438 37.2734 105.776 37.0187 105.776 37.0187C105.776 37.0187 104.637 43.7201 107.612 43.7201H120.76C126.121 43.5057 131.295 47.1378 131.295 47.1378L132.555 42.5407L103.752 5.02622H14.315C11.8409 5.01176 9.46121 5.97519 7.694 7.70678C6.83234 8.57887 6.15185 9.61292 5.69179 10.7493C5.23172 11.8857 5.00117 13.1019 5.01344 14.3278V78.1922C4.99803 79.4145 5.22723 80.6276 5.68758 81.7601C6.14793 82.8925 6.83011 83.9215 7.694 84.7864C9.45031 86.5425 11.8313 87.5306 14.315 87.5339H72.376C70.9553 85.0946 69.3336 82.3202 68.8377 81.5027" fill="white"/>
<path d="M17.907 67.9524C17.907 66.6959 18.2797 65.4677 18.9778 64.423C19.6759 63.3782 20.6681 62.564 21.829 62.0832C22.9898 61.6024 24.2672 61.4767 25.4996 61.7218C26.7319 61.967 27.8639 62.5721 28.7523 63.4606C29.6407 64.3491 30.2458 65.4811 30.4909 66.7135C30.7359 67.9458 30.6101 69.2232 30.1292 70.384C29.6483 71.5449 28.834 72.537 27.7893 73.2351C26.7445 73.9331 25.5162 74.3056 24.2597 74.3056L24.2063 74.3054C23.3809 74.3072 22.5631 74.1464 21.7998 73.8321C21.0364 73.5179 20.3425 73.0564 19.7575 72.474C19.1725 71.8916 18.708 71.1996 18.3904 70.4377C18.0728 69.6757 17.9085 68.8587 17.9067 68.0332C17.9066 68.0063 17.9067 67.9794 17.907 67.9524Z" fill="black"/>
</g>
<defs>
<clipPath id="clip0_195_371">
<rect width="171.691" height="92.56" fill="white"/>
</clipPath>
</defs>
</svg>
