<svg width="210" height="477" viewBox="0 0 210 477" fill="none" xmlns="http://www.w3.org/2000/svg">
<g clip-path="url(#clip0_195_376)">
<path d="M160.622 0.179688H49.239C22.0448 0.179688 0 22.2254 0 49.4187V426.632C0 453.85 22.0219 475.934 49.2385 476.011H160.621C187.861 475.934 209.922 453.873 210 426.632V49.4187C209.846 22.2345 187.805 0.256772 160.622 0.179688Z" fill="white"/>
<path d="M132.987 87.2944V88.838C136.353 90.8017 138.036 92.4847 141.543 94.5888C150.661 100.341 161.883 110.441 160.34 145.511C162.866 153.086 163.987 168.096 166.373 173.006C171.142 182.405 174.228 188.437 175.631 197.415C175.631 197.415 177.034 211.163 178.717 212.144C188.116 214.249 185.45 215.231 186.713 216.774C187.976 218.316 193.587 218.598 193.587 223.647C195.33 226.092 196.79 228.728 197.936 231.503V49.4187C197.936 28.71 181.19 11.9008 160.481 11.8237H124.428C130.181 13.9279 133.407 16.3122 135.371 20.1003C140 20.521 145.612 30.9022 136.914 46.3329C140.702 48.8581 137.756 52.6458 134.95 57.1343C134.108 58.537 133.267 61.0623 130.74 60.9219C127.515 67.7958 123.587 74.5292 120.5 74.9499C119.658 76.0719 118.958 79.0182 120.361 80.421C124.915 82.0093 129.179 84.3314 132.987 87.2944ZM198.217 256.332C191.327 273.519 171.808 281.866 154.621 274.975C137.435 268.085 129.088 248.567 135.978 231.38C139.995 221.358 148.594 213.884 159.078 211.302C155.15 201.623 147.014 185.912 144.629 180.721C142.244 175.53 136.774 143.687 135.651 137.374C135.371 135.971 121.203 145.651 121.203 146.212C121.203 146.773 110.541 172.724 110.121 174.127C109.699 175.53 109.84 178.476 109.84 178.476C109.84 178.476 114.609 179.037 117.415 187.454C120.221 195.871 128.497 226.593 128.497 226.593C128.497 226.593 126.253 228.978 126.112 228.837C136.774 264.328 132.987 279.619 137.756 290C143.788 304.729 145.331 302.765 150.521 315.11C154.169 324.087 158.237 359.438 159.64 360.982C165.391 368.275 168.478 373.887 168.478 377.955C168.478 382.024 163.567 394.228 165.391 401.381C166.512 405.59 167.075 414.849 168.897 416.672C170.722 418.496 170.722 420.178 169.739 421.722C169.361 422.306 169.167 422.99 169.178 423.686C172.404 434.768 182.505 453.847 165.953 463.807H166.373C184.681 460.963 198.158 445.159 198.077 426.631V256.331L198.217 256.332Z" fill="black"/>
<path d="M155.853 419.34C149.82 414.007 153.887 411.624 153.606 409.519C149.679 393.106 136.493 383.005 143.366 377.674C141.684 372.204 138.317 365.471 138.456 365.471C118.116 353.827 100.722 334.749 97.7756 331.943C94.8303 329.137 88.0963 324.087 86.9738 321.001C82.0642 316.511 58.0756 282.425 52.4646 269.8L42.6449 268.397C38.1564 250.301 23.4266 235.01 23.0059 216.913C22.8665 210.04 26.0926 195.311 27.355 192.364C28.6174 189.419 34.2289 184.509 34.2289 184.509V179.599C12.9064 180.16 19.0789 178.056 15.4316 169.779C12.9064 164.028 14.7298 162.765 15.572 158.837C18.3775 147.054 27.9165 128.957 31.8445 120.821C33.1073 116.612 37.1752 106.653 37.1752 106.653C53.0271 74.3886 58.9188 76.7735 77.8569 74.9496L78.8385 73.5464C97.7766 72.7051 94.6904 71.3024 97.3555 53.0657C94.55 54.1872 93.8481 47.3138 93.8481 47.3138C92.3055 36.9336 96.6537 38.8973 98.7578 38.7565C99.1784 21.7831 101.003 16.4519 113.206 11.6831H49.239C28.4751 11.6831 11.6436 28.5152 11.6436 49.278V426.492C11.6436 447.279 28.4528 464.151 49.239 464.229H160.622C147.855 457.354 155.431 444.308 155.853 419.34Z" fill="black"/>
<path d="M70.304 440.655V372.336H83.5216C91.2049 372.336 95.9132 376.466 95.9132 386.05V396.211C95.9132 402.406 94.0132 405.545 91.37 407.117C94.0132 408.932 95.9132 411.989 95.9132 417.194V427.107C95.9132 436.442 90.8742 440.656 83.5216 440.656L70.304 440.655ZM79.3919 410.998V432.064H82.8607C86.0007 432.064 86.8258 430.41 86.8258 427.189V415.624C86.8258 412.236 85.7528 410.997 82.7793 410.997H79.3919V410.998ZM79.3919 380.928V403.48H82.7793C86.0007 403.48 86.8258 402.322 86.8258 398.607V385.472C86.8258 382.332 85.8356 380.845 82.8607 380.845H79.3919V380.928ZM117.393 426.776H109.131L107.974 440.655H98.8049L107.065 372.336H120.118L128.048 440.655H118.466L117.393 426.776ZM113.345 380.019H112.849C112.27 388.28 111.115 402.656 110.785 407.279L109.71 419.012H116.815L115.739 407.279C115.411 402.572 114.089 388.28 113.345 380.019ZM43.2915 440.655H35.3613V372.336H47.9171L58.0789 428.264C57.2519 414.881 56.0961 398.687 56.0961 384.893V372.254H64.0264V440.571H52.4608L42.2989 385.884C42.9604 398.525 43.2087 408.601 43.2087 419.093V440.655H43.2915V440.655Z" fill="white"/>
</g>
<defs>
<clipPath id="clip0_195_376">
<rect width="210" height="476.19" fill="white"/>
</clipPath>
</defs>
</svg>
