<svg width="210" height="477" viewBox="0 0 210 477" fill="none" xmlns="http://www.w3.org/2000/svg">
<g clip-path="url(#clip0_195_376)">
<path d="M160.621 0.179688C187.804 0.256772 209.846 22.2347 210 49.4189V426.633C209.923 453.873 187.86 475.934 160.621 476.011H49.2383C22.0219 475.934 0.000197539 453.85 0 426.633V49.4189C0 22.2257 22.045 0.179688 49.2393 0.179688H160.621ZM49.2393 11.6836C28.4754 11.6836 11.6436 28.5154 11.6436 49.2783V426.492C11.6438 447.279 28.4532 464.151 49.2393 464.229H160.621C147.856 457.354 155.43 444.308 155.853 419.34C149.82 414.007 153.887 411.624 153.606 409.519C149.679 393.105 136.494 383.006 143.366 377.675C141.685 372.208 138.322 365.48 138.456 365.471C118.115 353.827 100.722 334.748 97.7754 331.942C94.8298 329.137 88.0961 324.086 86.9736 321.001C82.0633 316.51 58.0759 282.425 52.4648 269.8L42.6445 268.397C38.156 250.301 23.4265 235.01 23.0059 216.913C22.8665 210.04 26.0931 195.311 27.3555 192.364C28.6136 189.429 34.1893 184.543 34.2285 184.509V179.6C12.9065 180.16 19.0789 178.055 15.4316 169.779C12.9065 164.028 14.73 162.765 15.5723 158.837C18.3779 147.053 27.9168 128.957 31.8447 120.821C33.1045 116.623 37.1553 106.701 37.1748 106.653C53.0265 74.3889 58.9187 76.773 77.8564 74.9492L78.8389 73.5469C97.7766 72.7056 94.6904 71.302 97.3555 53.0654C94.55 54.187 93.8477 47.3135 93.8477 47.3135C92.3052 36.9337 96.6537 38.8977 98.7578 38.7568C99.1784 21.7837 101.003 16.4523 113.206 11.6836H49.2393ZM135.651 137.374C135.37 135.972 121.203 145.651 121.203 146.212C121.201 146.777 110.543 172.72 110.121 174.127C109.699 175.53 109.84 178.477 109.84 178.477C109.84 178.477 114.609 179.037 117.415 187.454C120.216 195.857 128.47 226.491 128.497 226.593C128.494 226.596 126.253 228.978 126.112 228.837C136.774 264.328 132.987 279.619 137.756 290C143.788 304.729 145.331 302.766 150.521 315.11C154.169 324.088 158.236 359.439 159.64 360.982C165.39 368.275 168.479 373.887 168.479 377.955C168.478 382.024 163.567 394.228 165.391 401.381C166.512 405.59 167.075 414.849 168.897 416.672C170.722 418.496 170.721 420.178 169.739 421.722C169.361 422.306 169.167 422.99 169.178 423.686C172.403 434.768 182.505 453.847 165.953 463.807H166.373C184.681 460.963 198.158 445.16 198.077 426.632V256.668C198.123 256.556 198.172 256.445 198.217 256.332L198.077 256.331V256.668C191.068 273.627 171.695 281.82 154.621 274.975C137.435 268.084 129.088 248.567 135.978 231.38C139.995 221.358 148.594 213.885 159.078 211.302C155.15 201.623 147.015 185.912 144.63 180.721C142.245 175.53 136.774 143.686 135.651 137.374ZM64.0264 440.571H52.4609L42.2988 385.884C42.9602 398.525 43.209 408.601 43.209 419.093V440.654H43.292L35.3613 440.655V372.336H47.917L58.0791 428.264C57.2521 414.881 56.0957 398.687 56.0957 384.893V372.255H64.0264V440.571ZM83.5215 372.336C91.2047 372.336 95.9131 376.467 95.9131 386.05V396.211C95.913 402.406 94.0132 405.545 91.3701 407.116C94.0133 408.932 95.913 411.989 95.9131 417.193V427.107C95.913 436.442 90.874 440.655 83.5215 440.655H70.3037V372.336H83.5215ZM128.049 440.655H118.466L117.393 426.776H109.131L107.974 440.655H98.8047L107.065 372.336H120.118L128.049 440.655ZM79.3916 432.064H82.8604C86.0004 432.064 86.8262 430.41 86.8262 427.188V415.624C86.8262 412.237 85.7528 410.997 82.7793 410.997H79.3916V432.064ZM112.85 380.02C112.27 388.28 111.115 402.656 110.785 407.279L109.71 419.013H116.815L115.738 407.279C115.41 402.572 114.088 388.28 113.345 380.02H112.85ZM79.3916 403.48H82.7793C86.0007 403.48 86.8262 402.322 86.8262 398.606V385.472C86.8262 382.332 85.8352 380.845 82.8604 380.845H79.3916V403.48ZM124.429 11.8242C130.181 13.9283 133.407 16.3126 135.371 20.1006C140 20.5212 145.611 30.9023 136.914 46.333C140.702 48.8582 137.755 52.6463 134.949 57.1348C134.108 58.5376 133.266 61.0622 130.74 60.9219C127.515 67.7957 123.587 74.5296 120.5 74.9502C119.658 76.0725 118.958 79.0183 120.361 80.4209C124.915 82.0092 129.179 84.3312 132.986 87.2939V88.8379C136.352 90.8016 138.036 92.4848 141.543 94.5889C150.661 100.341 161.883 110.441 160.341 145.511C162.866 153.086 163.987 168.095 166.373 173.006C171.142 182.404 174.228 188.437 175.631 197.415C175.631 197.415 177.035 211.163 178.717 212.145C188.116 214.249 185.451 215.23 186.713 216.773C187.976 218.316 193.587 218.598 193.587 223.647C195.329 226.093 196.789 228.728 197.936 231.503V49.4189C197.936 28.7103 181.19 11.9013 160.48 11.8242H124.429Z" fill="black"/>
</g>
<defs>
<clipPath id="clip0_195_376">
<rect width="210" height="476.19" fill="white"/>
</clipPath>
</defs>
</svg>
