<svg width="179" height="246" viewBox="0 0 179 246" fill="none" xmlns="http://www.w3.org/2000/svg">
<g clip-path="url(#clip0_195_128)">
<mask id="mask0_195_128" style="mask-type:luminance" maskUnits="userSpaceOnUse" x="-1" y="0" width="180" height="247">
<path d="M-0.00390625 246.148H178.303V0.122378H-0.00390625V246.148Z" fill="white"/>
</mask>
<g mask="url(#mask0_195_128)">
<path d="M172.711 28.3907C165.256 33.9822 150.345 41.4376 131.707 36.778C98.7793 28.7014 89.4601 0.433211 89.4601 0.433211C89.4601 0.433211 80.0788 28.6703 47.2132 36.778C28.2953 41.4376 13.6642 33.9201 5.89823 28.4218H-0.00390625V180.635C-0.00390625 184.673 0.92801 192.129 7.17185 199.894C14.9068 209.214 27.9536 215.209 46.0017 217.818C60.6018 219.9 71.1635 224.435 78.6188 231.673C84.2103 236.985 89.4912 246.18 89.4912 246.18C89.4912 246.18 94.9274 236.798 100.239 231.673C107.757 224.435 118.412 219.931 132.856 217.818C150.936 215.206 163.92 209.12 171.686 199.77C177.93 192.191 178.862 184.58 178.862 180.759V28.546H172.929" fill="black"/>
<path d="M173.333 34.2926C173.333 34.2926 155.409 48.2403 130.154 41.9343C100.736 34.5722 89.1494 12.5479 89.1494 12.5479C89.1494 12.5479 77.7179 34.6033 48.145 41.9343C23.2939 48.1471 5.27686 34.1684 5.27686 34.1684V180.479C5.2799 185.45 7.35814 206.573 46.9025 212.165C62.4655 214.417 74.0834 219.402 82.3153 227.448C85.3223 230.331 87.5962 233.257 89.3358 235.959C91.0847 233.266 93.3741 230.337 96.3562 227.448C104.712 219.402 116.33 214.401 131.769 212.165C171.22 206.48 173.084 185.356 173.395 180.479V34.1684" fill="white"/>
<path d="M89.4602 221.391C89.4602 221.391 100.892 207.288 130.465 202.721C164.635 197.471 163.392 181.505 163.392 180.697V103.969H15.2175V180.697C15.2175 181.505 14.211 197.471 48.1452 202.721C77.8423 207.319 89.1496 221.391 89.1496 221.391" fill="black"/>
<path d="M54.6685 160.102L54.6632 123.757L50.0968 121.194V111.751H70.9406V121.194L66.5917 123.757V198L55.4708 194.676L39.3797 147.148L39.3766 178.522L44.5022 182.436V192.097L22.1672 186.413V178.181L27.2928 176.18V123.682L22.043 121.088V111.645H38.9417L54.7222 160.105" fill="white"/>
<path d="M93.1876 193.34L97.6608 198.683V208.126L75.5122 199.863V191.849L80.3892 189.848V123.682L75.5433 121.225V111.658H114.063V130.886H105.613L103.053 122.996H93.2683V145.238H100.599L103.488 141.013H109.39V160.801H103.488L100.708 156.793H93.2528V193.449" fill="white"/>
<path d="M117.728 196.757V187.314L123.227 182.809V123.788L118.536 121.331V111.763H140.685V121.331L136.336 123.788V179.392L145.872 176.817L147.699 162.279H156.801V186.571L117.66 197.009" fill="white"/>
<path d="M19.1004 88.3438L12.3906 83.3115H20.5915L23.2972 75.5455L26.0028 83.3115H34.2037L27.4939 88.3749L29.9604 96.2651L23.2816 91.5745L16.6029 96.2651L19.0694 88.3749" fill="black"/>
<path d="M48.1454 88.3438L41.4355 83.3115H49.6364L52.3421 75.5455L55.0477 83.3115H63.2486L56.5388 88.3749L59.0053 96.2651L52.3266 91.5745L45.6478 96.2651L48.1143 88.3749" fill="black"/>
<path d="M19.1004 62.2501L12.3906 57.2177H20.5915L23.2972 49.4518L26.0028 57.2177H34.2037L27.4939 62.2811L29.9604 70.1714L23.2816 65.4807L16.6029 70.1714L19.0694 62.2811" fill="black"/>
<path d="M48.1454 62.2501L41.4355 57.2177H49.6364L52.3421 49.4518L55.0477 57.2177H63.2486L56.5388 62.2811L59.0053 70.1714L52.3266 65.4807L45.6478 70.1714L48.1143 62.2811" fill="black"/>
<path d="M162.15 96.1099L155.471 91.4192L148.792 96.1099L151.259 88.2196L144.549 83.1562H152.75L155.455 75.3902L158.161 83.1562H166.362L159.652 88.2196L162.122 96.1099" fill="black"/>
<path d="M132.949 96.1099L126.271 91.4192L119.592 96.1099L122.058 88.2196L115.349 83.1562H123.55L126.255 75.3902L128.964 83.1562H137.165L130.455 88.2196L132.925 96.1099" fill="black"/>
<path d="M162.15 70.0161L155.471 65.3255L148.792 70.0161L151.259 62.1259L144.549 57.0625H152.75L155.455 49.2965L158.161 57.0625H166.362L159.652 62.1259L162.122 70.0161" fill="black"/>
<path d="M132.949 70.0161L126.271 65.3255L119.592 70.0161L122.058 62.1259L115.349 57.0625H123.55L126.255 49.2965L128.964 57.0625H137.165L130.455 62.1259L132.925 70.0161" fill="black"/>
<path d="M95.6729 56.3478C92.6877 53.8875 89.3359 52.3095 85.7946 51.5329C86.6551 50.719 87.5373 50.0201 88.3108 49.3739C92.7529 50.4425 95.7351 52.4337 97.7853 54.1267C97.0584 54.8723 96.3532 55.5991 95.6854 56.3416L95.6729 56.3478ZM91.355 61.5355C88.5096 59.1467 85.0491 57.3729 81.135 56.5652C81.7346 55.7918 82.4366 54.9685 83.1107 54.2044C86.1052 54.7356 89.9447 56.3136 93.2996 59.0814C92.6162 59.9015 91.9763 60.734 91.3737 61.5261L91.355 61.5355ZM87.4721 66.9716C84.4029 64.4151 80.8244 62.8401 77.3142 62.1878C77.3142 62.1878 78.3921 60.4296 79.004 59.5194C83.2909 60.3706 86.77 62.3773 89.2241 64.4275C88.5966 65.3222 88.0033 66.1795 87.4721 66.9685V66.9716ZM107.757 41.0022C107.757 41.0022 104.278 42.8132 99.4317 47.5878C100.525 48.2059 101.755 49.0695 102.46 49.6566C101.727 50.3059 100.979 51.0079 100.283 51.6665C97.1143 49.0664 93.8526 47.7524 91.3053 47.1311C92.1503 46.5254 93.048 45.929 93.9333 45.3512C95.3002 45.6991 96.6235 46.2365 96.6235 46.2365C102.091 42.0739 106.844 40.2722 106.844 40.2722C106.844 40.2722 106.294 40.0032 104.831 40.0225C83.3033 40.3005 63.5156 56.3621 67.2432 83.8226C67.644 86.7395 68.7778 92.0545 70.2192 94.3843C70.6976 89.8179 72.4185 79.6911 77.5192 68.8187C75.7454 68.1819 74.2885 67.921 74.2885 67.921C74.8104 66.8275 75.5342 65.4327 75.5342 65.4327C79.324 66.1441 82.6478 67.7253 85.5368 70.0302C84.8441 71.1516 84.375 71.8816 84.0426 72.4594C83.0299 71.6611 82.0048 70.9745 80.8741 70.347C75.1273 80.3807 72.4868 89.8552 71.3996 94.7943C71.4592 95.1 72.083 95.2572 72.5862 95.192C96.1637 92.1384 107.067 80.0949 110.484 67.0791C112.693 58.5366 111.969 49.5901 109.012 42.2901C108.804 41.7776 108.4 40.9264 107.713 40.9886" fill="black"/>
</g>
</g>
<defs>
<clipPath id="clip0_195_128">
<rect width="179" height="246" fill="white"/>
</clipPath>
</defs>
</svg>
