<svg width="179" height="246" viewBox="0 0 179 246" fill="none" xmlns="http://www.w3.org/2000/svg">
<g clip-path="url(#clip0_195_381)">
<path d="M89.46 0.433594C89.495 0.539514 98.8412 28.7169 131.707 36.7783C149.763 41.2922 164.32 34.4363 171.99 28.9199L172.929 28.5459H178.862V180.759C178.862 184.58 177.93 192.191 171.687 199.771C163.921 209.121 150.936 215.206 132.856 217.818C118.412 219.931 107.757 224.435 100.239 231.673C94.9309 236.795 89.4986 246.167 89.4912 246.18C89.4912 246.18 84.2106 236.985 78.6191 231.673C71.1638 224.435 60.6019 219.9 46.002 217.818C27.9539 215.209 14.9068 209.214 7.17188 199.895C0.928032 192.129 -0.00390625 184.673 -0.00390625 180.635V28.4219H5.89844C13.6644 33.9201 28.2953 41.4377 47.2129 36.7783C80.0078 28.6881 89.4196 0.554559 89.46 0.433594ZM89.1494 12.5479C89.1494 12.5479 77.718 34.6034 48.1455 41.9346C23.3299 48.1385 5.32876 34.2078 5.27734 34.168V180.479C5.28043 185.45 7.35856 206.573 46.9023 212.164C62.4654 214.416 74.0835 219.403 82.3154 227.448C85.3223 230.331 87.5964 233.257 89.3359 235.96C91.0848 233.267 93.3743 230.337 96.3564 227.448C104.713 219.403 116.331 214.401 131.77 212.164C171.22 206.479 173.084 185.357 173.395 180.479V34.168L173.125 34.4473C171.064 35.956 153.83 47.8466 130.153 41.9346C100.736 34.5723 89.1494 12.5479 89.1494 12.5479Z" fill="white"/>
<path d="M163.392 180.697C163.392 181.509 164.629 197.473 130.464 202.722C102.739 207.003 90.9594 219.666 89.5957 221.231L89.1494 221.391C89.1494 221.391 77.8416 207.319 48.1445 202.722C14.2155 197.473 15.2165 181.509 15.2168 180.697V103.969H163.392V180.697ZM75.5439 121.226L80.3896 123.683V189.849L75.5127 191.849V199.863L97.6611 208.127V198.683L93.2529 193.449V156.793H100.709L103.488 160.801H109.391V141.013H103.488L100.6 145.237H93.2686V122.996H103.054L105.613 130.886H114.062V111.657H75.5439V121.226ZM22.043 121.089L27.293 123.683V176.181L22.167 178.181V186.413L44.502 192.098V182.437L39.377 178.522L39.3799 147.148L55.4707 194.676L66.5918 198V123.757L70.9404 121.194V111.751H50.0967V121.194L54.6631 123.757L54.7227 160.104L38.9424 111.646H22.043V121.089ZM118.536 111.763V121.331L123.227 123.788V182.81L117.729 187.313L117.66 197.009L156.801 186.571V162.279H147.699L145.872 176.817L136.336 179.393V123.788L140.685 121.331V111.763H118.536Z" fill="white"/>
<path d="M19.0999 88.3438L12.3901 83.3115H20.591L23.2967 75.5455L26.0023 83.3115H34.2032L27.4934 88.3749L29.9599 96.2651L23.2811 91.5745L16.6024 96.2651L19.0689 88.3749" fill="white"/>
<path d="M48.1449 88.3438L41.4351 83.3115H49.6359L52.3416 75.5455L55.0473 83.3115H63.2481L56.5383 88.3749L59.0048 96.2651L52.3261 91.5745L45.6473 96.2651L48.1138 88.3749" fill="white"/>
<path d="M19.0999 62.2501L12.3901 57.2177H20.591L23.2967 49.4518L26.0023 57.2177H34.2032L27.4934 62.2811L29.9599 70.1714L23.2811 65.4807L16.6024 70.1714L19.0689 62.2811" fill="white"/>
<path d="M48.1449 62.2501L41.4351 57.2177H49.6359L52.3416 49.4518L55.0473 57.2177H63.2481L56.5383 62.2811L59.0048 70.1714L52.3261 65.4807L45.6473 70.1714L48.1138 62.2811" fill="white"/>
<path d="M162.149 96.1099L155.47 91.4192L148.792 96.1099L151.258 88.2196L144.548 83.1562H152.749L155.455 75.3902L158.161 83.1562H166.361L159.652 88.2196L162.121 96.1099" fill="white"/>
<path d="M132.949 96.1099L126.27 91.4192L119.591 96.1099L122.058 88.2196L115.348 83.1562H123.549L126.255 75.3902L128.963 83.1562H137.164L130.455 88.2196L132.924 96.1099" fill="white"/>
<path d="M162.149 70.0161L155.47 65.3255L148.792 70.0161L151.258 62.1259L144.548 57.0625H152.749L155.455 49.2965L158.161 57.0625H166.361L159.652 62.1259L162.121 70.0161" fill="white"/>
<path d="M132.949 70.0161L126.27 65.3255L119.591 70.0161L122.058 62.1259L115.348 57.0625H123.549L126.255 49.2965L128.963 57.0625H137.164L130.455 62.1259L132.924 70.0161" fill="white"/>
<path d="M95.6724 56.3478C92.6872 53.8875 89.3354 52.3095 85.7941 51.5329C86.6546 50.719 87.5368 50.0201 88.3103 49.3739C92.7524 50.4425 95.7346 52.4337 97.7848 54.1267C97.0579 54.8723 96.3527 55.5991 95.6849 56.3416L95.6724 56.3478ZM91.3546 61.5355C88.5091 59.1467 85.0486 57.3729 81.1345 56.5652C81.7341 55.7918 82.4361 54.9685 83.1102 54.2044C86.1048 54.7356 89.9443 56.3136 93.2992 59.0814C92.6157 59.9015 91.9758 60.734 91.3732 61.5261L91.3546 61.5355ZM87.4716 66.9716C84.4025 64.4151 80.8239 62.8401 77.3137 62.1878C77.3137 62.1878 78.3916 60.4296 79.0035 59.5194C83.2904 60.3706 86.7695 62.3773 89.2236 64.4275C88.5961 65.3222 88.0028 66.1795 87.4716 66.9685V66.9716ZM107.756 41.0022C107.756 41.0022 104.277 42.8132 99.4312 47.5878C100.525 48.2059 101.755 49.0695 102.46 49.6566C101.727 50.3059 100.978 51.0079 100.282 51.6665C97.1138 49.0664 93.8521 47.7524 91.3049 47.1311C92.1498 46.5254 93.0475 45.929 93.9329 45.3512C95.2997 45.6991 96.623 46.2365 96.623 46.2365C102.09 42.0739 106.843 40.2722 106.843 40.2722C106.843 40.2722 106.293 40.0032 104.83 40.0225C83.3028 40.3005 63.5151 56.3621 67.2428 83.8226C67.6435 86.7395 68.7773 92.0545 70.2187 94.3843C70.6971 89.8179 72.418 79.6911 77.5187 68.8187C75.7449 68.1819 74.2881 67.921 74.2881 67.921C74.8099 66.8275 75.5337 65.4327 75.5337 65.4327C79.3235 66.1441 82.6473 67.7253 85.5363 70.0302C84.8436 71.1516 84.3745 71.8816 84.0421 72.4594C83.0294 71.6611 82.0043 70.9745 80.8736 70.347C75.1268 80.3807 72.4863 89.8552 71.3991 94.7943C71.4588 95.1 72.0825 95.2572 72.5857 95.192C96.1632 92.1384 107.067 80.0949 110.484 67.0791C112.692 58.5366 111.969 49.5901 109.011 42.2901C108.803 41.7776 108.399 40.9264 107.713 40.9886" fill="white"/>
</g>
<defs>
<clipPath id="clip0_195_381">
<rect width="179" height="246" fill="white"/>
</clipPath>
</defs>
</svg>
