<svg width="106" height="30" viewBox="0 0 106 30" fill="none" xmlns="http://www.w3.org/2000/svg">
<g clip-path="url(#clip0_335_809)">
<path d="M48.7023 21.1973C48.1058 22.342 47.5092 23.3288 46.8728 24.2367L48.7023 24.8683C49.3387 23.9604 50.0148 22.9341 50.6114 21.8288L48.7023 21.1973Z" fill="black"/>
<path d="M43.2535 28.3418C42.1796 29.1313 41.1853 29.4865 40.3103 29.2497L42.3387 29.9207C42.8955 30.1576 43.8501 29.8023 44.9637 28.9339L43.2535 28.3418Z" fill="black"/>
<path d="M53.0376 8.17121L54.9467 8.88173C55.1058 7.53963 55.1853 6.31594 55.1058 5.25015L53.1967 4.5791C53.2762 5.60542 53.2365 6.78963 53.0376 8.17121Z" fill="black"/>
<path d="M46.4354 24.9077C45.6001 26.0919 44.8047 27.0393 43.9297 27.7498L45.6001 28.3814C46.3956 27.6314 47.2706 26.7235 48.1854 25.5788L46.4354 24.9077Z" fill="black"/>
<path d="M50.4921 17.2104C50.0546 18.3552 49.5773 19.421 49.0603 20.4473L50.9694 21.1578C51.5262 20.171 52.0035 19.0657 52.4808 17.921L50.4921 17.2104Z" fill="black"/>
<path d="M53.2365 1.02647L51.3274 0.0791016C52.2819 0.71068 52.8785 1.97384 53.1569 3.71068L55.066 4.38173C54.7876 2.68436 54.191 1.50015 53.2365 1.02647Z" fill="black"/>
<path d="M52.9183 8.96045C52.7592 10.0262 52.4808 11.2104 52.1626 12.4341L54.1115 13.1447C54.4296 11.921 54.7081 10.7762 54.8671 9.6315L52.9183 8.96045Z" fill="black"/>
<path d="M51.9239 13.2236C51.6455 14.2499 51.2876 15.3157 50.8501 16.3815C50.8103 16.421 50.8103 16.4605 50.8103 16.4999L52.7989 17.2105C53.2364 16.0657 53.5944 14.9999 53.9126 13.8947L51.9239 13.2236Z" fill="black"/>
<path d="M50.2934 0.118492C47.549 -0.907824 42.8956 4.65797 39.9524 12.5922C36.9695 20.4869 36.7706 27.7106 39.5149 28.7764C42.2593 29.8027 46.9127 24.2369 49.8559 16.3027C52.8388 8.40797 53.0377 1.14481 50.2934 0.118492ZM49.2195 16.0659C46.6343 22.9343 42.6172 27.7895 40.2706 26.8816C37.8843 26.0132 38.0831 19.6974 40.6684 12.8685C43.2536 6.00007 47.2706 1.14481 49.657 2.0527C51.9638 2.92112 51.7649 9.19744 49.2195 16.0659Z" fill="black"/>
<path d="M0.100098 22.2237V7.77637H3.04328L9.08873 15.0395V7.77637H12.7478V22.2632H9.84442L3.75919 14.8422V22.2237H0.100098Z" fill="black"/>
<path d="M21.1 22.6183C16.6455 22.6183 13.9409 19.7367 13.9409 14.9998C13.9409 10.3025 16.6455 7.4209 20.9807 7.4209C24.5205 7.4209 27.1852 9.47353 27.5034 12.513H23.8443C23.4864 11.2498 22.4125 10.4604 20.9409 10.4604C18.8727 10.4604 17.6398 12.1183 17.6398 14.9604C17.6398 17.842 18.9921 19.5788 21.1 19.5788C22.7705 19.5788 23.9636 18.6314 24.0432 17.1709V16.9341H21.3784V14.4077H27.583V16.3025C27.7023 20.1709 25.2364 22.6183 21.1 22.6183Z" fill="black"/>
<path d="M28.8955 22.2237V7.77637H34.0262L36.9694 16.3816H37.1285L39.9126 7.77637H45.2421V22.2632H41.6228V13.1053L38.3614 22.2237H35.7762L32.5148 13.1053V22.2237H28.8955Z" fill="black"/>
<path d="M72.1286 19.1053H67.3558L66.4411 22.3027H62.782L67.674 7.77637H72.2479L77.1002 22.3027H73.0433L72.1286 19.1053ZM68.032 16.4606H71.4127L69.8615 11.0527H69.6627L68.032 16.4606Z" fill="black"/>
<path d="M77.6968 22.3027V7.77637H82.0718L85.6115 16.6579H85.8104L89.3502 7.77637H93.7252V22.2632H90.3445V13.1448H90.1059L86.8445 21.1974H84.5377L81.2763 13.1448H81.1172V22.3027H77.6968Z" fill="black"/>
<path d="M105.1 22.3027H95.1172V7.77637H105.1V10.7369H98.8161V13.6579H104.742V16.3816H98.8161V19.3422H105.1V22.3027Z" fill="black"/>
<path d="M57.1341 14.4076V16.9339H59.8387V17.1707C59.7591 18.6312 58.566 19.6181 56.8955 19.6181C55.3841 19.6181 54.2307 18.7102 53.7137 17.1312C53.2762 18.4339 52.7194 19.776 52.083 21.1576C53.316 22.1444 54.8671 22.697 56.816 22.697C60.9523 22.697 63.458 20.2891 63.458 16.2233V14.3286L57.1341 14.4076Z" fill="black"/>
<path d="M55.3843 10.7371C55.782 10.5792 56.1797 10.5003 56.657 10.5003C58.0888 10.5003 59.2025 11.2503 59.5604 12.5529H63.2195C62.8615 9.43447 60.2365 7.38184 56.657 7.38184C56.4184 7.38184 56.1002 7.38184 55.9013 7.42131C55.8218 8.09236 55.7025 9.27657 55.3843 10.7371Z" fill="black"/>
</g>
<defs>
<clipPath id="clip0_335_809">
<rect width="105" height="30" fill="white" transform="translate(0.100098)"/>
</clipPath>
</defs>
</svg>
