<svg width="204" height="234" viewBox="0 0 204 234" fill="none" xmlns="http://www.w3.org/2000/svg">
<g clip-path="url(#clip0_195_419)">
<path d="M187.709 84.8249C187.765 75.5267 189.75 66.3422 193.538 57.8564L199.978 43.0559L184.824 38.5222C178.209 36.5624 173.4 31.5314 170.515 23.5462L163.725 5.11865L148.833 17.5499C144.325 21.6906 138.502 24.0948 132.396 24.3359C124.582 24.0997 117.147 20.9017 111.588 15.3854L102 5.8499L92.4119 15.4147C86.8649 20.9315 79.4387 24.1303 71.6331 24.3652C65.5134 24.1229 59.6782 21.7077 55.1674 17.5499L40.2754 5.11865L33.6016 23.6047C30.6874 31.5899 25.9079 36.6209 19.3216 38.5807L4.13821 43.1144L10.6079 57.9149C14.3238 66.3979 16.2583 75.5583 16.2908 84.8249C16.2908 110.097 4.05078 115.099 4.05078 141.628C4.05078 177.138 30.2794 202.644 59.1308 210.19C73.4399 213.817 80.0845 214.198 90.7508 217.21C92.1496 218.702 102 229.466 102 229.466C102 229.466 111.85 218.702 113.249 217.21C123.915 214.285 130.735 213.817 144.898 210.19C173.808 202.644 199.949 177.138 199.949 141.628C199.949 115.099 187.709 110.097 187.709 84.8249ZM143.15 203.404C127.85 207.295 117.271 208.318 109.49 211.156C108.47 212.092 102 219.199 102 219.199C102 219.199 95.5302 212.092 94.5394 211.156C86.7582 208.231 76.1794 207.295 60.8502 203.404C28.6182 195.156 10.9285 167.778 10.9285 141.687C10.9285 117.994 23.3142 110.711 23.3142 84.8249C22.9692 71.843 19.659 59.114 13.6388 47.6189C13.6388 47.6189 36.9531 45.5714 43.3645 16.8187C43.3645 16.8187 57.4114 31.4437 71.6331 31.4437C89.9348 31.4144 102 15.6779 102 15.6779C102 15.6779 114.065 31.4144 132.396 31.4144C146.618 31.4144 160.635 16.7894 160.635 16.7894C166.959 45.5422 190.361 47.5897 190.361 47.5897C184.387 59.1058 181.127 71.8447 180.831 84.8249C180.831 110.711 193.071 117.994 193.071 141.687C193.071 167.778 175.411 195.156 143.15 203.404Z" fill="white"/>
<path d="M173.954 84.8249C174.001 73.5742 176.352 62.4534 180.86 52.1527C180.86 52.1527 164.948 48.9059 157.546 28.5187C150.552 34.6429 141.672 38.1649 132.396 38.4929C120.999 38.1704 110.144 33.5428 102 25.5352C93.8645 33.5384 83.0199 38.1659 71.633 38.4929C62.4059 38.1411 53.5788 34.6201 46.6284 28.5187C39.2262 48.9937 23.3142 52.1527 23.3142 52.1527C27.7624 62.4662 30.0537 73.5865 30.0462 84.8249C30.0462 112.203 17.8062 120.13 17.8062 141.687C17.8062 171.844 41.1204 191.032 62.5696 196.56C79.6181 200.918 90.7507 201.415 98.2404 205.072C98.2404 205.072 100.98 207.587 102 208.757C103.02 207.587 105.759 205.072 105.759 205.072C113.249 201.415 124.411 200.918 141.459 196.56C162.967 191.032 186.194 171.844 186.194 141.687C186.194 120.13 173.954 112.203 173.954 84.8249ZM37.8856 84.8249C37.8247 75.1804 36.2512 65.6056 33.2227 56.4524C40.0039 52.6066 45.6382 47.0122 49.5427 40.2479C56.2447 44.1727 63.8451 46.2889 71.6039 46.3904C82.5935 46.2125 93.2407 42.5241 102 35.8604C110.763 42.5168 121.408 46.2044 132.396 46.3904C134.504 46.3905 136.609 46.2242 138.691 45.8932L27.0444 130.718C30.2502 117.936 37.8856 107.377 37.8856 84.8249ZM53.0981 184.48C38.789 177.05 26.2284 162.805 25.6456 143.325L156.788 43.8749C160.477 49.1345 165.298 53.4932 170.894 56.6279C167.844 65.7189 166.231 75.2331 166.114 84.8249C166.099 89.1907 166.411 93.5515 167.047 97.8704L53.0981 184.48ZM139.565 188.867C126.043 192.348 109.519 194.132 104.594 197.028C103.697 197.728 102.859 198.501 102.087 199.339C101.321 198.506 100.493 197.734 99.6101 197.028C94.5976 194.103 78.0736 192.348 64.6387 188.867L63.0941 188.458L169.378 107.728C172.992 120.539 178.529 128.934 178.529 141.687C178.529 167.251 158.391 184.07 139.682 188.867" fill="white"/>
<path d="M74.3142 143.325L62.0742 124.342L48.4937 134.55C49.1457 134.572 49.7867 134.725 50.3796 134.998C50.9725 135.271 51.5054 135.66 51.9474 136.142C52.3893 136.623 52.7315 137.188 52.9541 137.804C53.1767 138.419 53.2752 139.073 53.2439 139.727V175.5L62.8319 168.217V143.032L73.7605 159.968L83.9022 152.275V107.757L74.3142 115.04V143.325Z" fill="white"/>
<path d="M113.22 101.966L102.408 110.156V93.6001L87.8364 104.715C88.4922 104.73 89.1383 104.877 89.7364 105.147C90.3346 105.417 90.8725 105.805 91.3183 106.288C91.7641 106.771 92.1087 107.339 92.3316 107.958C92.5545 108.577 92.6512 109.235 92.6159 109.892V145.724L102.466 138.236V121.943L113.278 113.724V130.016L122.604 122.85V78.3901L113.22 85.5271V101.966Z" fill="white"/>
<path d="M140.643 97.8121V64.6719L126.072 75.7869C126.728 75.8016 127.374 75.9484 127.972 76.2186C128.57 76.4888 129.108 76.8769 129.554 77.3598C129.999 77.8427 130.344 78.4106 130.567 79.0298C130.79 79.6489 130.887 80.3067 130.851 80.9641V116.649L158.041 95.9986C157.667 92.225 157.667 88.4233 158.041 84.6496L140.643 97.8121Z" fill="white"/>
<path d="M156.701 43.6997L25.6455 143.325C26.2867 162.893 38.7889 177.138 53.0689 184.568L167.076 97.8707C166.429 93.5526 166.108 89.1918 166.114 84.8252C166.175 75.1807 167.749 65.6059 170.777 56.4527C165.181 53.318 160.36 48.9593 156.672 43.6997M83.8146 152.276L73.7021 159.968L62.8318 143.033V168.275L53.2438 175.5V139.844C53.2791 139.191 53.1832 138.537 52.9618 137.921C52.7403 137.306 52.3979 136.741 51.9548 136.261C51.5117 135.781 50.977 135.395 50.3824 135.126C49.7878 134.857 49.1454 134.711 48.4935 134.696L62.0741 124.342L74.3141 143.325V115.04L83.9021 107.757L83.8146 152.276ZM122.604 122.85L113.22 129.987V113.724L102.408 121.943V138.236L92.5575 145.724V110.009C92.5928 109.352 92.4961 108.694 92.2733 108.075C92.0504 107.456 91.7058 106.888 91.26 106.405C90.8142 105.922 90.2762 105.534 89.6781 105.264C89.08 104.994 88.4338 104.847 87.7781 104.832L102.35 93.7172V110.185L113.162 101.966V85.5272L122.546 78.3902L122.604 122.85ZM157.983 95.9695L130.793 116.62V80.9642C130.828 80.3068 130.732 79.649 130.509 79.0299C130.286 78.4107 129.941 77.8428 129.495 77.3599C129.05 76.877 128.512 76.4889 127.914 76.2187C127.315 75.9485 126.669 75.8017 126.014 75.787L140.585 64.672V97.8122L158.071 84.6497C157.696 88.4234 157.696 92.225 158.071 95.9987" fill="black"/>
<path d="M132.396 46.3903C121.408 46.2044 110.763 42.5168 102 35.8604C93.2488 42.5181 82.6128 46.2063 71.6332 46.3903C63.8645 46.2939 56.2535 44.1775 49.5429 40.2479C45.6174 47.0235 39.9641 52.627 33.1646 56.4816C36.216 65.6208 37.8093 75.1865 37.8857 84.8249C37.8857 107.377 30.2794 117.936 27.0737 130.689L138.72 45.8639C136.638 46.1949 134.533 46.3612 132.425 46.3611" fill="black"/>
<path d="M62.9487 188.458L64.4933 188.867C77.9864 192.348 94.5104 194.132 99.4647 197.028C100.348 197.734 101.176 198.506 101.942 199.339C102.713 198.501 103.551 197.728 104.448 197.028C109.432 194.103 125.956 192.348 139.42 188.867C158.129 184.07 178.267 167.251 178.267 141.687C178.267 128.934 172.73 120.539 169.116 107.728L62.9487 188.458Z" fill="black"/>
<path d="M160.635 16.819C160.635 16.819 146.618 31.444 132.396 31.444C114.065 31.4147 102 15.6782 102 15.6782C102 15.6782 89.9348 31.4147 71.6331 31.4147C57.4114 31.4147 43.3645 16.7897 43.3645 16.7897C37.0405 45.5425 13.6388 47.6192 13.6388 47.6192C19.659 59.1143 22.9692 71.8434 23.3142 84.8252C23.3142 110.711 11.0742 117.995 11.0742 141.687C11.0742 167.778 28.7639 195.156 60.9959 203.405C76.3251 207.295 86.8748 208.319 94.6851 211.156C95.6759 212.092 102.146 219.2 102.146 219.2C102.146 219.2 108.615 212.092 109.635 211.156C117.417 208.231 127.995 207.295 143.295 203.405C175.556 195.156 193.217 167.778 193.217 141.687C193.217 117.995 180.977 110.711 180.977 84.8252C181.281 71.8649 184.541 59.147 190.507 47.6485C190.507 47.6485 167.192 45.5717 160.781 16.819M173.954 84.8252C173.954 112.203 186.194 120.13 186.194 141.687C186.194 171.844 162.879 191.032 141.459 196.56C124.411 200.918 113.249 201.416 105.759 205.072C105.759 205.072 103.02 207.587 102 208.757C100.98 207.587 98.2405 205.072 98.2405 205.072C90.7508 201.416 79.6182 200.918 62.5696 196.56C41.0331 191.032 17.8062 171.844 17.8062 141.687C17.8062 120.13 30.0462 112.203 30.0462 84.8252C29.9986 73.5745 27.6477 62.4537 23.1394 52.153C23.1394 52.153 39.0805 48.9062 46.4536 28.519C53.4425 34.6515 62.3262 38.1747 71.6039 38.4932C83.001 38.1736 93.8573 33.5455 102 25.5355C110.144 33.5431 121 38.1707 132.396 38.4932C141.672 38.1652 150.552 34.6432 157.546 28.519C164.949 48.994 180.861 52.153 180.861 52.153C176.352 62.4537 174.001 73.5745 173.954 84.8252Z" fill="black"/>
<path d="M204 41.1547L185.553 35.6557C179.928 33.9885 175.79 29.5717 173.254 22.581L165.094 0L146.909 15.2392C142.929 18.9444 137.762 21.1018 132.338 21.3232C125.326 21.0628 118.664 18.1837 113.657 13.2503L102 1.55025L90.3429 13.2503C85.3481 18.1842 78.6948 21.064 71.6914 21.3232C66.269 21.0942 61.1044 18.9378 57.12 15.2392L38.9057 0L30.7457 22.581C28.2103 29.5717 24.1011 33.9885 18.4474 35.6557L0 41.1547L7.83943 59.1435C11.405 67.2339 13.2606 75.9785 13.2891 84.825C13.2891 109.102 1.02 114.66 1.02 141.628C1.02 180.502 30.7457 205.979 58.3731 213.145C72.3326 216.567 76.5583 216.801 89.148 219.931L102 234L114.852 219.989C127.471 216.859 131.667 216.625 145.627 213.203C173.254 206.008 202.98 180.56 202.98 141.687C202.98 114.718 190.711 109.161 190.711 84.8835C190.731 76.0172 192.587 67.252 196.161 59.1435L204 41.1547ZM187.709 84.825C187.709 110.097 199.949 115.099 199.949 141.628C199.949 177.138 173.721 202.644 144.898 210.19C130.589 213.817 123.915 214.198 113.249 217.211C111.85 218.702 102 229.466 102 229.466C102 229.466 92.1497 218.702 90.7509 217.211C80.0846 214.286 73.44 213.817 59.1309 210.19C30.192 202.644 4.05086 177.138 4.05086 141.628C4.05086 115.099 16.2909 110.097 16.2909 84.825C16.2584 75.5584 14.3239 66.398 10.608 57.915L4.16743 43.1145L19.3217 38.5807C25.908 36.621 30.7166 31.59 33.6017 23.6047L40.2754 5.11875L55.1674 17.55C59.6907 21.6841 65.5205 24.0868 71.6331 24.336C79.4388 24.1012 86.8649 20.9024 92.412 15.3855L102 5.85L111.588 15.444C117.144 20.9652 124.581 24.1641 132.396 24.3945C138.507 24.1248 144.327 21.7012 148.833 17.55L163.725 5.0895L170.398 23.5755C173.313 31.5608 178.092 36.5918 184.707 38.5515L199.862 43.0852L193.421 57.915C189.634 66.4007 187.649 75.5853 187.593 84.8835" fill="black"/>
<path d="M194.296 191.149C192.72 191.137 191.176 191.596 189.86 192.466C188.544 193.336 187.515 194.579 186.904 196.037C186.293 197.495 186.127 199.103 186.427 200.656C186.727 202.208 187.481 203.637 188.591 204.759C189.701 205.882 191.119 206.648 192.664 206.961C194.208 207.274 195.811 207.119 197.268 206.517C198.725 205.914 199.971 204.891 200.848 203.576C201.725 202.262 202.193 200.716 202.193 199.134C202.197 198.089 201.996 197.054 201.601 196.087C201.206 195.12 200.626 194.241 199.892 193.5C199.159 192.758 198.287 192.169 197.327 191.765C196.367 191.362 195.337 191.152 194.296 191.149ZM194.296 205.393C193.053 205.405 191.834 205.045 190.796 204.36C189.757 203.675 188.945 202.695 188.463 201.545C187.98 200.396 187.85 199.128 188.087 197.903C188.325 196.679 188.92 195.553 189.796 194.669C190.673 193.784 191.792 193.182 193.011 192.938C194.23 192.694 195.494 192.819 196.642 193.298C197.789 193.776 198.769 194.587 199.457 195.626C200.145 196.665 200.509 197.886 200.503 199.134C200.507 199.955 200.349 200.768 200.039 201.527C199.729 202.286 199.272 202.977 198.695 203.558C198.118 204.14 197.433 204.601 196.678 204.916C195.923 205.231 195.113 205.393 194.296 205.393Z" fill="white"/>
<path d="M198.172 197.262C198.172 196.553 197.893 195.873 197.397 195.369C196.9 194.865 196.226 194.579 195.52 194.571H191.644V203.668H193.334V199.982H194.558L196.248 203.668H198.172L196.394 199.807C196.918 199.623 197.372 199.278 197.691 198.822C198.01 198.365 198.178 197.819 198.172 197.262ZM195.52 198.256H193.392V196.267H195.52C195.782 196.267 196.034 196.372 196.22 196.559C196.406 196.745 196.51 196.998 196.51 197.262C196.51 197.526 196.406 197.779 196.22 197.965C196.034 198.152 195.782 198.256 195.52 198.256Z" fill="white"/>
</g>
<defs>
<clipPath id="clip0_195_419">
<rect width="204" height="234" fill="white"/>
</clipPath>
</defs>
</svg>
