<svg width="652" height="652" viewBox="0 0 652 652" fill="none" xmlns="http://www.w3.org/2000/svg">
<path d="M504 556.5C506.1 556.5 509.2 556.9 509.2 553.8C509.2 551.5 507.3 551.2 505.5 551.2H501.3V556.4H504V556.5ZM510.9 564.7H508.7L504.5 557.9H501.2V564.7H499.4V550H505.8C509.7 550 511 551.5 511 553.9C511 556.8 509 557.9 506.4 558L510.9 564.7ZM515.4 557.3C515.4 550.9 510.7 545.9 504.3 545.9C497.8 545.9 493.1 550.9 493.1 557.3C493.1 563.8 497.8 568.8 504.3 568.8C510.8 568.8 515.4 563.8 515.4 557.3ZM491.1 557.3C491.1 550 497 544.1 504.4 544.1C511.7 544.1 517.6 550 517.6 557.3C517.6 564.6 511.7 570.6 504.4 570.6C497 570.6 491.1 564.6 491.1 557.3Z" fill="black"/>
<path d="M126.399 132.1C126.4 97.6002 154.3 69.6005 188.8 70.5005H428.5C462.9 69.7005 490.9 97.6002 490.9 132.1V508.1C490.9 542.5 463 570.5 428.5 570.5H188.8C154.4 570.5 126.399 542.6 126.399 508.1V132.1ZM188.8 84.0005C162.2 84.0006 140.601 105.6 140.601 132.2V508.2C140.601 534.8 162.2 556.4 188.8 556.4H428.5C455.1 556.4 476.7 534.8 476.7 508.2V132.2C476.7 105.6 455.1 84.0005 428.5 84.0005H188.8ZM420.008 549.1C419.945 549.231 419.9 549.3 419.9 549.3C419.898 549.323 419.681 551.001 416.9 551.2C411.3 551.6 382.3 549.9 382.3 549.9C382.088 549.649 381.891 549.382 381.707 549.1H420.008ZM288.902 549.1C288.544 549.171 288.114 549.191 287.583 549.1H288.902ZM428.2 91.3003C450.8 91.3003 469.1 109.6 469.101 132.2V508.2C469.101 530.8 450.8 549.1 428.2 549.1H420.008C420.42 548.243 421.572 544.71 415.5 540.2C413.4 538.7 408.5 532.6 404.8 530.1C409.8 529 415.1 528.1 416.2 528.1C414.9 514.3 414.6 484.5 413.6 445.5C409.3 405.101 408.9 391.5 388.8 308.8C403 292.6 402.5 282.6 416.2 265.9C423.5 251.5 434.8 222.3 439.7 206.9C445.88 200.62 445.999 185.598 446 185.5C439.81 174.118 426.741 170.71 426.7 170.7C423.8 168.6 421.4 170.5 420.5 171.6H420.4L315.5 107.6C307.9 103.6 297.3 117.2 294.7 122.1C293.6 123.9 297.1 126.6 299.4 128C308.9 134.2 313.5 118.2 317 112.6L418.4 176.6L419 182.1C418.9 190.4 425.6 197.3 421.7 209.4C420.6 226.3 402.3 229.7 392.4 240.1C383.2 249.1 365.2 247.9 357.6 255.3L357.4 255.5L357.3 255.2C350.8 238.1 346.9 237.2 344.9 230.3C336.9 227.3 327.5 226.6 319.8 230.7C312.5 235.5 308.8 244.6 310 252.6C310.2 260.8 321.7 269.6 327.8 273.2C323.9 278.8 322 285.7 322 288.6C321 300.7 330.6 312.3 333.3 317.1C344.6 333.9 351.1 347.3 353.6 352L354 354.9C353.8 355.2 344.2 372.1 360.1 396.4C366.599 408.898 375.897 436.692 376 436.9C379.7 440.9 371 438.4 370.1 447.5C363.898 450.002 316.4 486.2 305.8 495.9C301.5 497.1 296 497 294.2 502.3L291.3 508.6C286.7 513.9 281.4 523.2 280.4 532.4C279.3 537.1 280.5 546.2 286 548.6C286.611 548.869 287.133 549.023 287.583 549.1H188.5C165.9 549.1 147.601 530.8 147.601 508.2V132.2C147.601 109.6 165.9 91.3003 188.5 91.3003H428.2ZM385.4 473.1C382.7 499.3 380.2 526.3 380.3 533.5C379.271 537.805 379.03 544.998 381.707 549.1H288.902C289.481 548.986 289.874 548.74 290.2 548.6L294.4 538.9C298.2 529.7 303.7 527.3 316.5 514.6C322.9 516.4 325.7 520.1 332.3 521.7C350.1 505.2 368 490.1 385.4 473.1ZM180.5 243.6L202.6 243.5L202.9 236.5C203.1 230.901 205.6 227.2 209.1 227.1V265H193.1V286.2H200C189 292.5 181 304 181 322.7C181 339.8 188.1 352.6 200.5 359.5H181V382.2H190.1V419.2C190.1 426.2 193.3 433.4 201.2 438.4H180.7L180.6 460.8C180.6 460.8 187.4 460.9 189.3 460.8L190.6 462.4V498.2C190.6 500.1 189.3 499.5 189.3 499.9C187.505 499.8 180.743 499.899 180.7 499.9V522.1H235V515.6C239.2 520.2 245.3 522.6 253.1 522.6H271.8V500L264.7 499.9C264.1 499.9 261.7 499.7 261.8 497V494.2C261.8 490 261.5 485.5 259.4 481.6L257.7 479L258.4 478.6L258.5 478.5L258.6 478.4C263.2 474.4 265.6 469.1 265.6 462.7C265.6 458.3 264.5 453.7 262.5 449.8L262.4 449.6L262.3 449.4C259.4 444.6 255.2 441.4 249.7 439.7C257.3 435.2 261.1 427.6 261.1 416.8V382.1H270.2L270.1 359.4H248.7C261.1 352.5 268.2 339.7 268.2 322.6C268.2 303.9 260.1 292.3 249.2 286.1H257.4V265H241.4V227.1C245 227.3 247.4 230.901 247.6 236.5L247.9 243.5L270 243.6V204.2H180.5V243.6ZM227.3 489.6C229.1 489.6 230 489.9 230 491.8V499.6H223.2V499.7L221.6 498.3V489.6H227.3ZM230.6 458.9C233.1 458.9 235 460.8 235 463.4C235 466.4 232.7 468.2 230.7 468.2L221.8 468.3V458.9H230.6ZM237.4 383.3V417.6C237.4 420 235.3 422 229.9 422C224.5 422 221.8 420 221.8 417.6V383.3L223.1 382.2H236.3L237.4 383.3ZM225 302.1C228.7 302.2 233.8 302.2 233.8 322.6C233.8 336.2 230.8 343.1 225 343.1C222.1 343.1 216.1 343.1 216.1 322.6C216.1 302.1 222.3 302.1 225 302.1ZM394 261.4C394 261.4 381.6 279.9 379 281.5C378.7 280.301 376.5 274.6 375.4 271.6L393.6 259.2L394 261.4ZM251.8 149.6C237.9 149.6 228.7 157.7 228.7 171.4C228.7 184.9 238.2 192 251.8 192C256.1 192 260.9 191 264.7 188.3L266.1 191.2H271.8V177.3C271.8 175.8 272.7 174.9 274.3 174.9H277.3V169.8H253.5V175.1H256.9C258.5 175.1 259.4 176.001 259.4 177.5V182.6C259.4 185.5 256.4 186.4 253.9 186.4C246.3 186.4 242.7 181.3 242.7 170.9C242.7 160.5 246.3 155.3 253.9 155.3C260.5 155.3 264.4 158.4 264.6 164.4H270.7V150.3H264.8L263.5 153.7C260.3 150.8 255.6 149.6 251.8 149.6ZM285.9 178.5C284 182.5 282.8 185.6 277.2 186.2V190.8H296.8V186.2L296.2 186.1C294.7 185.9 291.2 185.9 291.2 183.9L291.9 181.3L292.7 179.4H308.2L309.1 181.3L310 184.4C310 186.2 306.1 186.1 304.7 186.2V190.8H327.8V186.2L327.1 186.1C322.7 185.4 322.6 184.4 320.9 180.8L308 151.1H298.2L285.9 178.5ZM181 156H185C186.6 156 187.5 156.9 187.5 158.4V183C187.5 184.5 186.6 185.4 185 185.4H181V190.7H206.7V185.4H202.3C200.7 185.4 199.8 184.5 199.8 183V173.5H207C219 173.5 225.3 170.4 225.3 162.1C225.3 153.8 219 150.7 208.3 150.7H181V156ZM306.1 174.6H294.6L300.6 161.2L306.1 174.6ZM206.5 156C210.2 156 213.1 158.4 213.1 162.1C213.1 165.8 210 168.1 205.4 168.1H199.8V156H206.5Z" fill="white"/>
<path d="M264.1 210.2V237.7H253.7L253.6 236.4C253.2 225.9 247.1 221.2 241.2 221.2C237.4 221.2 235.5 222 235.5 223.6V266C235.5 268.3 237 270.8 239.1 270.8H251.5V280.1H198.9V270.8H211.3C213.4 270.8 214.9 268.3 214.9 266V223.5C214.9 221.9 213 221.1 209.2 221.1C203.3 221.1 197.2 225.8 196.8 236.3L196.7 237.6H186.3V210.1H262.6H264.1V210.2ZM264.2 365.4H262.8H234.2H232.8V376.3H238.7C240.7 376.3 242 376.6 242.6 377.3C243.3 378 243.3 379.1 243.3 380.8V381.7V419.5C243.1 421.3 241.4 427.9 229.9 427.9C221.1 427.9 215.9 424.5 215.9 418.9V381C215.9 376.6 217.9 376.3 219.8 376.3H226.8V365.4H186.9V376.3H191.4C193.4 376.3 194.7 376.6 195.3 377.3L196 380.8V381.7V419.2C196 428.6 204.4 438.7 228 438.7C252.1 438.7 255.2 427.1 255.2 417V381C255.2 376.6 257.2 376.3 259.2 376.3H264.3L264.2 365.4ZM224.9 349C234.6 349 239.7 340.2 239.7 322.6C239.7 303.5 235.4 296.2 224.9 296.2C215 296.2 210.1 304.5 210.1 322.6C210.2 346.8 218.6 349 224.9 349ZM224.5 286C242.8 286 262.3 295.2 262.3 322.6C262.3 345.9 248.2 359.2 224.5 359.2C200.8 359.2 186.7 345.8 186.7 322.6C186.8 295.2 206.3 286 224.5 286ZM215.8 454.7V474C219.1 474 230.9 474 230.9 474C235.4 474 238.6 472 240 468C241.1 465.1 241 461.4 240.4 459C239.4 455.2 235.9 453 230.9 453C225.5 453 217.9 452.9 215.7 452.9V454.7H215.8ZM266.3 505.5V516.5H253.5C245.4 516.5 240.1 513.6 237.2 507.6C235.4 503.1 235.8 499.9 235.8 495.8L235.9 491.2C236 484.5 230.5 483.8 229 483.8H216.1C216.1 488.2 216.1 501.4 216.1 501.4C216.1 503.2 217.9 505.2 219.5 505.2H230.3V515.9H187V505.2H194C195.6 505.2 197.2 503.3 197.2 501.6C197.2 490.8 197.1 457.6 197.1 457.6C197.1 457.6 196.8 454.7 193.8 454.7C190.8 454.7 187 454.7 187 454.7V444L239.5 444.1C248.5 444.1 254.3 446.7 257.7 452.4C259.3 455.5 260.2 459.1 260.2 462.6C260.2 467.5 258.5 471.1 255.3 473.8C252.9 475.7 249.9 477.2 247.2 478C249.3 478.9 253 480.8 254.6 484.1C256.2 487.1 256.4 490.8 256.4 494.1V496.9C256.4 505.2 262.5 505.4 265.1 505.4L266.3 505.5Z" fill="white"/>
</svg>
