<svg width="95" height="44" viewBox="0 0 95 44" fill="none" xmlns="http://www.w3.org/2000/svg">
<g clip-path="url(#clip0_265_812)">
<mask id="mask0_265_812" style="mask-type:luminance" maskUnits="userSpaceOnUse" x="0" y="0" width="95" height="44">
<path d="M95 0H0V44H95V0Z" fill="white"/>
</mask>
<g mask="url(#mask0_265_812)">
<path d="M81.8109 17.1159C77.107 17.3963 79.2282 23.6273 84.4395 23.3021C89.5132 22.9768 86.8374 16.8369 81.8109 17.1159Z" fill="black"/>
<path d="M79.7846 13.3027C76.7741 13.3027 73.8313 14.2031 71.3282 15.8899C68.8251 17.5768 66.8742 19.9744 65.7221 22.7795C64.5701 25.5846 64.2686 28.6713 64.856 31.6492C65.4433 34.6271 66.8929 37.3625 69.0217 39.5094C71.1504 41.6564 73.8625 43.1185 76.8151 43.7108C79.7677 44.3032 82.8282 43.9991 85.6095 42.8372C88.3908 41.6753 90.768 39.7077 92.4405 37.1831C94.113 34.6586 95.0057 31.6905 95.0057 28.6543C95.0024 24.5838 93.3977 20.681 90.5439 17.8028C87.6901 14.9245 83.8205 13.3061 79.7846 13.3027ZM79.7846 42.3725C77.0937 42.3731 74.463 41.5687 72.2253 40.0613C69.9876 38.5538 68.2435 36.4109 67.2134 33.9036C66.1834 31.3963 65.9138 28.6372 66.4386 25.9753C66.9635 23.3134 68.2592 20.8683 70.162 18.9492C72.0648 17.0301 74.4891 15.7233 77.1284 15.1939C79.7677 14.6646 82.5033 14.9365 84.9893 15.9754C87.4753 17.0143 89.6 18.7734 91.0947 21.0302C92.5894 23.287 93.3869 25.9403 93.3863 28.6543C93.3866 30.4558 93.035 32.2398 92.3515 33.9043C91.6681 35.5688 90.6662 37.0812 89.4031 38.3551C88.14 39.629 86.6404 40.6395 84.9901 41.3288C83.3397 42.0181 81.5709 42.3728 79.7846 42.3725Z" fill="black"/>
<path d="M79.3199 2.60485C78.2702 3.412 77.4434 4.47729 76.9185 5.69883C76.3937 6.92037 76.1884 8.2573 76.3223 9.58173C76.3223 9.58173 74.0627 3.62759 71.1109 0C70.6939 4.69659 72.1715 10.8835 72.1715 10.8835C71.5414 9.71737 70.6257 8.73337 69.5118 8.02513C68.3979 7.3169 67.1228 6.90801 65.8079 6.83739C68.4374 8.48629 70.3991 11.0254 71.3417 14C73.5768 12.5992 76.1368 11.8134 78.7667 11.7211C78.4887 10.6977 77.4294 6.60396 79.3227 2.60485" fill="black"/>
<path d="M1.33724 30.1396V33.3487H0V25.0729H2.76691C3.53767 25.0178 4.29915 25.2694 4.88814 25.7739C5.13185 26.0138 5.3204 26.3048 5.44049 26.6262C5.56058 26.9477 5.60928 27.2918 5.58317 27.6343C5.59992 27.9791 5.54236 28.3234 5.41446 28.6437C5.28655 28.9639 5.09134 29.2523 4.84227 29.4891C4.24763 29.9791 3.48552 30.2131 2.72104 30.1403L1.33724 30.1396ZM4.28902 27.628C4.31332 27.433 4.29266 27.2351 4.22864 27.0495C4.16462 26.864 4.05899 26.6959 3.91996 26.5583C3.56813 26.2765 3.12174 26.143 2.67447 26.186H1.33724V29.0685H2.67447C3.73508 29.0685 4.28833 28.603 4.28833 27.6266" fill="black"/>
<path d="M11.114 33.3487L9.08449 30.0499H8.16219V33.3522H6.82495V25.0729H9.6843C10.4551 25.0178 11.2165 25.2694 11.8055 25.7739C12.0454 26.009 12.2348 26.2914 12.3618 26.6035C12.4887 26.9156 12.5507 27.2507 12.5436 27.588C12.5719 28.1684 12.3721 28.7367 11.9876 29.1694C11.5735 29.6109 11.0183 29.8909 10.4196 29.9601L12.5874 33.3087H11.114V33.3487ZM8.11632 29.1162H9.59186C10.6525 29.1162 11.2057 28.6507 11.2057 27.6742C11.2035 27.2863 11.0737 26.9101 10.8367 26.6045C10.6712 26.4655 10.48 26.361 10.2742 26.2971C10.0684 26.2332 9.85206 26.2112 9.63773 26.2323H8.16219L8.11632 29.1162Z" fill="black"/>
<path d="M18.6307 31.5814H15.1723L14.5266 33.3955H13.0969L16.1405 25.2095H17.6626L20.6602 33.3493H19.2306L18.6307 31.5814ZM18.2617 30.558L16.9244 26.6977L15.5872 30.558H18.2617Z" fill="black"/>
<path d="M27.347 25.7212C28.0089 26.2029 28.4692 26.9158 28.6384 27.7211H27.2546C27.0711 27.2866 26.7667 26.915 26.3781 26.6514C25.9527 26.373 25.4556 26.2268 24.9485 26.2308C24.4639 26.2386 23.9887 26.3665 23.5647 26.6031C23.1539 26.8468 22.8186 27.2012 22.5965 27.6265C22.3491 28.1145 22.2377 28.6611 22.274 29.2079C22.2586 29.7732 22.3856 30.3332 22.6431 30.8356C22.8652 31.2609 23.2005 31.6153 23.6112 31.859C24.068 32.0963 24.573 32.2237 25.0868 32.2313C25.7284 32.2278 26.3485 31.9973 26.839 31.58C27.3502 31.1302 27.6651 30.4953 27.7154 29.8129H24.7184V28.8378H28.8226V30.0933C28.7253 30.6907 28.5054 31.2611 28.1769 31.7679C27.848 32.2857 27.3858 32.7037 26.8396 32.9771C26.2578 33.2888 25.608 33.4488 24.9492 33.4425C24.2058 33.4444 23.4748 33.2511 22.8279 32.8818C22.2306 32.5203 21.7376 32.0072 21.3983 31.3936C21.0794 30.7097 20.9141 29.9633 20.9141 29.2076C20.9141 28.4518 21.0794 27.7054 21.3983 27.0215C21.7372 26.4091 22.2291 25.8968 22.8252 25.5355C23.4677 25.1601 24.205 24.9822 24.9464 25.0237C25.7989 24.9968 26.6381 25.2421 27.3442 25.7247" fill="black"/>
<path d="M38.1843 25.2095V33.3493H36.8471V27.2563L34.4951 33.3493H33.342L30.9901 27.2563V33.3493H29.6528V25.2095H31.2667L33.9412 31.7209L36.5705 25.2095H38.1843Z" fill="black"/>
<path d="M44.644 31.5814H41.1821L40.5823 33.3486H39.1533L42.151 25.2095H43.671L46.6687 33.3493H45.2404L44.644 31.5814ZM44.275 30.558L42.9378 26.6977L41.5977 30.558H44.275Z" fill="black"/>
<path d="M52.3428 25.0701V26.1398H50.0367V33.3494H48.6995V26.186H46.4399V25.1163H52.3428V25.0701Z" fill="black"/>
<path d="M54.4176 25.0701H53.0803V33.3494H54.4176V25.0701Z" fill="black"/>
<path d="M61.8878 25.7675C62.5714 26.2777 63.0469 27.022 63.2251 27.8606H61.842C61.6458 27.3825 61.3276 26.9653 60.9197 26.6514C60.4621 26.3302 59.9071 26.1813 59.3517 26.2309C58.8955 26.2327 58.4486 26.3615 58.0603 26.6031C57.6627 26.8489 57.3427 27.2039 57.138 27.6265C56.9101 28.122 56.7921 28.6617 56.7921 29.2079C56.7921 29.7542 56.9101 30.2938 57.138 30.7894C57.3283 31.2222 57.652 31.5816 58.061 31.8142C58.4519 32.0498 58.8971 32.1781 59.3524 32.1864C59.903 32.1907 60.4446 32.0454 60.9203 31.7658C61.3362 31.4799 61.6575 31.0748 61.8426 30.6029H63.2265C63.0302 31.4339 62.5584 32.1724 61.8892 32.696C61.1626 33.213 60.2875 33.4746 59.3989 33.4405C58.6769 33.4366 57.9659 33.2613 57.3236 32.9288C56.7394 32.5655 56.2617 32.0519 55.9398 31.4406C55.6209 30.7567 55.4556 30.0103 55.4556 29.2546C55.4556 28.4988 55.6209 27.7524 55.9398 27.0685C56.2617 26.4572 56.7393 25.9435 57.3236 25.5803C57.9539 25.2114 58.6701 25.0178 59.3989 25.0196C60.2875 24.9854 61.1626 25.247 61.8892 25.764" fill="black"/>
<path d="M69.4974 30.1396V33.3487H68.1602V25.0729H70.9271C71.6978 25.0178 72.4593 25.2694 73.0483 25.7739C73.292 26.0139 73.4805 26.3048 73.6006 26.6263C73.7207 26.9477 73.7694 27.2918 73.7433 27.6343C73.7612 27.9798 73.7045 28.3251 73.577 28.6463C73.4496 28.9675 73.2545 29.257 73.0052 29.4947C72.4106 29.9847 71.6484 30.2187 70.884 30.1459L69.4974 30.1396ZM72.4492 27.628C72.4735 27.433 72.4528 27.2351 72.3888 27.0495C72.3248 26.864 72.2191 26.6959 72.0801 26.5583C71.7285 26.2766 71.2824 26.1432 70.8353 26.186H69.4981V29.0685H70.8353C71.8959 29.0685 72.4492 28.603 72.4492 27.6266" fill="black"/>
<path d="M76.046 32.3259H78.8595V33.3494H74.7087V25.0701H76.046V32.3259Z" fill="black"/>
<path d="M84.9464 31.5813H81.488L80.8423 33.3954H79.4126L82.4103 25.2556H83.9324L86.93 33.3954H85.5004L84.9464 31.5813ZM84.5774 30.5578L83.2401 26.6975L81.9029 30.5578H84.5774Z" fill="black"/>
<path d="M92.3257 25.0701L89.6047 30.3274V33.3508H88.2674V30.3274L85.5464 25.0701H87.0685L88.959 28.8841L90.8495 25.0701H92.3257Z" fill="black"/>
</g>
</g>
<defs>
<clipPath id="clip0_265_812">
<rect width="95" height="44" fill="white"/>
</clipPath>
</defs>
</svg>
