<svg width="29" height="45" viewBox="0 0 29 45" fill="none" xmlns="http://www.w3.org/2000/svg">
<path d="M0.801494 39.4235C0.774295 39.3963 0.747096 39.3283 0.787895 39.2875L1.41347 38.5667C1.44067 38.5259 1.49507 38.5259 1.53587 38.5531C1.90305 38.8523 2.40623 39.1243 3.00461 39.1243C3.58939 39.1243 3.91578 38.8523 3.91578 38.4579C3.91578 38.1315 3.71179 37.9275 3.04541 37.8323L2.74622 37.7915C1.60386 37.6284 0.978287 37.098 0.978287 36.1188C0.978287 35.0852 1.75346 34.4053 2.96381 34.4053C3.69819 34.4053 4.39176 34.6229 4.86774 34.9901C4.92214 35.0173 4.92214 35.0581 4.88134 35.1124L4.37816 35.8604C4.35096 35.9012 4.31016 35.9148 4.26937 35.8876C3.84778 35.602 3.4262 35.466 2.96381 35.466C2.47423 35.466 2.21584 35.7244 2.21584 36.078C2.21584 36.4044 2.44703 36.6084 3.08621 36.69L3.3854 36.7308C4.54136 36.894 5.15333 37.4108 5.15333 38.4307C5.15333 39.4371 4.40536 40.1987 2.95021 40.1987C2.07985 40.1851 1.23668 39.8451 0.801494 39.4235Z" fill="black"/>
<path d="M5.80615 34.5821C5.80615 34.5277 5.83335 34.5005 5.88775 34.5005H9.47802C9.53241 34.5005 9.55961 34.5277 9.55961 34.5821V35.4661C9.55961 35.5205 9.53241 35.5476 9.47802 35.5476H7.05731C7.03011 35.5476 7.00291 35.5612 7.00291 35.602V36.7172C7.00291 36.7444 7.01651 36.7716 7.05731 36.7716H9.07003C9.12443 36.7716 9.15163 36.7988 9.15163 36.8532V37.7236C9.15163 37.778 9.12443 37.8052 9.07003 37.8052H7.05731C7.03011 37.8052 7.00291 37.8188 7.00291 37.8596V39.0155C7.00291 39.0427 7.01651 39.0699 7.05731 39.0699H9.46442C9.51881 39.0699 9.54601 39.0971 9.54601 39.1515V40.0355C9.54601 40.0899 9.51881 40.1171 9.46442 40.1171H5.88775C5.83335 40.1171 5.80615 40.0899 5.80615 40.0355V34.5821Z" fill="black"/>
<path d="M13.381 40.0898C13.313 40.0898 13.2858 40.0626 13.2586 40.0082L12.293 37.9547H11.545C11.5178 37.9547 11.4906 37.9683 11.4906 38.0091V40.0082C11.4906 40.0626 11.4634 40.0898 11.409 40.0898H10.3619C10.3075 40.0898 10.2803 40.0626 10.2803 40.0082V34.5684C10.2803 34.514 10.3075 34.4868 10.3619 34.4868H12.5922C13.7345 34.4868 14.4961 35.2076 14.4961 36.2276C14.4961 36.9483 14.1153 37.5059 13.5034 37.7779L14.6049 39.981C14.6321 40.0354 14.6049 40.0762 14.5505 40.0762H13.381V40.0898ZM13.2994 36.2412C13.2994 35.8196 13.0002 35.5476 12.5378 35.5476H11.545C11.5178 35.5476 11.4906 35.5612 11.4906 35.602V36.8939C11.4906 36.9211 11.5042 36.9483 11.545 36.9483H12.5378C13.0002 36.9347 13.2994 36.6627 13.2994 36.2412Z" fill="black"/>
<path d="M15.2578 34.5821C15.2578 34.5277 15.285 34.5005 15.3394 34.5005H16.3866C16.441 34.5005 16.4682 34.5277 16.4682 34.5821V40.0219C16.4682 40.0763 16.441 40.1035 16.3866 40.1035H15.353C15.2986 40.1035 15.2714 40.0763 15.2714 40.0219V34.5821H15.2578Z" fill="black"/>
<path d="M17.3794 34.5821C17.3794 34.5277 17.4066 34.5005 17.461 34.5005H21.0513C21.1057 34.5005 21.1329 34.5277 21.1329 34.5821V35.4661C21.1329 35.5205 21.1057 35.5476 21.0513 35.5476H18.6441C18.6169 35.5476 18.5898 35.5612 18.5898 35.602V36.7172C18.5898 36.7444 18.6033 36.7716 18.6441 36.7716H20.6569C20.7113 36.7716 20.7385 36.7988 20.7385 36.8532V37.7236C20.7385 37.778 20.7113 37.8052 20.6569 37.8052H18.6441C18.6169 37.8052 18.5898 37.8188 18.5898 37.8596V39.0155C18.5898 39.0427 18.6033 39.0699 18.6441 39.0699H21.0513C21.1057 39.0699 21.1329 39.0971 21.1329 39.1515V40.0355C21.1329 40.0899 21.1057 40.1171 21.0513 40.1171H17.461C17.4066 40.1171 17.3794 40.0899 17.3794 40.0355V34.5821Z" fill="black"/>
<path d="M25.1582 34.5821C25.1718 34.5277 25.2126 34.5005 25.267 34.5005H26.3006C26.355 34.5005 26.3958 34.5277 26.4094 34.5821L28.2997 40.0219C28.3133 40.0763 28.2997 40.1035 28.2453 40.1035H27.1709C27.1165 40.1035 27.0757 40.0763 27.0621 40.0219L26.7357 39.0427H24.7774L24.4646 40.0219C24.451 40.0763 24.4102 40.1035 24.3558 40.1035H23.2815C23.2271 40.1035 23.2135 40.0763 23.2271 40.0219L25.1582 34.5821ZM26.4094 38.0092L25.7702 36.0508H25.743L25.1038 38.0092H26.4094Z" fill="black"/>
<path d="M0.888184 23.1229H9.23827L14.5285 31.7722L0.888184 23.1229Z" fill="black"/>
<path d="M28.1822 23.1229H19.8185L14.5283 31.7722L28.1822 23.1229Z" fill="black"/>
<path d="M9.23828 23.1229H14.5285H19.8187L14.5285 9.15625L9.23828 23.1229Z" fill="black"/>
<path d="M14.7627 9.06757L14.5285 8.45001L14.2951 9.06786L9.07957 22.8729H1.26798L10.9267 0.362549H10.9388H10.9535H10.9683H10.983H10.9977H11.0125H11.0272H11.0419H11.0567H11.0714H11.0861H11.1009H11.1156H11.1304H11.1451H11.1598H11.1746H11.1893H11.204H11.2188H11.2335H11.2482H11.263H11.2777H11.2924H11.3071H11.3219H11.3366H11.3513H11.3661H11.3808H11.3955H11.4103H11.425H11.4397H11.4544H11.4692H11.4839H11.4986H11.5134H11.5281H11.5428H11.5575H11.5723H11.587H11.6017H11.6164H11.6312H11.6459H11.6606H11.6753H11.6901H11.7048H11.7195H11.7342H11.749H11.7637H11.7784H11.7931H11.8079H11.8226H11.8373H11.852H11.8667H11.8815H11.8962H11.9109H11.9256H11.9403H11.9551H11.9698H11.9845H11.9992H12.0139H12.0287H12.0434H12.0581H12.0728H12.0875H12.1023H12.117H12.1317H12.1464H12.1611H12.1758H12.1906H12.2053H12.22H12.2347H12.2494H12.2641H12.2789H12.2936H12.3083H12.323H12.3377H12.3524H12.3672H12.3819H12.3966H12.4113H12.426H12.4407H12.4554H12.4702H12.4849H12.4996H12.5143H12.529H12.5437H12.5584H12.5732H12.5879H12.6026H12.6173H12.632H12.6467H12.6614H12.6761H12.6908H12.7056H12.7203H12.735H12.7497H12.7644H12.7791H12.7938H12.8085H12.8232H12.838H12.8527H12.8674H12.8821H12.8968H12.9115H12.9262H12.9409H12.9556H12.9703H12.985H12.9998H13.0145H13.0292H13.0439H13.0586H13.0733H13.088H13.1027H13.1174H13.1321H13.1468H13.1615H13.1762H13.191H13.2057H13.2204H13.2351H13.2498H13.2645H13.2792H13.2939H13.3086H13.3233H13.338H13.3527H13.3674H13.3821H13.3968H13.4115H13.4262H13.441H13.4557H13.4704H13.4851H13.4998H13.5145H13.5292H13.5439H13.5586H13.5733H13.588H13.6027H13.6174H13.6321H13.6468H13.6615H13.6762H13.6909H13.7056H13.7203H13.735H13.7497H13.7644H13.7791H13.7939H13.8086H13.8233H13.838H13.8527H13.8674H13.8821H13.8968H13.9115H13.9262H13.9409H13.9556H13.9703H13.985H13.9997H14.0144H14.0291H14.0438H14.0585H14.0732H14.0879H14.1026H14.1173H14.132H14.1467H14.1614H14.1761H14.1908H14.2055H14.2202H14.2349H14.2496H14.2643H14.279H14.2937H14.3084H14.3231H14.3378H14.3525H14.3672H14.3819H14.3967H14.4114H14.4261H14.4408H14.4555H14.4702H14.4849H14.4996H14.5143H14.529H14.5437H14.5584H14.5731H14.5878H14.6025H14.6172H14.6319H14.6466H14.6613H14.676H14.6907H14.7054H14.7201H14.7348H14.7495H14.7642H14.7789H14.7936H14.8083H14.823H14.8377H14.8524H14.8671H14.8818H14.8965H14.9112H14.9259H14.9406H14.9553H14.97H14.9847H14.9994H15.0141H15.0288H15.0435H15.0582H15.0729H15.0876H15.1023H15.1171H15.1318H15.1465H15.1612H15.1759H15.1906H15.2053H15.22H15.2347H15.2494H15.2641H15.2788H15.2935H15.3082H15.3229H15.3376H15.3523H15.367H15.3817H15.3964H15.4111H15.4258H15.4405H15.4552H15.4699H15.4846H15.4993H15.514H15.5288H15.5435H15.5582H15.5729H15.5876H15.6023H15.617H15.6317H15.6464H15.6611H15.6758H15.6905H15.7052H15.7199H15.7346H15.7493H15.764H15.7787H15.7935H15.8082H15.8229H15.8376H15.8523H15.867H15.8817H15.8964H15.9111H15.9258H15.9405H15.9552H15.9699H15.9846H15.9993H16.0141H16.0288H16.0435H16.0582H16.0729H16.0876H16.1023H16.117H16.1317H16.1464H16.1611H16.1759H16.1906H16.2053H16.22H16.2347H16.2494H16.2641H16.2788H16.2935H16.3082H16.323H16.3377H16.3524H16.3671H16.3818H16.3965H16.4112H16.4259H16.4406H16.4554H16.4701H16.4848H16.4995H16.5142H16.5289H16.5436H16.5583H16.5731H16.5878H16.6025H16.6172H16.6319H16.6466H16.6613H16.6761H16.6908H16.7055H16.7202H16.7349H16.7496H16.7644H16.7791H16.7938H16.8085H16.8232H16.8379H16.8527H16.8674H16.8821H16.8968H16.9115H16.9262H16.941H16.9557H16.9704H16.9851H16.9998H17.0145H17.0293H17.044H17.0587H17.0734H17.0881H17.1029H17.1176H17.1323H17.147H17.1618H17.1765H17.1912H17.2059H17.2206H17.2354H17.2501H17.2648H17.2795H17.2943H17.309H17.3237H17.3384H17.3531H17.3679H17.3826H17.3973H17.412H17.4268H17.4415H17.4562H17.4709H17.4857H17.5004H17.5151H17.5299H17.5446H17.5593H17.574H17.5888H17.6035H17.6182H17.633H17.6477H17.6624H17.6771H17.6919H17.7066H17.7213H17.7361H17.7508H17.7655H17.7803H17.795H17.8097H17.8244H17.8392H17.8539H17.8686H17.8834H17.8981H17.9128H17.9276H17.9423H17.9571H17.9718H17.9865H18.0013H18.016H18.0307H18.0455H18.0602H18.0749H18.0897H18.1044H18.1192H18.1313L27.8033 22.8729H19.9922L19.0196 20.2878L18.9587 20.1258H18.7856H12.3337L14.1035 15.4308H16.8137H17.1759L17.0474 15.0921L14.7627 9.06757Z" fill="#F2F2F2" stroke="black" stroke-width="0.5"/>
<path d="M10.0086 42.8317H0.953613V44.8874H10.0086V42.8317Z" fill="black"/>
<path d="M10.2588 44.6374V43.0817H18.8138V44.6374H10.2588Z" fill="#F2F2F2" stroke="black" stroke-width="0.5"/>
<path d="M28.1184 42.8317H19.0635V44.8874H28.1184V42.8317Z" fill="black"/>
</svg>
