<svg width="90" height="141" viewBox="0 0 90 141" fill="none" xmlns="http://www.w3.org/2000/svg">
<path d="M2.48763 123.527C2.40322 123.442 2.31881 123.229 2.44543 123.101L4.38687 120.842C4.47128 120.714 4.64011 120.714 4.76673 120.8C5.90625 121.737 7.46785 122.589 9.32489 122.589C11.1397 122.589 12.1527 121.737 12.1527 120.501C12.1527 119.479 11.5196 118.839 9.45151 118.541L8.52299 118.413C4.97773 117.902 3.0363 116.24 3.0363 113.172C3.0363 109.934 5.44201 107.803 9.19827 107.803C11.4774 107.803 13.6298 108.485 15.107 109.636C15.2758 109.721 15.2758 109.849 15.1492 110.019L13.5876 112.363C13.5032 112.49 13.3766 112.533 13.25 112.448C11.9416 111.553 10.6333 111.127 9.19827 111.127C7.67888 111.127 6.87698 111.936 6.87698 113.044C6.87698 114.067 7.59447 114.706 9.57813 114.962L10.5066 115.09C14.0941 115.601 15.9933 117.22 15.9933 120.416C15.9933 123.57 13.672 125.956 9.15606 125.956C6.45494 125.913 3.83821 124.848 2.48763 123.527Z" fill="white"/>
<path d="M18.019 108.357C18.019 108.187 18.1035 108.102 18.2723 108.102H29.4145C29.5833 108.102 29.6677 108.187 29.6677 108.357V111.127C29.6677 111.298 29.5833 111.382 29.4145 111.382H21.902C21.8175 111.382 21.7331 111.425 21.7331 111.553V115.047C21.7331 115.132 21.7753 115.218 21.902 115.218H28.1483C28.3172 115.218 28.4016 115.303 28.4016 115.473V118.201C28.4016 118.371 28.3172 118.456 28.1483 118.456H21.902C21.8175 118.456 21.7331 118.499 21.7331 118.627V122.249C21.7331 122.334 21.7753 122.419 21.902 122.419H29.3723C29.5411 122.419 29.6255 122.504 29.6255 122.675V125.445C29.6255 125.615 29.5411 125.7 29.3723 125.7H18.2723C18.1035 125.7 18.019 125.615 18.019 125.445V108.357Z" fill="white"/>
<path d="M41.5272 125.615C41.3161 125.615 41.2317 125.529 41.1473 125.359L38.1506 118.925H35.8292C35.7448 118.925 35.6604 118.967 35.6604 119.095V125.359C35.6604 125.529 35.576 125.615 35.4072 125.615H32.1575C31.9887 125.615 31.9043 125.529 31.9043 125.359V108.314C31.9043 108.144 31.9887 108.059 32.1575 108.059H39.0792C42.6242 108.059 44.9878 110.317 44.9878 113.513C44.9878 115.771 43.806 117.518 41.907 118.371L45.3255 125.274C45.4099 125.444 45.3255 125.572 45.1566 125.572H41.5272V125.615ZM41.2739 113.556C41.2739 112.235 40.3454 111.382 38.9103 111.382H35.8292C35.7448 111.382 35.6604 111.425 35.6604 111.553V115.601C35.6604 115.686 35.7026 115.771 35.8292 115.771H38.9103C40.3454 115.729 41.2739 114.876 41.2739 113.556Z" fill="white"/>
<path d="M47.3516 108.357C47.3516 108.187 47.436 108.102 47.6048 108.102H50.8547C51.0236 108.102 51.108 108.187 51.108 108.357V125.402C51.108 125.572 51.0236 125.658 50.8547 125.658H47.647C47.4782 125.658 47.3938 125.572 47.3938 125.402V108.357H47.3516Z" fill="white"/>
<path d="M53.936 108.357C53.936 108.187 54.0204 108.102 54.1893 108.102H65.3316C65.5004 108.102 65.5848 108.187 65.5848 108.357V111.127C65.5848 111.298 65.5004 111.382 65.3316 111.382H57.861C57.7766 111.382 57.6924 111.425 57.6924 111.553V115.047C57.6924 115.132 57.7343 115.218 57.861 115.218H64.1076C64.2764 115.218 64.3608 115.303 64.3608 115.473V118.201C64.3608 118.371 64.2764 118.456 64.1076 118.456H57.861C57.7766 118.456 57.6924 118.499 57.6924 118.627V122.249C57.6924 122.334 57.7343 122.419 57.861 122.419H65.3316C65.5004 122.419 65.5848 122.504 65.5848 122.675V125.445C65.5848 125.615 65.5004 125.7 65.3316 125.7H54.1893C54.0204 125.7 53.936 125.615 53.936 125.445V108.357Z" fill="white"/>
<path d="M78.0771 108.357C78.1193 108.187 78.246 108.102 78.4148 108.102H81.6225C81.7913 108.102 81.918 108.187 81.9602 108.357L87.8266 125.402C87.8688 125.572 87.8266 125.658 87.6578 125.658H84.3234C84.1546 125.658 84.028 125.572 83.9858 125.402L82.9728 122.334H76.8953L75.9246 125.402C75.8824 125.572 75.7558 125.658 75.5869 125.658H72.2529C72.0841 125.658 72.0419 125.572 72.0841 125.402L78.0771 108.357ZM81.9602 119.095L79.9765 112.959H79.892L77.9083 119.095H81.9602Z" fill="white"/>
<path d="M2.75635 72.4517H28.6704L45.0884 99.5528L2.75635 72.4517Z" fill="white"/>
<path d="M87.4621 72.4517H61.5058L45.0879 99.5528L87.4621 72.4517Z" fill="white"/>
<path d="M28.6704 72.4519H45.0883H61.5062L45.0883 28.6897L28.6704 72.4519Z" fill="black"/>
<path d="M45.8152 28.4117L45.0884 26.4767L44.3641 28.4126L28.1779 71.6684H3.93506L33.9104 1.13599H33.9479H33.9936H34.0395H34.0851H34.1307H34.1767H34.2223H34.2679H34.3138H34.3595H34.4051H34.451H34.4966H34.5426H34.5882H34.6338H34.6797H34.7254H34.771H34.8169H34.8625H34.9082H34.9541H34.9997H35.0453H35.091H35.1369H35.1825H35.2281H35.2741H35.3197H35.3653H35.4112H35.4568H35.5025H35.5481H35.594H35.6396H35.6853H35.7312H35.7768H35.8224H35.8681H35.914H35.9596H36.0052H36.0508H36.0968H36.1424H36.188H36.2336H36.2796H36.3252H36.3708H36.4164H36.4624H36.508H36.5536H36.5992H36.6452H36.6908H36.7364H36.782H36.8276H36.8736H36.9192H36.9648H37.0104H37.0561H37.102H37.1476H37.1932H37.2388H37.2845H37.3304H37.376H37.4216H37.4673H37.5129H37.5588H37.6044H37.6501H37.6957H37.7413H37.7869H37.8328H37.8785H37.9241H37.9697H38.0153H38.0609H38.1069H38.1525H38.1981H38.2437H38.2894H38.335H38.3809H38.4265H38.4722H38.5178H38.5634H38.609H38.6546H38.7006H38.7462H38.7918H38.8374H38.8831H38.9287H38.9743H39.0202H39.0658H39.1115H39.1571H39.2027H39.2483H39.2939H39.3396H39.3852H39.4311H39.4767H39.5224H39.568H39.6136H39.6592H39.7048H39.7505H39.7961H39.842H39.8876H39.9333H39.9789H40.0245H40.0701H40.1157H40.1614H40.207H40.2526H40.2982H40.3442H40.3898H40.4354H40.481H40.5266H40.5723H40.6179H40.6635H40.7091H40.7547H40.8004H40.846H40.8916H40.9375H40.9832H41.0288H41.0744H41.12H41.1656H41.2113H41.2569H41.3025H41.3481H41.3937H41.4394H41.485H41.5306H41.5762H41.6218H41.6675H41.7134H41.759H41.8046H41.8503H41.8959H41.9415H41.9871H42.0327H42.0784H42.124H42.1696H42.2152H42.2608H42.3065H42.3521H42.3977H42.4433H42.4889H42.5346H42.5802H42.6258H42.6714H42.717H42.7627H42.8086H42.8542H42.8998H42.9455H42.9911H43.0367H43.0823H43.1279H43.1736H43.2192H43.2648H43.3104H43.356H43.4017H43.4473H43.4929H43.5385H43.5842H43.6298H43.6754H43.721H43.7666H43.8123H43.8579H43.9035H43.9491H43.9947H44.0404H44.086H44.1316H44.1772H44.2228H44.2685H44.3141H44.3597H44.4053H44.4509H44.4966H44.5422H44.5878H44.6334H44.6794H44.725H44.7706H44.8162H44.8618H44.9075H44.9531H44.9987H45.0443H45.09H45.1356H45.1812H45.2268H45.2724H45.3181H45.3637H45.4093H45.4549H45.5005H45.5462H45.5918H45.6374H45.683H45.7286H45.7743H45.8199H45.8655H45.9111H45.9567H46.0024H46.048H46.0936H46.1392H46.1848H46.2305H46.2761H46.3217H46.3673H46.4129H46.4586H46.5042H46.5498H46.5954H46.6411H46.6867H46.7323H46.7779H46.8235H46.8692H46.9151H46.9607H47.0063H47.0519H47.0976H47.1432H47.1888H47.2344H47.2801H47.3257H47.3713H47.4169H47.4625H47.5082H47.5538H47.5994H47.645H47.6906H47.7363H47.7819H47.8275H47.8731H47.9187H47.9644H48.01H48.0556H48.1012H48.1468H48.1928H48.2384H48.284H48.3296H48.3753H48.4209H48.4665H48.5121H48.5577H48.6034H48.649H48.6946H48.7402H48.7858H48.8315H48.8771H48.9227H48.9683H49.0143H49.0599H49.1055H49.1511H49.1967H49.2424H49.288H49.3336H49.3792H49.4248H49.4705H49.5161H49.5617H49.6073H49.6529H49.6989H49.7445H49.7901H49.8357H49.8814H49.927H49.9726H50.0182H50.0638H50.1095H50.1551H50.201H50.2466H50.2923H50.3379H50.3835H50.4291H50.4747H50.5204H50.566H50.6116H50.6575H50.7032H50.7488H50.7944H50.84H50.8856H50.9313H50.9769H51.0225H51.0684H51.1141H51.1597H51.2053H51.2509H51.2965H51.3422H51.3878H51.4337H51.4793H51.525H51.5706H51.6162H51.6618H51.7074H51.7534H51.799H51.8446H51.8902H51.9358H51.9815H52.0274H52.073H52.1186H52.1643H52.2099H52.2555H52.3014H52.347H52.3927H52.4383H52.4839H52.5295H52.5755H52.6211H52.6667H52.7123H52.7579H52.8036H52.8495H52.8951H52.9407H52.9864H53.032H53.0779H53.1235H53.1692H53.2148H53.2607H53.3063H53.3519H53.3976H53.4432H53.4891H53.5347H53.5804H53.626H53.6719H53.7175H53.7632H53.8088H53.8544H53.9003H53.9459H53.9916H54.0372H54.0831H54.1287H54.1744H54.22H54.2659H54.3115H54.3572H54.4031H54.4487H54.4943H54.5399H54.5859H54.6315H54.6771H54.723H54.7687H54.8143H54.8599H54.9058H54.9515H54.9971H55.043H55.0886H55.1343H55.1802H55.2258H55.2714H55.317H55.363H55.4086H55.4542H55.5002H55.5458H55.5914H55.6373H55.6829H55.7289H55.7745H55.8201H55.8661H55.9117H55.9573H56.0032H56.0488H56.0945H56.1404H56.186H56.2319H56.2695L86.286 71.6684H62.0447L59.0263 63.5684L58.8373 63.0608H58.3001H38.2769L43.7694 48.3498H52.1804H53.3045L52.9057 47.2886L45.8152 28.4117Z" fill="white"/>
<path d="M31.0612 134.206H2.95947V140.647H31.0612V134.206Z" fill="white"/>
<path d="M31.8379 139.864V134.989H58.3879V139.864H31.8379Z" stroke="white" stroke-width="0.5"/>
<path d="M87.264 134.206H59.1626V140.647H87.264V134.206Z" fill="white"/>
</svg>
