<svg width="40" height="51" viewBox="0 0 40 51" fill="none" xmlns="http://www.w3.org/2000/svg">
<path d="M1.53847 1.65747C13.7354 1.65747 25.9056 1.65747 38.1025 1.65747C38.1293 11.2331 38.1025 20.8088 38.1025 30.3845C38.156 35.092 36.4442 39.6659 33.3147 43.1966C30.5329 46.3528 26.7615 48.4391 22.6156 49.1078C18.1488 49.83 13.6017 48.8136 9.85699 46.2993C8.35912 45.2829 7.02174 44.0792 5.87159 42.6884C3.00959 39.2379 1.48498 34.8781 1.53847 30.3845C1.53847 20.8088 1.53847 11.2331 1.53847 1.65747ZM2.66187 2.75413C2.63512 4.27874 2.66187 5.80336 2.63512 7.32797C2.63512 15.1115 2.63512 22.9219 2.63512 30.7054C2.66187 34.1291 3.67828 37.4458 5.52387 40.3078C7.71718 43.7315 11.0606 46.2726 14.939 47.5029C21.0375 49.3485 27.6709 47.6099 32.0308 42.9558C34.6521 40.2276 36.3372 36.7504 36.8454 33.0325C37.0594 31.5613 37.0059 30.0902 37.0059 28.5924C37.0059 19.9796 37.0059 11.3669 37.0059 2.75413C35.9895 2.78087 34.973 2.75413 33.9566 2.75413C23.525 2.75413 13.0935 2.78087 2.66187 2.75413Z" fill="black"/>
<path d="M19.4057 23.2162C19.6732 23.1359 19.9407 23.2964 19.9942 23.5639C20.0209 23.8314 19.8604 24.0721 19.593 24.0988C19.3255 24.1256 19.0848 23.9651 19.058 23.6976C19.0313 23.5906 19.058 23.5104 19.1115 23.4034C19.165 23.3232 19.272 23.2429 19.4057 23.2162ZM18.3893 23.2697C18.5765 23.2162 18.7905 23.3232 18.844 23.5104C18.8708 23.5906 18.8708 23.6976 18.8173 23.7779C18.737 23.9651 18.5231 24.0453 18.3358 23.9918C18.2823 23.9651 18.2556 23.9384 18.2021 23.9116C18.0683 23.7779 18.0416 23.5371 18.2021 23.4034C18.2823 23.3232 18.3358 23.2964 18.3893 23.2697ZM20.6629 23.3499C20.9838 23.2964 21.2781 23.5104 21.3316 23.8314C21.3316 23.8849 21.3316 23.9116 21.3316 23.9651C21.3048 24.2861 21.0373 24.5535 20.7164 24.5268C20.6361 24.5268 20.5826 24.5001 20.5024 24.4733C20.2082 24.3396 20.0744 23.9918 20.2082 23.6976C20.2349 23.6709 20.2349 23.6441 20.2617 23.6174C20.3686 23.4569 20.5024 23.3766 20.6629 23.3499ZM17.5601 23.4301C17.7474 23.4034 17.9079 23.5371 17.9346 23.7244C17.9346 23.7511 17.9346 23.7779 17.9346 23.8046C17.9346 23.9918 17.7741 24.1256 17.6136 24.1256C17.5869 24.1256 17.5869 24.1256 17.5601 24.1256C17.3729 24.0988 17.2659 23.9116 17.2927 23.7511C17.3194 23.5906 17.4531 23.4836 17.5601 23.4301ZM16.517 23.8314C16.624 23.7779 16.7845 23.8314 16.8379 23.9383C16.8379 23.9383 16.8379 23.9383 16.8379 23.9651C16.8914 24.0988 16.8379 24.2326 16.7042 24.2861C16.624 24.3128 16.5437 24.3128 16.4902 24.2861C16.3832 24.2058 16.3565 24.0186 16.4367 23.9116C16.4635 23.8849 16.4902 23.8581 16.517 23.8314ZM22.027 23.8314C22.4015 23.7511 22.7759 23.9918 22.8562 24.3663C22.9364 24.7408 22.6957 25.1152 22.3212 25.1955C22.2677 25.1955 22.1875 25.2222 22.134 25.1955C21.7595 25.142 21.492 24.8478 21.4653 24.4733C21.492 24.1791 21.706 23.9116 22.027 23.8314ZM18.2288 24.0988C18.4696 24.0186 18.737 24.1791 18.8173 24.4198C18.8975 24.6605 18.737 24.928 18.4963 25.0083C18.3626 25.035 18.2021 25.0083 18.0951 24.928C17.8811 24.7943 17.8276 24.5 17.9614 24.2861C18.0148 24.2058 18.1218 24.1256 18.2288 24.0988ZM17.1054 24.1791C17.2927 24.1256 17.4799 24.2593 17.5334 24.4466C17.5601 24.5268 17.5334 24.607 17.5066 24.6605C17.4264 24.8478 17.2124 24.928 17.0252 24.8478C16.9449 24.821 16.8647 24.7408 16.8379 24.6605C16.7577 24.4733 16.838 24.2861 16.9984 24.1791C17.0519 24.1791 17.0787 24.1791 17.1054 24.1791ZM15.7413 24.5803C15.7413 24.3931 15.9018 24.2593 16.0623 24.2593C16.1425 24.2593 16.196 24.2861 16.2495 24.3396C16.4902 24.4733 16.3565 24.7943 16.2228 24.9548C16.0088 24.9548 15.6878 24.8745 15.7413 24.5803ZM19.486 24.3396C19.7802 24.2861 20.0744 24.4198 20.1814 24.714C20.3151 25.035 20.1547 25.4095 19.8069 25.5165C19.7802 25.5165 19.7534 25.5432 19.7534 25.5432C19.4057 25.6235 19.0848 25.4095 19.0045 25.0618C19.0045 25.035 19.0045 25.035 19.0045 25.0083C18.951 24.714 19.165 24.4198 19.486 24.3396ZM15.2063 24.607C15.4471 24.5001 15.5808 24.821 15.4471 25.0083C15.3401 25.0885 15.2063 25.0885 15.0994 25.0083C15.0191 24.928 15.0191 24.7675 15.0994 24.6873C15.1261 24.6605 15.1796 24.6338 15.2063 24.607ZM23.4981 24.7408C23.9261 24.714 24.2738 25.0083 24.3273 25.4095C24.354 25.7839 24.1133 26.1317 23.7388 26.2119C23.3376 26.3189 22.9364 26.0782 22.8562 25.6769C22.8294 25.6235 22.8294 25.57 22.8294 25.5165C22.8027 25.1152 23.0969 24.7675 23.4981 24.7408ZM16.7845 24.9548C17.0519 24.928 17.2927 25.142 17.3194 25.4362C17.3194 25.4897 17.3194 25.5432 17.2927 25.5967C17.2124 25.8642 16.9449 26.0247 16.6775 25.9444C16.41 25.8642 16.2495 25.5967 16.3297 25.3292C16.3832 25.1152 16.5705 24.9815 16.7845 24.9548ZM20.8501 25.0083C21.2513 24.9013 21.6525 25.142 21.7328 25.5432C21.813 25.8642 21.6793 26.1852 21.4118 26.3456C21.0908 26.5864 20.6361 26.5061 20.4221 26.1852C20.4221 26.1584 20.3954 26.1584 20.3954 26.1317C20.1814 25.7839 20.2617 25.3292 20.6094 25.1152C20.6629 25.0618 20.7431 25.035 20.8501 25.0083ZM15.6343 25.035C15.8483 25.0083 16.0623 25.1687 16.089 25.3827C16.1158 25.5967 15.9553 25.8107 15.7413 25.8374C15.5808 25.8642 15.4203 25.7839 15.3401 25.6502C15.2331 25.463 15.2866 25.1955 15.4738 25.0885C15.5273 25.0617 15.5808 25.035 15.6343 25.035ZM17.9614 25.142C18.3091 25.0885 18.63 25.3025 18.6835 25.6502C18.6835 25.7037 18.6835 25.7304 18.6835 25.7839C18.6835 26.1049 18.3893 26.3724 18.0683 26.3724C17.8276 26.3991 17.6136 26.2654 17.5066 26.0514C17.3462 25.7572 17.4531 25.356 17.7474 25.1955C17.8276 25.1687 17.8811 25.142 17.9614 25.142ZM14.6446 25.1687C14.9389 25.035 15.1796 25.4362 14.9924 25.6502C14.8854 25.7839 14.6981 25.8107 14.5377 25.7037C14.5109 25.6769 14.4574 25.6502 14.4574 25.5967C14.3772 25.4362 14.4307 25.249 14.5911 25.1687C14.6179 25.1955 14.6179 25.1687 14.6446 25.1687ZM14.0294 25.7037C14.2969 25.57 14.4574 25.9979 14.2167 26.1049C13.976 26.2119 13.7887 25.7839 14.0294 25.7037ZM19.2987 25.7572C19.6999 25.6769 20.1012 25.9712 20.1814 26.3724C20.2616 26.7736 19.9674 27.1748 19.5662 27.2551C19.5127 27.2551 19.486 27.2551 19.4325 27.2551C19.0848 27.2551 18.7638 26.9876 18.6835 26.6399C18.6033 26.2386 18.8708 25.8374 19.2987 25.7572ZM24.6483 26.0782C25.103 26.0247 25.5042 26.3456 25.5577 26.7736C25.6112 27.2283 25.2902 27.6295 24.8622 27.683C24.4075 27.7365 24.0063 27.4155 23.9528 26.9876C23.8726 26.5596 24.1936 26.1317 24.6483 26.0782ZM22.241 26.1049C22.6422 25.9979 23.0434 26.1852 23.2306 26.5329C23.4714 26.9608 23.3109 27.4958 22.8829 27.7365C22.5085 27.9505 22.0537 27.8703 21.7863 27.5493C21.5455 27.2551 21.492 26.8538 21.6793 26.5061C21.7863 26.3189 22.0002 26.1584 22.241 26.1049ZM20.5826 27.0143C21.0908 26.9876 21.5188 27.3621 21.5723 27.8703C21.599 28.3517 21.2513 28.7797 20.7431 28.8332H20.7164C20.4221 28.8599 20.1279 28.7529 19.9674 28.5122C19.6465 28.1377 19.6732 27.5493 20.0744 27.2283C20.1012 27.2016 20.1279 27.1748 20.1547 27.1748C20.2617 27.0678 20.4221 27.0143 20.5826 27.0143ZM23.5249 27.7365C24.0331 27.6295 24.5413 27.9237 24.6483 28.432C24.7553 28.8332 24.568 29.2611 24.2203 29.4484C23.7656 29.7158 23.2039 29.5554 22.9364 29.1006C22.6689 28.6459 22.8294 28.0842 23.2841 27.8168C23.3376 27.79 23.4179 27.7633 23.5249 27.7365ZM21.7328 28.7529C22.2945 28.6994 22.8027 29.1006 22.8562 29.6623C22.8562 29.7158 22.8562 29.7961 22.8562 29.8496C22.8294 30.1706 22.6422 30.438 22.3747 30.6253C22.0805 30.8125 21.7328 30.8392 21.4118 30.7055C20.9303 30.4915 20.6896 29.9298 20.8768 29.4216C21.0106 29.0739 21.3316 28.8064 21.7328 28.7529Z" fill="black"/>
<path d="M15.6877 26.5596C16.0622 26.5061 16.4367 26.6666 16.6239 26.9875C16.8379 27.3085 16.8111 27.7097 16.5971 28.004C16.4367 28.2447 16.1692 28.3784 15.9017 28.4052C15.3935 28.4319 14.9388 28.0574 14.912 27.5225C14.912 27.4957 14.912 27.469 14.912 27.4422C14.8853 27.0143 15.2063 26.6131 15.6877 26.5596ZM13.6014 26.6933C14.0294 26.5863 14.4573 26.8271 14.5911 27.255V27.2818C14.6981 27.7097 14.4038 28.1377 13.9759 28.2447C13.5479 28.3517 13.1199 28.0574 13.013 27.6295C12.9327 27.2283 13.1734 26.8003 13.6014 26.6933ZM17.6938 27.5492C18.202 27.4957 18.63 27.8435 18.737 28.3249C18.8707 28.8599 18.523 29.4216 17.988 29.5553C17.6136 29.6356 17.2123 29.5018 16.9716 29.2076C16.6774 28.8331 16.6774 28.2982 16.9716 27.9237C17.1588 27.7097 17.4263 27.576 17.6938 27.5492ZM25.7448 27.8167C25.8251 27.6562 26.0391 27.7632 26.1728 27.8167C26.1193 27.897 26.1728 28.0842 26.0391 28.1377C25.8518 28.2179 25.6111 28.0039 25.7448 27.8167ZM25.8786 28.4052C26.0391 28.3249 26.2263 28.4052 26.3065 28.5656C26.3868 28.7261 26.3065 28.9134 26.1461 28.9936C26.0658 29.0204 25.9588 29.0204 25.8786 28.9936C25.7181 28.9134 25.6646 28.7261 25.7448 28.5656C25.7716 28.4854 25.8251 28.4319 25.8786 28.4052ZM12.9862 28.4319C13.3339 28.3249 13.7351 28.5122 13.8689 28.8599C14.0294 29.2343 13.8689 29.6891 13.4677 29.8495C13.0665 30.01 12.6385 29.8495 12.478 29.4483C12.3175 29.0739 12.478 28.6191 12.8792 28.4587C12.906 28.4587 12.9595 28.4587 12.9862 28.4319ZM14.8585 28.5389C15.0993 28.4854 15.34 28.5656 15.554 28.6994C15.768 28.8599 15.9017 29.1274 15.9285 29.3948C15.9285 29.8228 15.6342 30.1973 15.2063 30.2775C14.8051 30.3577 14.4038 30.1705 14.2166 29.8228C14.1096 29.5553 14.1096 29.2611 14.2166 28.9936C14.3503 28.7796 14.5643 28.5924 14.8585 28.5389ZM25.3704 29.1808C25.5576 29.0739 25.7983 29.1808 25.9053 29.3681C25.9588 29.4751 25.9588 29.6088 25.9053 29.7158C25.8251 29.9298 25.6111 30.01 25.3971 29.9298C25.3436 29.903 25.3169 29.8763 25.2634 29.8495C25.1029 29.7158 25.0762 29.4483 25.2366 29.2878C25.2901 29.2343 25.3436 29.2076 25.3704 29.1808ZM26.253 29.2343C26.3868 29.2076 26.4938 29.3146 26.5205 29.4483C26.5205 29.5553 26.4938 29.6356 26.3868 29.6891C26.2798 29.7425 26.1193 29.7158 26.0658 29.5821C26.0391 29.5553 26.0391 29.5018 26.0391 29.4483C26.0391 29.3681 26.1461 29.2611 26.253 29.2343ZM16.5437 29.6088C16.9716 29.5018 17.4263 29.7425 17.5868 30.1438C17.774 30.5985 17.5868 31.1334 17.1054 31.3474C16.8111 31.4811 16.4634 31.4276 16.1959 31.2404C15.7947 30.9462 15.6877 30.3845 15.982 29.9565C16.1424 29.796 16.3297 29.6623 16.5437 29.6088ZM25.9856 29.9565C26.1461 29.903 26.36 29.9833 26.4135 30.1438C26.467 30.3042 26.3868 30.5182 26.2263 30.5717C26.2263 30.5717 26.2263 30.5717 26.1996 30.5717C25.9856 30.6787 25.7716 30.438 25.7716 30.2508C25.7716 30.1438 25.8518 29.9833 25.9856 29.9565ZM24.8622 30.01C25.1296 29.9565 25.3971 30.1438 25.4506 30.4112C25.4506 30.4112 25.4506 30.4112 25.4506 30.438C25.5041 30.7055 25.3169 30.9729 25.0494 31.0264C24.7819 31.0799 24.5412 30.9194 24.4877 30.652C24.4075 30.3845 24.5679 30.117 24.8087 30.0368C24.8354 30.01 24.8622 30.01 24.8622 30.01ZM12.8257 30.1973C13.2002 30.0903 13.5747 30.3042 13.6817 30.6787C13.7084 30.7322 13.7084 30.8125 13.7084 30.8659C13.7084 31.2672 13.3874 31.5881 12.9862 31.5881C12.6652 31.5614 12.3978 31.3207 12.3175 30.9997C12.264 30.652 12.5048 30.3042 12.8257 30.1973ZM14.5643 30.545C14.9923 30.4915 15.3668 30.8125 15.3935 31.2137C15.3935 31.2404 15.3935 31.2672 15.3935 31.3207C15.3668 31.6149 15.1795 31.8556 14.912 31.9893C14.5376 32.1498 14.0829 31.9626 13.9491 31.5614C13.9224 31.5346 13.9224 31.4811 13.9224 31.4544C13.8421 31.0532 14.1096 30.652 14.5376 30.5717C14.5643 30.5717 14.5643 30.545 14.5643 30.545ZM26.0658 31.0799C26.0123 30.9462 26.0926 30.7857 26.253 30.759C26.2798 30.759 26.3065 30.759 26.3333 30.759C26.4403 30.759 26.5205 30.8125 26.5473 30.9194C26.574 31.0532 26.4938 31.1869 26.4403 31.3207C26.3065 31.2404 26.0926 31.2404 26.0658 31.0799ZM23.9795 30.8125C24.3272 30.759 24.6482 30.9729 24.7017 31.3207C24.7552 31.6684 24.5412 31.9893 24.1935 32.0428C24.0865 32.0696 23.9527 32.0428 23.8458 32.0161C23.605 31.9091 23.4713 31.6951 23.4445 31.4544C23.4713 31.1334 23.6853 30.866 23.9795 30.8125ZM25.5309 30.9194C25.7448 30.8927 25.9321 31.0532 25.9588 31.2672V31.2939C25.9588 31.5079 25.7983 31.6684 25.5844 31.6684C25.3704 31.6684 25.2099 31.5079 25.2099 31.2939C25.2099 31.1067 25.3436 30.9462 25.5309 30.9194ZM22.6956 31.4811C23.0968 31.4277 23.4713 31.7219 23.5248 32.1231C23.5248 32.1498 23.5248 32.1766 23.5248 32.2301C23.5515 32.6313 23.2306 32.9523 22.8561 32.979H22.8294C22.4549 33.0058 22.1072 32.7383 22.0537 32.3371C21.9734 31.9359 22.2676 31.5346 22.6956 31.4811ZM16.0354 31.5079C16.4099 31.4544 16.7576 31.6684 16.8646 32.0161C16.9984 32.4173 16.7576 32.8453 16.3564 32.9523C15.9552 33.086 15.5272 32.8453 15.4202 32.4441C15.3668 32.2836 15.3668 32.1231 15.447 31.9626C15.5272 31.7219 15.768 31.5614 16.0354 31.5079ZM18.5497 31.6416C18.8974 31.5614 19.2452 31.6951 19.4859 31.9359C19.8871 32.3371 19.8604 32.979 19.4591 33.3802C19.0579 33.7814 18.416 33.7814 18.0148 33.3802C17.6136 32.979 17.6136 32.3371 18.0148 31.9359C18.0415 31.9091 18.0415 31.9091 18.0683 31.8824C18.202 31.7754 18.3625 31.6951 18.5497 31.6416ZM20.743 31.6951C21.2245 31.5881 21.7059 31.9091 21.8129 32.3906C21.9199 32.872 21.599 33.3535 21.1175 33.4605C20.636 33.5675 20.1813 33.2732 20.0476 32.8185C19.9674 32.4976 20.0476 32.1498 20.2883 31.9091C20.4488 31.8021 20.6093 31.7219 20.743 31.6951ZM25.9856 31.6951C26.1728 31.6684 26.3333 31.8289 26.36 32.0161C26.3868 32.2033 26.2263 32.3638 26.0391 32.3906C25.9053 32.3906 25.7716 32.3371 25.7181 32.2033C25.6379 32.0428 25.6913 31.8289 25.8518 31.7219C25.8786 31.6951 25.9321 31.6951 25.9856 31.6951ZM13.0397 31.8289C13.3072 31.7486 13.6014 31.8556 13.7351 32.1231C13.8689 32.4173 13.7619 32.765 13.4677 32.8988C13.1734 33.0325 12.8257 32.9255 12.692 32.6313C12.6385 32.5243 12.6385 32.4173 12.6385 32.3103C12.6385 32.0963 12.8257 31.8824 13.0397 31.8289ZM24.8354 31.8289C25.0762 31.7486 25.3436 31.8824 25.4239 32.1231C25.4506 32.1766 25.4506 32.2568 25.4506 32.3371C25.4239 32.6045 25.1831 32.7918 24.9424 32.765C24.6749 32.7383 24.4877 32.4976 24.5145 32.2568C24.5145 32.0428 24.6482 31.8824 24.8354 31.8289ZM14.6446 32.2568C14.9388 32.2301 15.2063 32.4173 15.2865 32.7115C15.3668 33.0325 15.1795 33.3802 14.8585 33.4605C14.8051 33.4872 14.7516 33.4872 14.6981 33.4872C14.4038 33.4872 14.1364 33.2732 14.0829 32.979C14.0294 32.6313 14.2434 32.3103 14.5911 32.2568C14.6178 32.2568 14.6178 32.2568 14.6446 32.2568ZM25.5844 32.4976C25.7983 32.4441 26.0123 32.5778 26.0658 32.765C26.0658 32.7918 26.0658 32.8185 26.0658 32.8453C26.0391 33.0325 25.9053 33.193 25.7181 33.2197C25.5041 33.2465 25.3169 33.086 25.3169 32.872C25.3169 32.8453 25.3169 32.7918 25.3169 32.765C25.3704 32.658 25.4774 32.551 25.5844 32.4976ZM23.9528 32.5511C24.2737 32.4976 24.5947 32.7383 24.6482 33.0593C24.6482 33.0593 24.6482 33.0593 24.6482 33.086C24.7017 33.4337 24.461 33.7279 24.1132 33.7814C23.7655 33.8349 23.4713 33.5942 23.4178 33.2465C23.3643 32.8988 23.605 32.5778 23.9528 32.5511ZM13.5212 33.1395C13.7619 33.086 14.0294 33.2197 14.0829 33.4872C14.1096 33.5942 14.1096 33.6745 14.0561 33.7814C13.9759 34.0222 13.6817 34.1559 13.4409 34.0489C13.2002 33.9687 13.0665 33.6745 13.1734 33.4337C13.2269 33.2732 13.3607 33.1662 13.5212 33.1395ZM16.0087 33.193C16.3297 33.1128 16.6506 33.3 16.7576 33.621C16.8379 33.9419 16.6506 34.2896 16.3297 34.3966C16.0087 34.5036 15.661 34.2896 15.554 33.9687C15.5272 33.8884 15.5272 33.8082 15.5272 33.7012C15.5807 33.4605 15.768 33.2465 16.0087 33.193ZM22.4549 33.2732C22.8026 33.1662 23.2038 33.3535 23.3376 33.7012C23.498 34.0757 23.3108 34.5036 22.9363 34.6641C22.5619 34.8246 22.1339 34.6374 21.9734 34.2629C21.8129 33.8884 21.9734 33.4605 22.3479 33.3C22.4014 33.2732 22.4281 33.2732 22.4549 33.2732ZM25.1296 33.2732C25.3971 33.2732 25.5844 33.4872 25.5844 33.7279C25.5844 33.9954 25.3704 34.1827 25.1296 34.1827C24.8622 34.1827 24.6749 33.9687 24.6749 33.7279C24.6749 33.5675 24.7552 33.4337 24.8622 33.3535C24.9424 33.2732 25.0494 33.2465 25.1296 33.2732ZM14.912 33.6745C15.1528 33.6477 15.3935 33.7814 15.447 34.0222C15.5272 34.2629 15.3935 34.5304 15.1528 34.6106C15.126 34.6106 15.126 34.6106 15.0993 34.6374C14.8585 34.6909 14.5911 34.5571 14.5376 34.2896C14.5108 34.2362 14.5108 34.1559 14.5376 34.1024C14.5376 33.8617 14.6981 33.7012 14.912 33.6745ZM20.7698 33.7012C21.2512 33.6477 21.7059 33.9954 21.7327 34.5036C21.7594 35.0118 21.4385 35.4398 20.9303 35.4665C20.9035 35.4665 20.8768 35.4665 20.8768 35.4665C20.3953 35.4933 19.9673 35.0921 19.9673 34.6106C19.9673 34.1559 20.3151 33.7547 20.7698 33.7012ZM18.6835 33.9419C19.1917 33.8884 19.6731 34.2629 19.7266 34.7711C19.7534 35.0118 19.6999 35.2258 19.5661 35.4131C19.2452 35.8143 18.6567 35.8945 18.2555 35.5735C17.8543 35.2526 17.774 34.6641 18.095 34.2629C18.202 34.0757 18.4427 33.9687 18.6835 33.9419ZM24.247 34.1024C24.5679 34.0757 24.8622 34.2896 24.8889 34.6106C24.8889 34.7176 24.8889 34.8246 24.8354 34.9048C24.7284 35.1991 24.4342 35.3328 24.14 35.2526C23.819 35.1723 23.6318 34.8513 23.712 34.5304V34.5036C23.8458 34.2629 24.033 34.1292 24.247 34.1024ZM14.0561 34.1024C14.2701 34.0757 14.4573 34.2362 14.4841 34.4234C14.4841 34.4769 14.4841 34.5304 14.4573 34.6106C14.3771 34.7979 14.1631 34.9048 13.9759 34.8246C13.7886 34.7444 13.6817 34.5304 13.7619 34.3431C13.8154 34.2362 13.9224 34.1292 14.0561 34.1024ZM16.3564 34.5571C16.5704 34.4769 16.7844 34.5571 16.9181 34.7176C17.0786 34.9316 17.0519 35.2258 16.8379 35.4131C16.7844 35.4665 16.7041 35.4933 16.6506 35.52C16.3832 35.6003 16.1157 35.4398 16.0622 35.1991V35.1723C16.0087 34.9048 16.1424 34.6641 16.3564 34.5571ZM15.4737 34.7979C15.661 34.7711 15.875 34.9048 15.9017 35.0921C15.9017 35.1456 15.9017 35.2258 15.875 35.2793C15.7947 35.4665 15.6075 35.5735 15.4202 35.4933C15.3668 35.4665 15.2865 35.4398 15.2598 35.3596C15.126 35.1991 15.1795 34.9851 15.3133 34.8513C15.3668 34.8513 15.4203 34.8246 15.4737 34.7979ZM14.6446 34.8246C14.8318 34.7979 14.9923 34.9316 15.019 35.1188C15.019 35.1991 15.019 35.2793 14.9655 35.3596C14.8585 35.52 14.6446 35.5468 14.4841 35.4398C14.3771 35.3596 14.3236 35.2526 14.3503 35.1188C14.3503 34.9851 14.5108 34.8781 14.6446 34.8246ZM22.9631 34.9048C23.2841 34.8246 23.6318 34.9851 23.7655 35.3061C23.8993 35.6003 23.819 35.948 23.5515 36.162C23.2306 36.4027 22.8026 36.3225 22.5619 36.0282C22.5084 35.948 22.4549 35.8678 22.4281 35.7608C22.3479 35.3596 22.5619 35.0118 22.9631 34.9048ZM21.385 35.6003C21.7059 35.52 22.0269 35.6538 22.1874 35.9213C22.4014 36.269 22.3211 36.7237 21.9734 36.9377C21.9199 36.9644 21.8932 36.9912 21.8397 37.0179C21.4652 37.1784 21.0373 37.0179 20.8768 36.6434C20.85 36.5632 20.8233 36.4562 20.8233 36.376C20.7698 36.0015 21.0105 35.6805 21.385 35.6003ZM16.9181 35.6538C17.1321 35.5735 17.3461 35.6805 17.4263 35.8945C17.5066 36.1085 17.3996 36.3225 17.1856 36.4027C17.0786 36.4562 16.9449 36.4295 16.8379 36.3492C16.6506 36.2155 16.6239 35.9747 16.7576 35.7875C16.7844 35.734 16.8379 35.6805 16.9181 35.6538ZM15.3935 35.6805C15.554 35.6805 15.661 35.7875 15.661 35.948C15.661 35.9748 15.661 36.0015 15.661 36.0282C15.6075 36.162 15.4737 36.2155 15.34 36.1887C15.2865 36.162 15.2598 36.1352 15.233 36.1085C15.1528 35.9747 15.1795 35.8143 15.2865 35.734C15.34 35.7073 15.3668 35.7073 15.3935 35.6805ZM16.0354 35.841C16.2227 35.7875 16.3564 35.9213 16.5169 36.0015C16.4902 36.1352 16.4902 36.3225 16.3832 36.4295C16.2227 36.5365 16.0087 36.5364 15.9017 36.376C15.875 36.3492 15.875 36.3225 15.8482 36.2957C15.768 36.1352 15.8482 35.948 16.0087 35.8678C16.0354 35.841 16.0354 35.841 16.0354 35.841ZM19.5929 35.8678C20.0208 35.8143 20.4488 36.1085 20.5023 36.5365C20.5558 36.9644 20.2616 37.3924 19.8336 37.4459C19.7534 37.4459 19.6999 37.4459 19.6196 37.4459C19.3522 37.3924 19.1382 37.2051 19.0312 36.9644C18.8439 36.5632 19.0312 36.0817 19.4324 35.8945C19.4859 35.8945 19.5394 35.8678 19.5929 35.8678ZM16.6774 36.4562C16.8914 36.3492 17.1054 36.6702 16.9449 36.8307C16.8646 36.9377 16.7041 36.9377 16.5971 36.8574C16.5704 36.8307 16.5437 36.7772 16.5169 36.7504C16.4634 36.6167 16.5704 36.5365 16.6774 36.4562ZM17.4798 36.5365C17.7473 36.4027 18.0415 36.7772 17.8543 37.0179C17.7473 37.1516 17.5601 37.2051 17.4263 37.0982C17.2926 36.9912 17.2391 36.8039 17.3461 36.6702C17.3728 36.5899 17.4263 36.5632 17.4798 36.5365ZM18.1753 36.9644C18.2822 36.9109 18.3892 36.9377 18.4427 37.0179C18.4427 37.0447 18.4695 37.0447 18.4695 37.0714C18.523 37.2051 18.416 37.3121 18.309 37.3389C18.2288 37.3121 18.1218 37.3121 18.0415 37.2586C18.095 37.1784 18.0683 37.0179 18.1753 36.9644ZM13.9491 38.8635H17.1856V40.1474H15.2865C15.2865 40.4149 15.2865 40.6823 15.2865 40.9498H17.0519C17.0519 41.3778 17.0519 41.779 17.0519 42.1802H15.2865C15.2865 42.4477 15.2865 42.7419 15.2865 43.0094H17.1856V44.2398C16.3832 44.2398 15.5807 44.2398 14.7783 44.2398C14.4573 44.2665 14.1364 44.0793 14.0294 43.7583C13.9759 43.5443 13.9491 43.3304 13.9491 43.1164C13.9491 41.7255 13.9491 40.3079 13.9491 38.8635ZM18.0683 38.8902C19.1649 38.8902 20.2616 38.8902 21.3315 38.8902C21.3315 39.3182 21.3315 39.7462 21.3315 40.1741H19.4057C19.4057 40.4416 19.4057 40.7091 19.4057 40.9766H21.1442V42.207H19.4057C19.4057 42.9024 19.4057 43.5978 19.4057 44.2933C19.1114 44.2665 18.7637 44.3468 18.4695 44.1863C18.1753 44.0258 18.0148 43.7048 18.0683 43.3839C18.0683 41.8592 18.0683 40.3881 18.0683 38.8902ZM22.1339 38.8902H23.498V43.0361H25.1564V44.2665C24.4075 44.2665 23.6585 44.2933 22.9096 44.2665C22.4816 44.2665 22.1339 43.8921 22.1339 43.4641C22.1339 41.9395 22.1607 40.4149 22.1339 38.8902Z" fill="black"/>
<path d="M14.752 17.1444L14.2973 18.134C14.2438 18.241 14.2171 18.3213 14.1636 18.4283C14.1101 18.5352 14.0031 18.5352 13.9228 18.5352C13.8158 18.562 13.7356 18.5085 13.6821 18.4015C13.4949 18.0003 13.2809 17.5991 13.0937 17.1979C13.0669 17.1711 13.0669 17.1444 13.0402 17.1176C13.0134 17.1444 13.0134 17.1979 13.0134 17.2514V19.1504C13.0134 19.3109 12.9867 19.3377 12.8262 19.3377C12.7192 19.3377 12.5855 19.3377 12.4785 19.3377C12.3715 19.3377 12.3447 19.3109 12.3447 19.2039C12.3447 18.8295 12.3447 18.4818 12.3447 18.1073C12.3447 17.7328 12.3715 17.3316 12.3715 16.9571C12.3715 16.7164 12.3982 16.4489 12.3982 16.2082C12.3982 16.128 12.4517 16.0745 12.532 16.0745H12.9867C13.0669 16.0745 13.1204 16.128 13.1472 16.1815C13.3879 16.6629 13.6019 17.1176 13.8426 17.5991C13.8426 17.6258 13.8693 17.6793 13.8961 17.7061L14.1368 17.1711L14.5915 16.1815C14.6183 16.128 14.6718 16.0745 14.7253 16.1012H15.1532C15.2335 16.1012 15.2602 16.128 15.287 16.2082C15.3137 16.3419 15.287 16.4757 15.3137 16.6094C15.3405 16.7966 15.3405 16.9571 15.3405 17.1444C15.3672 17.5456 15.3672 17.9468 15.394 18.3748C15.394 18.669 15.394 18.9365 15.394 19.2307C15.394 19.3109 15.3672 19.3644 15.287 19.3644C15.1532 19.3644 15.0195 19.3644 14.8858 19.3644C14.8323 19.3644 14.7788 19.3377 14.7788 19.2842V19.2574C14.7788 19.2307 14.7788 19.2307 14.7788 19.2039C14.8055 18.5887 14.752 17.9468 14.752 17.3316C14.7788 17.2514 14.7788 17.1979 14.752 17.1444Z" fill="black"/>
<path d="M24.7822 18.1073V18.0003C24.7822 17.4386 24.7822 16.8769 24.7822 16.2884C24.7822 16.1012 24.8089 16.1012 24.9694 16.1012H25.2369C25.3439 16.1012 25.3706 16.128 25.3706 16.2349V19.1772C25.3706 19.3377 25.3439 19.3377 25.1834 19.3644C24.9694 19.4179 24.7287 19.2842 24.6484 19.0702C24.3275 18.4818 23.9797 17.9201 23.6588 17.3316C23.6588 17.3049 23.632 17.3049 23.632 17.2781C23.632 17.3049 23.632 17.3584 23.632 17.3851C23.632 17.9735 23.632 18.5887 23.632 19.1772C23.632 19.3109 23.5785 19.3377 23.4448 19.3109C23.204 19.2842 23.0168 19.0702 23.0436 18.8562C23.0436 17.9735 23.0436 17.0641 23.0436 16.1815C23.0436 16.1012 23.0703 16.0745 23.1506 16.0745H23.4448C23.525 16.0745 23.6053 16.1012 23.632 16.1815C24.0065 16.7966 24.3542 17.4386 24.7287 18.0538C24.7287 18.0538 24.7287 18.0805 24.7554 18.0805L24.7822 18.1073Z" fill="black"/>
<path d="M20.1015 17.7596C20.1015 17.5189 20.1015 17.3049 20.1015 17.1177C20.048 16.5827 20.4492 16.1012 20.9841 16.0477H21.0109C21.3051 15.9942 21.5993 16.021 21.8936 16.128C22.2413 16.235 22.482 16.5559 22.482 16.9304C22.5088 17.4119 22.5355 17.8933 22.5088 18.3748C22.5088 18.669 22.4018 18.9365 22.1878 19.1237C22.0273 19.2575 21.8401 19.3645 21.6261 19.3912C21.3319 19.4447 21.0109 19.4179 20.7167 19.311C20.3957 19.204 20.155 18.9097 20.1282 18.562C20.1015 18.2945 20.1015 18.0271 20.1015 17.7596ZM20.7702 17.7061C20.7702 17.8933 20.7702 18.1073 20.7702 18.2945C20.7969 18.6423 20.8772 18.776 21.2249 18.8295C21.4656 18.883 21.7063 18.7493 21.7866 18.5085C21.8133 18.4015 21.8401 18.3213 21.8401 18.2143C21.8401 17.8933 21.8401 17.5456 21.8401 17.2246C21.8401 17.1177 21.8133 17.0107 21.7866 16.9037C21.6528 16.6629 21.3319 16.5559 21.0644 16.6897C20.8772 16.7699 20.7702 16.9572 20.7969 17.1711C20.7702 17.3316 20.7702 17.5189 20.7702 17.7061Z" fill="black"/>
<path d="M30.5332 17.7329C30.5332 18.2144 30.5332 18.6958 30.5332 19.1773C30.5332 19.3378 30.453 19.3645 30.3192 19.3645C29.9715 19.311 29.8645 19.1505 29.8378 18.8028C29.8378 18.5621 29.8378 18.3213 29.8378 18.1074C29.8378 18.0271 29.811 18.0004 29.7308 18.0004C29.49 18.0004 29.2493 18.0004 29.0086 18.0004C28.9016 18.0004 28.8749 18.0271 28.9016 18.1341C28.9016 18.5086 28.9016 18.8563 28.9016 19.2308C28.9016 19.3645 28.8481 19.3913 28.7144 19.3913C28.4469 19.3913 28.2329 19.1773 28.2329 18.9098C28.2329 18.883 28.2329 18.883 28.2329 18.8563C28.2329 18.0004 28.2329 17.1444 28.2329 16.2885C28.2329 16.1815 28.2597 16.1548 28.3666 16.1548H28.7679C28.8749 16.1548 28.9016 16.1815 28.9016 16.2885C28.9016 16.663 28.9016 17.0107 28.9016 17.3852C28.9016 17.4654 28.9283 17.5189 29.0086 17.5189C29.2493 17.5189 29.49 17.5189 29.7308 17.5189C29.8378 17.5189 29.8378 17.4922 29.8378 17.3852C29.8378 17.0375 29.8378 16.6897 29.8378 16.342C29.8378 16.1815 29.8645 16.1548 29.9983 16.1548H30.3727C30.5065 16.1548 30.5332 16.1815 30.5332 16.3153V17.7329Z" fill="black"/>
<path d="M9.08144 17.7328C9.08144 18.2142 9.08144 18.7225 9.08144 19.2039C9.08144 19.3376 9.05469 19.3644 8.89421 19.3644C8.62673 19.3644 8.386 19.1504 8.386 18.8562V18.8294C8.386 18.5887 8.386 18.348 8.386 18.1073C8.386 18.027 8.35925 18.0003 8.27901 18.0003C8.03828 18.0003 7.79755 18.0003 7.53008 18.0003C7.44983 18.0003 7.42309 18.027 7.42309 18.1073C7.42309 18.4817 7.42309 18.8562 7.42309 19.2307C7.42309 19.3644 7.36959 19.3911 7.2626 19.3911C6.99512 19.3911 6.78114 19.1772 6.75439 18.9097C6.75439 18.8829 6.75439 18.8562 6.75439 18.8562V16.2884C6.75439 16.1279 6.75439 16.1279 6.91488 16.1279H7.28935C7.42309 16.1279 7.42309 16.1279 7.42309 16.2617V17.3316C7.42309 17.4653 7.42309 17.4653 7.55682 17.4653C7.79755 17.4653 8.01153 17.4653 8.25226 17.4653C8.35925 17.4653 8.386 17.4386 8.386 17.3316C8.386 16.9839 8.386 16.6361 8.386 16.2884C8.386 16.1547 8.41275 16.1279 8.54649 16.1279H8.92095C9.02794 16.1279 9.05469 16.1547 9.05469 16.2617C9.08144 16.7164 9.08144 17.2246 9.08144 17.7328Z" fill="black"/>
<path d="M10.7399 16.1012H10.9807C11.0877 16.0744 11.1946 16.1547 11.1946 16.2616C11.3819 16.9303 11.5691 17.5723 11.7563 18.241C11.8366 18.5619 11.9168 18.8829 11.9971 19.2039C12.0238 19.3376 11.9971 19.3644 11.8901 19.3644C11.7831 19.3644 11.6226 19.3644 11.5156 19.3644C11.4354 19.3644 11.3284 19.3109 11.3284 19.2039C11.3016 19.0701 11.2749 18.9364 11.2481 18.8027C11.2481 18.7492 11.1946 18.6957 11.1411 18.6957C10.8737 18.6957 10.6329 18.6957 10.3655 18.6957C10.312 18.6957 10.2585 18.7224 10.2585 18.7759C10.2317 18.9097 10.205 19.0434 10.1782 19.2039C10.1782 19.2841 10.098 19.3376 10.0445 19.3109C9.88401 19.3109 9.75027 19.3109 9.58978 19.3109C9.48279 19.3109 9.45604 19.2574 9.48279 19.1504C9.64328 18.5352 9.80376 17.8933 9.991 17.2781C10.098 16.9303 10.205 16.5559 10.312 16.2082C10.3387 16.1012 10.419 16.0209 10.526 16.0477L10.7399 16.1012ZM10.7132 16.6629L10.6597 16.8768L10.3922 18.0537C10.3655 18.134 10.3655 18.1875 10.4725 18.1875C10.6329 18.1875 10.8202 18.1875 10.9807 18.1875C11.0609 18.1875 11.0877 18.1607 11.0609 18.0805C10.9807 17.599 10.8469 17.1443 10.7132 16.6629Z" fill="black"/>
<path d="M15.9555 17.5188C15.9555 17.0909 15.9555 16.6629 15.9555 16.2617C15.9555 16.1279 15.9823 16.1012 16.116 16.1012C16.4103 16.1012 16.7312 16.1012 17.0254 16.1012C17.2394 16.1012 17.4267 16.1279 17.6139 16.2082C17.8546 16.3152 18.0151 16.5559 18.0419 16.8234C18.0954 17.0641 18.0686 17.3048 18.0151 17.5456C17.9349 17.8665 17.6674 18.1073 17.3197 18.1608C17.1324 18.1875 16.9185 18.2143 16.7312 18.1875C16.6242 18.1875 16.5975 18.2143 16.5975 18.3213C16.5975 18.6155 16.5975 18.9097 16.5975 19.2039C16.5975 19.3377 16.5707 19.3644 16.4103 19.3644C16.1428 19.3644 15.902 19.1504 15.9288 18.8562C15.9288 18.8295 15.9288 18.8295 15.9288 18.8027C15.9555 18.3747 15.9555 17.9468 15.9555 17.5188ZM16.6242 17.1444C16.6242 17.2781 16.6242 17.4118 16.6242 17.5723C16.6242 17.6258 16.651 17.6793 16.7045 17.6526C16.7847 17.6526 16.8917 17.6526 16.972 17.6526C17.1859 17.6526 17.2929 17.5723 17.3464 17.4118C17.3999 17.2781 17.3999 17.1176 17.3732 16.9839C17.3732 16.8234 17.2394 16.6629 17.0522 16.6629C16.9452 16.6361 16.8115 16.6629 16.7045 16.6629C16.6242 16.6629 16.5975 16.6896 16.5975 16.7699C16.6242 16.8769 16.6242 17.0106 16.6242 17.1444Z" fill="black"/>
<path d="M32.8599 17.5456V16.2617C32.8599 16.1279 32.8866 16.1012 33.0203 16.1012C33.3146 16.1012 33.6355 16.1012 33.9298 16.1012C34.0903 16.1012 34.2507 16.1279 34.4112 16.1814C34.6787 16.2617 34.8927 16.4757 34.9462 16.7699C34.9997 17.0106 34.9997 17.2513 34.9462 17.4921C34.8659 17.8933 34.5182 18.1875 34.117 18.2143C33.9565 18.241 33.796 18.241 33.6623 18.241C33.5553 18.241 33.5286 18.2678 33.5286 18.3747C33.5286 18.669 33.5286 18.9632 33.5286 19.2574C33.5286 19.3912 33.5018 19.4179 33.3681 19.4179C33.1006 19.4447 32.8866 19.2307 32.8599 18.9632C32.8599 18.9364 32.8599 18.9097 32.8599 18.883V17.5456ZM33.5286 17.1444C33.5286 17.2781 33.5286 17.4386 33.5286 17.5723C33.5286 17.6258 33.5553 17.6793 33.6088 17.6526C33.6623 17.6258 33.796 17.6526 33.8763 17.6526C34.0368 17.6258 34.1972 17.5991 34.2507 17.4118C34.3042 17.2246 34.3042 17.0641 34.2507 16.8769C34.224 16.7699 34.117 16.6896 34.01 16.6629C33.8763 16.6361 33.7425 16.6361 33.6088 16.6361C33.5286 16.6361 33.5018 16.6629 33.5018 16.7431C33.5286 16.8769 33.5286 17.0106 33.5286 17.1444Z" fill="black"/>
<path d="M27.6441 16.3954C27.6441 16.6629 27.6441 16.6629 27.3766 16.6362C27.1894 16.5827 26.9754 16.5827 26.7882 16.6362C26.6009 16.6897 26.4939 16.8769 26.5474 17.0641C26.5474 17.0909 26.5742 17.1176 26.5742 17.1444C26.6544 17.2514 26.7614 17.3316 26.8684 17.3851C27.0556 17.4386 27.2429 17.5188 27.4301 17.6258C27.6173 17.7328 27.7511 17.9468 27.8046 18.1608C27.8581 18.4282 27.8313 18.6957 27.6976 18.9097C27.5906 19.1237 27.3766 19.2842 27.1359 19.3377C26.7882 19.4179 26.4404 19.4179 26.0927 19.3109C25.9857 19.3109 25.8787 19.2039 25.8787 19.0969C25.8787 18.9899 25.852 18.9097 25.8252 18.8027C25.7985 18.6957 25.8252 18.6422 25.959 18.6957C26.1195 18.7492 26.3067 18.8027 26.4939 18.8295C26.6544 18.8562 26.7882 18.8295 26.9486 18.776C27.1359 18.669 27.2161 18.455 27.1091 18.241C27.0824 18.2143 27.0824 18.1875 27.0556 18.1608C26.9486 18.0538 26.8417 18.0003 26.7079 17.9735C26.4672 17.92 26.2799 17.7863 26.0927 17.6258C25.9055 17.4386 25.8252 17.1711 25.852 16.9036C25.852 16.6629 25.9857 16.4222 26.173 16.2884C26.3334 16.1814 26.4939 16.1279 26.6812 16.1012C26.9486 16.0745 27.2161 16.0745 27.4836 16.1547C27.5638 16.1547 27.6441 16.2349 27.6173 16.3419C27.6441 16.3419 27.6441 16.3687 27.6441 16.3954Z" fill="black"/>
<path d="M5.0156 17.7328V18.2677C4.98885 18.5352 5.20284 18.7759 5.49706 18.8027C5.52381 18.8027 5.55056 18.8027 5.55056 18.8027C5.76454 18.8027 6.00527 18.7759 6.21925 18.6957C6.37973 18.6422 6.40648 18.6957 6.37973 18.8294C6.35298 18.9097 6.35299 19.0167 6.32624 19.0969C6.32624 19.1772 6.246 19.2574 6.16575 19.2574C5.79128 19.3644 5.36332 19.3644 4.98886 19.2841C4.66788 19.2039 4.42715 18.9632 4.37366 18.6422C4.32016 18.4282 4.32016 18.2142 4.32016 18.0003C4.32016 17.6525 4.29342 17.2781 4.34691 16.9303C4.34691 16.5024 4.66788 16.1279 5.0691 16.0477C5.44356 15.9674 5.84478 15.9674 6.1925 16.0744C6.29949 16.1012 6.32624 16.1547 6.32624 16.2349C6.32624 16.3419 6.32624 16.4221 6.32624 16.5024C6.32624 16.5826 6.29949 16.6361 6.1925 16.6094C5.97852 16.5559 5.76454 16.5291 5.55056 16.5291C5.25633 16.5024 5.0156 16.7164 4.98886 17.0106C4.98886 17.0373 4.98886 17.0641 4.98886 17.0641C5.0156 17.3583 5.0156 17.5455 5.0156 17.7328Z" fill="black"/>
<path d="M31.7099 16.1012H32.2983C32.4321 16.1012 32.4321 16.1012 32.4321 16.235C32.4321 16.3152 32.4321 16.3954 32.4053 16.4489C32.4053 16.5024 32.3518 16.5827 32.2983 16.5827C32.2983 16.5827 32.2983 16.5827 32.2716 16.5827C32.0041 16.5827 32.0041 16.5827 32.0041 16.8234C32.0041 17.4654 32.0041 18.0806 32.0041 18.7225C32.0041 18.8295 32.0308 18.8562 32.1378 18.8562C32.4321 18.8562 32.4053 18.8562 32.4053 19.1237C32.4053 19.1505 32.4053 19.204 32.4053 19.2307C32.4053 19.2842 32.3518 19.3377 32.2983 19.3377H31.0679C31.0144 19.3377 30.9609 19.3109 30.9609 19.2307C30.9609 19.2307 30.9609 19.2307 30.9609 19.204C30.9609 19.1237 30.9609 19.0167 30.9609 18.9365C30.9609 18.883 30.9877 18.8295 31.0412 18.8295C31.0412 18.8295 31.0412 18.8295 31.0679 18.8295C31.1482 18.8295 31.2017 18.8295 31.2819 18.8295C31.3622 18.8295 31.3889 18.8027 31.3889 18.7225C31.3889 18.4818 31.3889 18.241 31.3889 17.9736C31.3889 17.5456 31.3889 17.0909 31.3889 16.6629C31.3889 16.5559 31.3622 16.5292 31.2552 16.5559C31.1482 16.5827 31.1214 16.5559 31.0679 16.5559C31.0144 16.5559 30.9877 16.5292 30.9609 16.4757V16.4489C30.9609 16.3687 30.9609 16.2885 30.9609 16.1815C30.9609 16.0745 30.9877 16.0477 31.0947 16.0477H31.7099V16.1012Z" fill="black"/>
<path d="M19.0316 16.1012H19.6201C19.7538 16.1012 19.7806 16.1279 19.7538 16.2617C19.7538 16.3419 19.7271 16.3954 19.7271 16.4757C19.7271 16.5559 19.6736 16.5827 19.5933 16.5827C19.5399 16.5827 19.5131 16.5827 19.4596 16.5827C19.3526 16.5827 19.3259 16.6094 19.3259 16.7164C19.3259 17.1711 19.3259 17.6526 19.3259 18.1073C19.3259 18.3213 19.3259 18.5352 19.3259 18.7492C19.3259 18.8295 19.3526 18.883 19.4329 18.8562C19.5131 18.8562 19.5399 18.8562 19.6201 18.8562C19.7003 18.8562 19.7271 18.883 19.7271 18.9632C19.7271 19.0167 19.7271 19.1237 19.7271 19.2307C19.7271 19.3377 19.7003 19.3644 19.5933 19.3644C19.4061 19.3644 19.2189 19.3644 19.0584 19.3644H18.4699C18.3095 19.3644 18.2827 19.3644 18.2827 19.2039C18.2827 19.1237 18.2827 19.0434 18.2827 18.9899C18.2827 18.9364 18.3095 18.883 18.3897 18.883H18.6037C18.6572 18.883 18.6839 18.8562 18.6839 18.8027C18.6839 18.7492 18.6839 18.6155 18.6839 18.5352C18.6839 17.9468 18.6839 17.3316 18.6839 16.7431C18.6839 16.6361 18.6572 16.6094 18.5502 16.6094C18.2827 16.6094 18.2827 16.6094 18.2827 16.3419C18.2827 16.1279 18.2827 16.1279 18.4967 16.1279L19.0316 16.1012Z" fill="black"/>
<path d="M19.5129 21.0763H4.66798C4.56099 21.103 4.48075 21.103 4.37376 21.0763C4.29351 21.0495 4.18652 20.9693 4.18652 20.9425C4.21327 20.8623 4.26677 20.782 4.34701 20.7285C4.42725 20.7018 4.53424 20.675 4.64123 20.675H34.3846C34.4916 20.675 34.5986 20.6751 34.7056 20.7018C34.7858 20.7285 34.8393 20.8088 34.8393 20.889C34.8393 20.9425 34.7323 21.0228 34.6788 21.0495C34.5719 21.0763 34.4916 21.0763 34.3846 21.0495L19.5129 21.0763Z" fill="black"/>
<path d="M9.34889 5.61612C9.61636 5.53587 9.88384 5.50913 10.1246 5.56262C10.1246 7.4617 10.1246 9.33404 10.1246 11.2064C10.1513 11.4204 10.0443 11.6343 9.85709 11.7413C9.53612 11.8483 9.21515 11.8751 8.86743 11.8483V6.3918C8.84068 6.17782 8.92092 5.96384 9.05466 5.80335C9.13491 5.72311 9.2419 5.66961 9.34889 5.61612Z" fill="black"/>
<path d="M5.95153 7.1943C6.51323 7.1408 7.04819 7.1408 7.60989 7.1943C7.79712 7.1943 7.98436 7.22104 8.17159 7.24779C8.22508 7.46177 8.19834 7.7025 8.14484 7.91648C8.09134 8.10372 7.90411 8.23746 7.71688 8.29095C7.42265 8.3177 7.10168 8.3177 6.80746 8.2642C6.51323 8.23745 6.21901 8.23746 5.92479 8.3177C5.84454 8.37119 5.7643 8.39794 5.73755 8.47818C5.68406 8.63867 5.84454 8.74566 5.97828 8.77241C6.43299 8.8794 6.8877 8.93289 7.34241 9.03988C7.66338 9.12013 7.95761 9.28061 8.17159 9.52134C8.35882 9.73532 8.46581 10.0028 8.46581 10.297C8.51931 10.7517 8.30533 11.2332 7.93086 11.5007C7.55639 11.7414 7.12843 11.8484 6.70047 11.8484C6.00503 11.8751 5.30959 11.8484 4.6409 11.7681C4.5874 11.5274 4.5874 11.2867 4.69439 11.046C4.77464 10.8587 4.96187 10.6982 5.17585 10.6982C5.68406 10.6447 6.19226 10.7517 6.70047 10.7517C6.86095 10.7517 6.99469 10.725 7.12843 10.6447C7.23542 10.5912 7.28892 10.4308 7.20867 10.3238C7.10168 10.2168 6.96794 10.1633 6.83421 10.1365C6.43299 10.0563 6.03178 10.0028 5.63056 9.89581C5.1491 9.81557 4.74789 9.4946 4.56066 9.03988C4.37342 8.50493 4.53391 7.91648 4.96187 7.56876C5.25609 7.35478 5.60381 7.22104 5.95153 7.1943Z" fill="black"/>
<path d="M12.4514 7.22101C12.7456 7.14077 13.0398 7.14077 13.3341 7.19427C13.3876 7.22101 13.4678 7.19427 13.4946 7.24776C13.5748 7.35475 13.6283 7.48849 13.7085 7.59548C14.0563 8.15718 14.404 8.71888 14.7249 9.25383C14.8319 9.44107 14.9389 9.60155 15.0727 9.78879C15.3401 9.20034 15.5809 8.61189 15.8216 8.02344C15.9018 7.75597 16.0891 7.48849 16.3031 7.328C16.517 7.19427 16.731 7.14077 16.9717 7.19427C17.1322 7.19427 17.266 7.24776 17.4265 7.30126C17.2125 7.78271 16.9985 8.26417 16.7845 8.71888C16.1961 10.0295 15.6076 11.3134 15.0192 12.624C14.9657 12.7578 14.9122 12.8915 14.8319 13.0253C14.7249 13.2125 14.5645 13.3462 14.3772 13.4265C14.0563 13.5067 13.7085 13.48 13.3876 13.3462C13.7353 12.5973 14.083 11.8484 14.4575 11.1262C13.869 10.2168 13.3073 9.30733 12.7189 8.39791C12.3712 8.71888 12.0769 9.0666 11.756 9.41432C11.7292 9.44107 11.7025 9.46782 11.6757 9.52131C11.6757 9.60155 11.7292 9.65505 11.7827 9.70854C12.1304 10.2168 12.4781 10.7517 12.8259 11.2599C12.9328 11.4471 13.0666 11.6076 13.1736 11.7949C12.9329 11.9019 12.6654 11.9286 12.3979 11.9286C12.0769 11.9286 11.7827 11.7949 11.5687 11.5541C11.4082 11.3402 11.2745 11.0994 11.1408 10.8854C10.8198 10.404 10.5256 9.89578 10.2046 9.41432C10.7128 8.85262 11.221 8.31767 11.7025 7.75597C11.8897 7.51524 12.1572 7.328 12.4514 7.22101Z" fill="black"/>
<path d="M19.2723 5.05449C19.5131 5.02774 19.7805 5.05449 20.0213 5.05449H34.1708C34.4382 5.02774 34.679 5.18823 34.786 5.42896C34.8395 5.61619 34.8662 5.83017 34.8395 6.04415C34.8395 6.87333 34.8395 7.67576 34.8127 8.50494C34.8395 9.12013 34.8127 9.76208 34.8127 10.3773C34.8127 11.3402 34.8127 12.3031 34.8127 13.2928C34.8127 13.4533 34.786 13.6137 34.7057 13.7475C34.5987 13.908 34.465 13.9882 34.2778 14.015C34.0905 14.0417 33.9033 14.015 33.6893 14.015H19.3793C19.1386 14.015 18.8979 13.8545 18.8176 13.6137C18.7909 13.48 18.7641 13.3463 18.7909 13.2125C18.7909 10.6982 18.7909 8.15722 18.7909 5.64294C18.7641 5.34871 18.9781 5.08124 19.2723 5.05449Z" fill="black"/>
<path d="M20.8504 5.99061C21.0377 5.93711 21.2516 5.93711 21.4389 5.96386C21.4389 6.6593 21.4389 7.35474 21.4389 8.05018C22.1076 7.24775 23.2845 7.11401 24.0869 7.75595C24.4881 8.05018 24.7823 8.50489 24.8626 9.01309C24.9696 9.57479 24.9161 10.1365 24.6753 10.6714C24.4614 11.0994 24.1136 11.4204 23.6857 11.6076C23.0972 11.8483 22.4285 11.8216 21.8936 11.4739C21.7331 11.3669 21.5726 11.2064 21.4389 11.0459C21.4389 11.1797 21.4389 11.3401 21.4389 11.4739C21.4389 11.5809 21.3586 11.6611 21.2516 11.6879C21.0644 11.7146 20.9039 11.7146 20.7167 11.6879C20.7167 10.9924 20.7167 10.297 20.7167 9.60154C20.6899 9.17358 20.6899 8.74561 20.6899 8.3444C20.7167 7.64896 20.6899 6.92677 20.7167 6.23134C20.6899 6.12434 20.7702 6.0441 20.8504 5.99061Z" fill="#F2F2F2"/>
<path d="M22.6155 8.02337C22.4016 8.05012 22.1608 8.10361 21.9736 8.23735C21.7329 8.37109 21.5456 8.58507 21.4386 8.8258C21.4119 9.25376 21.4386 9.65497 21.4386 10.0829C21.4386 10.1899 21.4119 10.2969 21.4921 10.4039C21.7864 10.8854 22.3213 11.1528 22.883 11.1261C23.4982 11.0726 24.0064 10.6446 24.1402 10.0562C24.2472 9.62823 24.2204 9.17352 24.0332 8.7723C23.7657 8.2641 23.204 7.94312 22.6155 8.02337Z" fill="black"/>
<path d="M30.5867 6.60585C30.7739 6.49885 31.0147 6.49886 31.2286 6.55235C31.2286 6.84658 31.2286 7.16755 31.2286 7.46177C31.7903 7.46177 32.3253 7.46177 32.8602 7.46177C32.9137 7.649 32.9137 7.83624 32.8335 7.99672C32.78 8.13046 32.5928 8.10371 32.459 8.10371H31.2286C31.2286 8.8794 31.2019 9.65508 31.2019 10.4308C31.2019 10.618 31.2554 10.8052 31.3891 10.939C31.5229 11.0727 31.7101 11.1262 31.8973 11.0995C32.1113 11.0995 32.3253 11.0727 32.5393 10.9657C32.6463 10.9122 32.78 10.8855 32.9137 10.939C33.0742 11.0192 33.0742 11.2599 33.0742 11.4204C32.9672 11.5007 32.8602 11.5542 32.7265 11.5809C32.4323 11.6879 32.1113 11.7414 31.7903 11.7414C31.4159 11.7414 31.0682 11.6077 30.8274 11.3402C30.6937 11.1797 30.5867 10.9657 30.5599 10.7517C30.5332 10.5912 30.5332 10.4575 30.5332 10.297C30.5332 9.20037 30.5332 8.07697 30.5332 6.98031C30.5065 6.84657 30.4797 6.71284 30.5867 6.60585Z" fill="#F2F2F2"/>
<path d="M27.0557 7.46173C27.5906 7.30125 28.1791 7.35474 28.6873 7.62222C29.2757 7.99669 29.6235 8.63863 29.6235 9.33407C29.6235 9.49455 29.6235 9.65504 29.5967 9.84227C28.5001 9.84227 27.4034 9.84227 26.3335 9.84227C26.3603 10.0563 26.4405 10.297 26.5475 10.4842C26.708 10.7517 26.9487 10.9389 27.2429 11.0192C27.7511 11.1529 28.2861 11.1262 28.7675 10.9389C28.928 10.8854 29.1153 10.8052 29.249 10.9122C29.3827 11.0192 29.3827 11.2332 29.3827 11.3936C28.9013 11.6076 28.3931 11.7414 27.8849 11.7414C27.2697 11.7681 26.6812 11.5541 26.2533 11.1529C25.9055 10.8052 25.6648 10.3237 25.6381 9.81553C25.6113 9.5213 25.6113 9.22708 25.6916 8.93285C25.8253 8.26416 26.3603 7.70246 27.0557 7.46173Z" fill="#F2F2F2"/>
<path d="M27.2163 8.07691C26.9221 8.18391 26.6813 8.39789 26.5476 8.66536C26.4673 8.8526 26.3871 9.03983 26.3604 9.25381H28.9549C28.9281 9.01308 28.8746 8.7991 28.7676 8.58512C28.6339 8.31764 28.3664 8.10366 28.0722 8.02342C27.7512 7.96992 27.457 7.96992 27.2163 8.07691Z" fill="black"/>
<path d="M27.2162 8.07691C27.4836 7.96992 27.7779 7.96992 28.0453 8.02342C28.3396 8.10366 28.607 8.31764 28.7408 8.58512C28.8478 8.7991 28.9013 9.01308 28.928 9.25381H26.3335C26.387 9.03983 26.4405 8.8526 26.5207 8.66536C26.6812 8.39789 26.9219 8.18391 27.2162 8.07691Z" fill="black"/>
<path d="M22.6158 8.02345C23.2042 7.96995 23.7392 8.26418 24.0066 8.77238C24.1939 9.1736 24.2474 9.62831 24.1136 10.0563C23.9799 10.6447 23.4717 11.0727 22.8565 11.1262C22.2948 11.1797 21.7598 10.9122 21.4656 10.404C21.4121 10.3237 21.4389 10.19 21.4121 10.083C21.4121 9.65505 21.4121 9.25384 21.4121 8.82588C21.5191 8.58515 21.7063 8.37117 21.9471 8.23743C22.161 8.13044 22.375 8.05019 22.6158 8.02345Z" fill="black"/>
</svg>
