<?xml version="1.0" encoding="UTF-8"?>
<svg width="1024pt" height="512pt" version="1.0" viewBox="0 0 1024 512" xmlns="http://www.w3.org/2000/svg">
<g fill="#000" transform="translate(0 512) scale(.1 -.1)">
<path d="m1022 4466c-251-48-443-214-517-447-51-164-58-408-16-574 24-94 113-276 173-356 24-31 162-179 308-329 279-287 329-345 384-450 56-106 69-165 65-299-4-101-7-123-30-166-37-73-89-106-178-113-85-6-142 12-189 61-54 55-65 102-70 295l-4 172-251-2-252-3 2-158c1-101 7-187 18-240 68-337 294-537 638-566 418-35 706 154 788 517 19 86 28 254 18 362-12 139-38 232-104 366-71 143-160 251-385 464-302 286-343 334-410 470-46 96-65 195-57 300 9 110 23 149 76 201 38 39 56 49 105 59 124 25 230-18 279-115 22-44 37-137 37-232v-83h230 230v108c0 138-13 224-50 333-71 213-228 363-435 415-86 21-312 27-403 10z"/>
<path d="m2200 2886v-1566h245 245v584 583l188 6c278 8 405 40 532 136 108 82 176 191 221 356 20 73 23 109 27 420 4 361-3 475-40 595-67 220-215 358-448 421-81 21-105 23-527 27l-443 4v-1566zm831 1099c57-20 94-57 116-114 16-41 18-86 18-406 0-359 0-360-24-408-48-96-102-117-302-117h-149v530 530h149c108 0 160-4 192-15z"/>
<path d="m3900 2885v-1565h245 245v636 636l143-4c163-5 212-21 270-89 66-76 69-98 77-559 7-384 17-535 40-596l10-24h245c135 0 245 1 245 3 0 1-5 18-10 37-26 91-33 185-40 590-6 402-9 441-29 515-12 44-34 107-50 140-35 76-119 168-188 207-29 16-53 31-53 33 0 1 27 19 59 39 78 48 133 112 182 210 64 132 74 199 74 511 0 314-11 387-77 525-88 183-243 277-508 310-46 5-263 10-482 10h-398v-1565zm815 1104c26-7 56-28 85-58 68-69 75-110 75-416 0-287-9-336-74-403-55-56-115-72-277-72h-134v480 480h143c78 0 160-5 182-11z"/>
<path d="m5700 2885v-1565h245 245v1565 1565h-245-245v-1565z"/>
<path d="m6557 4443c-4-3-7-708-7-1565v-1558h444c349 0 462 3 529 15 230 40 384 147 473 330 24 50 51 123 60 161 22 95 31 485 15 625-28 241-127 411-289 497-34 18-62 35-62 37 0 1 22 17 49 34 113 73 193 190 234 344 20 74 22 106 21 317-1 208-3 244-22 313-34 122-77 204-146 273-97 97-225 150-416 174-92 11-872 14-883 3zm860-472c24-14 54-41 67-60 46-68 51-102 51-326v-210l-30-60c-57-113-139-148-342-143l-118 3-3 400c-1 220 0 406 3 413 4 11 39 13 168 10 150-3 165-5 204-27zm-62-1252c113-21 176-73 210-172 23-68 34-466 15-575-29-174-107-215-391-210l-144 3-3 470c-1 259 0 476 3 483 6 16 226 17 310 1z"/>
<path d="m8380 2885v-1565h670 670v220 220h-425-425v460 460l338 2 337 3 3 223 2 222h-340-340v435 435h425 425v225 225h-670-670v-1565z"/>
<path d="m430 895v-215h4650 4650v215 215h-4650-4650v-215z"/>
</g>
</svg>
