<svg width="190" height="74" viewBox="0 0 190 74" fill="none" xmlns="http://www.w3.org/2000/svg">
<g clip-path="url(#clip0_141_344)">
<path d="M43 69.3002C43 69.1002 43 69.0002 43 68.8002C42.6 69.2002 42.1 69.4002 41.5 69.4002C41.4 69.4002 41.3 69.4002 41.1 69.4002C40.5 69.3002 40 68.9002 39.7 68.4002C39.3 67.5002 39.3 66.5002 39.6 65.6002V65.4002C40 64.7002 40 63.8002 39.8 63.1002C39.8 63.1002 39.7 63.0002 39.6 62.9002C39.2 62.6002 38.8 62.3002 38.3 62.1002C37.8 61.9002 37.4 61.7002 37 61.4002C36.3 60.9002 35.7 60.3002 35.1 59.6002C34.9 59.4002 34.6 59.2002 34.4 59.0002C34.1 58.7002 33.9 58.4002 33.6 58.1002L33.4 57.9002C33.1 57.6002 32.9 57.3002 32.6 57.0002C32.1 56.4002 31.7 55.7002 31.3 55.0002C31.1 54.6002 30.9 54.1002 30.7 53.7002C30.7 53.7002 30.7 53.7002 30.7 53.8002C30.6 54.1002 30.3 54.3002 29.9 54.4002C29 54.6002 28.1 54.8002 27.2 54.8002C27 54.8002 26.7 54.8002 26.5 54.8002C22.7 54.8002 19.1 53.4002 16.3 50.9002C15.7 50.3002 15.1 49.7002 14.6 49.1002C12.8 46.9002 11.7 44.3002 11.4 41.5002C11.2 39.7002 11.3 38.0002 11.7 36.3002C12.2 34.2002 13.2 32.3002 14.6 30.7002C15.4 29.8002 16.3 29.0002 17.3 28.4002C18.4 27.7002 19.6 27.2002 20.9 27.1002C21.1 27.1002 21.3 27.1002 21.6 27.1002H21.8C22.5 27.1002 24 26.2002 27.3 26.6002C27.9 24.0002 28.1 21.3002 28 18.7002L5.5 18.9002L0 28.8002C9.6 64.2002 36.2 69.3002 43 70.0002C43 69.9002 43 69.7002 43 69.6002M9.4 30.7002L6.1 21.8002L3.2 25.9002L5.9 20.3002C9.6 20.1002 19.7 20.7002 19.7 20.7002C13.4 21.1002 7.1 20.9002 6.9 21.0002L9.4 30.7002Z" fill="white"/>
<path d="M36.9002 21.8999C37.1002 22.3999 37.4002 22.8999 37.6002 23.3999C38.8002 25.9999 40.0002 28.7999 41.3002 31.9999C41.3002 32.1999 41.5002 32.3999 41.6002 32.5999C41.8002 32.9999 41.9002 33.3999 42.1002 33.7999C42.1002 33.7999 42.1002 33.9999 42.2002 34.1999C42.3002 34.4999 42.4002 34.8999 42.5002 34.9999C42.6002 35.2999 42.7002 35.4999 42.9002 35.6999C42.9002 35.6999 42.9002 35.5999 43.0002 35.5999C43.6002 34.7999 44.5002 34.2999 45.4002 34.0999H45.6002C45.7002 34.0999 45.9002 33.9999 46.0002 33.9999C46.3002 33.9999 46.6002 33.9999 46.9002 33.9999C47.1002 33.9999 47.3002 33.9999 47.5002 33.9999C47.7002 33.9999 48.1002 33.9999 48.4002 33.9999C48.8002 33.9999 49.3002 33.9999 49.7002 34.1999C50.6002 34.3999 51.4002 34.6999 52.3002 35.0999C51.7002 29.3999 50.5002 23.7999 48.6002 18.3999H35.2002C35.7002 19.5999 36.2002 20.5999 36.7002 21.6999V21.9999L36.9002 21.8999Z" fill="white"/>
<path d="M32.1998 20.8001C31.9998 20.4001 31.7998 20.0001 31.6998 19.6001V22.7001C31.6998 24.2001 31.4998 25.6001 31.2998 26.9001V27.1001C32.9998 27.5001 34.6998 28.4001 35.9998 29.6001L36.4998 30.1001C36.0998 29.1001 35.5998 28.0001 35.0998 26.8001C34.1998 24.7001 33.1998 22.6001 32.2998 20.7001" fill="white"/>
<path d="M59.1 47.2C59.1 46 58.9 44.8 58.6 43.7C58.3 42.6 57.8 41.5 57.2 40.4C55.6 37.5 52.8 35.4 49.6 34.7C48.5 34.5 47.4 34.4 46.3 34.6C46.2 34.6 46.1 34.6 45.9 34.6C45.9 34.6 45.8 34.6 45.7 34.6C44.9 34.8 44.2 35.2 43.7 35.8C43.7 35.8 43.5 36 43.5 36.1C43.5 36.1 43.5 36.1 43.5 36.2C43.5 36.4 43.5 36.6 43.3 36.7C43.2 36.9 43.6 37.5 43.5 37.4C43.5 37.4 43.5 37.5 43.4 37.7C42.6 36.6 41.9 35.4 41.2 34.1C41 33.5 40.7 32.9 40.5 32.3C39.3 29.4 38.1 26.5 36.8 23.7C36.5 23.1 36.2 22.5 36 21.9C35.4 20.7 34.9 19.5 34.3 18.3C33.4 16.5 32.6 14.7 31.7 12.9C31.1 11.6 30.5 10.3 29.9 9C29.7 8.6 29.5 8.1 29.3 7.7C29.3 7.7 29.3 7.5 29.3 7.4C29.3 7.1 29.3 6.8 29.3 6.6C29.5 6.2 29.6 5.8 29.6 5.3C29.6 4.4 29.5 3.4 29.1 2.6C29.1 2.4 28.9 2.3 28.8 2.1C28.5 1.6 28 1.2 27.5 0.9C27.2 0.7 26.9 0.6 26.5 0.5C26.3 0.5 26.2 0.5 26 0.5C25.8 0.5 25.7 0.5 25.5 0.5C24.9 0.7 24.4 1.2 24.1 1.8C24 2.2 23.9 2.6 23.9 3C23.9 3.4 23.9 3.8 24.1 4.2C24.3 4.9 24.7 5.5 25.1 6C25.1 6.1 25.2 6.2 25.3 6.3C25.7 6.8 26 7.4 26.3 8C26.3 8.1 26.4 8.2 26.5 8.4C27.5 10.7 28.1 13 28.4 15.5C28.5 16.3 28.6 17.1 28.6 17.9C28.8 20.8 28.3 27.1 26.8 30.6C27.2 29.5 27.6 28.4 27.8 27.2C26.4 27 25 26.9 23.6 27.2C22.9 27.2 26.5 28.1 26.1 31.5C26.1 31.7 26.1 31.7 26.1 31.7C26.1 31.7 24.8 27.8 21.6 27.8C21.4 27.8 21.2 27.8 20.9 27.8C19.7 27.9 18.6 28.4 17.7 29C15 30.6 13.1 33.3 12.4 36.3C12 37.9 11.9 39.6 12.1 41.2C12.5 44.6 14.1 47.8 16.7 50C19.5 52.6 23.3 53.9 27.1 53.7C27.9 53.7 28.8 53.5 29.6 53.3C29.8 53.3 29.9 53.2 29.8 53C29.6 52.7 29.5 52.3 29.4 52C29 50.9 27.3 42.3 34 37.4C34.4 37.2 34.7 36.9 35.1 36.7C35.9 36.3 36.7 36 37.6 35.7C38 35.6 38 35.6 37.9 35.3C37.7 33.3 36.8 31.4 35.3 30C33.9 28.7 32.2 27.9 30.3 27.6C30.3 27.6 30 30.2 29.8 31C29.8 30.9 29.8 30.8 29.9 30.6C29.9 30.6 30.8 24.5 30.9 22.5C30.9 21.1 30.9 18.9 30.9 17.6C30.9 16.7 30.5 15.3 30.6 15.3C30.6 15.3 30.6 15.3 30.6 15.4C31.4 17 32.2 18.5 32.9 20.1C33.9 22.1 34.8 24.2 35.7 26.2C36.6 28.2 37.5 30.3 38.3 32.4C39.2 34.6 39.9 36.9 40.4 39.3C40.4 39.1 40.3 38.9 40.2 38.7C40 38.3 39.9 37.8 39.7 37.4C39.7 37.4 39.7 37.3 39.7 37.2C39.7 37 39.6 36.9 39.5 36.7C39.5 36.7 39.5 36.7 39.5 36.6C39.5 36.6 39.5 36.5 39.3 36.5C39.2 36.5 39.1 36.5 38.9 36.5C38.3 36.6 37.7 36.8 37.1 37.1H37.4C37.4 37.1 37.6 37.1 37.7 37.2C38 37.2 38.3 37.4 38.6 37.5C38.7 37.5 38.8 37.6 39 37.7C39.6 38.2 40 38.9 40.1 39.7C39.3 38.9 38.4 38.3 37.3 37.9C36.5 37.7 35.6 37.9 34.9 38.3C34.7 38.4 34.4 38.6 34.2 38.8C34 39 33.8 39.1 33.7 39.3C33.5 39.5 33.4 39.6 33.2 39.8C31.5 41.9 30.6 44.5 30.7 47.2C30.7 50.3 31.8 53.2 33.7 55.6C33.9 55.9 34.2 56.2 34.4 56.5L34.6 56.7C34.9 57 35.1 57.2 35.4 57.5C35.6 57.7 35.9 57.9 36.1 58.1C36.6 58.8 37.2 59.3 37.9 59.8C38.9 60.3 39.8 60.8 40.7 61.4C41.7 62.4 41.2 63.8 40.9 65C40.7 65.9 40.5 67.5 41.7 67.7C42.2 67.7 42.7 67.5 42.9 67.1C43.2 66.6 43.3 66 43.2 65.4C43.2 64.7 43.2 64.1 43.2 63.4C43.2 63.1 43 61.4 43.7 61.7C44 61.8 44.3 62.3 44.4 62.6C44.6 62.9 44.7 63.2 44.7 63.5C44.8 64 44.9 64.5 44.9 65C44.9 65.5 44.7 66 44.6 66.5C44.4 67 44.3 67.5 44.2 68C44.2 68.4 44.2 68.8 44 69.2C43.5 70 43.2 70.8 42.8 71.6C42.8 72.1 43 72.7 43.4 72.9C43.8 73.3 44.5 73.6 45 73.1C45.5 72.6 45.4 71.7 45.4 71.1C45.4 70.8 45.4 70.4 45.4 70.1C45.4 69.6 45.4 69.1 45.6 68.7C46 67.7 46.2 66.7 46.6 65.7C46.8 65.1 47 64.6 47.2 64C47.6 64.3 48 64.4 48.4 64.4C49 64.4 49.5 63.9 49.7 63.3C49.7 63 49.7 62.7 49.7 62.4C49.7 62.1 49.9 61.8 50 61.6C50.4 61 50.8 60.5 51.3 60C51.8 59.4 52.3 59 53 58.7C53 58.7 53.1 58.7 53.1 58.6C53.5 58.4 53.8 58.1 54.1 57.8C54.1 57.8 54.1 57.8 54.1 57.9C54.4 58.3 54.5 58.7 54.6 59.1C54.6 59.5 54.6 59.9 54.4 60.2C54.2 60.5 54.2 60.9 54.4 61.3C54.6 61.8 55.2 62 55.7 61.8C56.3 61.6 56.7 61 56.7 60.3C56.7 59.5 56.7 58.6 56.7 57.8C56.7 56.9 56.8 56 57.1 55.1C57.4 54.4 57.7 53.7 58.1 53C58.1 52.8 58.3 52.6 58.4 52.4C58.7 51.6 58.9 50.7 58.8 49.8C59.1 48.7 59.2 47.5 59.1 46.4" fill="white"/>
<path d="M81.1001 30.4001V41.6001H76.4001V30.4001H71.8V26.1001H85.7001V30.4001H81.1001Z" fill="white"/>
<path d="M102.3 33.9999C102.3 39.0999 99.3 41.8999 94.3 41.8999C89.3 41.8999 86.3 39.0999 86.3 33.9999C86.3 28.8999 89.3 25.8999 94.3 25.8999C99.3 25.8999 102.3 28.7999 102.3 33.9999ZM97.5001 33.9999C97.5001 31.3999 96.3 30.1999 94.3 30.1999C92.3 30.1999 91.1001 31.3999 91.1001 33.9999C91.1001 36.5999 92.3 37.6999 94.3 37.6999C96.3 37.6999 97.5001 36.4999 97.5001 33.9999Z" fill="white"/>
<path d="M117.9 34.4001V33.6001L114.7 41.6001H112L108.8 33.6001V34.2001L108.6 41.6001H103.9L104.5 26.1001H109.8L112.9 33.6001C113.1 34.1001 113.2 34.5001 113.3 34.8001C113.3 34.5001 113.5 34.0001 113.7 33.6001L116.8 26.1001H122.1L122.7 41.6001H117.9V34.3001V34.4001Z" fill="white"/>
<path d="M134.9 41.7002V36.1002H129.9V41.7002H125.1V26.2002H129.9V31.8002H134.9V26.2002H139.7V41.7002H134.9Z" fill="white"/>
<path d="M157.3 33.9999C157.3 39.0999 154.3 41.8999 149.3 41.8999C144.3 41.8999 141.3 39.0999 141.3 33.9999C141.3 28.8999 144.3 25.8999 149.3 25.8999C154.3 25.8999 157.3 28.7999 157.3 33.9999ZM152.5 33.9999C152.5 31.3999 151.3 30.1999 149.3 30.1999C147.3 30.1999 146.1 31.3999 146.1 33.9999C146.1 36.5999 147.3 37.6999 149.3 37.6999C151.3 37.6999 152.5 36.4999 152.5 33.9999Z" fill="white"/>
<path d="M165.6 26.1001C170.1 26.1001 172.6 28.2001 172.6 32.0001C172.6 35.8001 171.7 35.9001 170.1 36.9001L173.2 41.1001V41.6001H168.1L165.3 37.7001H163.8V41.6001H159V26.1001H165.7H165.6ZM165.9 34.0001C167.2 34.0001 167.9 33.3001 167.9 32.0001C167.9 30.7001 167.1 30.1001 165.6 30.1001H163.6V34.0001H165.8H165.9Z" fill="white"/>
<path d="M185 41.7002L179.2 33.8002V41.7002H174.4V26.2002H178.7L184.5 34.1002V26.2002H189.3V41.7002H185Z" fill="white"/>
<path d="M77.7999 47.0001C78.2999 47.2001 78.5999 47.6001 78.8999 47.9001V46.7001H80.5999V54.8001C80.5999 55.5001 80.3999 56.2001 80.0999 56.8001C79.7999 57.4001 79.2999 57.8001 78.7999 58.1001C78.1999 58.4001 77.4999 58.6001 76.6999 58.6001C75.8999 58.6001 74.6999 58.3001 73.9999 57.8001C73.2999 57.3001 72.8999 56.6001 72.7999 55.7001H74.3999C74.4999 56.1001 74.7999 56.4001 75.1999 56.7001C75.5999 57.0001 76.0999 57.1001 76.6999 57.1001C77.2999 57.1001 77.8999 56.9001 78.2999 56.5001C78.6999 56.1001 78.8999 55.5001 78.8999 54.7001V53.4001C78.5999 53.8001 78.1999 54.1001 77.7999 54.3001C77.3999 54.5001 76.7999 54.7001 76.1999 54.7001C75.5999 54.7001 74.8999 54.5001 74.2999 54.2001C73.6999 53.8001 73.2999 53.4001 72.8999 52.7001C72.4999 52.0001 72.3999 51.4001 72.3999 50.6001C72.3999 49.8001 72.5999 49.1001 72.8999 48.5001C73.1999 47.9001 73.6999 47.4001 74.2999 47.1001C74.8999 46.8001 75.4999 46.6001 76.1999 46.6001C76.8999 46.6001 77.3999 46.7001 77.7999 47.0001ZM78.5999 49.4001C78.3999 49.0001 78.0999 48.7001 77.6999 48.5001C77.2999 48.3001 76.8999 48.2001 76.4999 48.2001C76.0999 48.2001 75.6999 48.3001 75.2999 48.5001C74.8999 48.7001 74.5999 49.0001 74.3999 49.4001C74.1999 49.8001 74.0999 50.3001 74.0999 50.8001C74.0999 51.3001 74.1999 51.8001 74.3999 52.2001C74.5999 52.6001 74.8999 52.9001 75.2999 53.1001C75.6999 53.3001 76.0999 53.4001 76.4999 53.4001C76.8999 53.4001 77.2999 53.3001 77.6999 53.1001C78.0999 52.9001 78.3999 52.6001 78.5999 52.2001C78.7999 51.8001 78.8999 51.3001 78.8999 50.8001C78.8999 50.3001 78.7999 49.8001 78.5999 49.4001Z" fill="white"/>
<path d="M85.2999 48.6002C85.5999 48.0002 86.0999 47.5002 86.6999 47.2002C87.2999 46.9002 87.8999 46.7002 88.5999 46.7002C89.2999 46.7002 89.7999 46.8002 90.1999 47.1002C90.6999 47.3002 90.9999 47.7002 91.2999 48.0002V46.8002H92.9999V54.8002H91.2999V53.6002C90.9999 54.0002 90.5999 54.3002 90.1999 54.5002C89.6999 54.7002 89.1999 54.9002 88.5999 54.9002C87.9999 54.9002 87.2999 54.7002 86.6999 54.4002C86.0999 54.0002 85.6999 53.6002 85.3999 52.9002C85.0999 52.2002 84.8999 51.6002 84.8999 50.8002C84.8999 50.0002 85.0999 49.3002 85.3999 48.7002L85.2999 48.6002ZM90.9999 49.4002C90.7999 49.0002 90.4999 48.7002 90.0999 48.5002C89.6999 48.3002 89.2999 48.2002 88.8999 48.2002C88.4999 48.2002 88.0999 48.3002 87.6999 48.5002C87.2999 48.7002 86.9999 49.0002 86.7999 49.4002C86.5999 49.8002 86.4999 50.3002 86.4999 50.8002C86.4999 51.3002 86.5999 51.8002 86.7999 52.2002C86.9999 52.6002 87.2999 52.9002 87.6999 53.1002C88.0999 53.3002 88.4999 53.4002 88.8999 53.4002C89.2999 53.4002 89.6999 53.3002 90.0999 53.1002C90.4999 52.9002 90.7999 52.6002 90.9999 52.2002C91.1999 51.8002 91.2999 51.3002 91.2999 50.8002C91.2999 50.3002 91.1999 49.8002 90.9999 49.4002Z" fill="white"/>
<path d="M109.1 47.1001C109.6 47.4001 110 47.7001 110.3 48.3001C110.6 48.9001 110.7 49.4001 110.7 50.1001V54.8001H109.1V50.4001C109.1 49.7001 108.9 49.1001 108.6 48.8001C108.2 48.4001 107.8 48.2001 107.1 48.2001C106.4 48.2001 106 48.4001 105.6 48.8001C105.2 49.2001 105.1 49.7001 105.1 50.4001V54.8001H103.5V50.4001C103.5 49.7001 103.3 49.1001 103 48.8001C102.6 48.4001 102.2 48.2001 101.5 48.2001C100.8 48.2001 100.4 48.4001 99.9999 48.8001C99.5999 49.2001 99.4999 49.7001 99.4999 50.4001V54.8001H97.8999V46.8001H99.4999V47.7001C99.7999 47.4001 100.1 47.1001 100.5 46.9001C100.9 46.7001 101.4 46.6001 101.8 46.6001C102.2 46.6001 103 46.7001 103.5 47.0001C104 47.3001 104.4 47.7001 104.7 48.2001C104.9 47.7001 105.3 47.3001 105.8 47.1001C106.3 46.9001 106.9 46.7001 107.4 46.7001C107.9 46.7001 108.6 46.8001 109.1 47.1001Z" fill="white"/>
<path d="M115.4 45.5001C115.2 45.3001 115.1 45.0001 115.1 44.7001C115.1 44.4001 115.2 44.2001 115.4 43.9001C115.6 43.7001 115.9 43.6001 116.2 43.6001C116.5 43.6001 116.7 43.7001 116.9 43.9001C117.1 44.1001 117.2 44.4001 117.2 44.7001C117.2 45.0001 117.1 45.2001 116.9 45.5001C116.7 45.7001 116.5 45.8001 116.2 45.8001C115.9 45.8001 115.7 45.7001 115.4 45.5001ZM117 46.8001V54.8001H115.4V46.8001H117Z" fill="white"/>
<path d="M127.4 47.1001C127.9 47.4001 128.3 47.7001 128.6 48.3001C128.9 48.9001 129 49.4001 129 50.1001V54.8001H127.4V50.4001C127.4 49.7001 127.2 49.1001 126.9 48.8001C126.6 48.5001 126.1 48.2001 125.4 48.2001C124.7 48.2001 124.3 48.4001 123.9 48.8001C123.5 49.2001 123.4 49.7001 123.4 50.4001V54.8001H121.8V46.8001H123.4V47.7001C123.7 47.4001 124 47.1001 124.4 46.9001C124.8 46.7001 125.3 46.6001 125.7 46.6001C126.1 46.6001 126.9 46.7001 127.4 47.0001V47.1001Z" fill="white"/>
<path d="M138.6 47.0001C139.1 47.2001 139.4 47.6001 139.7 47.9001V46.7001H141.4V54.8001C141.4 55.5001 141.2 56.2001 140.9 56.8001C140.6 57.4001 140.1 57.8001 139.6 58.1001C139 58.4001 138.3 58.6001 137.5 58.6001C136.7 58.6001 135.5 58.3001 134.8 57.8001C134.1 57.3001 133.7 56.6001 133.6 55.7001H135.2C135.3 56.1001 135.6 56.4001 136 56.7001C136.4 57.0001 136.9 57.1001 137.5 57.1001C138.1 57.1001 138.7 56.9001 139.1 56.5001C139.5 56.1001 139.7 55.5001 139.7 54.7001V53.4001C139.4 53.8001 139 54.1001 138.6 54.3001C138.2 54.5001 137.6 54.7001 137 54.7001C136.4 54.7001 135.7 54.5001 135.1 54.2001C134.5 53.8001 134.1 53.4001 133.7 52.7001C133.4 52.1001 133.2 51.4001 133.2 50.6001C133.2 49.8001 133.4 49.1001 133.7 48.5001C134 47.9001 134.5 47.4001 135.1 47.1001C135.7 46.8001 136.3 46.6001 137 46.6001C137.7 46.6001 138.2 46.7001 138.6 47.0001ZM139.3 49.4001C139.1 49.0001 138.8 48.7001 138.4 48.5001C138 48.3001 137.6 48.2001 137.2 48.2001C136.8 48.2001 136.4 48.3001 136 48.5001C135.6 48.7001 135.3 49.0001 135.1 49.4001C134.9 49.8001 134.8 50.3001 134.8 50.8001C134.8 51.3001 134.9 51.8001 135.1 52.2001C135.3 52.6001 135.6 52.9001 136 53.1001C136.4 53.3001 136.8 53.4001 137.2 53.4001C137.6 53.4001 138 53.3001 138.4 53.1001C138.8 52.9001 139.1 52.6001 139.3 52.2001C139.5 51.8001 139.6 51.3001 139.6 50.8001C139.6 50.3001 139.5 49.8001 139.3 49.4001Z" fill="white"/>
</g>
<defs>
<clipPath id="clip0_141_344">
<rect width="189.3" height="72.86" fill="white" transform="translate(0 0.5)"/>
</clipPath>
</defs>
</svg>
