<?xml version="1.0" encoding="UTF-8"?>
<svg version="1.1" viewBox="9.9 7.3 189.3 72.86" xmlns="http://www.w3.org/2000/svg">
<defs>
<style>.tomhorn-big-st0 {        fill: #000;      }</style>
</defs>
<path class="tomhorn-big-st0" d="M52.9,76.1c0-.2,0-.3,0-.5-.4.4-.9.6-1.5.6-.1,0-.2,0-.4,0-.6-.1-1.1-.5-1.4-1-.4-.9-.4-1.9-.1-2.8v-.2c.4-.7.4-1.6.2-2.3,0,0-.1-.1-.2-.2-.4-.3-.8-.6-1.3-.8-.5-.2-.9-.4-1.3-.7-.7-.5-1.3-1.1-1.9-1.8-.2-.2-.5-.4-.7-.6h0c-.3-.3-.5-.6-.8-.9l-.2-.2c-.3-.3-.5-.6-.8-.9-.5-.6-.9-1.3-1.3-2-.2-.4-.4-.9-.6-1.3,0,0,0,0,0,.1-.1.3-.4.5-.8.6-.9.2-1.8.4-2.7.4h0c-.2,0-.5,0-.7,0-3.8,0-7.4-1.4-10.2-3.9-.6-.6-1.2-1.2-1.7-1.8-1.8-2.2-2.9-4.8-3.2-7.6-.2-1.8-.1-3.5.3-5.2.5-2.1,1.5-4,2.9-5.6.8-.9,1.7-1.7,2.7-2.3,1.1-.7,2.3-1.2,3.6-1.3.2,0,.4,0,.7,0h.2c.7,0,2.2-.9,5.5-.5.6-2.6.8-5.3.7-7.9l-22.5.2-5.5,9.9c9.6,35.4,36.2,40.5,43,41.2,0-.1,0-.3,0-.4M19.3,37.5l-3.3-8.9-2.9,4.1,2.7-5.6c3.7-.2,13.8.4,13.8.4-6.3.4-12.6.2-12.8.3l2.5,9.7Z"/>
<path class="tomhorn-big-st0" d="M46.8,28.7c.2.5.5,1,.7,1.5,1.2,2.6,2.4,5.4,3.7,8.6,0,.2.2.4.3.6.2.4.3.8.5,1.2,0,0,0,.2.1.4.1.3.2.7.3.8.1.3.2.5.4.7,0,0,0-.1.1-.1.6-.8,1.5-1.3,2.4-1.5h.2c.1,0,.3-.1.4-.1.3,0,.6,0,.9,0,.2,0,.4,0,.6,0s.6,0,.9,0c.4,0,.9,0,1.3.2.9.2,1.7.5,2.6.9h0c-.6-5.7-1.8-11.3-3.7-16.7h-13.4c.5,1.2,1,2.2,1.5,3.3v.3Z"/>
<path class="tomhorn-big-st0" d="m42.1 27.6c-0.2-0.4-0.4-0.8-0.5-1.2v3.1c0 1.5-0.2 2.9-0.4 4.2v0.2c1.7 0.4 3.4 1.3 4.7 2.5l0.5 0.5c-0.4-1-0.9-2.1-1.4-3.3-0.9-2.1-1.9-4.2-2.8-6.1"/>
<path class="tomhorn-big-st0" d="m69 55.6v-0.2 0.2"/>
<path class="tomhorn-big-st0" d="M69,54c0-1.2-.2-2.4-.5-3.5-.3-1.1-.8-2.2-1.4-3.3-1.6-2.9-4.4-5-7.6-5.7-1.1-.2-2.2-.3-3.3-.1-.1,0-.2,0-.4,0,0,0-.1,0-.2,0-.8.2-1.5.6-2,1.2,0,0-.2.2-.2.3,0,0,0,0,0,.1,0,.2,0,.4-.2.5-.1.2.3.8.2.7,0,0,0,.1-.1.3,0,0,0,0,0,0-.8-1.1-1.5-2.3-2.2-3.6-.2-.6-.5-1.2-.7-1.8-1.2-2.9-2.4-5.8-3.7-8.6-.3-.6-.6-1.2-.8-1.8-.6-1.2-1.1-2.4-1.7-3.6-.9-1.8-1.7-3.6-2.6-5.4-.6-1.3-1.2-2.6-1.8-3.9-.2-.4-.4-.9-.6-1.3,0,0,0-.2,0-.3,0-.3,0-.6,0-.8.2-.4.3-.8.3-1.3,0-.9-.1-1.9-.5-2.7,0-.2-.2-.3-.3-.5-.3-.5-.8-.9-1.3-1.2-.3-.2-.6-.3-1-.4-.2,0-.3,0-.5,0-.2,0-.3,0-.5,0-.6.2-1.1.7-1.4,1.3-.1.4-.2.8-.2,1.2,0,.4,0,.8.2,1.2.2.7.6,1.3,1,1.8,0,.1.1.2.2.3.4.5.7,1.1,1,1.7,0,.1.1.2.2.4,1,2.3,1.6,4.6,1.9,7.1.1.8.2,1.6.2,2.4.2,2.9-.3,9.2-1.8,12.7.4-1.1.8-2.2,1-3.4-1.4-.2-2.8-.3-4.2,0-.7,0,2.9.9,2.5,4.3,0,.2,0,.2,0,.2,0,0,0,0,0,0,0,0-1.3-3.9-4.5-3.9h0c-.2,0-.4,0-.7,0h0c-1.2.1-2.3.6-3.2,1.2-2.7,1.6-4.6,4.3-5.3,7.3-.4,1.6-.5,3.3-.3,4.9.4,3.4,2,6.6,4.6,8.8,2.8,2.6,6.6,3.9,10.4,3.7.8,0,1.7-.2,2.5-.4.2,0,.3-.1.2-.3-.2-.3-.3-.7-.4-1-.4-1.1-2.1-9.7,4.6-14.6.4-.2.7-.5,1.1-.7.8-.4,1.6-.7,2.5-1,.4-.1.4-.1.3-.4-.2-2-1.1-3.9-2.6-5.3-1.4-1.3-3.1-2.1-5-2.4,0,0-.3,2.6-.5,3.4,0,0,0,0,0,0,0-.1,0-.2.1-.4,0,0,.9-6.1,1-8.1,0-1.4,0-3.6,0-4.9,0-.9-.4-2.3-.3-2.3,0,0,0,0,0,.1.8,1.6,1.6,3.1,2.3,4.7,1,2,1.9,4.1,2.8,6.1s1.8,4.1,2.6,6.2c.9,2.2,1.6,4.5,2.1,6.9,0-.2-.1-.4-.2-.6-.2-.4-.3-.9-.5-1.3,0,0,0-.1,0-.2,0-.2-.1-.3-.2-.5,0,0,0,0,0-.1,0,0,0-.1-.2-.1,0,0,0,0,0,0,0,0,0,0,0,0-.1,0-.2,0-.4,0-.6.1-1.2.3-1.8.6h.3c0,0,.2,0,.3.1.3,0,.6.2.9.3.1,0,.2.1.4.2.6.5,1,1.2,1.1,2,0,0,0,0,0,0,0,0,0,0,0,0-.8-.8-1.7-1.4-2.8-1.8-.8-.2-1.7,0-2.4.4-.2.1-.5.3-.7.5-.2.2-.4.3-.5.5-.2.2-.3.3-.5.5-1.7,2.1-2.6,4.7-2.5,7.4,0,3.1,1.1,6,3,8.4.2.3.5.6.7.9l.2.2c.3.3.5.5.8.8h0c.2.2.5.4.7.6.5.7,1.1,1.2,1.8,1.7,1,.5,1.9,1,2.8,1.6,1,1,.5,2.4.2,3.6-.2.9-.4,2.5.8,2.7.5,0,1-.2,1.2-.6.3-.5.4-1.1.3-1.7,0-.7,0-1.3,0-2,0-.3-.2-2,.5-1.7.3.1.6.6.7.9.2.3.3.6.3.9.1.5.2,1,.2,1.5,0,.5-.2,1-.3,1.5-.2.5-.3,1-.4,1.5,0,.4,0,.8-.2,1.2-.5.8-.8,1.6-1.2,2.4,0,.5.2,1.1.6,1.3.4.4,1.1.7,1.6.2s.4-1.4.4-2c0-.3,0-.7,0-1,0-.5,0-1,.2-1.4.4-1,.6-2,1-3,.2-.6.4-1.1.6-1.7.4.3.8.4,1.2.4.6,0,1.1-.5,1.3-1.1,0-.3,0-.6,0-.9,0-.3.2-.6.3-.8.4-.6.8-1.1,1.3-1.6.5-.6,1-1,1.7-1.3,0,0,.1,0,.1-.1.4-.2.7-.5,1-.8,0,0,0,0,0,.1.3.4.4.8.5,1.2,0,.4,0,.8-.2,1.1-.2.3-.2.7,0,1.1.2.5.8.7,1.3.5.6-.2,1-.8,1-1.5,0-.8,0-1.7,0-2.5,0-.9.1-1.8.4-2.7.3-.7.6-1.4,1-2.1,0-.2.2-.4.3-.6.3-.8.5-1.7.4-2.6.3-1.1.4-2.3.3-3.4"/>
<path class="tomhorn-big-st0" d="m91 37.2v11.2h-4.7v-11.2h-4.6v-4.3h13.9v4.3h-4.6z"/>
<path class="tomhorn-big-st0" d="m112.2 40.8c0 5.1-3 7.9-8 7.9s-8-2.8-8-7.9 3-8.1 8-8.1 8 2.9 8 8.1zm-4.8 0c0-2.6-1.2-3.8-3.2-3.8s-3.2 1.2-3.2 3.8 1.2 3.7 3.2 3.7 3.2-1.2 3.2-3.7z"/>
<path class="tomhorn-big-st0" d="M127.8,41.2v-.8l-3.2,8h-2.7l-3.2-8v.6l-.2,7.4h-4.7l.6-15.5h5.3l3.1,7.5c.2.5.3.9.4,1.2,0-.3.2-.8.4-1.2l3.1-7.5h5.3l.6,15.5h-4.8v-7.3Z"/>
<path class="tomhorn-big-st0" d="m144.8 48.5v-5.6h-5v5.6h-4.8v-15.5h4.8v5.6h5v-5.6h4.8v15.5h-4.8z"/>
<path class="tomhorn-big-st0" d="m167.2 40.8c0 5.1-3 7.9-8 7.9s-8-2.8-8-7.9 3-8.1 8-8.1 8 2.9 8 8.1zm-4.8 0c0-2.6-1.2-3.8-3.2-3.8s-3.2 1.2-3.2 3.8 1.2 3.7 3.2 3.7 3.2-1.2 3.2-3.7z"/>
<path class="tomhorn-big-st0" d="M175.5,32.9c4.5,0,7,2.1,7,5.9s-.9,3.9-2.5,4.9l3.1,4.2v.5h-5.1l-2.8-3.9h-1.5v3.9h-4.8v-15.5h6.7ZM175.8,40.8c1.3,0,2-.7,2-2s-.8-1.9-2.3-1.9h-2v3.9h2.2Z"/>
<path class="tomhorn-big-st0" d="m194.9 48.5-5.8-7.9v7.9h-4.8v-15.5h4.3l5.8 7.9v-7.9h4.8v15.5h-4.3z"/>
<path class="tomhorn-big-st0" d="M87.7,53.8c.5.2.8.6,1.1.9v-1.2h1.7v8.1c0,.7-.2,1.4-.5,2-.3.6-.8,1-1.3,1.3-.6.3-1.3.5-2.1.5s-2-.3-2.7-.8c-.7-.5-1.1-1.2-1.2-2.1h1.6c.1.4.4.7.8,1s.9.4,1.5.4,1.2-.2,1.6-.6c.4-.4.6-1,.6-1.8v-1.3c-.3.4-.7.7-1.1.9s-1,.4-1.6.4-1.3-.2-1.9-.5c-.6-.4-1-.8-1.4-1.5s-.5-1.3-.5-2.1.2-1.5.5-2.1c.3-.6.8-1.1,1.4-1.4.6-.3,1.2-.5,1.9-.5s1.2.1,1.6.4ZM88.5,56.2c-.2-.4-.5-.7-.9-.9-.4-.2-.8-.3-1.2-.3s-.8.1-1.2.3-.7.5-.9.9c-.2.4-.3.9-.3,1.4s.1,1,.3,1.4c.2.4.5.7.9.9.4.2.8.3,1.2.3s.8-.1,1.2-.3c.4-.2.7-.5.9-.9.2-.4.3-.9.3-1.4s-.1-1-.3-1.4Z"/>
<path class="tomhorn-big-st0" d="M95.2,55.4c.3-.6.8-1.1,1.4-1.4.6-.3,1.2-.5,1.9-.5s1.2.1,1.6.4c.5.2.8.6,1.1.9v-1.2h1.7v8h-1.7v-1.2c-.3.4-.7.7-1.1.9-.5.2-1,.4-1.6.4s-1.3-.2-1.9-.5c-.6-.4-1-.8-1.3-1.5s-.5-1.3-.5-2.1.2-1.5.5-2.1ZM100.9,56.2c-.2-.4-.5-.7-.9-.9-.4-.2-.8-.3-1.2-.3s-.8.1-1.2.3-.7.5-.9.9c-.2.4-.3.9-.3,1.4s.1,1,.3,1.4c.2.4.5.7.9.9.4.2.8.3,1.2.3s.8-.1,1.2-.3c.4-.2.7-.5.9-.9.2-.4.3-.9.3-1.4s-.1-1-.3-1.4Z"/>
<path class="tomhorn-big-st0" d="M119,53.9c.5.3.9.6,1.2,1.2s.4,1.1.4,1.8v4.7h-1.6v-4.4c0-.7-.2-1.3-.5-1.6-.4-.4-.8-.6-1.5-.6s-1.1.2-1.5.6-.5.9-.5,1.6v4.4h-1.6v-4.4c0-.7-.2-1.3-.5-1.6-.4-.4-.8-.6-1.5-.6s-1.1.2-1.5.6-.5.9-.5,1.6v4.4h-1.6v-8h1.6v.9c.3-.3.6-.6,1-.8.4-.2.9-.3,1.3-.3s1.2.1,1.7.4.9.7,1.2,1.2c.2-.5.6-.9,1.1-1.1s1.1-.4,1.6-.4,1.2.1,1.7.4Z"/>
<path class="tomhorn-big-st0" d="M125.3,52.3c-.2-.2-.3-.5-.3-.8s.1-.5.3-.8c.2-.2.5-.3.8-.3s.5.1.7.3.3.5.3.8-.1.5-.3.8c-.2.2-.4.3-.7.3s-.5-.1-.8-.3ZM126.9,53.6v8h-1.6v-8h1.6Z"/>
<path class="tomhorn-big-st0" d="M137.3,53.9c.5.3.9.6,1.2,1.2s.4,1.1.4,1.8v4.7h-1.6v-4.4c0-.7-.2-1.3-.5-1.6s-.8-.6-1.5-.6-1.1.2-1.5.6-.5.9-.5,1.6v4.4h-1.6v-8h1.6v.9c.3-.3.6-.6,1-.8.4-.2.9-.3,1.3-.3s1.2.1,1.7.4Z"/>
<path class="tomhorn-big-st0" d="M148.5,53.8c.5.2.8.6,1.1.9v-1.2h1.7v8.1c0,.7-.2,1.4-.5,2-.3.6-.8,1-1.3,1.3-.6.3-1.3.5-2.1.5s-2-.3-2.7-.8c-.7-.5-1.1-1.2-1.2-2.1h1.6c.1.4.4.7.8,1,.4.3.9.4,1.5.4s1.2-.2,1.6-.6c.4-.4.6-1,.6-1.8v-1.3c-.3.4-.7.7-1.1.9s-1,.4-1.6.4-1.3-.2-1.9-.5c-.6-.4-1-.8-1.4-1.5-.3-.6-.5-1.3-.5-2.1s.2-1.5.5-2.1c.3-.6.8-1.1,1.4-1.4.6-.3,1.2-.5,1.9-.5s1.2.1,1.6.4ZM149.2,56.2c-.2-.4-.5-.7-.9-.9s-.8-.3-1.2-.3-.8.1-1.2.3-.7.5-.9.9c-.2.4-.3.9-.3,1.4s.1,1,.3,1.4c.2.4.5.7.9.9.4.2.8.3,1.2.3s.8-.1,1.2-.3c.4-.2.7-.5.9-.9.2-.4.3-.9.3-1.4s-.1-1-.3-1.4Z"/>
</svg>
