<svg width="61" height="60" viewBox="0 0 61 60" fill="none" xmlns="http://www.w3.org/2000/svg">
<path fill-rule="evenodd" clip-rule="evenodd" d="M26.2666 7.98174C24.817 8.27776 23.2749 8.92708 23.2749 8.92708C24.0385 7.88711 25.5883 6.61307 25.5883 6.61307C25.1618 5.81185 24.7843 4.62558 24.7843 4.62558C24.7843 4.62558 26.5766 4.72394 27.9795 5.17934C27.9795 5.17934 30.3629 3.87292 32.8326 3.83276C32.8326 3.83276 31.0325 4.87211 30.2677 5.83986C30.4706 5.94663 31.9103 6.37743 33.0315 7.03827C33.0315 7.03827 31.0045 7.09554 29.1443 7.35016C29.1443 7.35016 28.4894 8.27403 27.9356 10.3767C27.9353 10.3767 26.9816 9.32613 26.2666 7.98174Z" fill="black"/>
<path fill-rule="evenodd" clip-rule="evenodd" d="M35.8965 9.72269C34.6692 8.35744 33.0312 7.03826 33.0312 7.03826C34.5378 7.05974 36.7737 7.94874 36.7737 7.94874C37.2107 7.12261 37.5167 5.98584 37.5167 5.98584C37.5167 5.98584 38.3721 7.43358 38.7606 9.03446C38.7606 9.03446 40.5364 10.0978 41.8764 11.8773C41.8764 11.8773 40.4782 11.5857 39.4488 11.5906C39.4457 11.8204 39.8264 13.7092 39.7436 15.0078C39.7436 15.0078 38.6037 13.1554 37.5341 11.6124C37.5341 11.6124 35.815 11.6436 34.0087 12.1372C34.009 12.1372 35.0206 10.9687 35.8965 9.72269ZM37.8635 18.6217C38.7687 17.0955 39.7439 15.0081 39.7439 15.0081C40.043 16.4042 40.0698 18.1853 40.0698 18.1853C40.9678 17.996 42.5575 17.2334 42.5575 17.2334C42.5575 17.2334 41.8493 19.1198 40.2618 20.5662C40.2618 20.5662 40.4225 21.6965 40.4411 23.1878C40.4411 23.1878 39.3184 22.6876 38.3873 22.1282C38.1891 22.2437 37.0638 23.0091 35.1629 23.4026C35.1629 23.4026 35.9678 22.145 36.6336 20.9167C36.6336 20.9167 35.3082 20.0436 34.2583 18.6127C34.2583 18.6124 36.2996 18.8701 37.8635 18.6217Z" fill="black"/>
<path fill-rule="evenodd" clip-rule="evenodd" d="M31.46 15.5074C32.8486 17.2275 34.2577 18.6126 34.2577 18.6126C31.9555 18.2706 30.0863 17.625 30.0863 17.625C29.1512 19.1241 28.1309 20.8669 28.1309 20.8669C28.1309 20.8669 27.5603 18.9762 27.4638 16.8303C27.4638 16.8303 26.3074 16.4256 24.1761 15.5864C24.1761 15.5864 25.6463 14.6738 27.4255 14.1761C27.3216 13.9709 27.5943 11.4197 27.9354 10.377C27.9354 10.377 28.9729 12.0588 29.8177 13.2952C29.8177 13.2952 31.4712 12.7342 34.009 12.1372C34.0087 12.1372 32.6201 13.8993 31.46 15.5074ZM18.8194 22.0136C18.6796 21.7506 18.5493 21.4826 18.4288 21.2102C18.4531 20.2979 18.5346 19.1228 18.7681 18.2114C18.7681 18.2114 18.0991 17.7473 17.4075 17.1441C17.3997 17.0392 17.3907 16.9333 17.3848 16.8272C17.782 16.679 18.6252 16.3811 19.3617 16.2105C19.446 15.9961 19.9045 14.5185 20.7907 13.499C20.7907 13.499 20.8505 14.5035 21.0914 15.8408C21.0914 15.8408 22.4903 15.5239 24.1758 15.5858C24.1758 15.5858 22.6139 16.816 21.6302 18.0657C21.987 19.5066 22.7048 20.8896 22.7048 20.8896C21.6321 20.2826 20.4975 19.4786 20.4975 19.4786C20.0991 19.9524 19.2982 21.2305 18.8194 22.0136ZM27.7427 28.5563C27.5691 28.525 27.3963 28.4894 27.2245 28.4495C26.639 27.8217 25.7459 26.7967 25.0639 25.7194C25.0639 25.7194 22.5482 25.5164 20.7755 24.7401C20.7755 24.7401 22.2416 24.4646 23.8515 23.6344C23.7475 23.4293 23.1337 22.2975 22.7044 20.8902C22.7044 20.8902 24.2421 22.1325 25.3814 22.8597C25.3814 22.8597 26.8295 22.0267 28.1309 20.8669C28.1309 20.8669 27.8006 22.47 27.6179 24.3009C28.4587 24.7811 29.3065 25.249 30.161 25.7044C28.8484 25.8955 27.5563 25.8554 27.5563 25.8554C27.5052 26.872 27.6419 27.9406 27.7427 28.5563ZM38.6874 25.2873C38.6874 25.2873 36.9524 25.7458 35.2591 25.8093C35.2591 25.8093 35.2463 24.6542 35.1623 23.4025C35.1623 23.4025 34.263 24.6788 33.0892 25.9061C31.7031 25.8862 30.161 25.7044 30.161 25.7044C30.6898 26.2426 31.2338 26.766 31.7924 27.2732C30.7484 28.1607 29.7834 28.7537 29.7834 28.7537C29.9204 28.7555 30.0599 28.7565 30.1978 28.7546C33.4932 28.7007 36.4715 27.389 38.6874 25.2873Z" fill="black"/>
<path fill-rule="evenodd" clip-rule="evenodd" d="M17.5375 14.0363C17.5375 14.0363 18.4644 12.8803 19.5464 11.9414C19.5464 11.9414 19.9081 12.6094 20.7909 13.4994C20.7909 13.4994 20.7974 12.4118 20.9238 10.7054C21.9124 9.83132 23.2749 8.92707 23.2749 8.92707C22.1449 8.85517 21.3017 8.91026 21.3017 8.91026C21.5638 7.61536 22.1558 6.22583 22.1558 6.22583C19.7534 8.13083 18.0626 10.8921 17.5375 14.0363ZM41.7997 47.5173C40.1802 47.5173 39.1966 46.1605 39.1966 44.6726C39.1966 43.1265 40.3433 42.0062 41.8399 42.0062C43.4984 42.0062 44.4979 43.3229 44.4979 44.77C44.4979 46.4845 43.2546 47.5173 41.7997 47.5173ZM41.7092 42.7856C40.7013 42.7856 40.4002 43.745 40.4002 44.3949C40.4002 45.3452 40.8233 46.7357 41.9859 46.7357C42.8151 46.7357 43.2948 45.9977 43.2948 45.1112C43.2948 44.1686 42.9294 42.7856 41.7092 42.7856ZM31.8894 46.7453C31.8894 47.0376 31.9454 47.1428 32.4176 47.2341V47.4364C31.9053 47.4121 31.5871 47.3878 31.2874 47.3878C30.9858 47.3878 30.6692 47.4121 30.3115 47.4364V47.2322C30.6278 47.1762 30.6857 47.0376 30.6857 46.6551V42.6801C30.6857 42.4516 30.5879 42.3452 30.3115 42.3371V42.1108H32.7174C34.2221 42.1108 34.7674 42.8264 34.7674 43.7705C34.7674 44.779 34.0026 45.3975 32.9539 45.3975C32.5558 45.3975 31.9709 45.1933 31.9709 45.0224C31.9709 44.9496 32.0195 44.9496 32.0926 44.9496C32.1658 44.9496 32.2707 44.9739 32.3765 44.9739C33.23 44.9739 33.5644 44.4942 33.5644 43.8194C33.5644 43.0866 33.1083 42.8267 32.3921 42.8267L31.8894 42.8809V46.7453ZM36.3391 42.63C36.3391 42.4031 36.2419 42.2963 35.9652 42.2888V42.0772C36.3226 42.1014 36.6388 42.1257 36.9404 42.1257C37.2421 42.1257 37.5586 42.1014 37.9157 42.0772V42.2888C37.6402 42.296 37.5418 42.4031 37.5418 42.63V46.891C37.5418 47.1195 37.6402 47.2247 37.9157 47.2341V47.4364C37.5589 47.4121 37.2414 47.3878 36.9404 47.3878C36.6388 47.3878 36.3229 47.4121 35.9652 47.4364V47.2341C36.2419 47.225 36.3391 47.1198 36.3391 46.891V42.63ZM46.1283 42.6263C46.1283 42.3993 46.03 42.2926 45.7532 42.2851V42.0716C46.1112 42.0952 46.4287 42.122 46.7297 42.122C46.9492 42.122 47.1929 42.122 47.4459 42.0716L49.6899 45.7091H49.7058V42.7405C49.7058 42.3168 49.4378 42.2851 49.2183 42.2851V42.0716C49.4863 42.0952 49.746 42.122 49.999 42.122C50.267 42.122 50.5353 42.0952 50.7965 42.0716V42.2851C50.5192 42.2923 50.4214 42.3993 50.4214 42.6263V47.4364H49.5592L46.8598 43.2373H46.8439V46.773C46.8439 47.1967 47.1107 47.2284 47.3314 47.2284V47.4326C47.0634 47.4084 46.8025 47.3822 46.5507 47.3822C46.2827 47.3822 46.0138 47.4084 45.7532 47.4326V47.2284C46.03 47.2213 46.1283 47.1142 46.1283 46.8873V42.6263ZM52.4584 45.5871C52.6249 46.4998 53.2238 46.9271 54.1206 46.9271C54.613 46.9271 55.3255 46.7849 55.3255 46.1567C55.3255 45.6546 54.8063 45.5214 54.4216 45.4034L53.8264 45.2273C52.9729 44.9761 52.1194 44.6162 52.1194 43.6289C52.1194 42.3321 53.3748 41.9386 54.6218 41.9386C55.1506 41.9386 55.6935 42.0305 56.1794 42.2067C56.1794 42.8099 56.2127 43.3191 56.2457 43.7546H56.0365C55.8609 42.9842 55.234 42.6244 54.4807 42.6244C54.0605 42.6244 53.3589 42.7595 53.3589 43.3363C53.3589 43.7976 53.7595 43.9302 54.1032 44.0301L54.9816 44.2829C55.8267 44.5241 56.6139 44.8354 56.6139 45.9226C56.6139 47.0261 55.5008 47.6129 54.1365 47.6129C53.5254 47.6129 52.8811 47.5139 52.3205 47.3112C52.3205 46.6498 52.2956 46.0739 52.253 45.5871H52.4584ZM10.1817 42.63C10.1817 42.4031 10.0846 42.2963 9.80696 42.2888V42.0772C10.1649 42.1014 10.4824 42.1257 10.7834 42.1257C11.0844 42.1257 11.4007 42.1014 11.759 42.0772V42.2888C11.4825 42.296 11.3861 42.4031 11.3861 42.63L11.3851 44.2399L13.3527 44.2418V42.63C13.3527 42.4031 13.2562 42.2963 12.9798 42.2888V42.0772C13.3368 42.1014 13.6546 42.1257 13.955 42.1257C14.2557 42.1257 14.5735 42.1014 14.9296 42.0772V42.2888C14.6541 42.296 14.5564 42.4031 14.5564 42.63V46.891C14.5564 47.1195 14.6538 47.2247 14.9296 47.2322V47.4401C14.5732 47.4165 14.2557 47.3915 13.9541 47.3915C13.6546 47.3915 13.3368 47.4165 12.9788 47.4401V47.2322C13.2562 47.225 13.3527 47.1198 13.3527 46.891V45.0209H11.3851V46.891C11.3851 47.1195 11.4825 47.2247 11.7593 47.2322V47.4401C11.4013 47.4165 11.0847 47.3915 10.7837 47.3915C10.483 47.3915 10.1652 47.4165 9.80727 47.4401V47.2322C10.0837 47.225 10.182 47.1198 10.182 46.891L10.1817 42.63ZM17.9399 45.1093C18.1507 44.5341 18.4109 43.891 18.5977 43.241H18.6145C18.7773 44.0619 18.9155 44.5829 19.086 45.1093H17.9399ZM15.9711 47.4367C16.2563 47.4124 16.5333 47.3881 16.8172 47.3881C17.0936 47.3881 17.3787 47.4124 17.6548 47.4367V47.2325C17.3859 47.2154 17.2723 47.1201 17.2723 46.9723C17.2723 46.8913 17.2965 46.8014 17.3379 46.6871L17.6947 45.7278H19.28L19.5405 46.5187C19.5819 46.624 19.6221 46.811 19.6221 46.9237C19.6221 47.1111 19.5162 47.1765 19.2152 47.2325V47.4367C19.5648 47.4124 19.9143 47.3881 20.2645 47.3881C20.6048 47.3881 20.9552 47.4124 21.297 47.4367V47.2325C21.0536 47.1687 20.9307 47.0622 20.809 46.7043L19.3127 42.0778C19.0602 42.1021 18.8 42.1263 18.5479 42.1263C18.2967 42.1263 18.0436 42.1021 17.784 42.0778V42.2895C18.0031 42.2895 18.0934 42.4189 18.0934 42.5017C18.0934 42.5821 18.0352 42.6963 17.9876 42.818L16.3935 46.8583C16.3123 47.0719 16.2064 47.2014 15.9702 47.2328V47.4367H15.9711ZM22.9384 43.3948C22.9468 43.1679 22.9617 42.9394 22.9617 42.6154C22.9617 42.362 22.9054 42.3302 22.5966 42.2888V42.0772C22.84 42.1014 23.1332 42.1257 23.4268 42.1257C23.7191 42.1257 24.0123 42.1014 24.3046 42.0772L25.7277 45.847L27.003 42.0772C27.2891 42.1014 27.5655 42.1257 27.85 42.1257C28.1339 42.1257 28.4187 42.1014 28.6951 42.0772V42.2888C28.4112 42.3131 28.3698 42.4031 28.3698 42.6225C28.3698 42.851 28.4022 43.2164 28.4261 43.4919L28.6876 46.9645C28.7038 47.1762 28.9388 47.2076 29.1019 47.2319V47.4361C28.7514 47.4118 28.3947 47.3875 28.0448 47.3875C27.6869 47.3875 27.3376 47.4118 27.0027 47.4361V47.2319C27.4021 47.1833 27.5079 47.1102 27.5079 46.7369C27.5079 46.5405 27.4827 46.1751 27.4593 45.9071L27.2716 43.4844H27.2558L25.898 47.4812H25.215L23.6615 43.4359H23.6444L23.5799 45.8171C23.5724 46.2408 23.5553 46.4602 23.5553 46.6794C23.5553 47.0862 23.5958 47.1761 24.0842 47.2319V47.4361C23.7589 47.4118 23.4579 47.3875 23.1488 47.3875C22.849 47.3875 22.5471 47.4118 22.2953 47.4361V47.2319C22.6128 47.2076 22.7429 47.1348 22.7591 46.7936L22.9384 43.3948ZM8.58209 47.1388C8.02554 47.5662 7.22743 47.7371 6.70635 47.7371C4.76774 47.7371 3.67236 46.2336 3.67236 44.6919C3.67236 43.1156 4.76774 41.59 6.86853 41.5925C7.60407 41.5925 8.13168 41.7323 8.33837 41.8132C8.33837 42.4295 8.37136 43.0238 8.41712 43.6121H8.1818C8.03861 42.8606 7.5138 42.4619 6.75989 42.4619C5.73767 42.4619 4.94765 43.2675 4.94765 44.6281C4.94765 45.6531 5.79059 46.8132 6.97592 46.8132C7.47832 46.8132 8.20078 46.5377 8.68606 46.1293L8.58209 47.1388ZM17.3849 50.3767C17.3849 50.2011 17.309 50.1183 17.0964 50.1127V49.94C17.3728 49.9605 17.6171 49.9776 17.8487 49.9776C18.113 49.9776 18.4965 49.9605 18.678 49.94V50.1127C18.3577 50.1255 18.3138 50.283 18.3138 50.4573V53.5324H19.4745C19.8894 53.5324 20.0591 53.3434 20.1652 52.8653H20.3694C20.2935 53.2737 20.2244 53.6768 20.2178 54.0855H17.0964V53.9128C17.309 53.9071 17.3849 53.8247 17.3849 53.6482V50.3767ZM21.3801 50.3972C21.3801 50.2217 21.3042 50.1389 21.0916 50.1333V49.9624H24.2629C24.2664 50.2841 24.283 50.6056 24.3127 50.9261H24.1408C24.0783 50.5809 23.9905 50.461 23.6518 50.461H22.3084V51.675H23.1432C23.4249 51.675 23.4691 51.5794 23.5065 51.3547H23.678C23.6556 51.5534 23.643 51.753 23.6403 51.953C23.6403 52.1214 23.659 52.3968 23.678 52.5487H23.5065C23.4688 52.3218 23.4249 52.2284 23.1432 52.2284H22.3084V53.5324H23.7203C24.0596 53.5324 24.1654 53.4181 24.2728 52.8915H24.482C24.4372 53.288 24.4122 53.6865 24.407 54.0855H21.0916V53.9128C21.3042 53.9071 21.3801 53.8247 21.3801 53.6482V50.3972ZM25.235 53.9149C25.4164 53.8888 25.4983 53.7892 25.5612 53.6261L26.7923 50.5158C26.8299 50.4196 26.8738 50.334 26.8738 50.2721C26.8738 50.2083 26.8041 50.1074 26.6348 50.1074V49.9365C26.8352 49.9555 27.0304 49.9742 27.2249 49.9742C27.4198 49.9742 27.6203 49.9552 27.8154 49.9365L28.9703 53.5084C29.0652 53.782 29.1586 53.8648 29.3469 53.9152V54.0861C29.0826 54.0671 28.8137 54.0485 28.5497 54.0485C28.2799 54.0485 28.01 54.0675 27.7401 54.0861V53.9152C27.9726 53.8701 28.0539 53.8197 28.0539 53.6774C28.0539 53.5893 28.0221 53.4446 27.991 53.3643L27.7899 52.757H26.566L26.2896 53.495C26.2578 53.5812 26.2388 53.6507 26.2388 53.7145C26.2388 53.825 26.3269 53.9019 26.5339 53.9152V54.0861C26.3204 54.0671 26.1012 54.0485 25.8874 54.0485C25.667 54.0485 25.4547 54.0675 25.2343 54.0861V53.9149H25.235ZM27.6389 52.2807C27.5079 51.8739 27.4002 51.4733 27.2744 50.8398H27.2623C27.1182 51.3401 26.9168 51.8369 26.7537 52.2807H27.6389ZM32.7052 52.6163C32.7052 52.3651 32.5916 52.3536 32.3099 52.3483V52.1366C32.567 52.1572 32.8248 52.1761 33.0881 52.1761C33.3714 52.1761 33.6475 52.1572 33.9295 52.1366V52.3349C33.7094 52.3411 33.597 52.3968 33.597 52.6801V54.0858H33.2322L33.0881 53.664C32.6928 54.0348 32.2775 54.1661 31.8514 54.1661C30.6707 54.1661 29.9175 53.1934 29.9175 52.0638C29.9175 50.7013 30.8283 49.8765 32.1842 49.8765C32.6178 49.8765 33.0847 49.9574 33.4221 50.1687C33.4221 50.4763 33.4349 50.8308 33.4604 51.2632H33.2792C33.1983 50.7051 32.6676 50.4296 32.1471 50.4296C31.2734 50.4296 30.8472 51.0966 30.8472 51.9063C30.8472 52.6857 31.2868 53.5641 32.0145 53.5641C32.4609 53.5641 32.7052 53.3568 32.7052 53.0679V52.6163ZM35.192 50.3767C35.192 50.2011 35.1161 50.1183 34.9038 50.1127V49.94C35.1433 49.9644 35.3839 49.977 35.6247 49.9776C35.9518 49.9776 36.2096 49.9605 36.4608 49.94V50.1127C36.1896 50.1255 36.1215 50.1747 36.1215 50.4196V52.7657C36.1215 53.4763 36.4169 53.6127 36.9252 53.6127C37.4335 53.6127 37.7289 53.4633 37.7289 52.7657V50.4196C37.7289 50.1747 37.6601 50.1255 37.389 50.1127V49.94C37.6414 49.9605 37.8979 49.9776 38.2251 49.9776C38.4884 49.9776 38.7461 49.9605 38.9466 49.94V50.1127C38.7337 50.1183 38.6577 50.2008 38.6577 50.3767V52.6353C38.6577 53.797 38.0551 54.1661 36.9252 54.1661C35.7943 54.1661 35.192 53.797 35.192 52.7234V50.3767ZM40.2751 50.3972C40.2751 50.2217 40.201 50.1389 39.9869 50.1333V49.9624H43.1591C43.1656 50.3069 43.1774 50.5868 43.2083 50.9261H43.0367C42.9742 50.5809 42.8861 50.461 42.5468 50.461H41.2055V51.6569H42.0391C42.3211 51.6569 42.3656 51.5626 42.4039 51.3366H42.5742C42.5524 51.5345 42.5399 51.7334 42.5365 51.9324C42.5365 52.1027 42.5564 52.3782 42.5742 52.5301H42.4039C42.3656 52.3031 42.3211 52.2098 42.0391 52.2098H41.2055V53.5327H42.6159C42.9552 53.5327 43.0623 53.4184 43.169 52.8918H43.3776C43.3326 53.2883 43.3074 53.6868 43.3023 54.0858H39.9866V53.9131C40.2007 53.9075 40.2748 53.825 40.2748 53.6485L40.2751 50.3972ZM24.1825 40.588C25.5637 39.0061 27.5947 38.0073 29.8608 38.0073C32.1891 38.0073 34.2719 39.064 35.6552 40.7244L36.0206 40.3813C34.5477 38.6298 32.3395 37.5186 29.8711 37.5186C27.4668 37.5186 25.3103 38.5735 23.838 40.2487L24.1825 40.588ZM29.2171 36.5925L27.0114 37.0513L26.4558 34.3793L28.6313 33.9277L28.7334 34.4164L27.3037 34.7143L27.4198 35.2749L28.7841 34.9904L28.8859 35.4809L27.5213 35.7639L27.6551 36.407L29.115 36.1029L29.2171 36.5925ZM33.4258 34.8684L32.1101 34.591L31.9856 35.1849L33.3001 35.4641L33.1971 35.9535L31.8829 35.6743L31.6513 36.7724L30.9058 36.6131L31.4682 33.9448L33.5298 34.3793L33.4258 34.8684ZM36.6061 39.4351L35.9518 38.8169L36.0552 38.2301L34.9324 37.4501L34.4356 37.7632L33.6926 37.3474L36.3434 35.7679L37.0681 36.27L36.6061 39.4351ZM36.3811 36.5175L35.3791 37.1484L36.175 37.7016L36.3811 36.5175ZM24.4835 38.3409C23.9945 38.7288 23.1653 39.0457 22.5589 38.3332L21.683 37.211L22.2685 36.7485L23.1276 37.8519C23.4377 38.2174 23.8277 38.1461 24.1383 37.9024C24.4484 37.6592 24.6077 37.2951 24.3251 36.9078L23.4647 35.8056L24.0503 35.3449L24.9265 36.4671C25.4494 37.1846 25.1254 37.8308 24.4835 38.3409Z" fill="black"/>
<path fill-rule="evenodd" clip-rule="evenodd" d="M39.2913 36.7705C36.9403 34.2987 33.6196 32.7563 29.9394 32.7563C26.215 32.7563 22.8586 34.3345 20.5041 36.8583L20.106 36.4539C22.5793 33.8641 26.0665 32.2505 29.9307 32.2505C33.7641 32.2505 37.2251 33.8395 39.6948 36.392L39.2913 36.7705ZM44.4212 56.1672C44.287 56.1676 44.1542 56.1415 44.0302 56.0904C43.9062 56.0393 43.7935 55.9643 43.6985 55.8696C43.6035 55.7749 43.5281 55.6624 43.4767 55.5386C43.4252 55.4147 43.3987 55.2819 43.3986 55.1478C43.3994 54.877 43.5074 54.6175 43.699 54.426C43.8906 54.2346 44.1503 54.1269 44.4212 54.1265V54.2243C44.1769 54.2252 43.943 54.3229 43.7706 54.496C43.5983 54.6692 43.5017 54.9036 43.502 55.1478C43.5011 55.3925 43.5975 55.6275 43.7699 55.8011C43.9422 55.9748 44.1765 56.0729 44.4212 56.0739V56.1672Z" fill="black"/>
<path fill-rule="evenodd" clip-rule="evenodd" d="M44.0005 54.5387H44.4126C44.5701 54.5387 44.6619 54.5611 44.7398 54.6215C44.7769 54.6494 44.8071 54.6856 44.8279 54.7272C44.8487 54.7688 44.8595 54.8147 44.8596 54.8612C44.8596 55.0041 44.7569 55.1164 44.5916 55.15C44.6725 55.1743 44.709 55.1952 44.7435 55.2363C44.7868 55.2886 44.8054 55.3433 44.8378 55.5136L44.8562 55.6054C44.8683 55.673 44.8721 55.6845 44.8951 55.7234H44.7721C44.7472 55.6711 44.7416 55.6506 44.7276 55.5703C44.6844 55.3265 44.6791 55.3094 44.6187 55.2518C44.572 55.2067 44.5082 55.1918 44.3731 55.1918H44.1135V55.7237H44.0005V54.5387ZM44.4164 55.0993C44.6187 55.0993 44.7416 55.0093 44.7416 54.8609C44.7416 54.7052 44.6224 54.6231 44.3971 54.6231H44.1119V55.099L44.4164 55.0993Z" fill="black"/>
<path fill-rule="evenodd" clip-rule="evenodd" d="M44.4214 56.1673C44.986 56.1673 45.4464 55.7138 45.4464 55.1479C45.4464 54.582 44.986 54.1266 44.4214 54.1266V54.2243C44.9285 54.2243 45.3362 54.6377 45.3393 55.1479C45.3393 55.6609 44.9285 56.0739 44.4214 56.0739V56.1673Z" fill="black"/>
</svg>
