<svg width="74" height="31" viewBox="0 0 74 31" fill="none" xmlns="http://www.w3.org/2000/svg">
<g clip-path="url(#clip0_63_7205)">
<path d="M56.6641 20.6791L56.8648 19.8208H58.4921V26.2835C58.4921 27.5456 58.1419 28.429 57.3156 29.0853C56.6901 29.5649 55.8381 29.918 54.8121 29.918C53.4098 29.918 52.4084 29.4384 51.6075 28.6559L52.6342 27.2169C53.1349 27.6966 53.8107 28.1259 54.6869 28.1259C56.0639 28.1259 56.6644 27.4442 56.6644 26.4345V25.9548C56.1141 26.5355 55.4633 26.7624 54.7372 26.7624C52.8343 26.7624 51.3321 25.1972 51.3321 23.2033C51.3321 21.234 52.8845 19.7198 54.7871 19.7198C55.5632 19.7201 56.2639 20.0984 56.6641 20.6791ZM55.0125 21.4116C54.0364 21.4116 53.2597 22.1685 53.2597 23.2033C53.2597 24.1879 54.0364 24.9703 55.0125 24.9703C55.9886 24.9703 56.7646 24.1879 56.7646 23.2033C56.7646 22.1685 55.9886 21.4116 55.0125 21.4116ZM44.4222 10.1781C43.6458 10.1781 42.9946 10.6326 42.8448 11.3647H45.9489C45.7991 10.6578 45.1736 10.1781 44.4222 10.1781ZM44.5224 15.6559C42.4447 15.6559 40.9172 14.2172 40.9172 12.122C40.9172 10.2285 42.2942 8.53738 44.4724 8.53738C46.0997 8.53738 47.7773 9.77395 47.7773 12.0713C47.7773 12.2478 47.7773 12.4754 47.7274 12.7275H42.8202C42.9949 13.4848 43.6715 13.9903 44.4974 13.9903C45.2485 13.9903 45.8244 13.7124 46.3001 13.2072L47.4267 14.3682C46.701 15.2014 45.6493 15.6559 44.5224 15.6559ZM65.3269 10.1781C64.5509 10.1781 63.9004 10.6326 63.7495 11.3647H66.854C66.7042 10.6578 66.0779 10.1781 65.3269 10.1781ZM65.4274 15.6559C63.3497 15.6559 61.8223 14.2172 61.8223 12.122C61.8223 10.2285 63.1992 8.53738 65.3775 8.53738C67.0048 8.53738 68.6824 9.77395 68.6824 12.0713C68.6824 12.2478 68.6824 12.4754 68.6325 12.7275H63.7249C63.9007 13.4848 64.5765 13.9903 65.4025 13.9903C66.1532 13.9903 66.7291 13.7124 67.2052 13.2072L68.3315 14.3682C67.6054 15.2014 66.5537 15.6559 65.4274 15.6559ZM70.1089 21.285C69.3329 21.285 68.682 21.7395 68.5319 22.4716H71.6363C71.4858 21.7647 70.8599 21.285 70.1089 21.285ZM70.2091 26.7624C68.1307 26.7624 66.604 25.3238 66.604 23.2285C66.604 21.335 67.9809 19.6439 70.1592 19.6439C71.7864 19.6439 73.4644 20.8805 73.4644 23.1778C73.4644 23.3544 73.4644 23.582 73.4134 23.834H68.5069C68.682 24.5913 69.3582 25.0961 70.1841 25.0961C70.9352 25.0961 71.5111 24.8185 71.9869 24.3137L73.1131 25.4748C72.387 26.3083 71.336 26.7624 70.2091 26.7624ZM39.4148 21.285C38.6384 21.285 37.9879 21.7395 37.8374 22.4716H40.9418C40.792 21.7647 40.1662 21.285 39.4148 21.285ZM39.515 26.7624C37.4373 26.7624 35.9098 25.3238 35.9098 23.2285C35.9098 21.335 37.2864 19.6439 39.4643 19.6439C41.092 19.6439 42.7695 20.8805 42.7695 23.1778C42.7695 23.3544 42.7695 23.582 42.7196 23.834H37.8121C37.9875 24.5913 38.6641 25.0961 39.49 25.0961C40.2407 25.0961 40.8163 24.8185 41.2928 24.3137L42.419 25.4748C41.6932 26.3083 40.6419 26.7624 39.515 26.7624ZM29.2256 26.5859V16.5645H31.2031V24.6927H35.5093V26.5859H29.2256ZM36.7611 15.4793V8.71393H38.3634L38.5642 9.69844C38.8641 9.06703 39.4647 8.63842 40.2664 8.63842C40.4415 8.63842 40.6166 8.66323 40.7921 8.71393V10.506C40.5663 10.4557 40.367 10.4302 40.1412 10.4302C39.24 10.4302 38.6141 10.9857 38.6141 12.0709V15.479L36.7611 15.4793ZM69.4081 15.4793V8.71393H71.0101L71.2105 9.69844C71.5111 9.06703 72.1117 8.63842 72.913 8.63842C73.0885 8.63842 73.2632 8.66323 73.4391 8.71393V10.506C73.2133 10.4557 73.0136 10.4302 72.7879 10.4302C71.8867 10.4302 71.2611 10.9857 71.2611 12.0709V15.479L69.4081 15.4793ZM56.4644 11.4906C56.4644 10.7585 56.0639 10.304 55.4376 10.304C54.7119 10.304 54.3364 10.7585 54.3364 11.5161V15.479H52.4837V11.4906C52.4837 10.7585 52.0832 10.304 51.4573 10.304C50.7312 10.304 50.3557 10.7585 50.3557 11.5161V15.479H48.503V8.71393H50.1303L50.3311 9.5974C50.3311 9.5974 50.7316 8.53738 51.9833 8.53738C52.7601 8.53738 53.4106 8.86531 53.8613 9.54742L53.9116 9.62293L53.9619 9.54742C54.6131 8.61325 55.4141 8.53738 55.9148 8.53738C57.3417 8.53738 58.3181 9.62293 58.3181 11.1626V15.4793H56.4654V11.4906H56.4644ZM60.1947 7.80564C59.5438 7.80564 59.0431 7.30044 59.0431 6.66939C59.0431 6.01316 59.5438 5.50832 60.1947 5.50832C60.8455 5.50832 61.3462 6.0128 61.3462 6.66939C61.3462 7.30008 60.8455 7.80564 60.1947 7.80564ZM59.2435 8.71393H61.0959V15.4786H59.2435V8.71393ZM47.1008 21.4116C46.099 21.4116 45.3487 22.1685 45.3487 23.2033C45.3487 24.1879 46.099 24.9703 47.1008 24.9703C48.0772 24.9703 48.8283 24.1879 48.8283 23.2033C48.8283 22.1685 48.0772 21.4116 47.1008 21.4116ZM46.7252 26.7624C44.9478 26.7624 43.3958 25.1217 43.3958 23.2033C43.3958 21.3102 44.9478 19.7198 46.7252 19.7198C47.727 19.7198 48.4025 20.0729 48.8033 20.7039L49.0037 19.8205H50.631V26.5855H49.0037L48.8033 25.7268C48.4025 26.3334 47.6518 26.7624 46.7252 26.7624ZM62.6732 26.7624C61.1961 26.7624 59.394 25.9548 59.394 23.4306V19.8205H61.246V23.304C61.246 24.4651 61.7724 24.9699 62.6732 24.9699C63.4992 24.9699 64.1004 24.3896 64.1004 23.304V19.8205H65.9531V23.4306C65.9531 25.9548 64.1254 26.7624 62.6732 26.7624ZM31.2031 10.2036H32.355C33.3567 10.2036 34.0825 9.64846 34.0825 8.63842C34.0825 7.62801 33.3567 7.09836 32.355 7.09836H31.2031V10.2036ZM29.2256 15.4793V5.2052H32.4548C34.5579 5.2052 36.1352 6.46731 36.1352 8.63842C36.1352 10.8343 34.5828 12.122 32.4548 12.122H31.2031V15.4793H29.2256Z" fill="black"/>
<path d="M22.1418 14.184C21.4697 14.7393 20.8999 15.0489 20.8999 15.0489L20.9077 16.8091C21.3881 17.3364 21.8621 17.7733 22.2169 18.5694C22.8903 17.3772 22.7608 15.6246 22.1418 14.184ZM21.5953 19.9463C21.5953 19.9463 21.458 19.2203 20.874 18.5426L19.5415 18.5745C19.5415 18.5745 17.7454 20.0928 16.6499 20.1284C16.6499 20.1284 17.2533 21.2327 17.5589 21.8097C18.1611 21.6798 19.2217 21.2123 19.649 20.7232C19.649 20.7232 19.9313 21.6187 19.8782 22.6758C20.4778 22.3345 21.3039 21.4072 21.5953 19.9463ZM19.8782 16.7671L19.8757 15.0132C19.8757 15.0132 19.0793 14.7623 18.2298 14.114C16.5231 14.3674 14.4563 16.0564 14.4563 16.0564C14.4563 16.0564 15.1543 17.3594 15.9183 18.7656C17.2612 18.9502 19.2398 17.2817 19.8782 16.7671ZM24.4301 24.0705L23.3319 22.8745C23.0186 26.1072 21.4089 28.8521 18.4526 30.7664L18.0006 29.0227C15.491 30.8059 11.184 31.9624 7.4843 29.9041C7.94401 27.5987 8.35192 25.2627 7.47653 22.4657C5.42791 25.5863 3.61497 26.809 3.61497 26.809C2.23067 24.5227 2.35499 19.9361 2.76808 18.586L0.464355 19.2878C0.464355 17.7466 1.59226 14.477 3.22649 12.6403L1.7878 12.4136H1.78637C2.76406 10.4482 4.22347 8.75421 6.00921 7.48178L6.01171 7.48034C5.4756 8.31334 5.46783 10.3691 7.03861 11.1512C6.37171 10.001 6.29142 8.57955 6.9881 7.84334C7.68479 7.10077 8.85672 7.35552 9.6052 7.93123C9.38247 7.28928 8.72981 6.48175 7.75213 6.42698H7.7507C9.5973 5.49208 11.6938 4.96604 13.9121 4.96604C14.3265 4.96604 14.7396 4.98387 15.1436 5.01954C15.7885 5.27428 16.7351 6.16842 17.1767 6.72503C17.1767 6.72503 17.2077 6.06907 16.8374 5.27682C19.2395 5.85254 20.3856 6.81419 20.866 7.27782C20.9644 8.29933 21.2752 8.91199 21.6857 9.88255C20.9074 9.02534 18.952 7.6421 18.0184 7.31094C18.0184 7.31094 17.942 8.19617 17.6208 8.62158C15.7613 7.30202 14.8483 6.96958 14.8483 6.96958C12.8075 7.25744 11.4944 8.03185 10.7809 8.64069L11.4025 9.16163C10.1723 9.53356 9.37327 10.5729 9.37327 10.5729C9.38233 10.592 10.4727 10.7449 10.4727 10.7449C10.4727 10.7449 10.3613 12.0045 11.9645 12.7942C13.3384 13.4706 15.3132 12.6312 17.1728 13.3649C15.9503 11.9765 15.1047 11.3562 15.1047 11.3562C15.1047 11.3562 14.6191 11.2569 14.2773 11.2594C13.8499 11.2619 13.2128 11.3448 12.5148 11.0773C12.1807 10.9486 11.791 10.7219 11.4853 10.5334C11.4853 10.5334 12.3439 9.66602 13.5987 9.47496C13.5987 9.47496 14.7305 9.7883 15.6266 10.4404C16.2223 9.86982 16.8439 9.88765 16.8439 9.88765C16.8439 9.88765 16.2275 10.4532 16.4139 11.1384C17.3087 11.923 18.28 13.0464 18.28 13.0464C19.2693 12.514 21.4202 12.6363 21.8618 13.1407C21.3024 12.4262 20.4956 11.8301 19.8715 11.3206C19.7951 11.0531 19.1139 10.1207 18.9987 10.0341C18.9987 10.0341 19.6461 10.2303 20.225 10.741C20.3907 10.5079 20.7015 10.271 21.125 10.1666C21.5601 10.5258 21.6378 11.0773 21.6261 11.169C21.4306 11.3995 21.2363 11.4938 21.2363 11.4938L22.2852 12.6108L22.3901 11.8097C24.8065 15.2041 26.1235 19.1322 24.4297 24.0704M5.34727 2.58817C6.74064 3.21611 7.63545 4.00836 7.79861 4.12936C7.7248 3.77527 7.45027 2.07105 7.29228 1.0126C8.10422 1.56666 9.98838 2.85311 10.6087 3.27088C10.8612 2.50538 11.7366 0.00509481 11.7366 0.00509481C11.7366 0.00509481 13.319 2.52449 13.5896 2.93335C13.9199 2.59327 15.8105 0.523494 16.3 0C16.3816 1.19092 16.4929 2.89386 16.5214 3.14988C16.6159 3.02378 17.3398 2.0252 18.5532 1.10558C18.0274 2.12454 17.7762 3.53072 17.6649 4.6605C16.4709 4.33315 15.2109 4.15738 13.9134 4.15738C11.4206 4.15738 9.07932 4.80188 7.05531 5.93421C6.68754 4.84264 6.11129 3.48486 5.34727 2.58817Z" fill="black"/>
</g>
<defs>
<clipPath id="clip0_63_7205">
<rect width="73" height="31" fill="white" transform="translate(0.464355)"/>
</clipPath>
</defs>
</svg>
