<svg width="53" height="51" viewBox="0 0 53 51" fill="none" xmlns="http://www.w3.org/2000/svg">
<g clip-path="url(#clip0_63_7149)">
<path d="M16.4005 14.8671C16.4005 11.6596 17.9455 8.81265 20.3192 7.04764L19.6899 4.87134C16.4378 6.978 14.2822 10.6663 14.2822 14.8671C14.2822 19.3145 16.6995 23.1863 20.2693 25.2107L20.9982 23.1483C18.2445 21.4528 16.4005 18.3719 16.4005 14.8671ZM32.1875 4.87766L31.5582 7.05392C33.9319 8.81898 35.477 11.6659 35.477 14.8734C35.477 18.3782 33.6329 21.4528 30.8792 23.1546L31.6081 25.217C35.1779 23.1926 37.5952 19.3208 37.5952 14.8734C37.5952 10.6663 35.4333 6.978 32.1875 4.87766Z" fill="black"/>
<path d="M23.8051 23.4266H22.3348L24.6026 16.9927L20.335 2.24587L25.5184 0V15.6262L23.8051 23.4266Z" fill="black"/>
<path d="M27.138 16.9927L29.4058 23.4266H27.9354L26.2222 15.6262V0L31.4056 2.24587L27.138 16.9927Z" fill="black"/>
<path d="M21.1758 26.7228L21.9545 24.5022H29.792L30.5708 26.7228H21.1758Z" fill="black"/>
<path d="M25.8735 17.1509L27.2503 23.4266H24.4966L25.8735 17.1509Z" fill="black"/>
<path d="M9.68122 42.893H12.4163V41.5518H9.68122V40.3308H12.653V38.9896H8.21094V45.5121H12.7215V44.1709H9.68122V42.893Z" fill="black"/>
<path fill-rule="evenodd" clip-rule="evenodd" d="M28.5961 45.6576C30.4838 45.6576 31.7049 44.3607 31.7049 42.2477C31.7049 40.1347 30.4838 38.8378 28.5961 38.8378C26.7084 38.8378 25.4873 40.1347 25.4873 42.2477C25.4873 44.3607 26.7084 45.6576 28.5961 45.6576ZM28.5961 40.1853C29.5119 40.1853 30.2346 40.8559 30.2346 42.2541C30.2346 43.6522 29.5119 44.3228 28.5961 44.3228C27.6803 44.3228 26.9576 43.6522 26.9576 42.2541C26.9514 40.8559 27.6803 40.1853 28.5961 40.1853Z" fill="black"/>
<path fill-rule="evenodd" clip-rule="evenodd" d="M32.583 45.5121H34.0471V43.3105H35.0938C36.3585 43.3105 37.3989 42.564 37.3989 41.1469C37.3989 39.7298 36.3647 38.9833 35.0938 38.9833H32.583V45.5121ZM34.0409 40.3308H35.0128C35.6669 40.3308 35.9224 40.6724 35.9224 41.1532C35.9224 41.6277 35.6669 41.9756 35.0128 41.9756H34.0409V40.3308Z" fill="black"/>
<path d="M18.9956 38.9896H17.5253V42.8677C17.5253 43.7407 17.083 44.2848 16.2793 44.2848C15.4694 44.2848 15.0333 43.747 15.0333 42.8677V38.9896H13.563V42.9499C13.563 44.7656 14.8028 45.626 16.2793 45.626C17.7559 45.626 18.9956 44.7592 18.9956 42.9499V38.9896Z" fill="black"/>
<path d="M16.3975 47.0494H15.5439V50.8642H18.1792V50.0798H16.3975V47.0494Z" fill="black"/>
<path d="M35.7359 49.3332V48.5488H34.141V47.8339H35.8792V47.0494H33.2812V50.8642H35.9165V50.0798H34.1348V49.3332H35.7359Z" fill="black"/>
<path d="M31.9416 49.3142C31.9416 49.8267 31.6862 50.143 31.2127 50.143C30.7392 50.143 30.4838 49.8267 30.4838 49.3142V47.0494H29.624V49.3649C29.624 50.4277 30.3467 50.9275 31.2127 50.9275C32.0787 50.9275 32.8014 50.4214 32.8014 49.3649V47.0494H31.9416V49.3142Z" fill="black"/>
<path d="M28.4279 49.4977V49.7698C28.2411 49.9849 27.942 50.143 27.5682 50.143C26.9202 50.143 26.4281 49.7571 26.4281 48.9537C26.4281 48.1502 26.9576 47.7643 27.4685 47.7643C27.9357 47.7643 28.2348 47.992 28.3594 48.4159L29.1818 48.1692C28.9886 47.4543 28.4404 46.9735 27.481 46.9735C26.453 46.9735 25.5684 47.7263 25.5684 48.9473C25.5684 50.1683 26.4405 50.9211 27.4872 50.9211C28.3034 50.9211 28.808 50.5922 29.2192 50.0798V48.8018H27.2629V49.4977H28.4279Z" fill="black"/>
<path fill-rule="evenodd" clip-rule="evenodd" d="M40.9254 38.9896H39.3679L36.7637 45.5121H38.4271L38.8944 44.2721H41.4051L41.8724 45.5121H43.5358L40.9254 38.9896ZM39.3928 42.9309L40.1466 40.9255L40.9005 42.9309H39.3928Z" fill="black"/>
<path fill-rule="evenodd" clip-rule="evenodd" d="M23.1445 47.0494L21.6182 50.8642H22.59L22.8642 50.143H24.3345L24.6086 50.8642H25.5805L24.0604 47.0494H23.1445ZM23.157 49.3522L23.5993 48.1819L24.0417 49.3522H23.157Z" fill="black"/>
<path d="M19.4442 49.3332H21.0454V48.5488H19.4442V47.8339H21.1824V47.0494H18.5845V50.8642H21.2261V50.0798H19.4442V49.3332Z" fill="black"/>
<path fill-rule="evenodd" clip-rule="evenodd" d="M23.4625 45.5121H25.1135L23.6806 42.893C24.3347 42.5197 24.7895 41.9314 24.7895 41.0773C24.7895 39.7993 23.774 38.9896 22.4657 38.9896H19.9238V45.5121H21.3942V43.165H22.1854L23.4625 45.5121ZM21.3942 40.3308H22.4969C23.1012 40.3308 23.3317 40.6471 23.3317 41.0773C23.3317 41.5075 23.1012 41.8238 22.4969 41.8238H21.3942V40.3308Z" fill="black"/>
<path d="M20.6837 34.9913C20.5404 35.1115 20.366 35.1685 20.2164 35.1495C20.0295 35.1305 19.9111 35.0483 19.7243 34.8142L18.634 33.454L18.0483 33.9412L19.2321 35.4215C19.4813 35.7378 19.7741 35.9023 20.1105 35.934C20.1479 35.9403 20.1915 35.9403 20.2289 35.9403C20.5591 35.9403 20.8643 35.8264 21.1572 35.586C21.4873 35.314 21.668 34.9976 21.7116 34.6181C21.749 34.2764 21.6493 33.9538 21.3939 33.6438L20.2102 32.1635L19.6246 32.6506L20.7148 34.0108C20.9017 34.2448 20.9578 34.3777 20.9391 34.5738C20.9204 34.713 20.827 34.8648 20.6837 34.9913Z" fill="black"/>
<path d="M25.8737 35.2823C27.9296 35.2823 29.8298 36.2502 30.945 37.661L31.3375 37.1739C30.1101 35.6809 28.0978 34.6749 25.8799 34.6749C23.662 34.6749 21.6497 35.6809 20.4224 37.1739L20.8149 37.661C21.9176 36.2502 23.8115 35.2823 25.8737 35.2823Z" fill="black"/>
<path d="M18.0797 32.8467C20.2166 30.9741 22.9828 29.9429 25.8736 29.9429C28.7643 29.9429 31.5305 30.9741 33.6674 32.8467C33.8917 33.0428 34.1035 33.2453 34.3029 33.4541L34.7078 32.9479C34.5084 32.7455 34.3029 32.5494 34.0848 32.3596C31.8357 30.3857 28.9201 29.304 25.8798 29.304C22.8395 29.304 19.9238 30.3921 17.6748 32.3596C17.4567 32.5494 17.2511 32.7455 17.0518 32.9479L17.4567 33.4541C17.6436 33.2453 17.8616 33.0428 18.0797 32.8467Z" fill="black"/>
<path d="M32.7455 33.3971C32.7829 33.2896 32.8078 33.1251 32.6271 32.9796L32.5087 32.891C32.3281 32.7518 32.1848 32.8088 32.0789 32.8783L29.375 34.6561L30.079 35.061L31.8047 33.9285L31.5057 34.9471L31.244 34.7447L30.7892 35.0736L31.3499 35.4975L31.2191 35.9529L31.8359 36.5287L32.7455 33.3971Z" fill="black"/>
<path d="M24.6961 30.7084L22.7959 31.1006C22.7087 31.1196 22.6402 31.1639 22.5966 31.2272C22.553 31.2904 22.5405 31.3727 22.5592 31.4612L22.9392 33.3591C23.0015 33.6691 23.1386 33.8905 23.3442 34.0171C23.4812 34.1057 23.6432 34.1436 23.8364 34.1436C23.9298 34.1436 24.0357 34.1309 24.1416 34.1119L25.3316 33.8653L25.1883 33.1504L24.0357 33.3907C23.799 33.4414 23.7242 33.4161 23.6682 33.1441L23.6245 32.9416L24.964 32.6633L24.8207 31.9546L23.4812 32.233L23.3815 31.7269L24.8394 31.4233L24.6961 30.7084Z" fill="black"/>
<path d="M28.3906 31.7459L29.5306 32.0432L29.7113 31.341L28.5401 31.031C27.8984 30.8602 27.4561 31.1069 27.3003 31.7206L26.8206 33.5932C26.7957 33.6818 26.8081 33.764 26.8455 33.8273C26.8829 33.8969 26.9514 33.9412 27.0386 33.9664L27.4747 34.0803L27.78 32.8657L29.1008 33.2136L29.2814 32.5177L27.9607 32.1698L28.0105 31.9673C28.0791 31.7016 28.1538 31.6826 28.3906 31.7459Z" fill="black"/>
<path d="M37.1311 47.2329V48.1882H37.3242V47.2329H37.6669V47.0558H36.7822V47.2329H37.1311Z" fill="black"/>
<path d="M38.7014 47.0494L38.3587 47.9604L38.016 47.0494H37.8042V48.1881H38.0036V47.5049L38.259 48.1881H38.4521L38.7076 47.5049V48.1881H38.9069V47.0494H38.7014Z" fill="black"/>
</g>
<defs>
<clipPath id="clip0_63_7149">
<rect width="52" height="51" fill="white" transform="translate(0.106934)"/>
</clipPath>
</defs>
</svg>
